<svg xmlns="http://www.w3.org/2000/svg" viewBox="0 0 129.46 71.07"><defs><style>.cls-1{fill:#151828;}</style></defs><title>Asset 1</title><g id="Layer_2" data-name="Layer 2"><g id="Layer_4" data-name="Layer 4"><path class="cls-1" d="M56.79,0H60.1V13H68v2.84H56.79Z"/><path class="cls-1" d="M81.94,2.8H73.56V6.17h7.69V8.92H73.56V13h8.77v2.84h-12V0H81.94Z"/><path class="cls-1" d="M89.43,0h3.75l5.6,15.83H95.19l-1-3.25H88.31l-1.07,3.25H83.78Zm-.22,9.85h4.06l-2-6.23Z"/><path class="cls-1" d="M110.94.41a3.94,3.94,0,0,1,1.48,1.1,5.07,5.07,0,0,1,.8,1.34,4.51,4.51,0,0,1,.29,1.66,4.76,4.76,0,0,1-.57,2.22,3.18,3.18,0,0,1-1.88,1.54,3,3,0,0,1,1.55,1.25,5.15,5.15,0,0,1,.46,2.48v1.06a7.65,7.65,0,0,0,.09,1.47,1.32,1.32,0,0,0,.61.91v.39h-3.65a7.66,7.66,0,0,1-.22-.84,7.76,7.76,0,0,1-.14-1.37l0-1.47a3,3,0,0,0-.52-2,2.67,2.67,0,0,0-1.89-.51H104.1v6.21h-3.23V0h7.57A6.92,6.92,0,0,1,110.94.41ZM104.1,2.75V7h3.56a3.81,3.81,0,0,0,1.59-.25A1.78,1.78,0,0,0,110.19,5,2,2,0,0,0,109.28,3a3.23,3.23,0,0,0-1.53-.28Z"/><path class="cls-1" d="M116.63,0h3.46l6.29,11V0h3.08V15.83h-3.31L119.71,4.6V15.83h-3.08Z"/><path class="cls-1" d="M60.08,34H56.79V18.16h3.29Z"/><path class="cls-1" d="M63.13,18.16H66.6l6.3,11.05v-11H76V34H72.67L66.22,22.76V34H63.13Z"/><path class="cls-1" d="M89.75,23.1a3.08,3.08,0,0,0-1.84-2.26,4.43,4.43,0,0,0-1.81-.36A4,4,0,0,0,83,21.92a6.58,6.58,0,0,0-1.23,4.35c0,1.94.44,3.32,1.33,4.13a4.37,4.37,0,0,0,3,1.21,3.92,3.92,0,0,0,2.74-.95,4.17,4.17,0,0,0,1.31-2.51H86.46V25.5h6.61V34h-2.2l-.33-2a7.71,7.71,0,0,1-1.72,1.59,6.14,6.14,0,0,1-3.23.8,6.71,6.71,0,0,1-5.16-2.18,8.31,8.31,0,0,1-2.1-6,8.76,8.76,0,0,1,2.12-6.17,7.21,7.21,0,0,1,5.6-2.32,7.33,7.33,0,0,1,4.86,1.53A5.71,5.71,0,0,1,93,23.1Z"/><path class="cls-1" d="M67.35,36.34h4.76V52.17H69V41.46c0-.31,0-.74,0-1.29s0-1,0-1.29l-3,13.29H62.83l-3-13.29c0,.31,0,.73,0,1.29s0,1,0,1.29V52.17H56.79V36.34h4.82l2.88,12.45Z"/><path class="cls-1" d="M79.7,36.34h3.74L89,52.17H85.46l-1-3.25H78.58l-1.07,3.25H74.05Zm-.22,9.85h4.06l-2-6.23Z"/><path class="cls-1" d="M59,56.45a6.54,6.54,0,0,1,4.87-2c2.64,0,4.56.87,5.78,2.62a5.71,5.71,0,0,1,1.08,3h-3.3a4.52,4.52,0,0,0-.81-1.72,3.3,3.3,0,0,0-2.62-1,3.23,3.23,0,0,0-2.79,1.46,7.1,7.1,0,0,0-1,4.12,6.25,6.25,0,0,0,1.07,4A3.39,3.39,0,0,0,64,68.22a3.12,3.12,0,0,0,2.6-1.14,5,5,0,0,0,.82-1.84h3.28a7.12,7.12,0,0,1-2.17,4.21A6.34,6.34,0,0,1,64,71.07a6.72,6.72,0,0,1-5.31-2.19,8.84,8.84,0,0,1-1.94-6A8.79,8.79,0,0,1,59,56.45Z"/><path class="cls-1" d="M73.35,70.63V54.8h3.28v6h6.16v-6h3.29V70.63H82.79V63.56H76.63v7.07Z"/><path class="cls-1" d="M92.27,70.63H89V54.8h3.28Z"/><path class="cls-1" d="M95.31,54.8h3.47l6.29,11v-11h3.08V70.63h-3.31L98.4,59.4V70.63H95.31Z"/><path class="cls-1" d="M123,57.6h-8.38V61h7.7v2.75h-7.7v4.08h8.77v2.84h-12V54.8H123Z"/><rect class="cls-1" x="36.32" width="15.83" height="15.83"/><rect class="cls-1" x="36.32" y="54.49" width="15.83" height="15.83"/><rect class="cls-1" x="18.16" y="36.34" width="15.83" height="15.83"/><rect class="cls-1" y="18.17" width="15.83" height="15.83"/></g></g></svg>