<svg xmlns="http://www.w3.org/2000/svg" viewBox="0 0 203.51 50.42"><title>1-Horizontal-Dark </title><polygon points="56.08 9.9 56.08 24.44 40.47 24.44 40.47 40.52 25.96 40.52 35.87 50.42 50.35 50.42 50.35 34.34 66 34.34 66 19.82 56.09 9.9 56.08 9.9" style="fill:#27225b"/><polygon points="9.93 9.9 56.09 9.9 46.19 0 0 0 0 14.56 9.88 24.44 25.94 40.5 25.94 24.44 9.93 24.44 9.93 9.9" style="fill:#27225b"/><path d="M80.88,23.63h-4v-2H87.08v2h-4v10.5H80.88Z" style="fill:#27225b"/><path d="M98.09,29.38a3.76,3.76,0,0,0,3-3.79v0a3.79,3.79,0,0,0-1-2.7,5.07,5.07,0,0,0-3.62-1.26H90.84V34.13H93V23.6h3.21c1.63,0,2.6.73,2.6,2.08v0c0,1.27-1,2.1-2.58,2.1H94.39l4.49,6.33h2.6Z" style="fill:#27225b"/><polygon points="111.71 21.5 109.66 21.5 104.15 34.13 106.4 34.13 110.65 24.14 114.89 34.13 117.22 34.13 111.71 21.5" style="fill:#27225b"/><path d="M120.8,21.59h2l6.71,8.67V21.59h2.17V34.13h-1.85L123,25.21v8.92H120.8Z" style="fill:#27225b"/><path d="M136.26,32.3l1.33-1.57a5.76,5.76,0,0,0,3.95,1.63c1.36,0,2.22-.63,2.22-1.58v0c0-.89-.5-1.37-2.83-1.91-2.66-.65-4.17-1.44-4.17-3.75v0c0-2.15,1.79-3.64,4.28-3.64A7,7,0,0,1,145.59,23l-1.18,1.66a5.7,5.7,0,0,0-3.4-1.28c-1.29,0-2,.66-2,1.48v0c0,1,.58,1.39,3,2,2.65.64,4,1.59,4,3.67v0c0,2.34-1.85,3.74-4.48,3.74A7.68,7.68,0,0,1,136.26,32.3Z" style="fill:#27225b"/><path d="M150,21.59h2.34l3.82,5.93L160,21.59h2.35V34.13h-2.2v-9l-4,5.91h-.07l-3.93-5.88v9H150Z" style="fill:#27225b"/><path d="M166.78,28.81V21.59H169v7.13c0,2.33,1.2,3.58,3.17,3.58s3.15-1.18,3.15-3.49V21.59h2.21V28.7c0,3.75-2.12,5.63-5.39,5.63S166.78,32.45,166.78,28.81Z" style="fill:#27225b"/><path d="M185.05,23.63h-4v-2h10.17v2h-4v10.5h-2.22Z" style="fill:#27225b"/><rect x="195.01" y="21.59" width="8.49" height="2.01" style="fill:#27225b"/><polygon points="197.21 32.16 197.21 28.79 203.5 28.79 203.5 26.82 195.01 26.82 195.01 34.13 203.5 34.13 203.5 32.16 197.21 32.16" style="fill:#27225b"/></svg>