<svg xmlns="http://www.w3.org/2000/svg" xmlns:xlink="http://www.w3.org/1999/xlink" viewBox="0 0 1041.05 234.97"><defs><style>.cls-1{fill:#0f2046;}.cls-2{fill:url(#Dégradé_sans_nom_22);}.cls-3{fill:url(#Dégradé_sans_nom_765);}.cls-4{fill:url(#Dégradé_sans_nom_765-2);}.cls-5{fill:url(#Dégradé_sans_nom_765-3);}.cls-6{fill:url(#Dégradé_sans_nom_765-4);}.cls-7{fill:url(#Dégradé_sans_nom_25);}.cls-8{fill:url(#Dégradé_sans_nom_4);}.cls-9{fill:url(#Dégradé_sans_nom_24);}.cls-10{fill:url(#Dégradé_sans_nom_5);}.cls-11{fill:url(#Dégradé_sans_nom_6);}.cls-12{fill:url(#Dégradé_sans_nom_7);}.cls-13{fill:url(#Dégradé_sans_nom_8);}.cls-14{fill:url(#Dégradé_sans_nom_9);}.cls-15{fill:url(#Dégradé_sans_nom_10);}.cls-16{fill:url(#Dégradé_sans_nom_11);}.cls-17{fill:url(#Dégradé_sans_nom_12);}.cls-18{fill:url(#Dégradé_sans_nom_13);}.cls-19{fill:url(#Dégradé_sans_nom_14);}.cls-20{fill:url(#Dégradé_sans_nom_21);}.cls-21{fill:url(#Dégradé_sans_nom_23);}.cls-22{fill:url(#Dégradé_sans_nom_2);}</style><linearGradient id="Dégradé_sans_nom_22" x1="415.78" y1="152.34" x2="1014.12" y2="600.33" gradientUnits="userSpaceOnUse"><stop offset="0.07" stop-color="#293784"/><stop offset="0.78" stop-color="#4ed6cd"/><stop offset="0.86" stop-color="#4bcbc8"/><stop offset="0.9" stop-color="#4bcbc8"/></linearGradient><linearGradient id="Dégradé_sans_nom_765" x1="427.03" y1="137.32" x2="1025.36" y2="585.31" gradientUnits="userSpaceOnUse"><stop offset="0" stop-color="#293784"/><stop offset="0.78" stop-color="#4ed6cd"/></linearGradient><linearGradient id="Dégradé_sans_nom_765-2" x1="437.29" y1="123.62" x2="1035.62" y2="571.61" xlink:href="#Dégradé_sans_nom_765"/><linearGradient id="Dégradé_sans_nom_765-3" x1="446.41" y1="111.43" x2="1044.75" y2="559.42" xlink:href="#Dégradé_sans_nom_765"/><linearGradient id="Dégradé_sans_nom_765-4" x1="454.53" y1="100.6" x2="1052.86" y2="548.59" xlink:href="#Dégradé_sans_nom_765"/><linearGradient id="Dégradé_sans_nom_25" x1="469.85" y1="80.13" x2="1068.18" y2="528.12" gradientUnits="userSpaceOnUse"><stop offset="0" stop-color="#293784"/><stop offset="0.89" stop-color="#4ed6cd"/></linearGradient><linearGradient id="Dégradé_sans_nom_4" x1="481.84" y1="64.12" x2="1080.18" y2="512.11" gradientUnits="userSpaceOnUse"><stop offset="0" stop-color="#293784"/><stop offset="0.88" stop-color="#4ed6cd"/></linearGradient><linearGradient id="Dégradé_sans_nom_24" x1="490.58" y1="52.44" x2="1088.92" y2="500.43" gradientUnits="userSpaceOnUse"><stop offset="0" stop-color="#293784"/><stop offset="0.89" stop-color="#4ed6cd"/></linearGradient><linearGradient id="Dégradé_sans_nom_5" x1="509.57" y1="27.08" x2="1107.91" y2="475.07" xlink:href="#Dégradé_sans_nom_4"/><linearGradient id="Dégradé_sans_nom_6" x1="519.36" y1="14.01" x2="1117.69" y2="462" gradientUnits="userSpaceOnUse"><stop offset="0" stop-color="#293784"/><stop offset="0.88" stop-color="#4ed6cd"/></linearGradient><linearGradient id="Dégradé_sans_nom_7" x1="530.4" y1="-0.74" x2="1128.74" y2="447.25" xlink:href="#Dégradé_sans_nom_4"/><linearGradient id="Dégradé_sans_nom_8" x1="543.98" y1="-18.88" x2="1142.32" y2="429.11" gradientUnits="userSpaceOnUse"><stop offset="0" stop-color="#293784"/><stop offset="0.88" stop-color="#4ed6cd"/></linearGradient><linearGradient id="Dégradé_sans_nom_9" x1="556.51" y1="-35.61" x2="1154.85" y2="412.38" gradientUnits="userSpaceOnUse"><stop offset="0" stop-color="#293784"/><stop offset="0.89" stop-color="#4ed6cd"/></linearGradient><linearGradient id="Dégradé_sans_nom_10" x1="566.87" y1="-49.46" x2="1165.21" y2="398.53" xlink:href="#Dégradé_sans_nom_8"/><linearGradient id="Dégradé_sans_nom_11" x1="578.29" y1="-64.7" x2="1176.63" y2="383.29" xlink:href="#Dégradé_sans_nom_9"/><linearGradient id="Dégradé_sans_nom_12" x1="590.21" y1="-80.62" x2="1188.54" y2="367.37" xlink:href="#Dégradé_sans_nom_9"/><linearGradient id="Dégradé_sans_nom_13" x1="600.28" y1="-94.07" x2="1198.61" y2="353.92" xlink:href="#Dégradé_sans_nom_9"/><linearGradient id="Dégradé_sans_nom_14" x1="608.81" y1="-105.47" x2="1207.15" y2="342.52" xlink:href="#Dégradé_sans_nom_4"/><linearGradient id="Dégradé_sans_nom_21" x1="407.37" y1="163.57" x2="1005.71" y2="611.56" gradientUnits="userSpaceOnUse"><stop offset="0.03" stop-color="#293784"/><stop offset="0.78" stop-color="#4ed6cd"/></linearGradient><linearGradient id="Dégradé_sans_nom_23" x1="531.06" y1="-1.62" x2="1129.4" y2="446.37" gradientUnits="userSpaceOnUse"><stop offset="0.04" stop-color="#293784"/><stop offset="0.92" stop-color="#4ed6cd"/></linearGradient><linearGradient id="Dégradé_sans_nom_2" x1="72.55" y1="69.13" x2="244.91" y2="212.05" gradientUnits="userSpaceOnUse"><stop offset="0.4" stop-color="#293784"/><stop offset="0.78" stop-color="#4ed6cd"/></linearGradient></defs><g id="Calque_2" data-name="Calque 2"><g id="Calque_1-2" data-name="Calque 1"><path class="cls-1" d="M264.92,133V75.42H284.8V132c0,14.64,6.43,22.66,19.28,22.66,15.66,0,22.89-13.44,22.89-33.89V75.42h19.68v94.65H327V153.83c-5.22,11.63-14.46,17.84-28.11,17.84C277.57,171.67,264.92,157,264.92,133Z"/><path class="cls-1" d="M367.53,75.42h19.68V93.27c5-12.63,14.66-19.85,29.12-19.85,20.48,0,32.93,13.83,32.93,39.1v57.55H429.38V113.52c0-14.84-6.22-22.66-19.08-22.66-14.65,0-23.09,12.24-23.09,33.89v45.32H367.53Z"/><path class="cls-1" d="M467.94,39.33h21.28V60.18H467.94Zm.6,36.09h19.88v94.65H468.54Z"/><path class="cls-1" d="M509.5,34.92h19.28v84.62l38.56-44.12h22.89l-33.54,35.5,35.75,59.15H570.75l-27.11-45.52-14.86,16.84v28.68H509.5Z"/><path class="cls-1" d="M602.88,75.42h19.68V93.27c5-12.63,14.66-19.85,29.12-19.85,20.48,0,32.93,13.83,32.93,39.1v57.55H664.73V113.52c0-14.84-6.22-22.66-19.08-22.66-14.66,0-23.09,12.24-23.09,33.89v45.32H602.88Z"/><path class="cls-1" d="M698.87,145.2c0-21.25,15.86-26.06,37-30.67,16.06-3.41,25.9-4.42,27.91-9.63v-1.4c0-7.82-5.82-13.84-20.28-13.84-14.06,0-21.69,6.42-22.49,17v1.21H701.08c.6-21.26,17.47-34.09,42.57-34.09,24.29,0,38.75,10.83,38.75,34.89v46.72l.2,14.64H763.53V155.83c-6.43,11.23-18.28,16.65-31.93,16.65C711.32,172.48,698.87,161.45,698.87,145.2ZM763.73,132V120.34c-5.82,4-15.87,5.61-25.1,7.82C727.78,131,719,134.38,719,144.4c0,7.82,5.82,13,16.26,13C749.07,157.44,762.12,150.42,763.73,132Z"/><path class="cls-1" d="M802.08,75.42h19.68V92.07c4.82-11.83,14.06-18.65,27.71-18.65,11,0,21.69,5.61,26.11,20.65,4.62-12.43,14.66-20.65,30.72-20.65,18.08,0,29.52,13.83,29.52,37.3v59.35H915.94V111.72c0-14-6-20.86-17.27-20.86-12.65,0-19.88,9.83-19.88,26.27v52.94H858.91V111.72c0-14-6-20.86-17.27-20.86-11.44,0-19.88,9.23-19.88,26.27v52.94H802.08Z"/><path class="cls-1" d="M949.68,123.35c0-29.28,19.48-49.53,46.39-49.53,27.91,0,44.58,18.65,44.58,48.53v7.21H969.36c1.2,16.25,11.44,26.07,27.51,26.07s23.09-7.82,26.71-17l17.47,6.82c-6.43,14.63-19.88,26.26-44.18,26.26C967.75,171.67,949.68,152.42,949.68,123.35Zm70.68-8.62c-.8-16.25-9.84-24.87-24.7-24.87-14.25,0-24.69,9.43-26.7,24.87Z"/><path class="cls-2" d="M489.74,192.52c-8.37,0-13.54,6.83-13.54,15.49s5.35,14.49,14.13,14.49a23.44,23.44,0,0,0,9.62-1.84l-.95-3.74a18.74,18.74,0,0,1-8,1.48c-5.22,0-9.67-2.9-9.79-9.91h20.12a12.64,12.64,0,0,0,.18-2.44C501.55,200.77,499.12,192.52,489.74,192.52Zm-8.43,12.23c.41-3.62,2.67-8.49,8-8.49,5.82,0,7.25,5.16,7.19,8.49Z"/><path class="cls-3" d="M521.38,196.68a12.79,12.79,0,0,1,6,1.36l1.19-4a16.51,16.51,0,0,0-7.24-1.54c-9.38,0-15.44,6.47-15.44,15.32s5.64,14.66,14.31,14.66a20.22,20.22,0,0,0,8.25-1.66l-.89-3.92a15,15,0,0,1-6.41,1.36c-5.7,0-10-4.09-10-10.74C511.22,201.6,514.79,196.68,521.38,196.68Z"/><path class="cls-4" d="M558.66,193.17h-5.23v17.58a7.33,7.33,0,0,1-.47,2.67,7.53,7.53,0,0,1-6.89,4.81c-4.69,0-6.41-3.74-6.41-9.21V193.17h-5.22V210c0,10,5.4,12.59,9.91,12.59a10.76,10.76,0,0,0,9.5-5.34H554l.29,4.69h4.64c-.18-2.26-.24-4.87-.24-7.9Z"/><path class="cls-5" d="M572.07,198.81h-.18l-.24-5.64h-4.57c.18,2.67.24,5.58.24,9v19.77h5.23V206.53a17.38,17.38,0,0,1,.17-2.43c.72-3.86,3.33-6.65,7-6.65a14.67,14.67,0,0,1,1.78.12v-4.93a10.46,10.46,0,0,0-1.43-.12C576.58,192.52,573.38,195,572.07,198.81Z"/><path class="cls-6" d="M597.6,192.52c-8.37,0-13.54,6.83-13.54,15.49s5.34,14.49,14.13,14.49a23.44,23.44,0,0,0,9.62-1.84l-.95-3.74a18.74,18.74,0,0,1-8,1.48c-5.22,0-9.67-2.9-9.79-9.91h20.12a12.64,12.64,0,0,0,.18-2.44C609.41,200.77,607,192.52,597.6,192.52Zm-8.43,12.23c.41-3.62,2.67-8.49,8-8.49,5.82,0,7.24,5.16,7.18,8.49Z"/><path class="cls-7" d="M640.69,179.76h-5.22v17.09h-.12c-1.25-2.25-4.21-4.33-8.67-4.33-6.94,0-12.94,5.82-12.88,15.43,0,8.73,5.4,14.61,12.35,14.61a10.51,10.51,0,0,0,9.73-5.64H636l.24,5h4.69c-.18-2-.24-4.87-.24-7.42Zm-5.22,30.09a8.19,8.19,0,0,1-.24,2.2,7.9,7.9,0,0,1-7.66,6.29c-5.58,0-8.49-4.8-8.49-10.68,0-6.29,3.21-11,8.61-11a7.69,7.69,0,0,1,7.54,6,9.65,9.65,0,0,1,.24,2.26Z"/><path class="cls-8" d="M677.08,192.52c-4.63,0-8,2-9.8,5.22h-.11v-18h-5.23v34.73c0,2.55-.06,5.46-.24,7.42h4.51l.3-4.75h.12a10.29,10.29,0,0,0,9.62,5.4c6.41,0,12.94-5.11,12.94-15.44C689.19,198.46,684.2,192.52,677.08,192.52Zm-1.9,25.88a8.11,8.11,0,0,1-7.84-6.11,10.57,10.57,0,0,1-.17-1.9v-5.17a8.07,8.07,0,0,1,.29-2.19,8.28,8.28,0,0,1,7.9-6.41c5.58,0,8.55,4.92,8.55,10.74C683.91,214,680.7,218.4,675.18,218.4Z"/><path class="cls-9" d="M707.29,210c-.71,2.08-1.3,4.28-1.84,6h-.12c-.47-1.72-1.18-4-1.9-5.88l-6.23-17h-5.7l10.57,26.48a3.57,3.57,0,0,1,.42,1.37,3.72,3.72,0,0,1-.42,1.24,16.64,16.64,0,0,1-4.39,5.82,13.75,13.75,0,0,1-4.57,2.55l1.3,4.34a14.79,14.79,0,0,0,6.41-3.33c3.57-3.14,6.12-8.13,9.86-18l7.84-20.48H713Z"/><path class="cls-10" d="M759.89,193.17h-5.22v17.58a7.11,7.11,0,0,1-.48,2.67,7.52,7.52,0,0,1-6.89,4.81c-4.69,0-6.41-3.74-6.41-9.21V193.17h-5.22V210c0,10,5.4,12.59,9.91,12.59a10.74,10.74,0,0,0,9.5-5.34h.12l.3,4.69h4.63c-.18-2.26-.24-4.87-.24-7.9Z"/><path class="cls-11" d="M782.86,192.52a10.65,10.65,0,0,0-9.5,5.34h-.12l-.29-4.69h-4.63c.17,2.38.23,4.75.23,7.78v21h5.23V204.57a7.67,7.67,0,0,1,.35-2.43,7.53,7.53,0,0,1,7-5.34c4.93,0,6.65,3.91,6.65,8.54v16.57H793V204.75C793,194.9,786.84,192.52,782.86,192.52Z"/><path class="cls-12" d="M810.76,205.22c-3.74-1.48-5.4-2.55-5.4-4.92,0-2.14,1.66-3.92,4.74-3.92A11.75,11.75,0,0,1,816,198l1.25-3.74a13.34,13.34,0,0,0-7-1.78c-6.11,0-9.91,3.8-9.91,8.43,0,3.38,2.43,6.23,7.66,8.13,3.8,1.43,5.28,2.73,5.28,5.23s-1.78,4.27-5.52,4.27a14.73,14.73,0,0,1-6.94-2l-1.25,3.92a16.36,16.36,0,0,0,8.07,2c6.71,0,10.69-3.56,10.69-8.67C818.3,209.56,815.69,207.07,810.76,205.22Z"/><path class="cls-13" d="M851.41,192.52a10.64,10.64,0,0,0-9.5,5.34h-.12l-.3-4.69h-4.63c.18,2.38.24,4.75.24,7.78v21h5.23V204.57a7.67,7.67,0,0,1,.35-2.43,7.53,7.53,0,0,1,7-5.34c4.92,0,6.64,3.91,6.64,8.54v16.57h5.23V204.75C861.56,194.9,855.39,192.52,851.41,192.52Z"/><path class="cls-14" d="M881.51,192.52c-8.37,0-13.54,6.83-13.54,15.49s5.34,14.49,14.13,14.49a23.44,23.44,0,0,0,9.62-1.84l-1-3.74a18.74,18.74,0,0,1-8,1.48c-5.22,0-9.67-2.9-9.79-9.91h20.12a12.64,12.64,0,0,0,.18-2.44C893.32,200.77,890.88,192.52,881.51,192.52Zm-8.43,12.23c.41-3.62,2.67-8.49,8-8.49,5.82,0,7.24,5.16,7.18,8.49Z"/><path class="cls-15" d="M906.08,186.29l-5.11,1.6v5.28h-4.45v4H901v15.61c0,3.39.6,5.94,2,7.54a7.45,7.45,0,0,0,5.64,2.2,14.42,14.42,0,0,0,4.63-.71l-.24-4a9.62,9.62,0,0,1-3,.36c-2.91,0-3.92-2-3.92-5.58V197.15h7.48v-4h-7.48Z"/><path class="cls-16" d="M949.17,207.6a87.18,87.18,0,0,0-2.19,9.32h-.18c-.65-2.91-1.48-6-2.55-9.38l-4.45-14.37h-4.4l-4.69,14.61c-1,3.14-1.9,6.23-2.55,9.14H928c-.53-3-1.3-6-2.08-9.2L922,193.17H916.7l8.67,28.74h4.75l4.63-13.66a85.05,85.05,0,0,0,2.61-9.55h.12c.71,3.38,1.54,6.23,2.55,9.49l4.4,13.72h4.74l9.27-28.74h-5.17Z"/><path class="cls-17" d="M975.23,192.52c-7.89,0-14.24,5.64-14.24,15.26,0,9.08,6,14.78,13.77,14.78h.06c6.83,0,14.25-4.63,14.25-15.32C989.07,198.52,983.49,192.52,975.23,192.52ZM975,218.64h-.06c-5.05,0-8.61-4.75-8.61-11,0-5.46,2.67-11.16,8.79-11.16s8.6,6.11,8.6,11C983.72,214,980,218.64,975,218.64Z"/><path class="cls-18" d="M1000.4,198.81h-.18l-.23-5.64h-4.58c.18,2.67.24,5.58.24,9v19.77h5.23V206.53a17.38,17.38,0,0,1,.17-2.43c.72-3.86,3.33-6.65,7-6.65a14.67,14.67,0,0,1,1.78.12v-4.93a10.58,10.58,0,0,0-1.42-.12C1004.91,192.52,1001.71,195,1000.4,198.81Z"/><path class="cls-19" d="M1026.76,205l11.1-11.82h-6.23l-8.49,9.92c-.83,1-1.78,2.25-2.5,3.26h-.11V179.76h-5.23v42.15h5.23V211.1l2.67-3,9.85,13.78h6.35Z"/><path class="cls-20" d="M463.9,200.63c-.94-.48-1.94-.95-3.07-1.4a29.13,29.13,0,0,1-4.13-1.91c-2.6-1.5-3.83-3.17-3.83-5.75s2.08-6,7.54-6a15.8,15.8,0,0,1,5.8,1.08l3.1-3.48a18.76,18.76,0,0,0-8.72-1.87c-.5,0-1,.07-1.45.11-6.94.55-11.49,4.93-11.49,10.76a9.57,9.57,0,0,0,.26,1.9,10.57,10.57,0,0,0,5.37,7.1,24.59,24.59,0,0,0,4.94,2.27c.86.32,1.6.65,2.3,1,3.7,1.78,5.24,3.82,5.24,7,0,4-3.09,6.77-8.37,6.77a18.07,18.07,0,0,1-7.58-1.71l-3,3.31,0,.12A20.71,20.71,0,0,0,457,222.5c9.44,0,14-5.4,14-11.52C471,206.09,468.6,203.06,463.9,200.63Z"/><path class="cls-21" d="M827.32,216.5a.53.53,0,0,0-.28.07l-2.72,1.57a.55.55,0,0,0-.27.48v3.14a.56.56,0,0,0,.27.48L827,223.8a.54.54,0,0,0,.28.08.53.53,0,0,0,.27-.08l2.72-1.56a.57.57,0,0,0,.28-.48v-3.14a.56.56,0,0,0-.28-.48l-2.72-1.57a.52.52,0,0,0-.27-.07Z"/><path class="cls-1" d="M58.45,168.12C36.69,156,19,139.74,3.37,121.2c-4.35-5.15-4.55-7.94-.24-13.09,21.2-25.4,46.45-45.5,78.62-56.19a110.57,110.57,0,0,1,75.56,1.41c2.26.84,3.49.57,5.07-1.23Q184,27.52,205.84,3.1C209.09-.55,214-1,217.55,1.91s3.65,7.64.27,11.43Q180.92,54.8,144,96.23q-54,60.66-108.1,121.33c-.72.81-1.44,1.62-2.18,2.41-3.29,3.49-7.7,3.82-11.23.86a7.62,7.62,0,0,1-.86-10.91c5-5.83,10.11-11.52,15.2-17.26q10.2-11.5,20.42-23C57.61,169.24,57.94,168.78,58.45,168.12Zm90.14-101a4.55,4.55,0,0,0-1.35-.83,93.35,93.35,0,0,0-56-1.05c-20.86,5.87-38.66,17-54.63,31.05-6.32,5.56-12.16,11.63-18.35,17.59,15,17,31.1,31.78,51.17,42.17L85,138.56c-.58-.83-1-1.44-1.44-2.05-7.2-10.72-9.16-22.26-4.92-34.44,7.93-22.76,34.09-32.87,56.24-22a2.6,2.6,0,0,0,2.31-.08C141,75.78,144.78,71.43,148.59,67.09Zm-52.48,59L125.3,93.38c-8.16-4.35-20.2-1.62-27,6C91.67,106.79,90.59,118.8,96.11,126.12Z"/><path class="cls-22" d="M90.56,180.21c4.09-4.56,7.94-8.89,11.86-13.16a2.39,2.39,0,0,1,1.79-.51c22.8,2.55,43.64-3.28,63.25-14.15,17.27-9.58,32.07-22.13,45.13-36.68.33-.37.62-.77,1.06-1.31A196.42,196.42,0,0,0,178.2,82l10.89-12.17c6.29,5.24,12.77,10,18.48,15.57,7.71,7.48,14.9,15.49,22.16,23.4,3.2,3.49,3.28,7.18.35,10.77-21.12,25.91-46.55,46.26-78.94,57.31-19.26,6.57-39,8.22-59,3.78C91.72,180.56,91.34,180.43,90.56,180.21Z"/></g></g></svg>