<?xml version="1.0" encoding="iso-8859-1"?>
<!-- Generator: Adobe Illustrator 19.0.0, SVG Export Plug-In . SVG Version: 6.00 Build 0)  -->
<svg version="1.1" id="Capa_1" xmlns="http://www.w3.org/2000/svg" xmlns:xlink="http://www.w3.org/1999/xlink" x="0px" y="0px"
	 viewBox="0 0 480 480" style="enable-background:new 0 0 480 480;" xml:space="preserve">
<g>
	<g>
		<path d="M472,0h-24H168h-56H96H80H64H48H32H8C3.576,0,0,3.576,0,8v464c0,4.424,3.576,8,8,8h464c4.424,0,8-3.576,8-8V8
			C480,3.576,476.424,0,472,0z M464,464H16V80h448V464z M464,64H16V16h16h16h16h16h16h16h56h280h16V64z"/>
	</g>
</g>
<g>
	<g>
		<path d="M136,136c-57.344,0-104,46.656-104,104s46.656,104,104,104s104-46.656,104-104S193.344,136,136,136z M136,328
			c-21.12,0-40.52-7.488-55.696-19.936c1.52-21.84,15.32-40.672,35.824-48.424c6.056,2.776,12.776,4.36,19.872,4.36
			s13.816-1.584,19.88-4.36c20.504,7.752,34.304,26.592,35.824,48.424C176.52,320.512,157.12,328,136,328z M104,216
			c0-17.648,14.352-32,32-32s32,14.352,32,32c0,12.032-6.744,22.4-16.584,27.864c-0.04,0.024-0.088,0.016-0.128,0.04
			c-2.24,1.232-4.536,2.144-6.848,2.824c-0.288,0.08-0.56,0.192-0.856,0.264c-0.816,0.216-1.64,0.344-2.456,0.488
			c-1.536,0.248-3.08,0.448-4.68,0.472c-0.296,0.008-0.592,0.008-0.88,0c-1.6-0.024-3.144-0.224-4.68-0.472
			c-0.824-0.144-1.64-0.272-2.456-0.488c-0.296-0.072-0.568-0.184-0.856-0.264c-2.312-0.672-4.608-1.592-6.848-2.824
			c-0.04-0.024-0.088-0.016-0.128-0.04C110.744,238.4,104,228.032,104,216z M205.616,293.624
			c-4.96-19.008-17.504-35.128-34.832-44.64C178.952,240.376,184,228.776,184,216c0-26.472-21.528-48-48-48s-48,21.528-48,48
			c0,12.776,5.048,24.376,13.216,32.984c-17.328,9.512-29.872,25.632-34.832,44.64C54.904,278.76,48,260.192,48,240
			c0-48.52,39.48-88,88-88s88,39.48,88,88C224,260.192,217.096,278.76,205.616,293.624z"/>
	</g>
</g>
<g>
	<g>
		<path d="M432,152H272c-4.424,0-8,3.576-8,8v64c0,4.424,3.576,8,8,8h160c4.424,0,8-3.576,8-8v-64C440,155.576,436.424,152,432,152z
			 M424,216H280v-48h144V216z"/>
	</g>
</g>
<g>
	<g>
		<rect x="296" y="184" width="16" height="16"/>
	</g>
</g>
<g>
	<g>
		<rect x="328" y="184" width="16" height="16"/>
	</g>
</g>
<g>
	<g>
		<rect x="360" y="184" width="16" height="16"/>
	</g>
</g>
<g>
	<g>
		<rect x="392" y="184" width="16" height="16"/>
	</g>
</g>
<g>
	<g>
		<path d="M432,248H272c-4.424,0-8,3.576-8,8v64c0,4.424,3.576,8,8,8h160c4.424,0,8-3.576,8-8v-64C440,251.576,436.424,248,432,248z
			 M424,312H280v-48h144V312z"/>
	</g>
</g>
<g>
	<g>
		<rect x="296" y="280" width="16" height="16"/>
	</g>
</g>
<g>
	<g>
		<rect x="328" y="280" width="16" height="16"/>
	</g>
</g>
<g>
	<g>
		<rect x="360" y="280" width="16" height="16"/>
	</g>
</g>
<g>
	<g>
		<rect x="392" y="280" width="16" height="16"/>
	</g>
</g>
<g>
	<g>
		<rect x="32" y="32" width="16" height="16"/>
	</g>
</g>
<g>
	<g>
		<rect x="64" y="32" width="16" height="16"/>
	</g>
</g>
<g>
	<g>
		<rect x="96" y="32" width="16" height="16"/>
	</g>
</g>
<g>
	<g>
		<rect x="208" y="32" width="240" height="16"/>
	</g>
</g>
<g>
</g>
<g>
</g>
<g>
</g>
<g>
</g>
<g>
</g>
<g>
</g>
<g>
</g>
<g>
</g>
<g>
</g>
<g>
</g>
<g>
</g>
<g>
</g>
<g>
</g>
<g>
</g>
<g>
</g>
</svg>
