<?xml version="1.0" encoding="utf-8"?>
<!-- Generator: Adobe Illustrator 23.0.3, SVG Export Plug-In . SVG Version: 6.00 Build 0)  -->
<svg version="1.1" id="Layer_1" xmlns="http://www.w3.org/2000/svg" xmlns:xlink="http://www.w3.org/1999/xlink" x="0px" y="0px"
	 viewBox="0 0 299.4 447.1" style="enable-background:new 0 0 299.4 447.1;" xml:space="preserve">
<g>
	<g>
		<path id="aG0qzrIZA" d="M145.2,8.5l0.3,0l0.3,0.1l0.6,0.1l0.3,0.1l0.3,0.1l0.3,0.1l0.3,0.1l0.3,0.1l0.3,0.1l0.3,0.2l0.3,0.2
			l0.3,0.2l0.7,0.5l0,0h0l0,0v0l0,0l0,0h0v0l0,0l0,0l0,0l0.1,0l0.1,0.1h0l0,0v0h0l0,0l0,0l0,0l0,0l0,0l0,0l0,0v0l0,0l0,0h0v0l0,0h0
			v0l0,0h0v0l0,0h0v0l0,0v0h0v0l0,0v0l0,0v0l0,0l0,0l0,0l0,0l0,0.1h0l0,0l0,0v0h0l0,0v0l0,0l0,0h0l0,0l0,0l0,0h0l0,0l0,0l0,0
			l0.1,0.1l0,0l0,0l0.1,0.1l0,0v0l0,0v0l0,0v0h0l0,0l107,139.2l0.9,1.1l0.9,1.1l0.9,1.1l0.9,1.1l0.9,1.1l0.9,1.1l0.9,1.1l0.8,1.1
			l0.8,1.1l0.8,1.1l1.6,2.3l0.8,1.2l1.5,2.4l0.7,1.2l0.7,1.2l0.7,1.2l0.7,1.2l0.7,1.2l0.7,1.2l0.7,1.2l0.6,1.2l0.6,1.2l0.6,1.2
			l0.6,1.2l0.6,1.3l0.6,1.3l0.6,1.3l0.6,1.3l0.6,1.3l0.5,1.3l0.5,1.3l0.5,1.3l0.5,1.3l0.5,1.3l0.5,1.3l0.5,1.3l0.5,1.3l0.5,1.3
			l0,0.1l0.1,0.1l0.3,0.6l0,0.1l0,0.1l0.1,0.2l0,0.1l0.1,0.3l0,0.1l0.1,0.2l0,0.1l0,0.2l0,0.1l0,0.1l0,0.1l0,0.1l0,0.1l0,0.1l0,0.1
			l0,0.1l0,0.1l0,0.1l0,0.1l0,0.1l0,0.1l0,0.1v0.1l1,3.3l0.9,3.3l0.8,3.3l0.8,3.4l0.7,3.4l0.6,3.4l0.5,3.4l0.4,3.4l0.4,3.4l0.3,3.4
			l0.2,3.4l0.1,3.4l0.1,3.4l0,3.4l-0.1,3.4l-0.2,3.4l-0.3,3.4l-0.3,3.4l-0.4,3.4l-0.5,3.4l-0.6,3.4l-0.7,3.4l-0.8,3.4l-0.8,3.4
			l-0.9,3.3l-1,3.3l-1.1,3.3l-1.1,3.3l-1.2,3.3l-1.3,3.3l-1.4,3.2l-1.5,3.2l-1.5,3.2l-1.6,3.1l-1.7,3.1l-1.8,3.1l-1.9,3l-1.9,3l-2,3
			l-2.1,2.9l-0.9,1.2l-0.9,1.2l-0.9,1.2l-0.9,1.2l-0.9,1.1l-0.9,1.1l-1,1.1l-0.9,1.1l-1,1.1l-1,1.1l-1,1.1l-1,1.1l-1,1.1l-1,1.1
			l-1,1l-1,1l-1,1l-1.1,1l-1.1,1l-1.1,1l-1.1,1l-1.1,1l-1.1,1l-1.1,0.9l-1.1,0.9l-1.1,0.9l-1.1,0.9L236,364l-1.2,0.9l-1.2,0.9
			l-1.2,0.9l-2.4,1.7l-2.4,1.6l-1.2,0.8l-1.2,0.8l-1.2,0.8l-1.3,0.8l-1.3,0.8l-1.2,0.7l-1.2,0.7l-1.2,0.7l-1.2,0.7l-1.3,0.7
			l-1.2,0.7l-1.3,0.6l-1.3,0.6l-1.3,0.6l-1.3,0.6l-2.6,1.2l-1.3,0.6l-1.3,0.6l-2.6,1.1l-1.3,0.5l-1.3,0.5l-1.3,0.5l-1.3,0.5
			l-1.3,0.5l-1.3,0.5l-1.3,0.4l-1.3,0.4l-1.3,0.4l-1.4,0.4l-1.3,0.4l-1.4,0.4l-1.4,0.4l-1.4,0.4l-1.4,0.3l-1.4,0.3l-1.4,0.3
			l-1.4,0.3l-1.4,0.3l-1.4,0.3l-1.4,0.3l-1.4,0.3l-1.4,0.2l-1.4,0.2l-0.4,0l-0.4,0.1l-0.4,0.1l-0.8,0.1l-0.4,0.1l-0.4,0.1l-0.4,0
			l-0.4,0.1l-0.4,0.1l-0.4,0l-0.4,0.1l-0.8,0.1l-0.4,0l-0.4,0l-0.4,0l-0.8,0.1l-0.4,0l-0.4,0l-0.4,0l-0.4,0l-0.4,0l-0.4,0l-0.4,0
			l-0.4,0l-0.4,0l-0.4,0l-0.4,0l-0.4,0l-0.4,0l-0.8,0.1l-0.4,0l-0.4,0l-0.4,0l-0.4,0l-0.8,0l0,44.9l0,0.3l0,0.3l-0.1,0.6l-0.1,0.3
			l-0.1,0.3l-0.1,0.3l-0.1,0.3l-0.2,0.6l-0.1,0.3l-0.1,0.3l-0.2,0.3l-0.1,0.3l-0.2,0.3l-0.2,0.2l-0.4,0.5l-0.2,0.2l-0.2,0.2
			l-0.2,0.2l-0.2,0.2l-0.2,0.2l-0.2,0.2l-0.2,0.2l-0.3,0.2l-0.3,0.2l-0.3,0.1l-0.3,0.1l-0.3,0.1l-0.6,0.2l-0.3,0.1l-0.3,0.1
			l-0.3,0.1l-0.6,0.1l-0.3,0l-0.3,0l-0.3,0l-0.3,0l-0.3,0l-0.3,0l-0.3,0l-0.6-0.1l-0.6-0.2l-0.3-0.1l-0.6-0.2l-0.3-0.1l-0.3-0.1
			l-0.3-0.1l-0.2-0.2l-0.3-0.2l-0.2-0.2l-0.2-0.2l-0.4-0.4l-0.2-0.2l-0.2-0.2l-0.2-0.2l-0.2-0.2l-0.3-0.5l-0.1-0.3l-0.1-0.3
			l-0.3-0.5l-0.1-0.3l-0.1-0.3l-0.1-0.3l-0.1-0.3l-0.1-0.3l-0.1-0.3l0-0.3l0-0.3l0-0.3l0-0.3v-45.1l-0.6,0l-0.6,0l-1.8-0.1l-2.4-0.2
			l-0.6-0.1l-0.6-0.1l-0.6-0.1l-0.6-0.1l-0.6-0.1l-1.8-0.2l-1.2-0.2l-0.6-0.1l-0.6-0.1l-0.6-0.1l-0.6-0.1l-1.2-0.2l-0.6-0.1
			l-0.6-0.1l-0.6-0.1l-0.6-0.1l-0.6-0.1l-0.6-0.1l-0.6-0.1l-0.6-0.1l-0.6-0.1l-0.6-0.1l-0.6-0.1l-0.6-0.1l-1.8-0.4l-1.4-0.4
			l-1.4-0.4l-1.4-0.4l-1.4-0.4l-1.4-0.4l-1.4-0.4l-1.4-0.4l-1.4-0.4l-2.8-0.9l-1.4-0.5l-1.4-0.5l-1.4-0.5l-1.4-0.5l-1.4-0.5
			l-1.3-0.5l-1.3-0.6l-1.3-0.6l-1.3-0.6l-1.3-0.6l-1.3-0.6l-1.3-0.6l-1.3-0.6l-1.3-0.6l-1.3-0.7l-1.3-0.7l-1.3-0.7l-1.3-0.7
			l-1.3-0.7l-1.3-0.7l-1.3-0.7l-1.2-0.8l-1.3-0.8l-1.2-0.8l-1.2-0.8l-1.2-0.8l-1.2-0.8l-1.2-0.8l-1.2-0.9l-1.2-0.9l-1.2-0.9
			l-1.2-0.9l-1.2-0.9l-1.2-0.9l-1.2-0.9l-2.3-1.9l-1.1-1l-1.1-1l-1.1-1l-1.1-1l-1.1-1l-1.1-1l-1-1l-1-1l-1-1l-1-1l-1-1l-1-1.1
			l-1-1.1l-1-1.1l-1-1.1l-1-1.1l-1-1.1l-0.9-1.1l-0.9-1.1l-0.9-1.1l-0.9-1.2l-0.9-1.2l-0.9-1.2l-0.9-1.2l-0.9-1.2l-0.8-1.2l-0.8-1.2
			l-0.8-1.2l-0.8-1.2l-0.8-1.2l-1.5-2.5l-0.8-1.3l-0.7-1.2l-0.7-1.2l-0.7-1.2l-0.7-1.2l-0.7-1.2l-0.6-1.3l-0.7-1.3l-1.3-2.5
			l-0.6-1.3l-0.6-1.3l-0.6-1.3l-0.6-1.3l-0.6-1.3l-0.5-1.3l-0.5-1.3l-0.5-1.3l-0.5-1.3l-0.5-1.3l-0.5-1.3l-0.5-1.3l-0.5-1.3
			l-0.4-1.3l-0.4-1.3l-0.4-1.3l-0.4-1.4l-0.4-1.4l-0.4-1.4l-0.4-1.4l-0.3-1.4l-0.3-1.4l-0.3-1.4l-0.3-1.4l-0.3-1.4L3,277.5l-0.3-1.4
			l-0.3-1.4l-0.3-1.4L2,272l-0.2-1.4l-0.2-1.4l-0.2-1.4l-0.2-1.4L1,264.9l-0.2-1.4l-0.1-1.4l-0.1-1.4l-0.1-1.4l-0.1-1.4l-0.1-1.4
			L0.2,255l-0.1-1.4l-0.1-1.4l0-1.4l0-1.4l0-1.4l0-1.4l0-1.4l0-1.4l0-1.4l0.1-1.4l0.1-1.4l0.1-1.4l0.1-1.4l0.1-1.4l0.1-1.4l0.1-1.4
			l0.2-1.4l0.2-1.4l0.2-1.4l0.2-1.4l0.2-1.4l0.2-1.4l0.2-1.4l0.2-1.4l0.3-1.4l0.3-1.4l0.3-1.4l0.3-1.4l0.3-1.4l0.3-1.3l0.3-1.3
			l0.3-1.3l0.3-1.3l0.4-1.3l0.7-2.5l0.4-1.3l0.4-1.3l0.4-1.3l0.4-1.3l0.4-1.3l0.9-2.5l0.9-2.5l0.5-1.2l0.5-1.2l0.5-1.2l1.1-2.4
			l0.6-1.2l0.6-1.2l0.6-1.2l0.6-1.2l0.6-1.2l0.6-1.2l0.6-1.2l0.6-1.2l1.3-2.3l0.7-1.1l0.7-1.1l0.7-1.1l0.7-1.1l0.7-1.1l0.7-1.1
			l0.7-1.1l0.7-1.1l0.7-1.1l0,0l0,0l0,0l0,0l0,0l0,0l0,0l0,0l0,0l0,0l0,0l0,0l0,0l0,0l0,0l0,0l0,0l0,0l0,0l0,0l0,0l0,0l0-0.1l0,0
			l0-0.1l0,0l0,0l0,0l0,0l0-0.1l0,0l0,0l0,0l0,0l0-0.1l0,0L138.1,11.6l0.2-0.3l0.2-0.2l0.2-0.2l0.2-0.2l0.4-0.4l0.2-0.2l0.2-0.2
			l0.3-0.2l0.3-0.2l0.3-0.2l0.3-0.1l0.3-0.1l0.3-0.1l0.3-0.1l0.6-0.2l0.6-0.1l0.3-0.1l0.3,0l0.3,0l0.3,0h0.6l0.3,0L145.2,8.5z
			 M152.4,379l0.3,0l0.4,0l0.3,0l0.4,0l0.7,0l0.4,0l0.3,0l0.4,0l0.3,0l0.4,0l0.3,0l0.4,0l0.3,0l0.4,0l0.3,0l0.4,0l0.4,0l0.3,0l0.4,0
			l0.3,0l0.4,0l0.4,0l0.3,0l0.7-0.1l0.3,0l0.4,0l0.3,0l0.3,0l0.7-0.1l0.3,0l0.7-0.1l0.4,0l0.3-0.1l0.4-0.1l0.4,0l0.3-0.1l2.6-0.4
			l2.6-0.5l2.6-0.5l2.5-0.6l2.5-0.6l2.5-0.7l2.5-0.7l2.5-0.8l2.4-0.8l2.4-0.9l2.4-0.9l2.4-0.9l2.4-1l2.3-1l2.3-1.1l2.3-1.1l2.3-1.2
			l2.2-1.2l2.2-1.3l2.2-1.3l2.2-1.3l2.1-1.4l2.1-1.4l2.1-1.5l2.1-1.5l2-1.6l2-1.6l2-1.6l1.9-1.7l1.9-1.7l1.9-1.8l1.8-1.8l1.8-1.8
			l1.8-1.9l1.7-1.9l1.7-1.9l1.7-2l1.6-2l1.6-2.1l1.6-2.1l1.7-2.4l1.6-2.4l1.6-2.4l1.5-2.5l1.5-2.5l1.4-2.5l1.4-2.5l1.3-2.6l1.2-2.6
			l1.2-2.6l1.1-2.6l1-2.6l1-2.6l1-2.7l0.9-2.7l0.8-2.7l0.8-2.7l0.7-2.7l0.7-2.7l0.6-2.7l0.5-2.7l0.5-2.8l0.4-2.8l0.4-2.8l0.3-2.8
			l0.3-2.8l0.2-2.8l0.1-2.8l0.1-2.8l0-2.8l0-2.8l-0.1-2.8l-0.1-2.8l-0.2-2.8l-0.3-2.8l-0.3-2.8l-0.4-2.7l-0.4-2.7l-0.5-2.7l-0.5-2.7
			L152.4,350L152.4,379z M39.2,173l-1.5,2.2l-1.4,2.2l-1.4,2.2l-1.3,2.2l-1.3,2.2l-1.3,2.3l-1.2,2.3l-1.1,2.3l-1.1,2.3l-1.1,2.3
			l-1,2.4l-1,2.4l-0.9,2.4l-0.9,2.4l-0.8,2.4l-0.8,2.4l-0.7,2.4l-0.7,2.4l-0.6,2.5l-0.6,2.5l-0.5,2.5l-0.5,2.5l-0.4,2.5l-0.4,2.5
			l-0.3,2.5l-0.3,2.5l-0.2,2.5l-0.2,2.6l-0.1,2.6l-0.1,2.6l0,2.6l0,2.6l0.1,2.6l0.1,2.6l0.2,2.6l0.2,2.6l0.3,2.6l0.3,2.6l0.4,2.6
			l0.4,2.6l0.5,2.6l0.5,2.6l0.6,2.5l0.6,2.5l0.7,2.5l0.7,2.5l0.8,2.5l0.8,2.4l0.8,2.4l0.9,2.4l0.9,2.4l1,2.4l1,2.3l1.1,2.3l1.1,2.3
			l1.2,2.3l1.2,2.2l1.3,2.2l1.3,2.2l1.3,2.2l1.4,2.1l1.4,2.1l1.5,2.1l1.5,2.1l1.5,2l1.6,2l1.6,2l1.7,1.9l1.7,1.9l1.8,1.9l1.8,1.8
			l1.8,1.8l1.9,1.8l1.9,1.7l2,1.7l2,1.7l2,1.6l2.1,1.6l2.1,1.6l1.5,1.1l1.5,1.1l1.5,1l1.6,1l1.6,1l1.6,1l1.6,0.9l1.6,0.9l1.6,0.9
			l1.6,0.9l1.6,0.9l1.6,0.9l1.7,0.8l1.7,0.8l1.7,0.8l1.7,0.7l1.7,0.7l1.7,0.7l1.7,0.7l1.7,0.6l1.7,0.6l1.7,0.6l1.7,0.6l1.7,0.5
			l1.8,0.5l1.8,0.5l1.8,0.5l1.8,0.4l1.8,0.4l1.8,0.4l1.8,0.4l1.8,0.3l1.8,0.3l1.8,0.3l1.8,0.3l1.8,0.2l1.8,0.2l1.8,0.2l1.8,0.2
			l1.8,0.1V267L45.5,164.4l-4.8,6.5L39.2,173z M152.4,327.3l117.4-125.9l-0.4-1.1l-0.4-1.1l-0.4-1.1l-0.4-1.1l-0.4-1.1l-0.4-1.1
			l-0.5-1.1l-0.5-1.1l-0.5-1.1l-0.5-1.1l-0.5-1.1l-0.5-1.1l-0.5-1.1l-1.1-2.1l-0.5-1l-1.1-2.1l-0.6-1l-0.6-1l-0.6-1l-1.2-2l-1.3-2
			l-0.7-1l-0.7-1l-0.7-1l-0.7-1l-0.7-1l-0.7-1l-0.7-1l-1.5-1.9l-0.7-0.9l-0.8-0.9l-0.8-0.9l-0.8-0.9l-0.8-0.9l-0.8-0.9v0l0,0v0l0,0
			v0l0,0h0l0,0l0,0l0,0l0,0l0,0v0h0v0l0,0v0h0v0l0,0v0h0v0l0,0l0,0h0v0l-0.1-0.1v0l0,0v0h0L203.8,106l-51.4,55.8L152.4,327.3z
			 M136.9,243.7V39.4l-82,112.2L136.9,243.7z M194.2,93.6l-41.9-54.5l0,99.9L194.2,93.6z"/>
		<path id="a2V7U6KjKi" d="M256.1,189.2c7.8-10.7,22.9-13,33.5-5.2c10.7,7.8,13,22.9,5.2,33.6c-7.8,10.7-22.9,13-33.5,5.2
			C250.6,215,248.2,199.9,256.1,189.2z"/>
		<path id="c3CYASRSPU" d="M124.3,328.3c7.8-10.7,22.9-13,33.5-5.2c10.7,7.8,13,22.9,5.2,33.5c-7.8,10.7-22.9,13-33.6,5.2
			C118.8,354.1,116.5,339,124.3,328.3z"/>
		<path id="e9waLIyA" d="M124.5,243.5c7.8-10.7,22.9-13,33.5-5.2c10.7,7.8,13,22.9,5.2,33.6c-7.8,10.7-22.9,13-33.5,5.2
			C118.9,269.3,116.6,254.2,124.5,243.5z"/>
		<path id="c8Ivl1DhbZ" d="M124.6,141c7.8-10.7,22.9-13,33.5-5.2c10.7,7.8,13,22.9,5.2,33.6c-7.8,10.7-22.9,13-33.5,5.2
			C119.1,166.7,116.8,151.7,124.6,141z"/>
		<path id="a6VKxMHd4" d="M27.2,139.1c7.8-10.7,22.9-13,33.6-5.2c10.7,7.8,13,22.8,5.2,33.5c-7.8,10.7-22.9,13-33.5,5.2
			C21.7,164.8,19.4,149.8,27.2,139.1z"/>
		<path id="dsd1b2xKo" d="M124.6,9.8c7.8-10.7,22.9-13,33.5-5.2c10.7,7.8,13,22.8,5.2,33.5c-7.8,10.7-22.9,13-33.6,5.2
			C119.1,35.5,116.8,20.5,124.6,9.8z"/>
		<path id="a1ACPXg9UR" d="M184.7,79.8c7.8-10.7,22.9-13,33.5-5.2c10.7,7.8,13,22.9,5.2,33.6c-7.8,10.7-22.9,13-33.5,5.2
			C179.2,105.5,176.9,90.5,184.7,79.8z"/>
	</g>
</g>
</svg>
