<svg height="512pt" viewBox="0 0 512 512.001" width="512pt" xmlns="http://www.w3.org/2000/svg"><path d="m187.886719 165.484375h26.480469c2.03125 14.925781 7.601562 25.929687 16.609374 32.757813 7.742188 5.871093 16.570313 7.53125 24.089844 7.53125 4.648438 0 8.796875-.636719 11.875-1.304688 3.894532-.847656 6.671875-4.359375 6.597656-8.347656-.074218-3.984375-2.976562-7.390625-6.90625-8.097656-3.046874-.542969-5.109374-1.835938-6.492187-4.058594-2.941406-4.746094-2.542969-12.785156-1.640625-18.480469h34.613281c22.957031 0 41.636719-18.679687 41.636719-41.636719v-28.179687c0-4.144531-3.359375-7.5-7.5-7.5s-7.5 3.355469-7.5 7.5v28.179687c0 14.6875-11.949219 26.636719-26.636719 26.636719h-40.664062c-3.324219 0-6.25 2.1875-7.191407 5.378906-.628906 2.125-5.628906 20.152344.800782 33.566407-2.089844-.699219-4.136719-1.710938-6.019532-3.140626-6.71875-5.097656-10.550781-14.769531-11.378906-28.75-.234375-3.960937-3.515625-7.054687-7.488281-7.054687h-33.285156c-14.6875 0-26.636719-11.949219-26.636719-26.636719v-82.210937c0-14.6875 11.949219-26.636719 26.636719-26.636719h105.226562c14.6875 0 26.636719 11.949219 26.636719 26.636719v22.363281c0 4.144531 3.359375 7.5 7.5 7.5 4.144531 0 7.5-3.355469 7.5-7.5v-22.363281c0-22.957031-18.675781-41.636719-41.636719-41.636719h-105.226562c-22.957031 0-41.636719 18.679688-41.636719 41.636719v82.210937c0 22.960938 18.679688 41.636719 41.636719 41.636719zm0 0"/><path d="m324.113281 346.515625h-26.480469c-2.03125-14.925781-7.601562-25.929687-16.609374-32.757813-12.527344-9.5-27.910157-7.980468-35.960938-6.226562-3.898438.847656-6.675781 4.355469-6.601562 8.34375.074218 3.988281 2.980468 7.394531 6.90625 8.097656 3.046874.546875 5.109374 1.839844 6.492187 4.0625 2.941406 4.746094 2.542969 12.785156 1.644531 18.480469h-34.617187c-22.957031 0-41.636719 18.679687-41.636719 41.636719v82.210937c0 22.960938 18.679688 41.636719 41.636719 41.636719h105.226562c22.960938 0 41.636719-18.675781 41.636719-41.636719v-82.210937c0-22.960938-18.675781-41.636719-41.636719-41.636719zm26.636719 123.847656c0 14.6875-11.949219 26.636719-26.636719 26.636719h-105.226562c-14.6875 0-26.636719-11.949219-26.636719-26.636719v-82.210937c0-14.6875 11.949219-26.636719 26.636719-26.636719h40.664062c3.324219 0 6.25-2.1875 7.191407-5.378906.628906-2.125 5.628906-20.152344-.800782-33.566407 2.09375.699219 4.136719 1.710938 6.019532 3.140626 6.722656 5.097656 10.550781 14.769531 11.378906 28.75.234375 3.960937 3.519531 7.054687 7.488281 7.054687h33.285156c14.6875 0 26.636719 11.949219 26.636719 26.636719zm0 0"/><path d="m185 343v-108c0-11.855469-9.644531-21.5-21.5-21.5h-31.5v-14.5c0-11.855469-9.644531-21.5-21.5-21.5h-36c-11.855469 0-21.5 9.644531-21.5 21.5v14.5h-31.5c-11.855469 0-21.5 9.644531-21.5 21.5v108c0 11.855469 9.644531 21.5 21.5 21.5h10.5c4.140625 0 7.5-3.355469 7.5-7.5s-3.359375-7.5-7.5-7.5h-10.5c-3.582031 0-6.5-2.914062-6.5-6.5v-61.511719c2.050781.652344 4.234375 1.011719 6.5 1.011719h14.5v7.425781c0 4.140625 3.359375 7.5 7.5 7.5s7.5-3.359375 7.5-7.5v-7.425781h83v7.425781c0 4.140625 3.359375 7.5 7.5 7.5s7.5-3.359375 7.5-7.5v-7.425781h14.5c2.265625 0 4.449219-.355469 6.5-1.011719v61.511719c0 3.585938-2.914062 6.5-6.5 6.5h-98.75c-4.140625 0-7.5 3.355469-7.5 7.5s3.359375 7.5 7.5 7.5h98.75c11.855469 0 21.5-9.644531 21.5-21.5zm-117-144c0-3.585938 2.917969-6.5 6.5-6.5h36c3.585938 0 6.5 2.914062 6.5 6.5v14.5h-49zm95.5 68.5h-14.5v-3.574219c0-4.144531-3.359375-7.5-7.5-7.5s-7.5 3.355469-7.5 7.5v3.574219h-83v-3.574219c0-4.144531-3.359375-7.5-7.5-7.5s-7.5 3.355469-7.5 7.5v3.574219h-14.5c-3.582031 0-6.5-2.914062-6.5-6.5v-26c0-3.585938 2.917969-6.5 6.5-6.5h142c3.585938 0 6.5 2.914062 6.5 6.5v26c0 3.585938-2.914062 6.5-6.5 6.5zm0 0"/><path d="m100 249.425781c0 4.140625-3.355469 7.5-7.5 7.5-4.140625 0-7.5-3.359375-7.5-7.5 0-4.144531 3.359375-7.5 7.5-7.5 4.144531 0 7.5 3.355469 7.5 7.5zm0 0"/><path d="m490.5 183.5h-31.5v-14.5c0-11.855469-9.644531-21.5-21.5-21.5h-36c-11.855469 0-21.5 9.644531-21.5 21.5v14.5h-31.5c-11.855469 0-21.5 9.644531-21.5 21.5v108c0 11.855469 9.644531 21.5 21.5 21.5h142c11.855469 0 21.5-9.644531 21.5-21.5v-9.125c0-4.144531-3.359375-7.5-7.5-7.5s-7.5 3.355469-7.5 7.5v9.125c0 3.585938-2.914062 6.5-6.5 6.5h-142c-3.582031 0-6.5-2.914062-6.5-6.5v-61.511719c2.050781.652344 4.234375 1.011719 6.5 1.011719h14.5v7.425781c0 4.140625 3.359375 7.5 7.5 7.5s7.5-3.359375 7.5-7.5v-7.425781h83v7.425781c0 4.140625 3.359375 7.5 7.5 7.5s7.5-3.359375 7.5-7.5v-7.425781h14.5c2.265625 0 4.449219-.355469 6.5-1.011719v20.261719c0 4.144531 3.359375 7.5 7.5 7.5s7.5-3.355469 7.5-7.5v-66.75c0-11.855469-9.644531-21.5-21.5-21.5zm-95.5-14.5c0-3.585938 2.917969-6.5 6.5-6.5h36c3.585938 0 6.5 2.914062 6.5 6.5v14.5h-49zm95.5 68.5h-14.5v-3.574219c0-4.144531-3.359375-7.5-7.5-7.5s-7.5 3.355469-7.5 7.5v3.574219h-83v-3.574219c0-4.144531-3.359375-7.5-7.5-7.5s-7.5 3.355469-7.5 7.5v3.574219h-14.5c-3.582031 0-6.5-2.914062-6.5-6.5v-26c0-3.585938 2.917969-6.5 6.5-6.5h142c3.585938 0 6.5 2.914062 6.5 6.5v26c0 3.585938-2.914062 6.5-6.5 6.5zm0 0"/><path d="m427 219.425781c0 4.140625-3.355469 7.5-7.5 7.5-4.140625 0-7.5-3.359375-7.5-7.5 0-4.144531 3.359375-7.5 7.5-7.5 4.144531 0 7.5 3.355469 7.5 7.5zm0 0"/><path d="m285 46.230469h-88c-4.140625 0-7.5 3.359375-7.5 7.5 0 4.144531 3.359375 7.5 7.5 7.5h88c4.140625 0 7.5-3.355469 7.5-7.5 0-4.140625-3.359375-7.5-7.5-7.5zm0 0"/><path d="m292.5 83.730469c0-4.140625-3.359375-7.5-7.5-7.5h-88c-4.140625 0-7.5 3.359375-7.5 7.5 0 4.144531 3.359375 7.5 7.5 7.5h88c4.140625 0 7.5-3.355469 7.5-7.5zm0 0"/><path d="m197 104.253906c-4.140625 0-7.5 3.355469-7.5 7.5 0 4.144532 3.359375 7.5 7.5 7.5h44c4.140625 0 7.5-3.355468 7.5-7.5 0-4.144531-3.359375-7.5-7.5-7.5zm0 0"/><path d="m315.5 391.476562h-88c-4.140625 0-7.5 3.359376-7.5 7.5 0 4.144532 3.359375 7.5 7.5 7.5h88c4.140625 0 7.5-3.355468 7.5-7.5 0-4.140624-3.359375-7.5-7.5-7.5zm0 0"/><path d="m315.5 421.476562h-88c-4.140625 0-7.5 3.359376-7.5 7.5 0 4.144532 3.359375 7.5 7.5 7.5h88c4.140625 0 7.5-3.355468 7.5-7.5 0-4.140624-3.359375-7.5-7.5-7.5zm0 0"/><path d="m271.5 449.5h-44c-4.140625 0-7.5 3.355469-7.5 7.5s3.359375 7.5 7.5 7.5h44c4.140625 0 7.5-3.355469 7.5-7.5s-3.359375-7.5-7.5-7.5zm0 0"/></svg>