<svg xmlns="http://www.w3.org/2000/svg" xmlns:xlink="http://www.w3.org/1999/xlink" version="1.1" x="0px" y="0px" viewBox="0 0 53 66.25" style="enable-background:new 0 0 53 53;" xml:space="preserve"><g><g><path d="M23.5727062,43.7552681h4.7707157c0.7457867,0,1.3525276-0.6067429,1.3525276-1.3530579v-3.3644638    c0-0.7457886-0.606741-1.3525276-1.3525276-1.3525276h-4.7707157c-0.7457867,0-1.3525295,0.606739-1.3525295,1.3525276v3.3644638    C22.2201767,43.1485252,22.8269196,43.7552681,23.5727062,43.7552681z"/></g><g><path d="M37.0126648,30.3595505h4.7696609c0.7468414,0,1.3535805-0.606741,1.3535805-1.353054v-3.3639412    c0-0.7463131-0.606739-1.353054-1.3535805-1.353054h-4.7696609c-0.7468414,0-1.3535843,0.606741-1.3535843,1.353054v3.3639412    C35.6590805,29.7528095,36.2658234,30.3595505,37.0126648,30.3595505z"/></g><g><path d="M23.5727062,30.3595505h4.7707157c0.7457867,0,1.3525276-0.606741,1.3525276-1.353054v-3.3639412    c0-0.7463131-0.606741-1.353054-1.3525276-1.353054h-4.7707157c-0.7457867,0-1.3525295,0.606741-1.3525295,1.353054v3.3639412    C22.2201767,29.7528095,22.8269196,30.3595505,23.5727062,30.3595505z"/></g><g><path d="M34.6720734,11.1950493c1.0438919,0,1.8939629-0.8495436,1.8939629-1.893961V6.6961026V4.393434    c0-1.0438905-0.850071-1.893434-1.8939629-1.893434s-1.8929062,0.8495436-1.8929062,1.893434v2.3026686v2.6049857    C32.7791672,10.3455057,33.6281815,11.1950493,34.6720734,11.1950493z"/></g><g><path d="M18.3279724,11.1950493c1.04389,0,1.8929081-0.8495436,1.8929081-1.893961V6.6961026V4.393434    c0-1.0438905-0.8490181-1.893434-1.8929081-1.893434s-1.893961,0.8495436-1.893961,1.893434v2.3026686v2.6049857    C16.4340115,10.3455057,17.2840824,11.1950493,18.3279724,11.1950493z"/></g><g><path d="M43.4066238,7.5050912h-5.2226105v1.7959971c0,1.9366226-1.5758438,3.5119381-3.51194,3.5119381    s-3.5108852-1.5753155-3.5108852-3.5119381V7.5050912h-9.3223305v1.7959971c0,1.9366226-1.574789,3.5119381-3.5108852,3.5119381    s-3.5119381-1.5753155-3.5119381-3.5119381V7.5050912H9.5934219c-3.1306181,0-5.677691,2.5465236-5.677691,5.6771417v2.7471914    h45.168541v-2.7471914C49.0842705,10.0516148,46.5372429,7.5050912,43.4066238,7.5050912z"/></g><g><path d="M3.915731,44.8228569C3.915731,47.953476,6.4628038,50.5,9.5934219,50.5h33.8132019    c3.130619,0,5.6776466-2.546524,5.6776466-5.6771431V17.5474014H3.915731V44.8228569z M44.1176491,36.7092705    l-5.5165024,6.4682236c-0.1400986,0.1643257-0.3402405,0.265976-0.556179,0.2817764    c-0.0200157,0.0015793-0.0400276,0.0021057-0.0589905,0.0021057c-0.1959267,0-0.3855324-0.0711021-0.5330048-0.2006683    l-3.1358833-2.7482414c-0.3360252-0.2944183-0.3697357-0.8053017-0.0758438-1.1413269    c0.2949448-0.3376083,0.8058281-0.3697357,1.1418533-0.0753174l2.5196648,2.2078629l4.9845505-5.8446274    c0.2907295-0.3402367,0.8026657-0.378685,1.1397476-0.0905876C44.3672981,35.8586731,44.4083786,36.36903,44.1176491,36.7092705z     M34.0411034,25.6425552c0-1.637991,1.3325157-2.9710312,2.9715614-2.9710312h4.7696609    c1.6390228,0,2.9715614,1.3330402,2.9715614,2.9710312v3.3639412c0,1.637991-1.3325386,2.9710312-2.9715614,2.9710312h-4.7696609    c-1.6390457,0-2.9715614-1.3330402-2.9715614-2.9710312V25.6425552z M20.6021996,25.6425552    c0-1.637991,1.3325138-2.9710312,2.9705067-2.9710312h4.7707157c1.637991,0,2.9705048,1.3330402,2.9705048,2.9710312v3.3639412    c0,1.637991-1.3325138,2.9710312-2.9705048,2.9710312h-4.7707157c-1.6379929,0-2.9705067-1.3330402-2.9705067-2.9710312    V25.6425552z M20.6021996,39.0377464c0-1.6379929,1.3325138-2.9705048,2.9705067-2.9705048h4.7707157    c1.637991,0,2.9705048,1.3325119,2.9705048,2.9705048v3.3644638c0,1.6379929-1.3325138,2.971035-2.9705048,2.971035h-4.7707157    c-1.6379929,0-2.9705067-1.3330421-2.9705067-2.971035V39.0377464z M7.1622424,25.6425552    c0-1.637991,1.3325143-2.9710312,2.971559-2.9710312h4.7696629c1.6390448,0,2.9715586,1.3330402,2.9715586,2.9710312v3.3639412    c0,1.637991-1.3325138,2.9710312-2.9715586,2.9710312h-4.7696629c-1.6390448,0-2.971559-1.3330402-2.971559-2.9710312V25.6425552z     M7.1622424,39.0377464c0-1.6379929,1.3325143-2.9705048,2.971559-2.9705048h4.7696629    c1.6390448,0,2.9715586,1.3325119,2.9715586,2.9705048v3.3644638c0,1.6379929-1.3325138,2.971035-2.9715586,2.971035h-4.7696629    c-1.6390448,0-2.971559-1.3330421-2.971559-2.971035V39.0377464z"/></g><g><path d="M10.1338015,43.7552681h4.7696629c0.7468395,0,1.3535814-0.6067429,1.3535814-1.3530579v-3.3644638    c0-0.7457886-0.6067419-1.3525276-1.3535814-1.3525276h-4.7696629c-0.7468405,0-1.3535814,0.606739-1.3535814,1.3525276v3.3644638    C8.78022,43.1485252,9.386961,43.7552681,10.1338015,43.7552681z"/></g><g><path d="M10.1338015,30.3595505h4.7696629c0.7468395,0,1.3535814-0.606741,1.3535814-1.353054v-3.3639412    c0-0.7463131-0.6067419-1.353054-1.3535814-1.353054h-4.7696629c-0.7468405,0-1.3535814,0.606741-1.3535814,1.353054v3.3639412    C8.78022,29.7528095,9.386961,30.3595505,10.1338015,30.3595505z"/></g></g></svg>