<?xml version="1.0" encoding="iso-8859-1"?>
<!-- Generator: Adobe Illustrator 19.0.0, SVG Export Plug-In . SVG Version: 6.00 Build 0)  -->
<svg version="1.1" id="Capa_1" xmlns="http://www.w3.org/2000/svg" xmlns:xlink="http://www.w3.org/1999/xlink" x="0px" y="0px"
	 viewBox="0 0 488 488" style="enable-background:new 0 0 488 488;" xml:space="preserve">
<g>
    <g>
      <path d="M280,80h-4.32C283.312,71.496,288,60.304,288,48c0-26.472-21.528-48-48-48s-48,21.528-48,48
        c0,12.304,4.688,23.496,12.32,32H200c-22.056,0-40,17.944-40,40v56c0,4.424,3.584,8,8,8h24v96c0,4.424,3.584,8,8,8h40h40
        c4.416,0,8-3.576,8-8v-96h24c4.416,0,8-3.576,8-8v-56C320,97.944,302.056,80,280,80z M240,16c17.648,0,32,14.352,32,32
        s-14.352,32-32,32s-32-14.352-32-32S222.352,16,240,16z M304,168h-16v-48h-16v152h-24v-88h-16v88h-24V120h-16v48h-16v-48
        c0-13.232,10.768-24,24-24h80c13.232,0,24,10.768,24,24V168z"/>
    </g>
  </g>
  <g>
    <g>
      <path d="M120,272h-4.32c7.632-8.504,12.32-19.696,12.32-32c0-26.472-21.528-48-48-48s-48,21.528-48,48
        c0,12.304,4.688,23.496,12.32,32H40c-22.056,0-40,17.944-40,40v56c0,4.424,3.584,8,8,8h24v96c0,4.424,3.584,8,8,8h40h40
        c4.416,0,8-3.576,8-8v-96h24c4.416,0,8-3.576,8-8v-56C160,289.944,142.056,272,120,272z M80,208c17.648,0,32,14.352,32,32
        s-14.352,32-32,32s-32-14.352-32-32S62.352,208,80,208z M144,360h-16v-48h-16v152H88v-88H72v88H48V312H32v48H16v-48
        c0-13.232,10.768-24,24-24h80c13.232,0,24,10.768,24,24V360z"/>
    </g>
  </g>
  <g>
    <g>
      <path d="M440,272h-4.32c7.632-8.504,12.32-19.696,12.32-32c0-26.472-21.528-48-48-48s-48,21.528-48,48
        c0,12.304,4.688,23.496,12.32,32H360c-22.056,0-40,17.944-40,40v56c0,4.424,3.584,8,8,8h24v96c0,4.424,3.584,8,8,8h40h40
        c4.416,0,8-3.576,8-8v-96h24c4.416,0,8-3.576,8-8v-56C480,289.944,462.056,272,440,272z M400,208c17.648,0,32,14.352,32,32
        s-14.352,32-32,32s-32-14.352-32-32S382.352,208,400,208z M464,360h-16v-48h-16v152h-24v-88h-16v88h-24V312h-16v48h-16v-48
        c0-13.232,10.768-24,24-24h80c13.232,0,24,10.768,24,24V360z"/>
    </g>
  </g>
  <g>
    <g>
      <path d="M456,0H320c-3.232,0-6.152,1.944-7.392,4.936s-0.552,6.432,1.736,8.72L352,51.312V88c0,13.232,10.768,24,24,24h80
        c13.232,0,24-10.768,24-24V24C480,10.768,469.232,0,456,0z M464,88c0,4.416-3.592,8-8,8h-80c-4.408,0-8-3.584-8-8V48
        c0-2.128-0.84-4.16-2.344-5.656L339.312,16H456c4.408,0,8,3.584,8,8V88z"/>
    </g>
  </g>
  <g>
    <g>
      <path d="M341.656,418.344L304,380.688V344c0-13.232-10.768-24-24-24h-80c-13.232,0-24,10.768-24,24v64c0,13.232,10.768,24,24,24
        h136c3.232,0,6.152-1.944,7.392-4.936S343.944,420.632,341.656,418.344z M200,416c-4.408,0-8-3.584-8-8v-64c0-4.416,3.592-8,8-8
        h80c4.408,0,8,3.584,8,8v40c0,2.128,0.84,4.16,2.344,5.656L316.688,416H200z"/>
    </g>
  </g>
  <g>
    <g>
      <path d="M120,0H24C10.768,0,0,10.768,0,24v64c0,13.232,10.768,24,24,24h12.688l29.656,29.656C67.904,143.216,69.952,144,72,144
        s4.096-0.784,5.656-2.344L107.312,112H120c13.232,0,24-10.768,24-24V24C144,10.768,133.232,0,120,0z M128,88c0,4.416-3.592,8-8,8
        h-16c-2.12,0-4.16,0.84-5.656,2.344L72,124.688L45.656,98.344C44.16,96.84,42.12,96,40,96H24c-4.408,0-8-3.584-8-8V24
        c0-4.416,3.592-8,8-8h96c4.408,0,8,3.584,8,8V88z"/>
    </g>
  </g>
  <g>
    <g>
      <rect x="208" y="352" width="64" height="16"/>
    </g>
  </g>
  <g>
    <g>
      <rect x="208" y="384" width="64" height="16"/>
    </g>
  </g>
  <g>
    <g>
      <rect x="40" y="32" width="64" height="16"/>
    </g>
  </g>
  <g>
    <g>
      <rect x="40" y="64" width="64" height="16"/>
    </g>
  </g>
  <g>
    <g>
      <rect x="384" y="32" width="64" height="16"/>
    </g>
  </g>
  <g>
    <g>
      <rect x="384" y="64" width="64" height="16"/>
    </g>
  </g>
</svg>
