<svg display="block" role="presentation" viewBox="0 0 192 64" xmlns="http://www.w3.org/2000/svg"><path d="M 0 6.83 L 11.767 0 L 11.767 6.902 L 0 13.732 Z" fill="rgb(1, 1, 0)" height="13.731657142857141px" id="dLlMONRL5" transform="translate(17.713 0)" width="11.767477894736842px"/><path d="M 0 0 L 25.636 14.879 L 25.636 21.781 L 0 6.902 Z" fill="rgb(1, 1, 0)" height="21.781231746031743px" id="ft2hLGizG" transform="translate(29.481 0)" width="25.636244210526318px"/><path d="M 11.767 0 L 0 6.83 L 0 13.732 L 11.767 6.902 Z" fill="rgb(154, 154, 154)" height="13.731758730158733px" id="PeVz40T01" transform="translate(43.35 14.879)" width="11.767477894736842px"/><path d="M 25.636 14.879 L 0 0 L 0 6.902 L 25.636 21.781 Z" fill="rgb(254, 254, 254)" height="21.781221587301587px" id="vsUu8eUS8" transform="translate(17.714 6.829)" width="25.636244210526314px"/><path d="M 25.636 21.709 L 0 6.83 L 11.767 0 L 37.404 14.879 Z" fill="rgb(239, 239, 239)" height="21.709307936507937px" id="WxCcNox3M" transform="translate(17.714 0)" width="37.40370361768421px"/><path d="M 0 3.451 L 11.767 10.281 L 17.713 6.83 L 5.946 0 Z" fill="rgb(239, 239, 239)" height="10.280838095238098px" id="afgxDb0DY" transform="translate(0 12.76)" width="17.71311157894737px"/><path d="M 0 3.451 L 0 33.21 L 5.946 29.759 L 5.946 0 Z" fill="rgb(154, 154, 154)" height="33.20970158730158px" id="GDqTHL6Q3" transform="translate(11.767 19.59)" width="5.945633684210527px"/><path d="M 0 3.451 L 0 3.451 L 5.946 0 L 5.946 0 Z" fill="rgb(1, 1, 0)" height="3.450920634920635px" id="a9GcRrdmk" transform="translate(0 12.76)" width="5.9456741052631585px"/><path d="M 0 29.759 L 0 0 L 11.767 6.83 L 11.767 36.589 Z" fill="rgb(254, 254, 254)" height="36.588698412698406px" id="kXPmGKsAl" transform="translate(0 16.211)" width="11.767496650105263px"/><path d="M 5.946 3.451 L 5.946 17.111 L 0 13.66 L 0 0 Z" fill="rgb(1, 1, 0)" height="17.110653968253967px" id="jlshi6MsW" transform="translate(48.327 32.01)" width="5.945633684210524px"/><path d="M 31.582 3.451 L 5.946 18.33 L 0 14.879 L 25.636 0 Z" fill="rgb(1, 1, 0)" height="18.33031111111111px" id="qx0r3O1Lh" transform="translate(22.69 45.67)" width="31.581978947368423px"/><path d="M 5.946 17.111 L 5.946 3.451 L 0 0 L 0 13.66 Z" fill="rgb(254, 254, 254)" height="17.110755555555556px" id="Hb9VX2LpK" transform="translate(22.69 46.889)" width="5.945734736842106px"/><path d="M 5.946 18.33 L 31.582 3.451 L 25.636 0 L 0 14.879 Z" fill="rgb(239, 239, 239)" height="18.330311111111108px" id="KWZwCgDBJ" transform="translate(22.69 32.01)" width="31.581877894736845px"/><path d="M 5.946 3.451 L 5.946 3.451 L 0 0 L 0 0 Z" fill="rgb(1, 1, 0)" height="3.4508190476190497px" id="eA07qGXue" transform="translate(48.327 32.01)" width="5.945633684210524px"/><path d="M 25.636 0 L 25.636 13.66 L 0 28.539 L 0 14.879 Z" fill="rgb(154, 154, 154)" height="28.539225396825394px" id="C_5vYxlBR" transform="translate(28.636 35.46)" width="25.636244210526314px"/><path d="M 4.585 16.255 L 1.507 16.255 L 1.507 2.316 L 0 2.316 L 0 0 L 4.585 0 Z" fill="rgb(244, 244, 244)" height="16.254780952380955px" id="j1WhB8Trp" transform="translate(143.384 31.865)" width="4.584757894736849px"/><path d="M 4.363 12.581 C 1.728 12.581 0 11.156 0 8.684 C 0 6.034 2.059 4.81 5.272 4.81 L 7.731 4.81 L 7.731 4.698 C 7.731 3.318 7.043 2.628 5.648 2.628 C 4.54 2.628 2.591 2.694 1.351 2.783 L 1.351 0.156 C 2.37 0.067 3.899 0 5.094 0 C 8.794 0 10.676 1.403 10.676 4.765 L 10.676 12.269 L 8.24 12.269 L 8.24 9.953 C 7.708 11.668 6.402 12.581 4.363 12.581 Z M 5.227 10.376 C 6.49 10.376 7.642 9.775 7.731 7.793 L 7.731 6.658 L 5.227 6.658 C 3.832 6.658 3.035 7.415 3.035 8.528 C 3.035 9.642 3.81 10.376 5.227 10.376 Z" fill="rgb(244, 244, 244)" height="12.580774603174602px" id="Sea012Evo" transform="translate(130.761 35.851)" width="10.676210526315787px"/><path d="M 8.506 15.654 L 6.778 15.654 C 3.456 15.654 1.905 14.496 1.905 10.955 L 1.905 5.678 L 0 5.678 L 0 3.407 L 1.927 3.407 L 1.927 0 L 4.807 0 L 4.807 3.407 L 8.506 3.407 L 8.506 5.678 L 4.785 5.678 L 4.785 11.156 C 4.785 12.336 5.449 13.004 6.623 13.004 L 8.506 13.004 Z" fill="rgb(244, 244, 244)" height="15.653587301587299px" id="NaBaEhQs3" transform="translate(120.666 32.623)" width="8.505599999999987px"/><path d="M 2.813 3.362 C 1.596 3.362 1.042 2.65 1.042 1.67 C 1.042 0.69 1.596 0 2.813 0 C 4.01 0 4.564 0.69 4.564 1.67 C 4.564 2.65 4.01 3.362 2.813 3.362 Z M 4.763 16.9 L 1.684 16.9 L 1.684 7.125 L 0 7.125 L 0 4.81 L 4.763 4.81 Z" fill="rgb(244, 244, 244)" height="16.90046994559878px" id="mhZixleJP" transform="translate(113.907 31.22)" width="4.762610526315798px"/><path d="M 3.079 16.923 L 0 16.923 L 0 0.379 L 2.436 0.379 L 2.436 3.407 C 3.19 1.136 4.961 0 7.154 0 C 10.544 0 12.78 2.694 12.78 6.168 L 12.78 6.635 C 12.78 10.109 10.609 12.87 7.154 12.87 C 5.493 12.87 4.009 12.247 3.079 10.866 Z M 6.379 10.265 C 8.351 10.265 9.702 8.684 9.702 6.413 C 9.702 4.142 8.373 2.605 6.379 2.605 C 4.563 2.605 2.99 3.874 2.99 6.057 L 2.99 6.947 C 2.99 9.04 4.651 10.265 6.379 10.265 Z" fill="rgb(244, 244, 244)" height="16.922819047619047px" id="v9mquSlAn" transform="translate(99.527 35.651)" width="12.779823157894732px"/><path d="M 4.363 12.581 C 1.728 12.581 0 11.156 0 8.684 C 0 6.034 2.06 4.81 5.272 4.81 L 7.73 4.81 L 7.73 4.698 C 7.73 3.318 7.044 2.628 5.648 2.628 C 4.541 2.628 2.591 2.694 1.351 2.783 L 1.351 0.156 C 2.37 0.067 3.898 0 5.094 0 C 8.793 0 10.676 1.403 10.676 4.765 L 10.676 12.269 L 8.24 12.269 L 8.24 9.953 C 7.708 11.668 6.401 12.581 4.363 12.581 Z M 5.227 10.376 C 6.49 10.376 7.642 9.775 7.73 7.793 L 7.73 6.658 L 5.227 6.658 C 3.832 6.658 3.035 7.415 3.035 8.528 C 3.035 9.642 3.81 10.376 5.227 10.376 Z" fill="rgb(244, 244, 244)" height="12.580774603174602px" id="ybILxFAdM" transform="translate(85.552 35.851)" width="10.67610947368422px"/><path d="M 8.24 17.145 C 2.37 17.145 0 12.447 0 8.795 L 0 8.306 C 0 4.298 2.481 0 8.129 0 C 12.492 0 15.328 2.538 15.726 6.368 L 12.559 6.368 C 12.204 4.142 10.455 2.939 8.129 2.939 C 4.917 2.939 3.19 5.3 3.19 8.573 C 3.19 11.779 4.961 14.206 8.24 14.206 C 10.654 14.206 12.47 12.937 12.825 10.777 L 15.992 10.777 C 15.571 14.273 12.847 17.145 8.24 17.145 Z" fill="rgb(244, 244, 244)" height="17.145498412698412px" id="FdRqjIuhb" transform="translate(68.103 31.397)" width="15.991983157894738px"/><path d="M 3.079 12.469 L 0 12.469 L 0 0.379 L 2.436 0.379 L 2.436 3.362 C 2.947 1.136 4.319 0 6.556 0 L 6.69 0 C 9.546 0 11.053 1.87 11.053 5.544 L 11.053 12.469 L 7.974 12.469 L 7.974 5.277 C 7.974 3.785 7.066 2.783 5.604 2.783 C 4.098 2.783 3.079 3.808 3.079 5.366 Z" fill="rgb(244, 244, 244)" height="12.469333333333333px" id="atK5kMRsL" transform="translate(180.208 15.858)" width="11.05313684210528px"/><path d="M 6.579 12.937 C 2.348 12.937 0 9.931 0 6.725 L 0 6.257 C 0 2.939 2.481 0 6.579 0 C 10.654 0 13.135 2.939 13.135 6.257 L 13.135 6.725 C 13.135 9.931 10.787 12.937 6.579 12.937 Z M 6.579 10.287 C 8.816 10.287 10.057 8.662 10.057 6.48 C 10.057 4.275 8.749 2.65 6.579 2.65 C 4.386 2.65 3.079 4.275 3.079 6.48 C 3.079 8.662 4.32 10.287 6.579 10.287 Z" fill="rgb(244, 244, 244)" height="12.93693968253968px" id="fa8rS_p90" transform="translate(164.377 15.813)" width="13.1348210526316px"/><path d="M 2.813 3.362 C 1.595 3.362 1.041 2.65 1.041 1.67 C 1.041 0.69 1.595 0 2.813 0 C 4.009 0 4.563 0.69 4.563 1.67 C 4.563 2.65 4.009 3.362 2.813 3.362 Z M 4.763 16.901 L 1.684 16.901 L 1.684 7.125 L 0 7.125 L 0 4.81 L 4.763 4.81 Z" fill="rgb(244, 244, 244)" height="16.900571532900372px" id="G91nPFy2_" transform="translate(156.865 11.427)" width="4.762610526315783px"/><path d="M 8.506 15.654 L 6.778 15.654 C 3.455 15.654 1.905 14.496 1.905 10.955 L 1.905 5.678 L 0 5.678 L 0 3.407 L 1.927 3.407 L 1.927 0 L 4.807 0 L 4.807 3.407 L 8.506 3.407 L 8.506 5.678 L 4.785 5.678 L 4.785 11.156 C 4.785 12.336 5.449 13.004 6.623 13.004 L 8.506 13.004 Z" fill="rgb(244, 244, 244)" height="15.6535873015873px" id="mV4UTYbjy" transform="translate(146.883 12.829)" width="8.505600000000001px"/><path d="M 4.496 12.492 L 4.363 12.492 C 1.572 12.492 0 10.644 0 7.014 L 0 0 L 3.078 0 L 3.078 7.281 C 3.078 8.773 3.987 9.708 5.382 9.708 C 6.8 9.708 7.796 8.729 7.796 7.148 L 7.796 0 L 10.875 0 L 10.875 12.113 L 8.439 12.113 L 8.439 9.308 C 7.93 11.423 6.622 12.492 4.496 12.492 Z" fill="rgb(244, 244, 244)" height="12.491784126984127px" id="XIlqk6YKB" transform="translate(134.022 16.214)" width="10.875284210526317px"/><path d="M 4.586 16.255 L 1.507 16.255 L 1.507 2.316 L 0 2.316 L 0 0 L 4.586 0 Z" fill="rgb(244, 244, 244)" height="16.25478095238095px" id="aLm5hanNp" transform="translate(126.187 12.073)" width="4.585768421052628px"/><path d="M 6.579 12.937 C 2.348 12.937 0 9.931 0 6.725 L 0 6.257 C 0 2.939 2.481 0 6.579 0 C 10.654 0 13.135 2.939 13.135 6.257 L 13.135 6.725 C 13.135 9.931 10.787 12.937 6.579 12.937 Z M 6.579 10.287 C 8.816 10.287 10.057 8.662 10.057 6.48 C 10.057 4.275 8.749 2.65 6.579 2.65 C 4.386 2.65 3.079 4.275 3.079 6.48 C 3.079 8.662 4.32 10.287 6.579 10.287 Z" fill="rgb(244, 244, 244)" height="12.93693968253968px" id="f7oWwQNgy" transform="translate(111.708 15.813)" width="13.134821052631585px"/><path d="M 8.704 12.091 L 3.765 12.091 L 0 0 L 3.168 0 L 6.025 9.552 L 6.534 9.552 L 8.992 0 L 11.96 0 Z" fill="rgb(244, 244, 244)" height="12.090920634920634px" id="IEwoomJtc" transform="translate(98.479 16.236)" width="11.96038736842106px"/><path d="M 6.18 12.937 C 2.038 12.937 0 9.775 0 6.68 L 0 6.257 C 0 3.051 2.082 0 6.047 0 C 9.923 0 11.961 2.917 11.961 6.101 L 11.961 7.214 L 2.924 7.214 C 3.123 9.107 4.142 10.376 6.18 10.376 C 7.664 10.376 8.661 9.686 8.926 8.795 L 11.762 8.795 C 11.23 11.289 9.148 12.937 6.18 12.937 Z M 6.047 2.561 C 4.319 2.561 3.278 3.585 2.968 5.322 L 9.015 5.322 C 8.771 3.563 7.775 2.561 6.047 2.561 Z" fill="rgb(244, 244, 244)" height="12.93693968253968px" id="HzHZTO5Xp" transform="translate(85.405 15.813)" width="11.96079157894736px"/><path d="M 5.847 16.455 L 0 16.455 L 0 0 L 5.847 0 C 11.673 0 14.574 3.83 14.574 7.949 L 14.574 8.439 C 14.574 12.358 11.673 16.455 5.847 16.455 Z M 6.047 2.939 L 3.145 2.939 L 3.145 13.516 L 6.047 13.516 C 9.391 13.516 11.385 11.312 11.385 8.194 C 11.385 4.943 9.391 2.939 6.047 2.939 Z" fill="rgb(244, 244, 244)" height="16.4552126984127px" id="KwsnLEOTh" transform="translate(69.055 11.961)" width="14.574416842105252px"/></svg>