<?xml version="1.0" encoding="iso-8859-1"?>
<!-- Generator: Adobe Illustrator 19.0.0, SVG Export Plug-In . SVG Version: 6.00 Build 0)  -->
<svg xmlns="http://www.w3.org/2000/svg" xmlns:xlink="http://www.w3.org/1999/xlink" version="1.1" id="Layer_1" x="0px" y="0px" viewBox="0 0 512 512" style="enable-background:new 0 0 512 512;" xml:space="preserve" width="512" height="512">
<g>
	<g>
		<path d="M256,170.64c-7.041,0-12.998,4.327-15.174,11.024l-27.294,84.004c-0.128,0.395-0.493,0.66-0.908,0.66h-88.327    c-7.042,0-12.998,4.327-15.174,11.024s0.099,13.699,5.796,17.837l71.459,51.918c0.335,0.243,0.474,0.672,0.346,1.066    l-27.294,84.003c-2.176,6.697,0.099,13.699,5.795,17.838c5.697,4.14,13.061,4.139,18.756,0l71.457-51.917    c0.338-0.245,0.788-0.244,1.124-0.001l71.458,51.918c2.849,2.069,6.113,3.104,9.378,3.104s6.529-1.035,9.378-3.104    c5.696-4.139,7.971-11.141,5.795-17.837l-27.294-84.004c-0.128-0.394,0.011-0.823,0.347-1.067l71.458-51.917    c5.697-4.139,7.972-11.141,5.796-17.838s-8.132-11.024-15.174-11.024h-88.327c-0.415,0-0.78-0.265-0.908-0.659l-27.294-84.004    c0,0,0,0,0,0C268.998,174.967,263.041,170.64,256,170.64z M284.202,270.304c2.143,6.594,8.24,11.024,15.174,11.024h88.327    c0.26,0,0.693,0,0.908,0.66c0.214,0.66-0.137,0.915-0.347,1.067l-71.457,51.917c-5.61,4.075-7.939,11.244-5.797,17.838    l27.294,84.004c0.08,0.247,0.214,0.66-0.347,1.067c-0.564,0.408-0.913,0.152-1.122,0l-71.459-51.918    c-2.804-2.037-6.09-3.055-9.377-3.055c-3.286,0-6.573,1.019-9.378,3.056l-71.458,51.917c-0.209,0.153-0.558,0.409-1.122,0    c-0.561-0.408-0.427-0.821-0.347-1.068l27.294-84.003c2.143-6.595-0.187-13.763-5.796-17.838l-71.458-51.917    c-0.21-0.152-0.561-0.407-0.347-1.067c0.215-0.66,0.648-0.66,0.908-0.66h88.327c6.934,0,13.031-4.43,15.174-11.024l27.294-84.004    c0.08-0.247,0.215-0.66,0.908-0.66s0.828,0.413,0.908,0.659L284.202,270.304z"/>
		<path d="M465.839,36.917h-20.084v-8.202C445.755,12.882,432.873,0,417.039,0c-15.833,0-28.715,12.882-28.715,28.715v8.202h-49.93    v-8.202C338.395,12.882,325.513,0,309.68,0s-28.715,12.882-28.715,28.715v8.202h-49.93v-8.202C231.035,12.882,218.153,0,202.32,0    s-28.715,12.882-28.715,28.715v8.202h-49.93v-8.202C123.676,12.882,110.794,0,94.961,0C79.127,0,66.245,12.882,66.245,28.715    v8.202H46.161c-15.275,0-27.702,12.427-27.702,27.703v105.433c0,4.142,3.357,7.5,7.5,7.5s7.5-3.358,7.5-7.5v-35.258h445.082    v288.858c0,4.142,3.357,7.5,7.5,7.5s7.5-3.358,7.5-7.5V64.62C493.541,49.345,481.114,36.917,465.839,36.917z M403.324,28.715    c0-7.563,6.152-13.715,13.715-13.715s13.716,6.153,13.716,13.715V44.34c0,0.026-0.001,0.052-0.001,0.077s0.001,0.052,0.001,0.077    v15.931c0,7.563-6.153,13.715-13.716,13.715s-13.715-6.153-13.715-13.715V28.715z M295.965,28.715    c0-7.563,6.152-13.715,13.715-13.715s13.715,6.153,13.715,13.715v31.711c0,7.563-6.152,13.715-13.715,13.715    s-13.715-6.153-13.715-13.715V28.715z M188.605,28.715c0-7.563,6.152-13.715,13.715-13.715s13.715,6.153,13.715,13.715v31.711    c0,7.563-6.152,13.715-13.715,13.715s-13.715-6.153-13.715-13.715V28.715z M94.961,15c7.563,0,13.715,6.153,13.715,13.715v31.711    c0,7.563-6.152,13.715-13.715,13.715s-13.716-6.153-13.716-13.715V44.495c0-0.026,0.001-0.052,0.001-0.077    s-0.001-0.052-0.001-0.077V28.715C81.245,21.153,87.398,15,94.961,15z M33.459,119.795V64.62c0-7.004,5.698-12.703,12.702-12.703    h20.084v8.509c0,15.833,12.882,28.715,28.716,28.715c15.833,0,28.715-12.882,28.715-28.715v-8.509h49.93v8.509    c0,15.833,12.882,28.715,28.715,28.715s28.715-12.882,28.715-28.715v-8.509h49.93v8.509c0,15.833,12.882,28.715,28.715,28.715    s28.715-12.882,28.715-28.715v-8.509h49.93v8.509c0,15.833,12.882,28.715,28.715,28.715c15.834,0,28.716-12.882,28.716-28.715    v-8.509h20.084c7.004,0,12.702,5.698,12.702,12.703v55.175H33.459z"/>
		<path d="M486.041,451.816c-4.143,0-7.5,3.358-7.5,7.5v24.981c0,7.004-5.698,12.703-12.702,12.703H46.161    c-7.004,0-12.702-5.698-12.702-12.703V205.254c0-4.142-3.357-7.5-7.5-7.5s-7.5,3.358-7.5,7.5v279.043    c0,15.275,12.427,27.703,27.702,27.703h419.678c15.275,0,27.702-12.427,27.702-27.703v-24.981    C493.541,455.174,490.184,451.816,486.041,451.816z"/>
	</g>
</g>















</svg>
