<!-- Generated by IcoMoon.io -->
<svg version="1.1" xmlns="http://www.w3.org/2000/svg" width="576" height="576" viewBox="0 0 576 576">
<title></title>
<g id="icomoon-ignore">
</g>
<path fill="#000" d="M543.996 32h-511.993c-17.668 0-31.993 14.325-31.993 31.994v448.004c0 17.669 14.325 32.002 31.993 32.002h511.993c17.668 0 31.994-14.333 31.994-32.002v-448.004c0-17.669-14.326-31.994-31.994-31.994zM511.986 464c0 8.834-7.154 15.997-15.996 15.997h-259.122l179.253-179.258 95.865 95.862v67.399zM511.986 307.378l-69.447-69.442c-1.109-1.637-2.385-3.196-3.834-4.647-6.287-6.287-14.559-9.377-22.799-9.283-8.195-0.094-16.422 2.98-22.678 9.236-1.293 1.293-2.441 2.675-3.463 4.12l-242.628 242.635h-67.128c-8.842 0-15.996-7.163-15.996-15.997v-352c0-8.843 7.154-16.005 15.996-16.005h415.981c8.842 0 15.996 7.162 15.996 16.005v195.378z"></path>
<path fill="#000" d="M192.003 159.998c-35.353 0-64.003 28.65-64.003 64.003 0 35.345 28.65 63.995 64.003 63.995 35.336 0 64.003-28.65 64.003-63.995 0-35.353-28.667-64.003-64.003-64.003z"></path>
</svg>
