<?xml version="1.0" encoding="iso-8859-1"?>
<!-- Generator: Adobe Illustrator 19.0.0, SVG Export Plug-In . SVG Version: 6.00 Build 0)  -->
<svg xmlns="http://www.w3.org/2000/svg" xmlns:xlink="http://www.w3.org/1999/xlink" version="1.1" id="Layer_1" x="0px" y="0px" viewBox="0 0 512 512" style="enable-background:new 0 0 512 512;" xml:space="preserve">
<g>
	<g>
		<path d="M463.693,384.032c-3.164-3.161-8.29-3.161-11.453,0l-2,2.001l-13.394-13.394c0.783-22.258-27.339-50.502-33.543-56.451    l-13.757-13.758v-46.429v-29.086c2.852,1.715,6.164,2.795,9.864,3.186c0.072,0.009,0.145,0.015,0.216,0.019    c0.072,0.006,0.287,0.021,0.621,0.021c3.491,0,20.063-1.536,24.546-30.21c1.572-10.059,4.932-14.918,8.823-20.542    c6.334-9.158,12.874-18.616,10.008-44.685l7.678-7.677l0.94,0.94c1.581,1.581,3.654,2.371,5.726,2.371s4.145-0.79,5.727-2.371    l44.86-44.859c1.518-1.519,2.371-3.578,2.371-5.727c0-2.148-0.853-4.207-2.371-5.727L439.268,2.371    c-3.164-3.161-8.29-3.161-11.453,0l-44.86,44.861c-1.518,1.519-2.371,3.578-2.371,5.727c0,2.148,0.853,4.207,2.372,5.727    l1.999,1.999l-13.394,13.393c-22.254-0.76-50.505,27.342-56.451,33.544l-14.831,14.832h-44.278h-28.705    c2.118-3.082,3.438-6.765,3.881-10.94c0.008-0.071,0.015-0.144,0.021-0.216c0.066-0.825,1.233-20.255-30.189-25.167    c-10.058-1.572-14.917-4.932-20.542-8.824c-9.159-6.334-18.615-12.87-44.685-10.008l-7.676-7.676l0.939-0.939    c3.163-3.164,3.163-8.29,0-11.453L84.18,2.371C82.661,0.853,80.602,0,78.454,0c-2.148,0-4.207,0.853-5.727,2.372L3.446,71.657    c-3.163,3.163-3.163,8.29,0,11.452l44.86,44.859c1.582,1.581,3.655,2.371,5.727,2.371s4.145-0.79,5.727-2.371l2-2l13.394,13.393    c-0.782,22.257,27.338,50.5,33.542,56.45l13.76,13.76v46.427v29.088c-2.852-1.716-6.166-2.798-9.867-3.188    c-0.071-0.009-0.145-0.015-0.216-0.021c-0.838-0.077-20.255-1.229-25.168,30.189c-1.572,10.06-4.931,14.918-8.821,20.543    c-6.334,9.158-12.874,18.616-10.008,44.685l-7.675,7.675l-0.939-0.939c-3.163-3.163-8.29-3.164-11.453-0.001L3.447,428.891    c-1.519,1.519-2.372,3.578-2.372,5.727c0,2.148,0.853,4.207,2.371,5.727l69.282,69.284c1.519,1.518,3.578,2.371,5.727,2.371    c2.148,0,4.207-0.853,5.727-2.371l44.86-44.861c3.163-3.164,3.163-8.29,0-11.453l-2-2l13.395-13.394    c0.302,0.011,0.609,0.016,0.916,0.016c22.109,0,49.666-27.439,55.534-33.558l13.856-13.855c0.307-0.307,0.576-0.638,0.824-0.978    H256h28.706c-2.12,3.081-3.44,6.765-3.882,10.94c-0.008,0.071-0.015,0.144-0.021,0.214c-0.065,0.826-1.237,20.256,30.188,25.169    c10.059,1.573,14.917,4.932,20.542,8.824c9.158,6.334,18.617,12.872,44.686,10.007l7.676,7.676l-0.939,0.939    c-3.163,3.164-3.163,8.29,0,11.453l44.86,44.861c1.519,1.518,3.578,2.371,5.727,2.371c2.148,0,4.208-0.853,5.727-2.372    l69.282-69.285c3.161-3.161,3.161-8.288,0-11.452L463.693,384.032z M433.541,19.551l57.832,57.831l-33.407,33.406l-55.824-55.819    c-0.003-0.003-0.005-0.006-0.009-0.01c-0.003-0.003-0.006-0.005-0.01-0.009l-1.991-1.991L433.541,19.551z M264.097,138.65h75.405    c4.473,0,8.098-3.625,8.098-8.098s-3.625-8.098-8.098-8.098H323.18l3.443-3.442c0.041-0.041,0.082-0.083,0.122-0.125    c12.448-13,35.591-31.029,45.717-28.427c2.773,0.71,5.714-0.094,7.737-2.117l16.208-16.206l43.438,43.437l-10.475,10.475    c-1.792,1.793-2.642,4.322-2.296,6.833c3.161,22.917-1.227,29.263-6.782,37.295c-4.169,6.029-9.359,13.532-11.503,27.254    c-1.963,12.554-6.407,16.084-8.231,16.493c-2.601-0.396-3.634-1.48-4.297-2.506c-3.574-5.522-1.559-19.054,1.014-26.904    c1.401-4.243-0.902-8.82-5.145-10.226c-0.858-0.284-1.73-0.409-2.586-0.405v-43.329c0-4.473-3.625-8.098-8.098-8.098h-16.032    c-4.473,0-8.098,3.625-8.098,8.098c0,4.473,3.625,8.098,8.098,8.098h7.933v51.455c0,0.003,0,0.008,0,0.011v57.785h-41.125    c-4.473,0-8.098,3.625-8.098,8.098v14.169c0,2.859,1.507,5.505,3.965,6.963c5.651,3.356,9.027,9.273,9.027,15.829    c0,10.142-8.252,18.393-18.394,18.393c-10.143,0-18.393-8.251-18.393-18.393c0-6.556,3.374-12.474,9.027-15.829    c2.456-1.459,3.964-4.106,3.964-6.963v-14.169c0-4.473-3.625-8.098-8.098-8.098h-41.124v-33.027h1.855    c6.513,8.112,16.482,12.991,27.01,12.991c19.073,0,34.588-15.517,34.588-34.59c0-19.073-15.516-34.588-34.588-34.588    c-10.527,0-20.497,4.88-27.01,12.991h-1.855V138.65z M247.901,138.65v41.126c0,4.473,3.625,8.098,8.098,8.098h14.168    c2.859,0,5.506-1.506,6.963-3.965c3.356-5.652,9.273-9.027,15.83-9.027c10.142,0,18.392,8.251,18.392,18.392    c0,10.142-8.251,18.394-18.392,18.394c-6.556,0-12.475-3.375-15.83-9.027c-1.46-2.458-4.105-3.965-6.963-3.965h-14.168    c-4.473,0-8.098,3.625-8.098,8.098v41.125h-33.028v-1.855c8.11-6.512,12.99-16.481,12.99-27.009    c0-19.072-15.517-34.589-34.589-34.589c-19.073,0-34.589,15.517-34.589,34.589c0,10.525,4.882,20.493,12.99,27.008v1.856H138.65    V138.65H247.901z M56.041,108.779c-0.003,0.003-0.008,0.006-0.011,0.01c-0.003,0.003-0.006,0.008-0.01,0.011l-1.989,1.989    L20.624,77.383l57.83-57.833l33.408,33.408l-0.93,0.93c-0.003,0.003-0.008,0.006-0.011,0.01s-0.006,0.008-0.01,0.011    L56.041,108.779z M122.451,130.552v56.115l-2.365-2.368c-0.042-0.042-0.083-0.083-0.126-0.123    c-12.999-12.447-31.024-35.586-28.427-45.719c0.71-2.772-0.094-5.714-2.118-7.737L73.21,114.517l43.438-43.438l10.473,10.473    c1.791,1.792,4.318,2.641,6.833,2.296c22.922-3.161,29.263,1.227,37.295,6.783c6.029,4.169,13.532,9.358,27.254,11.504    c12.554,1.962,16.084,6.405,16.493,8.229c-0.396,2.602-1.481,3.635-2.507,4.299c-2.047,1.325-5.198,1.878-8.749,1.923    c-2.892-0.56-5.509-1.247-7.47-1.89c-0.664-0.22-1.349-0.331-2.036-0.331c-1.1,0-2.143,0.282-3.064,0.781    c-2.027-0.445-3.937-0.958-5.589-1.499c-4.24-1.396-8.818,0.904-10.223,5.146c-0.404,1.221-0.492,2.468-0.326,3.661h-44.482    C126.076,122.454,122.451,126.079,122.451,130.552z M78.455,492.449l-57.83-57.832l33.409-33.407l0.93,0.93    c0.003,0.003,0.006,0.008,0.01,0.011c0.003,0.003,0.008,0.006,0.011,0.01l54.878,54.88c0.001,0.001,0.001,0.001,0.001,0.001    s0.001,0,0.001,0.001l1.999,1.997L78.455,492.449z M185.374,392.987c-0.04,0.04-0.082,0.083-0.121,0.123    c-12.467,12.997-35.621,31.018-45.719,28.431c-2.774-0.711-5.714,0.093-7.737,2.117l-16.207,16.206l-43.437-43.438l10.472-10.472    c1.792-1.792,2.641-4.321,2.296-6.833c-3.16-22.917,1.229-29.263,6.783-37.295c4.169-6.029,9.358-13.532,11.502-27.255    c1.963-12.554,6.407-16.084,8.231-16.493c2.602,0.396,3.635,1.481,4.299,2.507c3.574,5.524,1.557,19.06-1.015,26.907    c-1.398,4.243,0.904,8.818,5.146,10.223c0.858,0.285,1.73,0.41,2.587,0.405v43.329c0,4.472,3.625,8.098,8.098,8.098h58.264    L185.374,392.987z M247.902,373.349H138.651v-51.459c0-0.002,0-0.003,0-0.005v-57.788h41.123c4.473,0,8.098-3.625,8.098-8.098    V241.83c0-2.857-1.506-5.505-3.963-6.962c-5.568-3.307-9.028-9.373-9.028-15.83c0-10.143,8.251-18.393,18.393-18.393    c10.143,0,18.393,8.251,18.393,18.393c0,6.556-3.374,12.474-9.026,15.829c-2.457,1.459-3.965,4.105-3.965,6.963v14.168    c0,4.473,3.625,8.098,8.098,8.098h41.126v33.028h-1.856c-6.513-8.111-16.482-12.991-27.007-12.991    c-19.074,0-34.591,15.517-34.591,34.591c0,19.073,15.517,34.589,34.591,34.589c10.525,0,20.495-4.881,27.007-12.992h1.856V373.349    z M264.097,373.349v-41.126c0-4.473-3.625-8.098-8.098-8.098H241.83c-2.857,0-5.505,1.506-6.962,3.964    c-3.358,5.654-9.276,9.029-15.83,9.029c-10.142,0-18.394-8.251-18.394-18.393s8.252-18.394,18.394-18.394    c6.555,0,12.473,3.375,15.83,9.028c1.459,2.457,4.105,3.964,6.962,3.964h14.168c4.473,0,8.098-3.625,8.098-8.098v-41.126h33.026    v1.857c-8.111,6.512-12.99,16.48-12.99,27.008c0,19.073,15.517,34.589,34.589,34.589c19.074,0,34.591-15.517,34.591-34.589    c0-10.527-4.88-20.496-12.991-27.009v-1.856h33.027v109.252H264.097z M384.876,430.447c-1.791-1.792-4.318-2.639-6.833-2.296    c-22.925,3.161-29.263-1.228-37.296-6.782c-6.029-4.17-13.531-9.359-27.253-11.505c-12.556-1.962-16.085-6.406-16.493-8.229    c0.396-2.602,1.48-3.635,2.506-4.298c5.525-3.576,19.055-1.559,26.902,1.013c4.248,1.401,8.821-0.902,10.227-5.145    c0.404-1.221,0.492-2.467,0.326-3.661h44.484c4.473,0,8.098-3.626,8.098-8.098v-56.114l2.365,2.366    c0.042,0.042,0.083,0.083,0.126,0.123c13,12.447,31.025,35.587,28.427,45.719c-0.712,2.773,0.094,5.715,2.118,7.738l16.206,16.205    l-43.437,43.437L384.876,430.447z M433.543,492.449l-33.407-33.408l0.93-0.93c0.003-0.003,0.008-0.006,0.011-0.01    s0.007-0.008,0.01-0.011l56.881-56.881l33.407,33.406L433.543,492.449z"/>
	</g>
</g>
<g>
</g>
<g>
</g>
<g>
</g>
<g>
</g>
<g>
</g>
<g>
</g>
<g>
</g>
<g>
</g>
<g>
</g>
<g>
</g>
<g>
</g>
<g>
</g>
<g>
</g>
<g>
</g>
<g>
</g>
</svg>
