<svg id="Capa_1" enable-background="new 0 0 512 512" height="512" viewBox="0 0 512 512" width="512" xmlns="http://www.w3.org/2000/svg"><g><path d="m304.985 289.001h-96.044c-4.143 0-7.5 3.357-7.5 7.5s3.357 7.5 7.5 7.5h96.044c4.143 0 7.5-3.357 7.5-7.5s-3.357-7.5-7.5-7.5z"/><path d="m207.21 238.397v-21.267h13.567c4.143 0 7.5-3.357 7.5-7.5s-3.357-7.5-7.5-7.5h-13.567v-12.697h15.386c4.143 0 7.5-3.357 7.5-7.5s-3.357-7.5-7.5-7.5h-22.886c-4.143 0-7.5 3.357-7.5 7.5v56.464c0 4.143 3.357 7.5 7.5 7.5s7.5-3.357 7.5-7.5z"/><path d="m280.885 189.434c4.143 0 7.5-3.357 7.5-7.5s-3.357-7.5-7.5-7.5h-22.886c-4.143 0-7.5 3.357-7.5 7.5v56.464c0 4.143 3.357 7.5 7.5 7.5s7.5-3.357 7.5-7.5v-21.267h13.567c4.143 0 7.5-3.357 7.5-7.5s-3.357-7.5-7.5-7.5h-13.567v-12.697z"/><path d="m335.839 188.95c4.143 0 7.5-3.357 7.5-7.5s-3.357-7.5-7.5-7.5h-23.749c-4.143 0-7.5 3.357-7.5 7.5v56.361c0 4.143 3.357 7.5 7.5 7.5h23.749c4.143 0 7.5-3.357 7.5-7.5s-3.357-7.5-7.5-7.5h-16.249v-13.181h14.498c4.143 0 7.5-3.357 7.5-7.5s-3.357-7.5-7.5-7.5h-14.498v-13.18z"/><path d="m411.602 195.973c0-12.286-10.371-22.282-23.119-22.282h-15.115c-.003 0-.006 0-.009 0s-.006 0-.009 0c-4.143 0-7.5 3.357-7.5 7.5v56.881c0 4.143 3.357 7.5 7.5 7.5s7.5-3.357 7.5-7.5v-15.069l17.623 20.024c1.482 1.685 3.553 2.545 5.633 2.545 1.76 0 3.527-.616 4.952-1.87 3.109-2.736 3.411-7.476.675-10.585l-14.056-15.97c9.235-2.923 15.925-11.308 15.925-21.174zm-23.12 7.283c-1.774 0-4.729.012-7.553.025-.014-2.748-.032-11.709-.04-14.591h7.593c4.401 0 8.119 3.335 8.119 7.282.001 3.949-3.717 7.284-8.119 7.284z"/><path d="m136.339 174.225c-19.817 0-35.94 16.123-35.94 35.94s16.123 35.94 35.94 35.94c19.818 0 35.941-16.123 35.941-35.94s-16.123-35.94-35.941-35.94zm0 56.88c-11.547 0-20.94-9.394-20.94-20.94s9.394-20.94 20.94-20.94 20.941 9.394 20.941 20.94-9.394 20.94-20.941 20.94z"/><path d="m490.044 235.865-35.943-36.346v-163.815c0-19.687-16.017-35.704-35.705-35.704h-322.871c-19.687 0-35.705 16.017-35.705 35.704v161.096l-38.147 39.36c-.151.156-.29.32-.425.485-2.211 2.361-3.467 5.476-3.467 8.85v230.12c0 20.063 16.322 36.385 36.386 36.385h403.666c20.063 0 36.386-16.322 36.386-36.385v-230.226c0-3.711-1.526-7.108-4.175-9.524zm-20.013 1.095-15.93 9.272v-25.381zm-410.211 10.391-17.968-10.458 17.968-18.539zm419.399 228.264c0 11.792-9.594 21.385-21.386 21.385h-403.666c-11.792 0-21.386-9.593-21.386-21.385v-226.647l214.691 124.96c.003.002.007.004.011.006l165.039 96.06c1.187.69 2.484 1.019 3.766 1.019 2.583 0 5.096-1.335 6.489-3.729 2.083-3.579.87-8.171-2.71-10.255l-149.157-86.816 132.1-76.887c3.58-2.084 4.793-6.676 2.71-10.255-2.085-3.58-6.677-4.793-10.255-2.71l-138.482 80.604c-.606.351-1.355.352-1.962 0l-14.561-8.475c-.002-.001-.005-.003-.008-.004l-165.632-96.405v-220.377c0-11.416 9.288-20.704 20.705-20.704h322.871c11.416 0 20.704 9.288 20.704 20.704v219.259l-17.112 9.96c-3.58 2.083-4.793 6.675-2.71 10.254 2.085 3.581 6.676 4.792 10.255 2.71l20.626-12.005c.028-.015.055-.033.083-.048l28.977-16.866z"/><path d="m213.399 150.487h87.128c8.979 0 16.283-7.305 16.283-16.283v-56.902c0-8.979-7.305-16.283-16.283-16.283h-18.639v-8.007c0-9.726-7.912-17.638-17.638-17.638h-14.575c-9.726 0-17.638 7.912-17.638 17.638v8.007h-18.639c-8.979 0-16.283 7.305-16.283 16.283v56.902c.001 8.979 7.306 16.283 16.284 16.283zm33.639-97.475c0-1.454 1.184-2.638 2.638-2.638h14.575c1.454 0 2.638 1.184 2.638 2.638v8.007h-19.851zm-34.922 24.29c0-.708.575-1.283 1.283-1.283h87.128c.708 0 1.283.575 1.283 1.283v56.902c0 .708-.575 1.283-1.283 1.283h-87.128c-.708 0-1.283-.575-1.283-1.283z"/></g></svg>