<?xml version="1.0"?>
<svg xmlns="http://www.w3.org/2000/svg" viewBox="0 0 64 64" width="512" height="512"><g id="Signature"><path d="M61,47H51.889a7.031,7.031,0,0,1-3.131-.739l-.621-.311A9.057,9.057,0,0,0,44.111,45H32a1.989,1.989,0,0,1-1.316-.508,2.1,2.1,0,0,1-.226-.221A2.013,2.013,0,0,1,30,43.02a1.879,1.879,0,0,1,.576-1.335A2.286,2.286,0,0,1,32.184,41H43a2.924,2.924,0,0,0,2.107-.874,2.959,2.959,0,0,0,.881-2.387,3.013,3.013,0,0,0-2.079-2.562L47.476,29h1.713a4.985,4.985,0,0,1,3.841,1.8l1.4,1.682A6.981,6.981,0,0,0,59.811,35H61a1,1,0,0,0,0-2H59.811a4.985,4.985,0,0,1-3.841-1.8l-1.4-1.682A6.981,6.981,0,0,0,49.189,27H48.63l5.932-10.275a4,4,0,1,0-6.928-4L39.391,27h-2.34a8.021,8.021,0,0,0-6.937,4.014l-6.18,10.755a3,3,0,0,0,1.105,4.1,4.951,4.951,0,0,0,2.485.67,4.864,4.864,0,0,0,.615-.044l0,.008a.967.967,0,0,0-.121.337l-1.4,8.431a1,1,0,0,0,1.621.936l6.6-5.431a1,1,0,0,0,.23-.272L37.087,47h7.024a7.031,7.031,0,0,1,3.131.739l.621.311a9.057,9.057,0,0,0,4.026.95H61a1,1,0,0,0,0-2ZM42.888,37A1.083,1.083,0,0,1,44,37.908a.978.978,0,0,1-.3.8A.957.957,0,0,1,43,39H41.7l1.155-2Zm6.478-23.275a2,2,0,0,1,3.464,2l-2,3.464-3.464-2Zm-3,5.2,3.468,2L39.392,39H34.773ZM26.037,44.132a1,1,0,0,1-.37-1.364L31.849,32.01a6.014,6.014,0,0,1,5.2-3.01h1.186L32.463,39h-.279a4.3,4.3,0,0,0-3.029,1.278A3.862,3.862,0,0,0,28,43.04a3.93,3.93,0,0,0,.28,1.382A2.952,2.952,0,0,1,26.037,44.132Zm7.388,5.211-4.4,3.621.934-5.62.413-.714A3.935,3.935,0,0,0,32,47h2.777Z"/><path d="M47,10a1,1,0,0,0,1-1V3a1,1,0,0,0-1-1H15.067a1,1,0,0,0-.706.292L2.294,14.318A1,1,0,0,0,2,15.027V61a1,1,0,0,0,1,1H47a1,1,0,0,0,1-1V51a1,1,0,0,0-2,0v9H4V17H14a2,2,0,0,0,2-2V4H46V9A1,1,0,0,0,47,10ZM4.443,15,14,5.476V15Z"/><path d="M41,10H21a1,1,0,0,1,0-2H41a1,1,0,0,1,0,2Z"/><path d="M41,16H21a1,1,0,0,1,0-2H41a1,1,0,0,1,0,2Z"/><path d="M39,22H11a1,1,0,0,1,0-2H39a1,1,0,0,1,0,2Z"/><path d="M29,28H11a1,1,0,0,1,0-2H29a1,1,0,0,1,0,2Z"/><path d="M25,34H11a1,1,0,0,1,0-2H25a1,1,0,0,1,0,2Z"/><path d="M23,40H11a1,1,0,0,1,0-2H23a1,1,0,0,1,0,2Z"/><path d="M23,57H11a1,1,0,0,1,0-2H23a1,1,0,0,1,0,2Z"/><path d="M21,46H11a1,1,0,0,1,0-2H21a1,1,0,0,1,0,2Z"/></g></svg>
