<?xml version="1.0" encoding="iso-8859-1"?>
<!-- Generator: Adobe Illustrator 19.0.0, SVG Export Plug-In . SVG Version: 6.00 Build 0)  -->
<svg version="1.1" id="Capa_1" xmlns="http://www.w3.org/2000/svg" xmlns:xlink="http://www.w3.org/1999/xlink" x="0px" y="0px"
	 viewBox="0 0 512.001 512.001" style="enable-background:new 0 0 512.001 512.001;" xml:space="preserve">
<g>
	<g>
		<path d="M436.686,269.205L312.833,393.058c-5.284,5.286-1.536,14.358,5.948,14.358h121.319c6.034,0,10.944-4.909,10.944-10.944
			V275.154C451.044,267.668,441.966,263.916,436.686,269.205z M436.043,392.416H334.69l101.353-101.352V392.416z"/>
	</g>
</g>
<g>
	<g>
		<path d="M490.686,157.29c-3.577-1.481-7.656-0.67-10.395,2.064c-0.001,0.001-0.002,0.002-0.002,0.002L358.461,281.185v-55.569
			c16.43-16.43,102.044-102.045,120.453-120.454c11.537-11.538,11.537-30.31,0-41.848l-14.722-14.722
			c-11.537-11.536-30.309-11.536-41.848,0c-7.102,7.102-56.695,56.695-63.885,63.885V21.887C358.461,9.819,348.642,0,336.572,0
			H231.333c-4.142,0-7.5,3.357-7.5,7.5s3.358,7.5,7.5,7.5h105.239c3.797,0,6.887,3.089,6.887,6.886v105.59L137.423,333.515
			c-0.621,0.621-1.204,1.465-1.567,2.297c-2.775,6.341-26.176,59.805-28.874,65.971c-5.54,12.658,5.947,24.327,18.742,18.742
			l65.971-28.874c0.777-0.341,1.646-0.917,2.296-1.567L343.46,240.617v55.569L202.986,436.66
			c-5.996,5.994-1.745,16.284,6.743,16.284h133.73v36.482c0,4.175-3.396,7.571-7.571,7.571H37.602c-3.955,0-7.171-3.218-7.171-7.172
			V128.12h91.232c12.069,0,21.887-9.819,21.887-21.887V15.001h52.78c4.142,0,7.5-3.357,7.5-7.5s-3.358-7.5-7.5-7.5H136.05
			c-1.879,0-3.861,0.754-5.303,2.196L17.626,115.316c-1.446,1.446-2.197,3.385-2.197,5.304v369.207
			c0,12.227,9.947,22.173,22.172,22.173h298.286c12.447,0,22.572-10.126,22.572-22.572v-36.482h122.901
			c8.387,0,15.211-6.822,15.211-15.21V166.102C496.573,162.232,494.262,158.773,490.686,157.29z M128.55,25.609v80.625
			c0,3.797-3.089,6.886-6.886,6.886H41.038L128.55,25.609z M432.953,59.2c5.689-5.689,14.945-5.688,20.631,0l14.722,14.722
			c5.688,5.688,5.688,14.943,0,20.631l-11.751,11.752L421.201,70.95L432.953,59.2z M410.593,81.559l35.354,35.354l-17.538,17.539
			c-4.953-4.953-31.096-31.095-35.355-35.353L410.593,81.559z M121.514,405.992l10.561-24.128l13.568,13.568L121.514,405.992z
			 M160.399,388.974l-21.865-21.866l6.658-15.214c4.413,4.413,26.011,26.01,30.422,30.422L160.399,388.974z M188.687,374.173
			l-12.374-12.374l107.569-107.566c2.929-2.93,2.929-7.678,0-10.608c-2.929-2.927-7.677-2.929-10.608,0L165.707,351.191
			c-5.06-5.06-3.696-3.696-12.373-12.373c7.685-7.685,218.09-218.09,229.112-229.113l12.373,12.373l-96.735,96.735
			c-2.929,2.93-2.929,7.678,0,10.608c2.93,2.928,7.678,2.928,10.608,0l96.735-96.736l12.374,12.374
			C407.475,155.385,385.578,177.282,188.687,374.173z M481.572,238.939h-7.558c-4.143,0-7.5,3.357-7.5,7.5s3.357,7.5,7.5,7.5h7.558
			v36.824h-7.558c-4.143,0-7.5,3.357-7.5,7.5c0,4.143,3.357,7.5,7.5,7.5h7.558v36.824h-7.558c-4.143,0-7.5,3.357-7.5,7.5
			s3.357,7.5,7.5,7.5h7.558v36.825h-7.558c-4.143,0-7.5,3.357-7.5,7.5s3.357,7.5,7.5,7.5h7.558v28.316
			c0,0.117-0.094,0.211-0.21,0.211c-12.021,0-248.048,0-258.445,0c6.727-6.727,251.114-251.115,258.655-258.656V238.939z"/>
	</g>
</g>
</svg>
