<svg xmlns="http://www.w3.org/2000/svg" data-name="Layer 1" viewBox="0 0 100 125" x="0px" y="0px">
<path d="M43.79,86a24.41,24.41,0,0,1-10.37-2.38,23.1,23.1,0,0,1-11.8-13.48L15.29,51.25A23.43,23.43,0,0,1,30,21.57l18.72-6.33A23.43,23.43,0,0,1,78.37,29.92l6.32,18.71A23.44,23.44,0,0,1,70,78.32L51.3,84.64A23.13,23.13,0,0,1,43.79,86Zm12.4-64.74A16.16,16.16,0,0,0,51,22L32.22,28.37a16.22,16.22,0,0,0-9.29,8.22A16,16,0,0,0,22.1,49l6.43,18.72A16.19,16.19,0,0,0,36.76,77a16,16,0,0,0,12.4.83l18.6-6.32a16.17,16.17,0,0,0,9.3-8.22,16,16,0,0,0,.83-12.4L71.57,32.18a16.24,16.24,0,0,0-8.22-9.3,16.6,16.6,0,0,0-7.16-1.67Zm0,0"/>
<polygon points="61.67 65.32 61.67 65.32 61.67 65.32 61.67 65.32"/><polygon points="50.23 70.09 50.23 70.09 50.23 70.09 50.23 70.09"/>
<path d="M68.71,49.59a3.66,3.66,0,0,0-4.65-2L60.48,49l-2.16-5.48,4.79-1.89a3.59,3.59,0,1,0-2.63-6.68l-4.8,1.9-1.4-3.57a3.59,3.59,0,0,0-6.68,2.63L49,39.45l-4.85,1.92L42.84,38a3.59,3.59,0,1,0-6.68,2.63L37.48,44,33.3,45.65a3.66,3.66,0,0,0-2,4.65,3.58,3.58,0,0,0,3.33,2.27,4.16,4.16,0,0,0,1.31-.24l4.2-1.65,2.16,5.48-5.4,2.13a3.66,3.66,0,0,0-2,4.65,3.59,3.59,0,0,0,3.34,2.27A2.36,2.36,0,0,0,39.5,65l5.42-2.14,2,5a3.58,3.58,0,0,0,3.34,2.26,5.93,5.93,0,0,0,1.31-.23,3.66,3.66,0,0,0,2-4.65l-2-5,4.86-1.91,1.89,4.78a3.59,3.59,0,0,0,3.33,2.26A2.41,2.41,0,0,0,63,65.09a3.65,3.65,0,0,0,2-4.65l-1.89-4.8,3.56-1.4A3.66,3.66,0,0,0,68.71,49.59ZM49,53.52,46.79,48l4.86-1.92,2.16,5.48Z"/>
</svg>