<svg xmlns="http://www.w3.org/2000/svg" viewBox="0 0 32 32">
    <path id="twitter" d="M26.32865,10.20428c.01043.22891.01043.45778.01043.6867A15.18194,15.18194,0,0,1,2.99214,23.68808a10.26487,10.26487,0,0,0,1.26929.07283A10.70029,10.70029,0,0,0,10.8889,21.472a5.33486,5.33486,0,0,1-4.9836-3.70387,5.36636,5.36636,0,0,0,2.40336-.09364,5.34632,5.34632,0,0,1-4.2761-5.23331v-.07283a5.39627,5.39627,0,0,0,2.41374.6659A5.35659,5.35659,0,0,1,4.79205,5.90738,15.1498,15.1498,0,0,0,15.78924,11.484a5.89821,5.89821,0,0,1-.13524-1.21727,5.33642,5.33642,0,0,1,9.22847-3.65189,10.61188,10.61188,0,0,0,3.3918-1.2901A5.368,5.368,0,0,1,25.9229,8.27951a10.81127,10.81127,0,0,0,3.06924-.84274A10.868,10.868,0,0,1,26.32865,10.20428Z" fill="#262626"/>
</svg>
