<?xml version="1.0" encoding="iso-8859-1"?>
<!-- Generator: Adobe Illustrator 19.0.0, SVG Export Plug-In . SVG Version: 6.00 Build 0)  -->
<svg xmlns="http://www.w3.org/2000/svg" xmlns:xlink="http://www.w3.org/1999/xlink" version="1.1" id="Layer_1" x="0px" y="0px" viewBox="0 0 511.999 511.999" style="enable-background:new 0 0 511.999 511.999;" xml:space="preserve">
<g>
	<g>
		<g>
			<path d="M326.615,389.535l-66.808-38.571v-77.145c0-4.47-3.622-8.091-8.091-8.091c-4.47,0-8.091,3.622-8.091,8.091v77.145     l-66.808,38.571c-3.87,2.234-5.196,7.183-2.961,11.053c1.498,2.596,4.218,4.047,7.015,4.047c1.372,0,2.765-0.35,4.038-1.085     l66.808-38.571l66.808,38.571c1.275,0.736,2.666,1.085,4.038,1.085c2.796,0,5.516-1.451,7.015-4.047     C331.812,396.717,330.485,391.769,326.615,389.535z"/>
			<path d="M342.568,239.707v-28.774c0-32.804-25.7-43.189-28.92-44.36l-32.238-12.928v-4.515     c8.752-5.142,15.479-13.364,18.683-23.17c11.713-0.941,20.962-10.753,20.962-22.703c0-7.105-3.27-13.459-8.381-17.643V71.339     c0-29.915-24.339-54.254-54.254-54.254h-3.847c-29.915,0-54.254,24.339-54.254,54.254v14.212     c-5.158,4.184-8.466,10.563-8.466,17.706c0,12.039,9.388,21.904,21.224,22.717c3.207,9.801,9.933,18.018,18.68,23.156v4.467     l-33.1,12.963c-3.058,1.105-28.955,11.442-28.955,44.373v28.823c0,4.469,3.622,8.098,8.091,8.098h20.558     c4.47,0,8.091-3.622,8.091-8.091c0-4.469-3.622-8.091-8.091-8.091h-12.467v-20.74c0-22.389,17.503-28.88,18.183-29.122     c0.125-0.042,0.249-0.087,0.373-0.136l30.31-11.87l16.101,15.68c1.511,1.473,3.538,2.295,5.644,2.295     c0.043,0,0.085,0,0.128-0.001c2.153-0.034,4.204-0.926,5.698-2.476l15.202-15.779l30.242,12.127     c0.143,0.057,0.222,0.088,0.369,0.137c0.744,0.265,18.249,6.756,18.249,29.145v20.74h-45.382h-49.734h-7.203     c-4.47,0-8.091,3.623-8.091,8.091c0,4.47,3.622,8.091,8.091,8.091h7.203h49.734h53.474     C338.947,247.856,342.568,244.176,342.568,239.707z M302.164,98.505c0.292,0.092,0.594,0.163,0.901,0.221     c1.118,1.186,1.809,2.778,1.809,4.531c0,2.186-1.07,4.122-2.71,5.326V98.505z M211.005,108.77     c-1.787-1.185-2.968-3.213-2.968-5.513c0-1.661,0.619-3.177,1.634-4.34c0.46-0.071,0.904-0.179,1.333-0.325V108.77z      M219.122,76.082c-0.004,0-0.009,0-0.013,0c-0.004,0-0.01,0-0.014,0c-0.908,0-1.779,0.156-2.594,0.433V71.34     c0.001-20.993,17.08-38.072,38.072-38.072h3.847c20.992,0,38.071,17.079,38.071,38.071v5.11c-0.137-0.043-0.279-0.073-0.42-0.11     c-0.069-0.017-0.135-0.041-0.205-0.057c-11.183-2.544-14.845-17.483-14.872-17.595c-0.701-3.102-3.155-5.503-6.27-6.14     c-3.116-0.639-6.313,0.608-8.178,3.185C251.992,75.855,219.527,76.082,219.122,76.082z M265.227,158.963l-8.912,9.253     l-8.374-8.155v-5.482c1.633,0.194,3.29,0.305,4.975,0.305h7.337c1.684,0,3.342-0.111,4.974-0.305V158.963z M260.253,138.703     h-7.337c-14.187,0-25.729-11.541-25.729-25.728v-21.22h0.001c10.48-1.137,28.985-4.819,43.278-16.731     c3.205,5.482,8.151,11.396,15.516,14.862v23.088C285.981,127.161,274.44,138.703,260.253,138.703z"/>
			<path d="M483.08,413.628L450.842,400.7v-4.515c8.752-5.142,15.479-13.364,18.683-23.169     c11.713-0.941,20.962-10.754,20.962-22.704c0-7.105-3.27-13.458-8.382-17.642v-14.274c0-29.915-24.339-54.254-54.254-54.254     h-3.847c-29.915,0-54.254,24.339-54.254,54.254v14.212c-5.157,4.184-8.466,10.563-8.466,17.706     c0,12.039,9.388,21.904,21.225,22.717c3.206,9.801,9.931,18.018,18.68,23.157v4.467l-33.1,12.963     c-3.058,1.104-28.955,11.442-28.955,44.373v28.823c0,4.469,3.622,8.099,8.091,8.099h20.558c4.47,0,8.091-3.622,8.091-8.091     c0-4.47-3.622-8.091-8.091-8.091h-12.467v-20.74c0-22.389,17.503-28.881,18.182-29.122c0.125-0.042,0.249-0.087,0.373-0.136     l30.311-11.87l16.1,15.68c1.511,1.473,3.537,2.295,5.644,2.295c0.043,0,0.085,0,0.128-0.001c2.153-0.033,4.204-0.925,5.698-2.476     l15.203-15.779l30.241,12.127c0.143,0.058,0.222,0.088,0.369,0.137c0.744,0.265,18.249,6.757,18.249,29.146v20.74h-45.383     h-49.734h-7.203c-4.47,0-8.091,3.622-8.091,8.091c0,4.47,3.622,8.091,8.091,8.091h7.203h49.734h53.474     c4.47,0,8.091-3.679,8.091-8.147v-28.775C512,425.184,486.3,414.8,483.08,413.628z M471.595,345.559     c0.292,0.092,0.594,0.163,0.901,0.221c1.118,1.186,1.809,2.777,1.809,4.531c0,2.187-1.071,4.122-2.71,5.327V345.559z      M380.437,355.825c-1.788-1.186-2.968-3.214-2.968-5.514c0-1.661,0.619-3.176,1.634-4.339c0.458-0.072,0.905-0.179,1.333-0.325     V355.825z M388.553,323.134c-0.009,0-0.017,0-0.026,0c-0.278,0-0.555,0.014-0.825,0.042c-0.085,0.009-0.167,0.026-0.252,0.038     c-0.185,0.024-0.369,0.047-0.549,0.084c-0.115,0.024-0.228,0.059-0.342,0.087c-0.145,0.036-0.291,0.068-0.432,0.111     c-0.066,0.021-0.127,0.049-0.192,0.069v-5.174c-0.001-20.99,17.078-38.069,38.071-38.069h3.847     c20.992,0,38.071,17.079,38.071,38.071v5.11c-0.131-0.041-0.266-0.07-0.4-0.105c-0.076-0.019-0.148-0.045-0.224-0.064     c-11.183-2.543-14.845-17.482-14.872-17.595c-0.701-3.101-3.155-5.503-6.27-6.14c-3.116-0.64-6.313,0.608-8.178,3.185     C421.424,322.908,388.958,323.134,388.553,323.134z M434.659,406.018l-8.912,9.252l-8.374-8.156v-5.48     c1.633,0.194,3.29,0.305,4.975,0.305h7.337c1.684,0,3.342-0.112,4.975-0.305V406.018z M429.685,385.756h-7.337     c-14.187,0-25.729-11.541-25.729-25.728v-21.213h0.001c10.479-1.137,28.982-4.824,43.278-16.736     c3.205,5.481,8.151,11.397,15.516,14.861v23.088C455.413,374.214,443.871,385.756,429.685,385.756z"/>
			<path d="M143.944,413.628L111.706,400.7v-4.515c8.752-5.142,15.479-13.364,18.683-23.169     c11.713-0.941,20.962-10.754,20.962-22.704c0-7.105-3.27-13.458-8.38-17.642v-14.274c0-29.915-24.339-54.254-54.254-54.254H84.87     c-29.915,0-54.254,24.339-54.254,54.254v14.212c-5.158,4.184-8.466,10.563-8.466,17.706c0,12.039,9.388,21.904,21.224,22.717     c3.207,9.801,9.933,18.018,18.68,23.157v4.467l-33.1,12.963C25.896,414.72,0,425.059,0,457.988v28.823     c0,4.469,3.622,8.099,8.091,8.099H28.65c4.47,0,8.091-3.622,8.091-8.091c0-4.47-3.622-8.091-8.091-8.091H16.183v-20.74     c0-22.389,17.503-28.881,18.183-29.122c0.125-0.042,0.249-0.087,0.373-0.136l30.31-11.87l16.101,15.68     c1.511,1.473,3.538,2.295,5.644,2.295c0.043,0,0.085,0,0.128-0.001c2.153-0.033,4.204-0.925,5.698-2.476l15.202-15.779     l30.242,12.127c0.143,0.058,0.222,0.088,0.369,0.137c0.744,0.265,18.249,6.757,18.249,29.146v20.74H111.3H61.565h-7.203     c-4.47,0-8.091,3.622-8.091,8.091c0,4.47,3.622,8.091,8.091,8.091h7.203H111.3h53.474c4.469,0,8.091-3.679,8.091-8.147v-28.775     C172.865,425.184,147.163,414.8,143.944,413.628z M132.459,345.559c0.292,0.092,0.594,0.163,0.901,0.221     c1.118,1.186,1.809,2.777,1.809,4.531c0,2.187-1.07,4.122-2.71,5.327V345.559z M41.3,355.825     c-1.787-1.186-2.968-3.214-2.968-5.514c0-1.661,0.619-3.176,1.634-4.339c0.46-0.072,0.904-0.179,1.333-0.325V355.825z      M49.417,323.134c-0.01,0-0.018,0-0.027,0c-0.278,0-0.555,0.014-0.825,0.042c-0.085,0.009-0.167,0.026-0.252,0.038     c-0.183,0.024-0.369,0.047-0.549,0.084c-0.115,0.024-0.228,0.059-0.342,0.087c-0.145,0.036-0.291,0.068-0.432,0.111     c-0.066,0.021-0.126,0.049-0.192,0.069v-5.174c0-20.99,17.079-38.069,38.071-38.069h3.847c20.992,0,38.071,17.079,38.071,38.071     v5.11c-0.13-0.041-0.266-0.07-0.4-0.105c-0.076-0.019-0.148-0.045-0.224-0.064c-11.183-2.543-14.845-17.482-14.872-17.595     c-0.701-3.101-3.155-5.503-6.27-6.14c-3.114-0.64-6.314,0.608-8.178,3.185C82.287,322.908,49.822,323.134,49.417,323.134z      M95.523,406.018l-8.912,9.252l-8.374-8.156v-5.48c1.633,0.194,3.29,0.305,4.974,0.305h7.337c1.685,0,3.342-0.112,4.974-0.305     V406.018z M90.548,385.756h-7.337c-14.187,0-25.729-11.541-25.729-25.728v-21.214h0.001c10.48-1.137,28.986-4.825,43.278-16.735     c3.205,5.481,8.151,11.397,15.516,14.861v23.088C116.276,374.214,104.735,385.756,90.548,385.756z"/>
		</g>
	</g>
</g>
<g>
</g>
<g>
</g>
<g>
</g>
<g>
</g>
<g>
</g>
<g>
</g>
<g>
</g>
<g>
</g>
<g>
</g>
<g>
</g>
<g>
</g>
<g>
</g>
<g>
</g>
<g>
</g>
<g>
</g>
</svg>
