<?xml version="1.0" encoding="utf-8"?>
<!-- Generator: Adobe Illustrator 19.0.0, SVG Export Plug-In . SVG Version: 6.00 Build 0)  -->
<svg version="1.1" id="Layer_1" xmlns="http://www.w3.org/2000/svg" xmlns:xlink="http://www.w3.org/1999/xlink" x="0px" y="0px"
	 viewBox="0 0 1600 800" style="enable-background:new 0 0 1600 800;" xml:space="preserve">
<style type="text/css">
	.st0{opacity:8.000000e-002;}
	.st1{stroke:#000000;stroke-miterlimit:10;}
</style>
<g id="XMLID_30_" class="st0">
	<path id="XMLID_47_" class="st1" d="M196.2,425.1C417.3,273,502.6,131.6,515.7,0H0v475.8C56.8,487.7,121.7,476.4,196.2,425.1z"/>
	<path id="XMLID_48_" class="st1" d="M1171.3,0c2.9,14.7,8.4,29,16.7,42.5l312.5,508.2c22.3,36.3,59.9,57.8,99.5,61.3V0H1171.3z"/>
	<circle id="XMLID_49_" class="st1" cx="1035" cy="167" r="17"/>
	<circle id="XMLID_50_" class="st1" cx="547.3" cy="641" r="17"/>
	<circle id="XMLID_51_" class="st1" cx="782" cy="249.5" r="31"/>
	<circle id="XMLID_52_" class="st1" cx="1157" cy="658" r="31"/>
	<circle id="XMLID_53_" class="st1" cx="449" cy="378.5" r="31"/>
	<circle id="XMLID_54_" class="st1" cx="1219.5" cy="181" r="9"/>
	<circle id="XMLID_55_" class="st1" cx="857.1" cy="673.8" r="9"/>
	<circle id="XMLID_56_" class="st1" cx="1228.5" cy="520.1" r="9"/>
	<circle id="XMLID_57_" class="st1" cx="1254.9" cy="230.1" r="15.9"/>
	<circle id="XMLID_58_" class="st1" cx="1431.6" cy="658" r="15.9"/>
	<circle id="XMLID_59_" class="st1" cx="933.9" cy="440.1" r="15.9"/>
	<circle id="XMLID_60_" class="st1" cx="150" cy="673.8" r="15.9"/>
</g>
</svg>
