<?xml version="1.0" encoding="utf-8"?>
<!-- Generator: Adobe Illustrator 23.0.3, SVG Export Plug-In . SVG Version: 6.00 Build 0)  -->
<svg version="1.1" id="Layer_1" xmlns="http://www.w3.org/2000/svg" xmlns:xlink="http://www.w3.org/1999/xlink" x="0px" y="0px"
	 viewBox="0 0 320 108.4" style="enable-background:new 0 0 320 108.4;" xml:space="preserve">
<style type="text/css">
	.st0{fill-rule:evenodd;clip-rule:evenodd;fill:#424242;}
	.st1{fill:url(#SVGID_1_);}
	.st2{fill:url(#SVGID_2_);}
	.st3{fill:url(#SVGID_3_);}
	.st4{fill:url(#SVGID_4_);}
	.st5{fill:url(#SVGID_5_);}
	.st6{fill:url(#SVGID_6_);}
	.st7{fill:url(#SVGID_7_);}
	.st8{fill:url(#SVGID_8_);}
	.st9{fill:url(#SVGID_9_);}
	.st10{fill:url(#SVGID_10_);}
	.st11{fill:url(#SVGID_11_);}
	.st12{fill:url(#SVGID_12_);}
	.st13{fill:url(#SVGID_13_);}
	.st14{fill:url(#SVGID_14_);}
	.st15{fill:url(#SVGID_15_);}
	.st16{fill:url(#SVGID_16_);}
	.st17{fill:url(#SVGID_17_);}
	.st18{fill:url(#SVGID_18_);}
	.st19{fill:url(#SVGID_19_);}
	.st20{fill:url(#SVGID_20_);}
	.st21{fill:url(#SVGID_21_);}
	.st22{fill:url(#SVGID_22_);}
	.st23{fill:url(#SVGID_23_);}
	.st24{fill:url(#SVGID_24_);}
	.st25{fill:url(#SVGID_25_);}
</style>
<title>Group 2</title>
<desc>Created with Sketch.</desc>
<g id="Clip-4_2_">
</g>
<g>
	<path id="Fill-1_3_" class="st0" d="M157.6,72.4h17.6c12,0,15.3-9.2,15.3-18.3c0-12.3-5.7-18.1-17-18.1h-15.9L157.6,72.4
		L157.6,72.4z M136.6,21.3h45.6c19.5,0,30,11,30,32.9c0,25.9-14.7,32.9-32.8,32.9h-42.8V21.3z"/>
	<polygon id="Fill-3_3_" class="st0" points="221.8,87.2 243.7,87.2 243.7,21.3 221.8,21.3 	"/>
	<polygon id="Fill-5_3_" class="st0" points="257.2,21.3 320,21.3 320,36.1 279.2,36.1 279.2,47.4 317.1,47.4 317.1,61.6 
		279.2,61.6 279.2,87.2 257.2,87.2 	"/>
	<g>
		
			<radialGradient id="SVGID_1_" cx="-885.7827" cy="352.2469" r="3.3744" gradientTransform="matrix(16.0596 0 0 16.0596 14279.6348 -5602.752)" gradientUnits="userSpaceOnUse">
			<stop  offset="0" style="stop-color:#01579B"/>
			<stop  offset="1" style="stop-color:#03A9F4"/>
		</radialGradient>
		<path class="st1" d="M54.5,64.4c-5.7,0-10.4-4.6-10.4-10.3s4.6-10.4,10.3-10.4S64.8,48.3,64.8,54c0,2.8-1.1,5.4-3,7.4
			S57.3,64.4,54.5,64.4z"/>
		
			<radialGradient id="SVGID_2_" cx="-879.6743" cy="358.9757" r="3.72" gradientTransform="matrix(14.5677 0 0 14.5676 12869.1162 -5175.2134)" gradientUnits="userSpaceOnUse">
			<stop  offset="0" style="stop-color:#01579B"/>
			<stop  offset="1" style="stop-color:#03A9F4"/>
		</radialGradient>
		<path class="st2" d="M54.5,87.6c-3.8,0-7.2-2.3-8.7-5.8s-0.7-7.5,2-10.2s6.8-3.5,10.3-2s5.8,4.9,5.8,8.7
			C63.9,83.4,59.7,87.6,54.5,87.6L54.5,87.6z"/>
		
			<radialGradient id="SVGID_3_" cx="-877.9138" cy="360.8708" r="3.746" gradientTransform="matrix(14.4665 0 0 14.4665 12754.668 -5166.3423)" gradientUnits="userSpaceOnUse">
			<stop  offset="0" style="stop-color:#01579B"/>
			<stop  offset="1" style="stop-color:#03A9F4"/>
		</radialGradient>
		<path class="st3" d="M20.9,53.9c0-3.8,2.3-7.1,5.8-8.6s7.5-0.6,10.2,2.1c2.7,2.7,3.4,6.7,1.9,10.2s-4.9,5.7-8.7,5.7
			c-2.5,0-4.9-1-6.6-2.8C21.8,58.8,20.8,56.4,20.9,53.9L20.9,53.9z"/>
		
			<radialGradient id="SVGID_4_" cx="-879.1106" cy="362.7349" r="3.8264" gradientTransform="matrix(14.1628 0 0 14.1628 12504.9834 -5083.1489)" gradientUnits="userSpaceOnUse">
			<stop  offset="0" style="stop-color:#01579B"/>
			<stop  offset="1" style="stop-color:#03A9F4"/>
		</radialGradient>
		<path class="st4" d="M87.7,54c0,5-4.1,9.1-9.2,9.1S69.4,59,69.4,54s4.1-9.1,9.2-9.1c2.4,0,4.8,1,6.5,2.7
			C86.8,49.3,87.8,51.6,87.7,54z"/>
		
			<radialGradient id="SVGID_5_" cx="-877.4365" cy="364.5306" r="3.847" gradientTransform="matrix(14.0876 0 0 14.0877 12415.3291 -5081.2095)" gradientUnits="userSpaceOnUse">
			<stop  offset="0" style="stop-color:#01579B"/>
			<stop  offset="1" style="stop-color:#03A9F4"/>
		</radialGradient>
		<path class="st5" d="M54.4,39.1c-5-0.1-9-4.2-9-9.2c0.1-5,4.2-9,9.2-8.9s9,4.2,9,9.2c0,2.4-1,4.7-2.7,6.4
			C59.2,38.2,56.8,39.1,54.4,39.1z"/>
		
			<radialGradient id="SVGID_6_" cx="-872.0093" cy="367.0586" r="4.0737" gradientTransform="matrix(13.3031 0 0 13.3031 11654.7305 -4828.8242)" gradientUnits="userSpaceOnUse">
			<stop  offset="0" style="stop-color:#01579B"/>
			<stop  offset="1" style="stop-color:#03A9F4"/>
		</radialGradient>
		<path class="st6" d="M30.2,86.8c-3.5,0-6.6-2.1-7.9-5.3c-1.3-3.2-0.6-6.9,1.9-9.3s6.2-3.2,9.4-1.8c3.2,1.3,5.3,4.5,5.3,7.9
			C38.8,83,34.9,86.8,30.2,86.8z"/>
		
			<radialGradient id="SVGID_7_" cx="-873.4568" cy="368.8654" r="4.1527" gradientTransform="matrix(13.0499 0 0 13.0499 11452.8184 -4759.4683)" gradientUnits="userSpaceOnUse">
			<stop  offset="0" style="stop-color:#01579B"/>
			<stop  offset="1" style="stop-color:#03A9F4"/>
		</radialGradient>
		<path class="st7" d="M78.7,69.8c4.7,0,8.4,3.8,8.4,8.5c0,4.6-3.8,8.4-8.5,8.3c-4.7,0-8.4-3.8-8.4-8.5C70.3,73.5,74,69.8,78.7,69.8
			z"/>
		
			<radialGradient id="SVGID_8_" cx="-870.1487" cy="372.3066" r="4.1769" gradientTransform="matrix(12.9741 0 0 12.9741 11343.7275 -4776.147)" gradientUnits="userSpaceOnUse">
			<stop  offset="0" style="stop-color:#01579B"/>
			<stop  offset="1" style="stop-color:#03A9F4"/>
		</radialGradient>
		<path class="st8" d="M30.2,38.3c-4.6,0-8.4-3.8-8.4-8.4s3.8-8.3,8.4-8.3s8.4,3.8,8.4,8.4S34.8,38.3,30.2,38.3z"/>
		
			<radialGradient id="SVGID_9_" cx="-871.1545" cy="374.866" r="4.2855" gradientTransform="matrix(12.6453 0 0 12.6453 11070.3643 -4686.0933)" gradientUnits="userSpaceOnUse">
			<stop  offset="0" style="stop-color:#01579B"/>
			<stop  offset="1" style="stop-color:#03A9F4"/>
		</radialGradient>
		<path class="st9" d="M86.8,30c0,4.5-3.7,8.1-8.2,8.1s-8.2-3.6-8.2-8.1s3.7-8.1,8.2-8.1C83.1,21.9,86.7,25.5,86.8,30L86.8,30z"/>
		
			<radialGradient id="SVGID_10_" cx="-857.3461" cy="386.1952" r="4.9829" gradientTransform="matrix(10.875 0 0 10.875 9377.9609 -4145.6772)" gradientUnits="userSpaceOnUse">
			<stop  offset="0" style="stop-color:#01579B"/>
			<stop  offset="1" style="stop-color:#03A9F4"/>
		</radialGradient>
		<path class="st10" d="M54.5,108.4c-3.9,0-7-3.1-7.1-6.9c0-3.9,3.1-7,7-7.1c3.9,0,7,3.1,7.1,6.9c0,1.9-0.7,3.7-2,5
			C58.2,107.6,56.4,108.4,54.5,108.4z"/>
		
			<radialGradient id="SVGID_11_" cx="-853.967" cy="389.5778" r="4.9832" gradientTransform="matrix(10.875 0 0 10.875 9341.2109 -4182.4644)" gradientUnits="userSpaceOnUse">
			<stop  offset="0" style="stop-color:#01579B"/>
			<stop  offset="1" style="stop-color:#03A9F4"/>
		</radialGradient>
		<path class="st11" d="M7,61c-3.9,0-7-3.1-7-7s3.1-7,7-7s7,3.1,7,7S10.9,61,7,61L7,61z"/>
		
			<radialGradient id="SVGID_12_" cx="-852.267" cy="399.8267" r="5.2642" gradientTransform="matrix(10.282 0 0 10.282 8817.3037 -4056.8279)" gradientUnits="userSpaceOnUse">
			<stop  offset="0" style="stop-color:#01579B"/>
			<stop  offset="1" style="stop-color:#03A9F4"/>
		</radialGradient>
		<path class="st12" d="M54.5,0c1.8,0,3.5,0.6,4.8,1.9c1.3,1.2,2,3,1.9,4.7c0,2.4-1.3,4.6-3.3,5.7c-2.1,1.2-4.6,1.2-6.6,0
			S47.9,9,47.9,6.6c0-1.8,0.7-3.5,1.9-4.7C51,0.7,52.7,0,54.5,0z"/>
		
			<radialGradient id="SVGID_13_" cx="-855.9502" cy="396.1042" r="5.2644" gradientTransform="matrix(10.2941 0 0 10.2941 8865.5557 -4023.3428)" gradientUnits="userSpaceOnUse">
			<stop  offset="0" style="stop-color:#01579B"/>
			<stop  offset="1" style="stop-color:#03A9F4"/>
		</radialGradient>
		<path class="st13" d="M102,47.4c3.7,0,6.6,3,6.6,6.6c0,3.7-3,6.6-6.6,6.6s-6.6-3-6.6-6.6c0-1.8,0.7-3.5,1.9-4.7
			C98.6,48,100.3,47.3,102,47.4L102,47.4z"/>
		
			<radialGradient id="SVGID_14_" cx="-847.1644" cy="396.7599" r="5.4523" gradientTransform="matrix(9.9395 0 0 9.9395 8474.7344 -3889.3977)" gradientUnits="userSpaceOnUse">
			<stop  offset="0" style="stop-color:#01579B"/>
			<stop  offset="1" style="stop-color:#03A9F4"/>
		</radialGradient>
		<path class="st14" d="M30.2,95c2.6,0,4.9,1.6,5.9,4s0.4,5.2-1.4,7s-4.6,2.4-7,1.4s-4-3.3-3.9-5.9c0-1.7,0.7-3.3,1.9-4.5
			S28.5,95,30.2,95L30.2,95z"/>
		
			<radialGradient id="SVGID_15_" cx="-844.8406" cy="399.2266" r="5.4802" gradientTransform="matrix(9.8887 0 0 9.8887 8408.668 -3893.6426)" gradientUnits="userSpaceOnUse">
			<stop  offset="0" style="stop-color:#01579B"/>
			<stop  offset="1" style="stop-color:#03A9F4"/>
		</radialGradient>
		<path class="st15" d="M6.9,84.4c-3.5,0-6.4-2.9-6.4-6.4s2.9-6.4,6.4-6.3s6.4,2.9,6.4,6.4c0,1.7-0.7,3.3-1.9,4.5
			C10.3,83.7,8.6,84.4,6.9,84.4L6.9,84.4z"/>
		
			<radialGradient id="SVGID_16_" cx="-848.4681" cy="399.9682" r="5.5947" gradientTransform="matrix(9.6865 0 0 9.6865 8272.9941 -3820.1001)" gradientUnits="userSpaceOnUse">
			<stop  offset="0" style="stop-color:#01579B"/>
			<stop  offset="1" style="stop-color:#03A9F4"/>
		</radialGradient>
		<path class="st16" d="M78.6,107.6c-3.4,0-6.2-2.8-6.2-6.3s2.8-6.2,6.3-6.2c3.4,0,6.2,2.8,6.2,6.3c0,1.7-0.7,3.3-1.9,4.4
			C81.9,107,80.2,107.6,78.6,107.6z"/>
		
			<radialGradient id="SVGID_17_" cx="-842.0109" cy="406.7337" r="5.4978" gradientTransform="matrix(9.6105 0 0 9.6105 8146.4736 -3854.719)" gradientUnits="userSpaceOnUse">
			<stop  offset="0" style="stop-color:#01579B"/>
			<stop  offset="1" style="stop-color:#03A9F4"/>
		</radialGradient>
		<path class="st17" d="M13.2,30c0,1.6-0.6,3.2-1.8,4.4S8.6,36.2,7,36.2c-2.3,0.1-4.5-1-5.6-3s-1.2-4.4,0-6.4s3.3-3.1,5.6-3
			c1.7,0,3.2,0.6,4.4,1.8C12.5,26.8,13.2,28.4,13.2,30L13.2,30z"/>
		
			<radialGradient id="SVGID_18_" cx="-839.577" cy="414.2506" r="5.8149" gradientTransform="matrix(9.2252 0 0 9.2252 7799.5957 -3767.3484)" gradientUnits="userSpaceOnUse">
			<stop  offset="0" style="stop-color:#01579B"/>
			<stop  offset="1" style="stop-color:#03A9F4"/>
		</radialGradient>
		<path class="st18" d="M30.2,0.6c1.6,0,3.1,0.6,4.2,1.7s1.8,2.6,1.8,4.2c0,3.3-2.7,6-6,6s-6-2.7-6-6S26.9,0.6,30.2,0.6L30.2,0.6z"
			/>
		
			<radialGradient id="SVGID_19_" cx="-846.4605" cy="407.0388" r="5.8223" gradientTransform="matrix(9.307 0 0 9.307 7932.3555 -3734.1104)" gradientUnits="userSpaceOnUse">
			<stop  offset="0" style="stop-color:#01579B"/>
			<stop  offset="1" style="stop-color:#03A9F4"/>
		</radialGradient>
		<path class="st19" d="M102.1,84.2c-3.3,0-6-2.7-6-6s2.6-6,6-6s6,2.6,6.1,5.9c0,1.6-0.6,3.1-1.7,4.3
			C105.2,83.6,103.7,84.2,102.1,84.2L102.1,84.2z"/>
		
			<radialGradient id="SVGID_20_" cx="-843.4204" cy="415.2744" r="6.0021" gradientTransform="matrix(9.0296 0 0 9.0296 7670.0635 -3695.5684)" gradientUnits="userSpaceOnUse">
			<stop  offset="0" style="stop-color:#01579B"/>
			<stop  offset="1" style="stop-color:#03A9F4"/>
		</radialGradient>
		<path class="st20" d="M101.9,35.8c-2.4-0.1-4.5-1.5-5.3-3.7s-0.3-4.7,1.4-6.3c1.7-1.6,4.2-2,6.4-1.1c2.2,1,3.5,3.1,3.4,5.5
			c0,1.5-0.7,3-1.8,4C104.9,35.3,103.4,35.9,101.9,35.8L101.9,35.8z"/>
		
			<radialGradient id="SVGID_21_" cx="-841.5456" cy="417.0954" r="5.9938" gradientTransform="matrix(9.0414 0 0 9.0414 7663.0913 -3716.9302)" gradientUnits="userSpaceOnUse">
			<stop  offset="0" style="stop-color:#01579B"/>
			<stop  offset="1" style="stop-color:#03A9F4"/>
		</radialGradient>
		<path class="st21" d="M84.4,6.7c0,3.2-2.6,5.8-5.8,5.8s-5.8-2.6-5.8-5.8s2.6-5.8,5.8-5.8S84.4,3.4,84.4,6.7L84.4,6.7z"/>
		
			<radialGradient id="SVGID_22_" cx="-797.5856" cy="455.3956" r="8.0555" gradientTransform="matrix(6.7276 0 0 6.7276 5420.1646 -3009.5244)" gradientUnits="userSpaceOnUse">
			<stop  offset="0" style="stop-color:#01579B"/>
			<stop  offset="1" style="stop-color:#03A9F4"/>
		</radialGradient>
		<path class="st22" d="M11.4,101.4c0,2.4-1.9,4.3-4.3,4.3s-4.4-1.9-4.4-4.3S4.6,97.1,7,97c1.2,0,2.3,0.4,3.1,1.2
			S11.4,100.2,11.4,101.4z"/>
		
			<radialGradient id="SVGID_23_" cx="-796.1696" cy="471.7606" r="8.7817" gradientTransform="matrix(6.1711 0 0 6.1711 4967.5786 -2857.0867)" gradientUnits="userSpaceOnUse">
			<stop  offset="0" style="stop-color:#01579B"/>
			<stop  offset="1" style="stop-color:#03A9F4"/>
		</radialGradient>
		<path class="st23" d="M106,101.4c0,1.6-1,3.1-2.4,3.7c-1.5,0.6-3.2,0.3-4.3-0.9c-1.1-1.1-1.5-2.8-0.9-4.3s2.1-2.5,3.7-2.5
			c1.1,0,2.1,0.4,2.8,1.1C105.6,99.3,106,100.3,106,101.4z"/>
		
			<radialGradient id="SVGID_24_" cx="-780.8652" cy="488.0795" r="8.9656" gradientTransform="matrix(6.0443 0 0 6.0443 4774.1333 -2895.9033)" gradientUnits="userSpaceOnUse">
			<stop  offset="0" style="stop-color:#01579B"/>
			<stop  offset="1" style="stop-color:#03A9F4"/>
		</radialGradient>
		<path class="st24" d="M6.9,10.5C4.8,10.5,3,8.7,3,6.6s1.8-3.9,3.9-3.9s3.9,1.7,3.9,3.9c0,1-0.4,2-1.2,2.8C9,10.1,8,10.5,6.9,10.5z
			"/>
		
			<radialGradient id="SVGID_25_" cx="-781.9275" cy="503.7197" r="9.6521" gradientTransform="matrix(5.6328 0 0 5.6328 4458.7847 -2783.1567)" gradientUnits="userSpaceOnUse">
			<stop  offset="0" style="stop-color:#01579B"/>
			<stop  offset="1" style="stop-color:#03A9F4"/>
		</radialGradient>
		<path class="st25" d="M102.1,10.2c-2,0-3.7-1.6-3.7-3.6c0-1.3,0.7-2.5,1.8-3.1c1.1-0.6,2.5-0.6,3.6,0s1.8,1.8,1.8,3.1
			C105.7,8.6,104.1,10.2,102.1,10.2z"/>
	</g>
</g>
</svg>
