<?xml version="1.0" encoding="utf-8"?>
<!-- Generator: Adobe Illustrator 23.0.3, SVG Export Plug-In . SVG Version: 6.00 Build 0)  -->
<svg version="1.1" id="Layer_1" xmlns="http://www.w3.org/2000/svg" xmlns:xlink="http://www.w3.org/1999/xlink" x="0px" y="0px"
	 viewBox="0 0 110.3 110" style="enable-background:new 0 0 110.3 110;" xml:space="preserve">
<style type="text/css">
	.st0{fill-rule:evenodd;clip-rule:evenodd;fill:#424242;}
	.st1{filter:url(#Adobe_OpacityMaskFilter);}
	.st2{fill-rule:evenodd;clip-rule:evenodd;fill:#FFFFFF;}
	.st3{mask:url(#mask-2_8_);fill-rule:evenodd;clip-rule:evenodd;fill:#424242;}
	.st4{filter:url(#Adobe_OpacityMaskFilter_1_);}
	.st5{mask:url(#mask-2_7_);fill-rule:evenodd;clip-rule:evenodd;fill:#424242;}
	.st6{fill:url(#SVGID_1_);}
	.st7{clip-path:url(#SVGID_3_);fill:url(#SVGID_4_);}
	.st8{fill:url(#SVGID_5_);}
	.st9{fill:url(#SVGID_6_);}
	.st10{fill:url(#SVGID_7_);}
	.st11{fill:url(#SVGID_8_);}
	.st12{fill:url(#SVGID_9_);}
	.st13{fill:url(#SVGID_10_);}
	.st14{fill:url(#SVGID_11_);}
	.st15{fill:url(#SVGID_12_);}
	.st16{fill:url(#SVGID_13_);}
	.st17{fill:url(#SVGID_14_);}
	.st18{fill:url(#SVGID_15_);}
	.st19{fill:url(#SVGID_16_);}
	.st20{fill:url(#SVGID_17_);}
	.st21{fill:url(#SVGID_18_);}
	.st22{fill:url(#SVGID_19_);}
	.st23{fill:url(#SVGID_20_);}
	.st24{fill:url(#SVGID_21_);}
	.st25{fill:url(#SVGID_22_);}
	.st26{fill:url(#SVGID_23_);}
	.st27{fill:url(#SVGID_24_);}
	.st28{fill:url(#SVGID_25_);}
</style>
<title>Group 2</title>
<desc>Created with Sketch.</desc>
<g id="Clip-4_2_">
</g>
<g>
	<g>
		<path id="Fill-1_3_" class="st0" d="M61.4,84.6h5.1c3.5,0,4.4-2.7,4.4-5.3c0-3.5-1.7-5.2-4.9-5.2h-4.6V84.6z M55.3,69.9h13.2
			c5.6,0,8.7,3.2,8.7,9.5c0,7.5-4.2,9.5-9.5,9.5H55.3V69.9z"/>
		<defs>
			<filter id="Adobe_OpacityMaskFilter" filterUnits="userSpaceOnUse" x="80" y="69.9" width="6.3" height="19">
				<feColorMatrix  type="matrix" values="1 0 0 0 0  0 1 0 0 0  0 0 1 0 0  0 0 0 1 0"/>
			</filter>
		</defs>
		<mask maskUnits="userSpaceOnUse" x="80" y="69.9" width="6.3" height="19" id="mask-2_8_">
			<g class="st1">
				<polygon id="path-1_8_" class="st2" points="18.2,95 108.4,95 108.4,63.8 18.2,63.8 				"/>
			</g>
		</mask>
		<polygon id="Fill-3_3_" class="st3" points="80,88.9 86.3,88.9 86.3,69.9 80,69.9 		"/>
		<defs>
			<filter id="Adobe_OpacityMaskFilter_1_" filterUnits="userSpaceOnUse" x="90.2" y="69.9" width="18.2" height="19">
				<feColorMatrix  type="matrix" values="1 0 0 0 0  0 1 0 0 0  0 0 1 0 0  0 0 0 1 0"/>
			</filter>
		</defs>
		<mask maskUnits="userSpaceOnUse" x="90.2" y="69.9" width="18.2" height="19" id="mask-2_7_">
			<g class="st4">
				<polygon id="path-1_7_" class="st2" points="18.2,95 108.4,95 108.4,63.8 18.2,63.8 				"/>
			</g>
		</mask>
		<polygon id="Fill-5_3_" class="st5" points="90.2,69.9 108.4,69.9 108.4,74.1 96.6,74.1 96.6,77.4 107.5,77.4 107.5,81.5 
			96.6,81.5 96.6,88.9 90.2,88.9 		"/>
	</g>
	
		<radialGradient id="SVGID_1_" cx="-746.3525" cy="19.137" r="3.4246" gradientTransform="matrix(16.0596 0 0 -16.0596 12041.251 362.334)" gradientUnits="userSpaceOnUse">
		<stop  offset="0" style="stop-color:#01579B"/>
		<stop  offset="1" style="stop-color:#03A9F4"/>
	</radialGradient>
	<path class="st6" d="M55.4,65.3c-5.8,0-10.5-4.7-10.6-10.5s4.7-10.5,10.5-10.5S65.8,49,65.9,54.8c0,2.8-1.1,5.5-3,7.5
		C60.8,64.2,58.2,65.3,55.4,65.3z"/>
	<g>
		<defs>
			
				<rect id="SVGID_2_" x="13.6" y="68.1" transform="matrix(-1 -1.224647e-16 1.224647e-16 -1 68.8722 159.9044)" width="41.7" height="23.7"/>
		</defs>
		<clipPath id="SVGID_3_">
			<use xlink:href="#SVGID_2_"  style="overflow:visible;"/>
		</clipPath>
		
			<radialGradient id="SVGID_4_" cx="-741.1867" cy="13.9854" r="3.7754" gradientTransform="matrix(14.5677 0 0 -14.5676 10852.4805 258.7346)" gradientUnits="userSpaceOnUse">
			<stop  offset="0" style="stop-color:#01579B"/>
			<stop  offset="1" style="stop-color:#03A9F4"/>
		</radialGradient>
		<path class="st7" d="M55.3,88.9c-3.9,0-7.4-2.3-8.8-5.9c-1.5-3.6-0.7-7.7,2.1-10.4c2.7-2.7,6.9-3.5,10.4-2c3.6,1.5,5.9,5,5.9,8.8
			C64.8,84.7,60.6,88.9,55.3,88.9L55.3,88.9z"/>
	</g>
	
		<radialGradient id="SVGID_5_" cx="-739.4973" cy="12.2089" r="3.8017" gradientTransform="matrix(14.4665 0 0 -14.4665 10753.0742 231.6205)" gradientUnits="userSpaceOnUse">
		<stop  offset="0" style="stop-color:#01579B"/>
		<stop  offset="1" style="stop-color:#03A9F4"/>
	</radialGradient>
	<path class="st8" d="M21.2,54.7c0-3.8,2.4-7.3,5.9-8.7c3.6-1.4,7.6-0.6,10.3,2.1s3.5,6.8,2,10.3s-5,5.8-8.8,5.8
		c-2.5,0-4.9-1-6.7-2.8C22.1,59.7,21.1,57.2,21.2,54.7L21.2,54.7z"/>
	
		<radialGradient id="SVGID_6_" cx="-740.9132" cy="10.7113" r="3.8833" gradientTransform="matrix(14.1628 0 0 -14.1628 10548.5293 206.7028)" gradientUnits="userSpaceOnUse">
		<stop  offset="0" style="stop-color:#01579B"/>
		<stop  offset="1" style="stop-color:#03A9F4"/>
	</radialGradient>
	<path class="st9" d="M89.1,54.8c0,5.1-4.2,9.2-9.3,9.2c-5.1,0-9.3-4.2-9.3-9.3s4.2-9.2,9.3-9.2c2.5,0,4.8,1,6.6,2.7
		C88.1,50,89.1,52.4,89.1,54.8z"/>
	
		<radialGradient id="SVGID_7_" cx="-739.2947" cy="9.0087" r="3.9043" gradientTransform="matrix(14.0876 0 0 -14.0877 10470.0527 181.9127)" gradientUnits="userSpaceOnUse">
		<stop  offset="0" style="stop-color:#01579B"/>
		<stop  offset="1" style="stop-color:#03A9F4"/>
	</radialGradient>
	<path class="st10" d="M55.2,39.7c-5.1-0.1-9.2-4.3-9.1-9.3c0.1-5.1,4.3-9.1,9.3-9.1c5.1,0.1,9.2,4.2,9.1,9.3c0,2.5-1,4.8-2.8,6.5
		C60.1,38.8,57.7,39.7,55.2,39.7z"/>
	
		<radialGradient id="SVGID_8_" cx="-734.4864" cy="7.516" r="4.1343" gradientTransform="matrix(13.3031 0 0 -13.3031 9826.0596 154.9868)" gradientUnits="userSpaceOnUse">
		<stop  offset="0" style="stop-color:#01579B"/>
		<stop  offset="1" style="stop-color:#03A9F4"/>
	</radialGradient>
	<path class="st11" d="M30.6,88.1c-3.5,0-6.7-2.1-8-5.4c-1.3-3.3-0.6-7,1.9-9.5c2.5-2.5,6.3-3.2,9.5-1.9c3.3,1.4,5.4,4.5,5.4,8.1
		C39.3,84.2,35.4,88.1,30.6,88.1z"/>
	
		<radialGradient id="SVGID_9_" cx="-732.9076" cy="2.7394" r="4.2391" gradientTransform="matrix(12.9741 0 0 -12.9741 9563.9561 90.5416)" gradientUnits="userSpaceOnUse">
		<stop  offset="0" style="stop-color:#01579B"/>
		<stop  offset="1" style="stop-color:#03A9F4"/>
	</radialGradient>
	<path class="st12" d="M30.7,38.9c-4.7,0-8.5-3.8-8.5-8.5c0-4.7,3.8-8.5,8.5-8.5s8.5,3.8,8.5,8.5C39.1,35.1,35.3,38.9,30.7,38.9z"/>
	
		<radialGradient id="SVGID_10_" cx="-734.2097" cy="0.6756" r="4.3494" gradientTransform="matrix(12.6453 0 0 -12.6453 9339.4639 63.5434)" gradientUnits="userSpaceOnUse">
		<stop  offset="0" style="stop-color:#01579B"/>
		<stop  offset="1" style="stop-color:#03A9F4"/>
	</radialGradient>
	<path class="st13" d="M88.1,30.4c0,4.6-3.7,8.3-8.3,8.3c-4.6,0-8.3-3.7-8.3-8.3s3.7-8.3,8.3-8.3C84.4,22.2,88,25.9,88.1,30.4
		L88.1,30.4z"/>
	
		<radialGradient id="SVGID_11_" cx="-722.3043" cy="-7.4702" r="5.0571" gradientTransform="matrix(10.875 0 0 -10.875 7910.1895 -26.2374)" gradientUnits="userSpaceOnUse">
		<stop  offset="0" style="stop-color:#01579B"/>
		<stop  offset="1" style="stop-color:#03A9F4"/>
	</radialGradient>
	<path class="st14" d="M55.4,110c-3.9,0-7.1-3.1-7.2-7c0-3.9,3.1-7.1,7.1-7.2c3.9,0,7.2,3.1,7.2,7c0,1.9-0.7,3.7-2,5.1
		C59.1,109.2,57.3,110,55.4,110z"/>
	
		<radialGradient id="SVGID_12_" cx="-718.9252" cy="-10.8528" r="5.0574" gradientTransform="matrix(10.875 0 0 -10.875 7873.4399 -63.0235)" gradientUnits="userSpaceOnUse">
		<stop  offset="0" style="stop-color:#01579B"/>
		<stop  offset="1" style="stop-color:#03A9F4"/>
	</radialGradient>
	<path class="st15" d="M7.1,61.9c-3.9,0-7.1-3.2-7.1-7.1c0-3.9,3.2-7.1,7.1-7.1s7.1,3.2,7.1,7.1C14.3,58.7,11.1,61.9,7.1,61.9
		L7.1,61.9z"/>
	
		<radialGradient id="SVGID_13_" cx="-718.0092" cy="-19.7903" r="5.3426" gradientTransform="matrix(10.282 0 0 -10.282 7437.6733 -148.4826)" gradientUnits="userSpaceOnUse">
		<stop  offset="0" style="stop-color:#01579B"/>
		<stop  offset="1" style="stop-color:#03A9F4"/>
	</radialGradient>
	<path class="st16" d="M55.3,0c1.8,0,3.5,0.7,4.8,1.9c1.3,1.3,2,3,2,4.8c0,2.4-1.3,4.6-3.4,5.8c-2.1,1.2-4.7,1.2-6.7,0
		c-2.1-1.2-3.4-3.4-3.4-5.8c0-1.8,0.7-3.5,1.9-4.8S53.5,0,55.3,0z"/>
	
		<radialGradient id="SVGID_14_" cx="-721.6755" cy="-16.0961" r="5.3428" gradientTransform="matrix(10.2941 0 0 -10.2941 7484.1265 -110.6946)" gradientUnits="userSpaceOnUse">
		<stop  offset="0" style="stop-color:#01579B"/>
		<stop  offset="1" style="stop-color:#03A9F4"/>
	</radialGradient>
	<path class="st17" d="M103.6,48.1c3.7,0,6.7,3,6.7,6.7c0,3.7-3,6.7-6.7,6.7c-3.7,0-6.7-3-6.7-6.7c0-1.8,0.7-3.5,1.9-4.8
		C100,48.7,101.8,48,103.6,48.1L103.6,48.1z"/>
	
		<radialGradient id="SVGID_15_" cx="-713.4019" cy="-15.8948" r="5.5334" gradientTransform="matrix(9.9395 0 0 -9.9395 7146.0107 -102.986)" gradientUnits="userSpaceOnUse">
		<stop  offset="0" style="stop-color:#01579B"/>
		<stop  offset="1" style="stop-color:#03A9F4"/>
	</radialGradient>
	<path class="st18" d="M30.7,96.4c2.6,0,5,1.6,6,4c1,2.4,0.4,5.2-1.4,7.1c-1.9,1.9-4.7,2.4-7.1,1.4s-4-3.4-4-6
		c0-1.7,0.7-3.4,1.9-4.6C27.3,97.1,28.9,96.4,30.7,96.4L30.7,96.4z"/>
	
		<radialGradient id="SVGID_16_" cx="-711.1545" cy="-18.2337" r="5.5618" gradientTransform="matrix(9.8887 0 0 -9.8887 7087.4961 -125.306)" gradientUnits="userSpaceOnUse">
		<stop  offset="0" style="stop-color:#01579B"/>
		<stop  offset="1" style="stop-color:#03A9F4"/>
	</radialGradient>
	<path class="st19" d="M7,85.6c-3.6,0-6.5-2.9-6.4-6.5s2.9-6.4,6.5-6.4c3.6,0,6.5,2.9,6.5,6.5c0,1.7-0.7,3.4-1.9,4.6
		C10.4,85,8.8,85.6,7,85.6L7,85.6z"/>
	
		<radialGradient id="SVGID_17_" cx="-715.0942" cy="-18.4533" r="5.678" gradientTransform="matrix(9.6865 0 0 -9.6865 6981.8755 -123.7467)" gradientUnits="userSpaceOnUse">
		<stop  offset="0" style="stop-color:#01579B"/>
		<stop  offset="1" style="stop-color:#03A9F4"/>
	</radialGradient>
	<path class="st20" d="M79.7,109.2c-3.5,0-6.3-2.9-6.3-6.4c0-3.5,2.9-6.3,6.4-6.3c3.5,0,6.3,2.9,6.3,6.3c0,1.7-0.7,3.3-1.9,4.5
		S81.4,109.2,79.7,109.2z"/>
	
		<radialGradient id="SVGID_18_" cx="-708.7576" cy="-25.0168" r="5.5797" gradientTransform="matrix(9.6105 0 0 -9.6105 6866.6514 -185.4234)" gradientUnits="userSpaceOnUse">
		<stop  offset="0" style="stop-color:#01579B"/>
		<stop  offset="1" style="stop-color:#03A9F4"/>
	</radialGradient>
	<path class="st21" d="M13.4,30.4c0,1.7-0.7,3.3-1.8,4.4s-2.8,1.8-4.5,1.8c-2.3,0.1-4.5-1-5.7-3c-1.2-2-1.2-4.5,0-6.5s3.4-3.2,5.7-3
		c1.7,0,3.3,0.6,4.5,1.8C12.7,27.2,13.4,28.8,13.4,30.4L13.4,30.4z"/>
	
		<radialGradient id="SVGID_19_" cx="-706.9661" cy="-31.459" r="5.9014" gradientTransform="matrix(9.2252 0 0 -9.2252 6577.0425 -235.2151)" gradientUnits="userSpaceOnUse">
		<stop  offset="0" style="stop-color:#01579B"/>
		<stop  offset="1" style="stop-color:#03A9F4"/>
	</radialGradient>
	<path class="st22" d="M30.6,0.6c1.6,0,3.2,0.6,4.3,1.7c1.2,1.1,1.8,2.6,1.8,4.3c0,3.4-2.7,6.1-6.1,6.1s-6.1-2.7-6.1-6.1
		C24.6,3.3,27.3,0.6,30.6,0.6L30.6,0.6z"/>
	
		<radialGradient id="SVGID_20_" cx="-711.1567" cy="-31.9022" r="6.0914" gradientTransform="matrix(9.0296 0 0 -9.0296 6476.5835 -233.0628)" gradientUnits="userSpaceOnUse">
		<stop  offset="0" style="stop-color:#01579B"/>
		<stop  offset="1" style="stop-color:#03A9F4"/>
	</radialGradient>
	<path class="st23" d="M103.4,36.4c-2.4-0.1-4.5-1.6-5.4-3.8c-0.9-2.2-0.3-4.8,1.5-6.4c1.7-1.6,4.3-2.1,6.5-1.1
		c2.2,1,3.6,3.2,3.5,5.6c0,1.6-0.7,3-1.8,4.1C106.5,35.8,105,36.4,103.4,36.4L103.4,36.4z"/>
	
		<radialGradient id="SVGID_21_" cx="-709.2605" cy="-33.7589" r="6.083" gradientTransform="matrix(9.0414 0 0 -9.0414 6467.8569 -250.2275)" gradientUnits="userSpaceOnUse">
		<stop  offset="0" style="stop-color:#01579B"/>
		<stop  offset="1" style="stop-color:#03A9F4"/>
	</radialGradient>
	<path class="st24" d="M85.7,6.8c0,3.3-2.7,5.9-5.9,5.9c-3.3,0-5.9-2.6-5.9-5.9s2.7-5.9,5.9-5.9C83,0.9,85.7,3.5,85.7,6.8L85.7,6.8z
		"/>
	
		<radialGradient id="SVGID_22_" cx="-670.9237" cy="-62.6524" r="8.1755" gradientTransform="matrix(6.7276 0 0 -6.7276 4568.8428 -366.5006)" gradientUnits="userSpaceOnUse">
		<stop  offset="0" style="stop-color:#01579B"/>
		<stop  offset="1" style="stop-color:#03A9F4"/>
	</radialGradient>
	<path class="st25" d="M11.6,102.9c0,2.4-2,4.4-4.4,4.4c-2.4,0-4.4-1.9-4.4-4.4c0-2.4,1.9-4.4,4.4-4.4c1.2,0,2.3,0.4,3.1,1.3
		C11.1,100.6,11.6,101.7,11.6,102.9z"/>
	
		<radialGradient id="SVGID_23_" cx="-671.4893" cy="-75.7027" r="8.9125" gradientTransform="matrix(6.1711 0 0 -6.1711 4198.9712 -412.1693)" gradientUnits="userSpaceOnUse">
		<stop  offset="0" style="stop-color:#01579B"/>
		<stop  offset="1" style="stop-color:#03A9F4"/>
	</radialGradient>
	<path class="st26" d="M107.6,102.9c0,1.6-1,3.1-2.5,3.7c-1.5,0.6-3.3,0.3-4.4-0.9c-1.2-1.2-1.5-2.9-0.9-4.4s2.1-2.5,3.7-2.5
		c1.1,0,2.1,0.4,2.9,1.2C107.2,100.8,107.6,101.8,107.6,102.9z"/>
	
		<radialGradient id="SVGID_24_" cx="-656.6872" cy="-91.1809" r="9.0991" gradientTransform="matrix(6.0443 0 0 -6.0443 4024.3728 -496.1281)" gradientUnits="userSpaceOnUse">
		<stop  offset="0" style="stop-color:#01579B"/>
		<stop  offset="1" style="stop-color:#03A9F4"/>
	</radialGradient>
	<path class="st27" d="M7,10.7c-2.2,0-3.9-1.8-3.9-4c0-2.2,1.8-3.9,4-3.9c2.2,0,3.9,1.8,3.9,3.9c0,1.1-0.4,2.1-1.2,2.8
		S8.1,10.7,7,10.7z"/>
	
		<radialGradient id="SVGID_25_" cx="-659.5362" cy="-103.8321" r="9.7958" gradientTransform="matrix(5.6328 0 0 -5.6328 3770.1875 -529.8688)" gradientUnits="userSpaceOnUse">
		<stop  offset="0" style="stop-color:#01579B"/>
		<stop  offset="1" style="stop-color:#03A9F4"/>
	</radialGradient>
	<path class="st28" d="M103.6,10.4c-2.1,0-3.7-1.7-3.7-3.7c0-1.3,0.7-2.5,1.8-3.2c1.1-0.7,2.5-0.7,3.7,0c1.1,0.7,1.8,1.9,1.8,3.2
		C107.2,8.7,105.6,10.4,103.6,10.4z"/>
</g>
</svg>
