<?xml version="1.0" encoding="utf-8"?>
<!-- Generator: Adobe Illustrator 23.0.3, SVG Export Plug-In . SVG Version: 6.00 Build 0)  -->
<svg version="1.1" id="Layer_1" xmlns="http://www.w3.org/2000/svg" xmlns:xlink="http://www.w3.org/1999/xlink" x="0px" y="0px"
	 viewBox="0 0 320 108.4" style="enable-background:new 0 0 320 108.4;" xml:space="preserve">
<style type="text/css">
	.st0{fill-rule:evenodd;clip-rule:evenodd;fill:#FFFFFF;}
	.st1{filter:url(#Adobe_OpacityMaskFilter);}
	.st2{mask:url(#mask-2_2_);fill-rule:evenodd;clip-rule:evenodd;fill:#FFFFFF;}
	.st3{filter:url(#Adobe_OpacityMaskFilter_1_);}
	.st4{mask:url(#mask-2_1_);fill-rule:evenodd;clip-rule:evenodd;fill:#FFFFFF;}
	.st5{fill:#FFFFFF;}
</style>
<title>Group 2</title>
<desc>Created with Sketch.</desc>
<g id="Clip-4_2_">
</g>
<g>
	<path id="Fill-1_1_" class="st0" d="M157.6,72.4h17.6c12,0,15.3-9.2,15.3-18.3c0-12.3-5.7-18.1-17-18.1h-15.9V72.4z M136.6,21.3
		h45.6c19.5,0,30,11,30,32.9c0,25.9-14.7,32.9-32.8,32.9h-42.8V21.3z"/>
	<defs>
		<filter id="Adobe_OpacityMaskFilter" filterUnits="userSpaceOnUse" x="221.8" y="21.3" width="21.9" height="65.8">
			<feColorMatrix  type="matrix" values="1 0 0 0 0  0 1 0 0 0  0 0 1 0 0  0 0 0 1 0"/>
		</filter>
	</defs>
	<mask maskUnits="userSpaceOnUse" x="221.8" y="21.3" width="21.9" height="65.8" id="mask-2_2_">
		<g class="st1">
			<polygon id="path-1_2_" class="st0" points="8.3,108.2 320,108.2 320,0.3 8.3,0.3 			"/>
		</g>
	</mask>
	<polygon id="Fill-3_1_" class="st2" points="221.8,87.2 243.7,87.2 243.7,21.3 221.8,21.3 	"/>
	<defs>
		<filter id="Adobe_OpacityMaskFilter_1_" filterUnits="userSpaceOnUse" x="257.2" y="21.3" width="62.8" height="65.8">
			<feColorMatrix  type="matrix" values="1 0 0 0 0  0 1 0 0 0  0 0 1 0 0  0 0 0 1 0"/>
		</filter>
	</defs>
	<mask maskUnits="userSpaceOnUse" x="257.2" y="21.3" width="62.8" height="65.8" id="mask-2_1_">
		<g class="st3">
			<polygon id="path-1_1_" class="st0" points="8.3,108.2 320,108.2 320,0.3 8.3,0.3 			"/>
		</g>
	</mask>
	<polygon id="Fill-5_1_" class="st4" points="257.2,21.3 320,21.3 320,36.1 279.2,36.1 279.2,47.4 317.1,47.4 317.1,61.6 
		279.2,61.6 279.2,87.2 257.2,87.2 	"/>
	<g>
		<path class="st5" d="M54.5,64.4c-5.7,0-10.4-4.6-10.4-10.3c0-5.7,4.6-10.4,10.3-10.4c5.7,0,10.4,4.6,10.4,10.3
			c0,2.8-1.1,5.4-3,7.4S57.3,64.4,54.5,64.4z"/>
		<path class="st5" d="M54.5,87.6c-3.8,0-7.2-2.3-8.7-5.8c-1.5-3.5-0.7-7.5,2-10.2c2.7-2.7,6.8-3.5,10.3-2c3.5,1.5,5.8,4.9,5.8,8.7
			C63.9,83.4,59.7,87.6,54.5,87.6L54.5,87.6z"/>
		<path class="st5" d="M20.9,53.9c0-3.8,2.3-7.1,5.8-8.6s7.5-0.6,10.2,2.1c2.7,2.7,3.4,6.7,1.9,10.2c-1.5,3.5-4.9,5.7-8.7,5.7
			c-2.5,0-4.9-1-6.6-2.8C21.8,58.8,20.8,56.4,20.9,53.9L20.9,53.9z"/>
		<path class="st5" d="M87.7,54c0,5-4.1,9.1-9.2,9.1c-5.1,0-9.1-4.1-9.1-9.1c0-5,4.1-9.1,9.2-9.1c2.4,0,4.8,1,6.5,2.7
			C86.8,49.3,87.8,51.6,87.7,54z"/>
		<path class="st5" d="M54.4,39.1c-5-0.1-9-4.2-9-9.2c0.1-5,4.2-9,9.2-8.9c5,0.1,9,4.2,9,9.2c0,2.4-1,4.7-2.7,6.4
			C59.2,38.2,56.8,39.1,54.4,39.1z"/>
		<path class="st5" d="M30.2,86.8c-3.5,0-6.6-2.1-7.9-5.3c-1.3-3.2-0.6-6.9,1.9-9.3c2.5-2.4,6.2-3.2,9.4-1.8
			c3.2,1.3,5.3,4.5,5.3,7.9C38.8,83,34.9,86.8,30.2,86.8z"/>
		<path class="st5" d="M78.7,69.8c4.7,0,8.4,3.8,8.4,8.5c0,4.6-3.8,8.4-8.5,8.3c-4.7,0-8.4-3.8-8.4-8.5C70.3,73.5,74,69.8,78.7,69.8
			z"/>
		<path class="st5" d="M30.2,38.3c-4.6,0-8.4-3.8-8.4-8.4c0-4.6,3.8-8.3,8.4-8.3s8.4,3.8,8.4,8.4C38.6,34.6,34.8,38.3,30.2,38.3z"/>
		<path class="st5" d="M86.8,30c0,4.5-3.7,8.1-8.2,8.1s-8.2-3.6-8.2-8.1s3.7-8.1,8.2-8.1C83.1,21.9,86.7,25.5,86.8,30L86.8,30z"/>
		<path class="st5" d="M54.5,108.4c-3.9,0-7-3.1-7.1-6.9c0-3.9,3.1-7,7-7.1c3.9,0,7,3.1,7.1,6.9c0,1.9-0.7,3.7-2,5
			C58.2,107.6,56.4,108.4,54.5,108.4z"/>
		<path class="st5" d="M7,61c-3.9,0-7-3.1-7-7s3.1-7,7-7s7,3.1,7,7S10.9,61,7,61L7,61z"/>
		<path class="st5" d="M54.5,0c1.8,0,3.5,0.6,4.8,1.9c1.3,1.2,2,3,1.9,4.7c0,2.4-1.3,4.6-3.3,5.7c-2.1,1.2-4.6,1.2-6.6,0
			S47.9,9,47.9,6.6c0-1.8,0.7-3.5,1.9-4.7C51,0.7,52.7,0,54.5,0z"/>
		<path class="st5" d="M102,47.4c3.7,0,6.6,3,6.6,6.6c0,3.7-3,6.6-6.6,6.6s-6.6-3-6.6-6.6c0-1.8,0.7-3.5,1.9-4.7
			C98.6,48,100.3,47.3,102,47.4L102,47.4z"/>
		<path class="st5" d="M30.2,95c2.6,0,4.9,1.6,5.9,4c1,2.4,0.4,5.2-1.4,7s-4.6,2.4-7,1.4c-2.4-1-4-3.3-3.9-5.9
			c0-1.7,0.7-3.3,1.9-4.5S28.5,95,30.2,95L30.2,95z"/>
		<path class="st5" d="M6.9,84.4c-3.5,0-6.4-2.9-6.4-6.4c0-3.5,2.9-6.4,6.4-6.3s6.4,2.9,6.4,6.4c0,1.7-0.7,3.3-1.9,4.5
			C10.3,83.7,8.6,84.4,6.9,84.4L6.9,84.4z"/>
		<path class="st5" d="M78.6,107.6c-3.4,0-6.2-2.8-6.2-6.3s2.8-6.2,6.3-6.2c3.4,0,6.2,2.8,6.2,6.3c0,1.7-0.7,3.3-1.9,4.4
			C81.9,107,80.2,107.6,78.6,107.6z"/>
		<path class="st5" d="M13.2,30c0,1.6-0.6,3.2-1.8,4.4c-1.2,1.2-2.8,1.8-4.4,1.8c-2.3,0.1-4.5-1-5.6-3s-1.2-4.4,0-6.4s3.3-3.1,5.6-3
			c1.7,0,3.2,0.6,4.4,1.8C12.5,26.8,13.2,28.4,13.2,30L13.2,30z"/>
		<path class="st5" d="M30.2,0.6c1.6,0,3.1,0.6,4.2,1.7s1.8,2.6,1.8,4.2c0,3.3-2.7,6-6,6s-6-2.7-6-6C24.2,3.2,26.9,0.6,30.2,0.6
			L30.2,0.6z"/>
		<path class="st5" d="M102.1,84.2c-3.3,0-6-2.7-6-6c0-3.3,2.6-6,6-6s6,2.6,6.1,5.9c0,1.6-0.6,3.1-1.7,4.3
			C105.2,83.6,103.7,84.2,102.1,84.2L102.1,84.2z"/>
		<path class="st5" d="M101.9,35.8c-2.4-0.1-4.5-1.5-5.3-3.7s-0.3-4.7,1.4-6.3c1.7-1.6,4.2-2,6.4-1.1c2.2,1,3.5,3.1,3.4,5.5
			c0,1.5-0.7,3-1.8,4C104.9,35.3,103.4,35.9,101.9,35.8L101.9,35.8z"/>
		<path class="st5" d="M84.4,6.7c0,3.2-2.6,5.8-5.8,5.8s-5.8-2.6-5.8-5.8s2.6-5.8,5.8-5.8S84.4,3.4,84.4,6.7L84.4,6.7z"/>
		<path class="st5" d="M11.4,101.4c0,2.4-1.9,4.3-4.3,4.3c-2.4,0-4.4-1.9-4.4-4.3c0-2.4,1.9-4.3,4.3-4.4c1.2,0,2.3,0.4,3.1,1.2
			S11.4,100.2,11.4,101.4z"/>
		<path class="st5" d="M106,101.4c0,1.6-1,3.1-2.4,3.7c-1.5,0.6-3.2,0.3-4.3-0.9c-1.1-1.1-1.5-2.8-0.9-4.3c0.6-1.5,2.1-2.5,3.7-2.5
			c1.1,0,2.1,0.4,2.8,1.1C105.6,99.3,106,100.3,106,101.4z"/>
		<path class="st5" d="M6.9,10.5c-2.1,0-3.9-1.8-3.9-3.9c0-2.1,1.8-3.9,3.9-3.9c2.1,0,3.9,1.7,3.9,3.9c0,1-0.4,2-1.2,2.8
			C9,10.1,8,10.5,6.9,10.5z"/>
		<path class="st5" d="M102.1,10.2c-2,0-3.7-1.6-3.7-3.6c0-1.3,0.7-2.5,1.8-3.1c1.1-0.6,2.5-0.6,3.6,0c1.1,0.6,1.8,1.8,1.8,3.1
			C105.7,8.6,104.1,10.2,102.1,10.2z"/>
	</g>
</g>
</svg>
