<svg id="Capa_1" enable-background="new 0 0 512 512" height="512" viewBox="0 0 512 512" width="512" xmlns="http://www.w3.org/2000/svg"><g><path d="m153.555 207.4h19.871c4.394 0 8.391 1.814 11.282 4.705s4.705 6.889 4.705 11.281v35.547c8.277 1.275 16.753 2.381 25.172 3.373 9.299 1.078 18.454 1.957 27.156 2.693v-9.779c0-6.15 2.495-11.707 6.521-15.732 4.054-4.025 9.609-6.52 15.731-6.52h71.236c6.123 0 11.679 2.494 15.704 6.52 4.025 4.025 6.52 9.582 6.52 15.732v9.809c34.272-2.863 75.714-8.25 105.194-17.943 9.752-3.176 34.356-11.963 34.356-24.691v-83.735c0-.85-.935-1.332-1.7-1.332-130.48 0-260.932 0-391.385 0-.765 0-1.7.482-1.7 1.332v34.385h5.386c6.774 0 12.954 2.777 17.433 7.229 2.75 2.777 4.877 6.18 6.096 9.977 6.35.283 12.104 2.977 16.328 7.229 2.777 2.749 4.875 6.151 6.094 9.92zm55.984-85.068v-20.295c0-8.902 3.63-16.951 9.469-22.791 4.365-4.365 10.007-7.512 16.271-8.816 1.162-3.996 3.317-7.568 6.208-10.459 4.423-4.422 10.545-7.172 17.292-7.172h81.667c6.746 0 12.869 2.75 17.291 7.172 2.863 2.891 5.046 6.463 6.208 10.459 6.265 1.305 11.877 4.451 16.242 8.816 5.869 5.84 9.497 13.889 9.497 22.791v20.295h105.62c4.507 0 8.645 1.787 11.679 4.705 3.09 2.977 5.018 7.088 5.018 11.623v83.734c0 10.971-6.917 19.9-18.426 27.156v139.465c0 4.535-1.842 8.647-4.818 11.623-3.005 2.977-7.115 4.846-11.65 4.846h-287.694v37.73c0 4.393-1.814 8.391-4.705 11.281-2.892 2.891-6.889 4.705-11.282 4.705h-157.439c-4.394 0-8.39-1.815-11.281-4.705-2.92-2.89-4.706-6.888-4.706-11.28v-92.92c0-4.139 3.373-7.512 7.512-7.512s7.483 3.373 7.483 7.512v92.92c0 .51.454.963.992.963h157.438c.51 0 .992-.453.992-.963v-45.242-174.586c0-.51-.482-.963-.992-.963h-19.871c-1.219 3.77-3.316 7.172-6.094 9.922-4.451 4.479-10.631 7.256-17.434 7.256h-70.639c-6.803 0-12.982-2.777-17.462-7.256-2.75-2.75-4.848-6.152-6.066-9.922h-19.872c-.538 0-.992.453-.992.963v92.92c0 4.139-3.345 7.512-7.483 7.512s-7.512-3.374-7.512-7.512v-92.92c0-4.393 1.786-8.391 4.706-11.281 2.892-2.891 6.888-4.705 11.281-4.705h19.871c1.219-3.77 3.316-7.172 6.066-9.922 4.253-4.252 10.007-6.945 16.356-7.229 1.22-3.797 3.345-7.199 6.095-9.977 4.479-4.451 10.658-7.229 17.434-7.229h5.386v-34.384c0-4.535 1.927-8.646 5.045-11.623 3.005-2.918 7.172-4.705 11.679-4.705zm26.307-36.48c-2.353.877-4.479 2.238-6.236 3.996-3.118 3.117-5.074 7.455-5.074 12.189v20.295h150.124v-20.295c0-4.734-1.928-9.072-5.074-12.189-1.729-1.758-3.854-3.119-6.236-3.996-1.219 3.287-3.175 6.264-5.612 8.701-4.422 4.451-10.545 7.201-17.291 7.201h-81.667c-6.747 0-12.869-2.75-17.292-7.201-2.468-2.438-4.395-5.414-5.642-8.701zm104.599-18.059h-81.667c-2.608 0-4.961 1.078-6.69 2.807-1.729 1.701-2.777 4.082-2.777 6.662 0 2.523.992 4.904 2.777 6.689 1.729 1.729 4.082 2.807 6.69 2.807h81.667c2.607 0 4.961-1.078 6.689-2.807 1.701-1.729 2.778-4.082 2.778-6.689 0-2.58-1.077-4.961-2.778-6.662-1.728-1.729-4.081-2.807-6.689-2.807zm-98.704 212.23c-9.184-.736-18.935-1.701-28.857-2.834-7.71-.908-15.59-1.928-23.471-3.119v116.391h287.692c.793 0 1.474-.65 1.474-1.445v-131.84c-3.572 1.475-7.342 2.863-11.311 4.168-31.125 10.205-74.438 15.816-109.815 18.736v15.648c0 6.123-2.494 11.707-6.52 15.732-4.025 4.023-9.581 6.52-15.704 6.52h-18.624c-4.139 0-7.512-3.346-7.512-7.512 0-4.139 3.373-7.484 7.512-7.484h18.624c1.984 0 3.798-.822 5.103-2.125 1.304-1.334 2.126-3.147 2.126-5.131v-40.508c0-1.984-.822-3.799-2.126-5.131-1.305-1.305-3.118-2.125-5.103-2.125h-71.236c-1.983 0-3.798.82-5.102 2.125-1.332 1.332-2.154 3.146-2.154 5.131v40.508c0 1.984.822 3.797 2.154 5.131 1.304 1.303 3.118 2.125 5.102 2.125h18.624c4.139 0 7.512 3.346 7.512 7.484 0 4.166-3.373 7.512-7.512 7.512h-18.624c-6.122 0-11.678-2.496-15.731-6.52-4.025-4.025-6.521-9.609-6.521-15.732zm-201.772 87.506c-4.139 0-7.512-3.346-7.512-7.484 0-4.166 3.373-7.512 7.512-7.512h109.476c4.139 0 7.513 3.346 7.513 7.512 0 4.139-3.374 7.484-7.513 7.484zm22.99 54.313c-4.139 0-7.512-3.346-7.512-7.484 0-4.139 3.373-7.512 7.512-7.512h63.496c4.14 0 7.513 3.373 7.513 7.512s-3.373 7.484-7.513 7.484zm-22.99-27.157c-4.139 0-7.512-3.346-7.512-7.484 0-4.139 3.373-7.512 7.512-7.512h109.476c4.139 0 7.513 3.373 7.513 7.512s-3.374 7.484-7.513 7.484zm42.775-72c.992 3.996-1.445 8.078-5.471 9.07-2.721.68-5.527 1.049-8.334 1.049-10.176 0-19.389-4.449-25.994-11.65-6.463-7.029-10.488-16.695-10.488-27.326 0-10.629 4.025-20.268 10.488-27.297 6.605-7.201 15.818-11.65 25.994-11.65 2.807 0 5.613.34 8.334 1.049 4.025.992 6.463 5.045 5.471 9.07-1.021 3.996-5.073 6.463-9.099 5.443-1.531-.369-3.146-.568-4.706-.568-5.839 0-11.111 2.58-14.995 6.775-3.997 4.365-6.491 10.432-6.491 17.178s2.494 12.842 6.491 17.178c3.884 4.195 9.156 6.805 14.995 6.805 5.075-.001 11.822-3.034 13.805 4.874zm13.012-55.531c-1.475-3.855.481-8.164 4.309-9.637 3.854-1.475 8.163.453 9.638 4.309l16.384 42.66 16.386-42.66c1.474-3.855 5.782-5.783 9.638-4.309 3.855 1.473 5.782 5.781 4.309 9.637l-23.357 60.803c-.737 1.928-2.239 3.516-4.309 4.309-3.856 1.475-8.164-.453-9.638-4.309zm-31.125-61.937h-5.244c-2.664 0-5.073 1.105-6.831 2.863s-2.863 4.168-2.863 6.832 1.105 5.074 2.863 6.832 4.167 2.863 6.831 2.863h70.641c2.665 0 5.074-1.105 6.832-2.863 1.757-1.758 2.862-4.168 2.862-6.832s-1.105-5.074-2.862-6.832c-1.758-1.758-4.167-2.863-6.832-2.863h-5.245c-4.139 0-7.512-3.344-7.512-7.482 0-2.664-1.077-5.074-2.835-6.832-1.757-1.785-4.195-2.863-6.831-2.863h-25.795c-2.637 0-5.074 1.078-6.832 2.863-1.758 1.758-2.835 4.168-2.835 6.832 0 4.138-3.373 7.482-7.512 7.482z"/></g></svg>