<?xml version="1.0" encoding="utf-8"?>
<!-- Generator: Adobe Illustrator 23.0.3, SVG Export Plug-In . SVG Version: 6.00 Build 0)  -->
<svg version="1.1" id="Capa_1" xmlns="http://www.w3.org/2000/svg" xmlns:xlink="http://www.w3.org/1999/xlink" x="0px" y="0px"
	 viewBox="0 0 488 488" style="enable-background:new 0 0 488 488;" xml:space="preserve">
<g>
	<g>
		<path d="M450.4,168.6C461.2,158.4,468,144,468,128c0-30.9-25.1-56-56-56s-56,25.1-56,56c0,19.6,10.2,36.9,25.5,46.9
			C371,182.1,364,194.3,364,208v56h-32v-40c0-28.6-21.6-52.3-49.4-55.6c10.7-10.2,17.4-24.5,17.4-40.4c0-30.9-25.1-56-56-56
			s-56,25.1-56,56c0,15.9,6.7,30.2,17.4,40.4c-27.8,3.3-49.4,26.9-49.4,55.6v40h-32v-56c0-13.7-7-25.9-17.5-33.1
			c15.4-10,25.5-27.3,25.5-46.9c0-30.9-25.1-56-56-56s-56,25.1-56,56c0,16,6.8,30.4,17.6,40.6C18.6,171.7,4,188.1,4,208v120
			c0,19.3,13.8,35.5,32,39.2V488h16V368h72v112c0,4.4,3.6,8,8,8h48c4.4,0,8-3.6,8-8V352h48v120h-32v16h80v-16h-32V352h48v128
			c0,4.4,3.6,8,8,8h48c4.4,0,8-3.6,8-8V368h72v120h16V367.2c18.2-3.7,32-19.9,32-39.2V208C484,188.1,469.4,171.7,450.4,168.6z
			 M372,128c0-22.1,17.9-40,40-40s40,17.9,40,40s-17.9,40-40,40S372,150.1,372,128z M204,128c0-22.1,17.9-40,40-40s40,17.9,40,40
			s-17.9,40-40,40S204,150.1,204,128z M256.5,184L244,217.2L231.5,184H256.5z M172,224c0-22.1,17.9-40,40-40h2.5l22.1,58.8
			c1.2,3.1,4.2,5.2,7.5,5.2s6.3-2.1,7.5-5.2l22-58.8h2.5c22.1,0,40,17.9,40,40v40h-32c-4.4,0-8,3.6-8,8v32h-64v-32c0-4.4-3.6-8-8-8
			h-32V224z M36,128c0-22.1,17.9-40,40-40s40,17.9,40,40s-17.9,40-40,40S36,150.1,36,128z M172,472h-32V360c0-4.4-3.6-8-8-8H44
			c-13.2,0-24-10.8-24-24V208c0-13.2,10.8-24,24-24h40c13.2,0,24,10.8,24,24v64c0,4.4,3.6,8,8,8h80v24H84v-72H68v80c0,4.4,3.6,8,8,8
			h72c13.2,0,24,10.8,24,24V472z M300.9,336H187.1c-1.2-5.9-3.6-11.4-7.1-16h24h80h24C304.5,324.6,302.1,330.1,300.9,336z M468,328
			c0,13.2-10.8,24-24,24h-88c-4.4,0-8,3.6-8,8v112h-32V344c0-13.2,10.8-24,24-24h72c4.4,0,8-3.6,8-8v-80h-16v72H292v-24h80
			c4.4,0,8-3.6,8-8v-64c0-13.2,10.8-24,24-24h40c13.2,0,24,10.8,24,24V328z"/>
	</g>
</g>
<g>
	<g>
		<rect x="236" y="264" width="16" height="16"/>
	</g>
</g>
<g>
	<g>
		<path d="M204,0H92c-4.4,0-8,3.6-8,8v40c0,4.4,3.6,8,8,8h32v16c0,3,1.7,5.8,4.4,7.2c1.1,0.6,2.4,0.8,3.6,0.8c1.7,0,3.4-0.5,4.8-1.6
			L166.7,56H204c4.4,0,8-3.6,8-8V8C212,3.6,208.4,0,204,0z M196,40h-32c-1.7,0-3.4,0.6-4.8,1.6L140,56v-8c0-4.4-3.6-8-8-8h-32V16h96
			V40z"/>
	</g>
</g>
<g>
	<g>
		<rect x="284" y="24" width="16" height="16"/>
	</g>
</g>
<g>
	<g>
		<rect x="316" y="24" width="16" height="16"/>
	</g>
</g>
<g>
	<g>
		<rect x="348" y="24" width="16" height="16"/>
	</g>
</g>
</svg>
