<svg height="480pt" viewBox="0 0 480.00294 480" width="480pt" xmlns="http://www.w3.org/2000/svg"><path d="m96 208c0-13.257812-10.746094-24-24-24h-48c-13.253906 0-24 10.742188-24 24v88c0 13.253906 10.746094 24 24 24h32.246094c-3.847656 1.984375-5.417969 6.671875-3.542969 10.574219l1.863281 3.734375c2.011719 3.929687 6.824219 5.488281 10.753906 3.484375 3.933594-2.003907 5.5-6.8125 3.503907-10.746094l-1.726563-3.472656c-.808594-1.582031-2.132812-2.84375-3.753906-3.574219h8.65625c13.253906 0 24-10.746094 24-24zm-16 88c0 4.417969-3.582031 8-8 8h-48c-4.417969 0-8-3.582031-8-8v-88c0-4.417969 3.582031-8 8-8h48c4.417969 0 8 3.582031 8 8zm0 0"/><path d="m56 280h-16c-4.417969 0-8 3.582031-8 8s3.582031 8 8 8h16c4.417969 0 8-3.582031 8-8s-3.582031-8-8-8zm0 0"/><path d="m479.433594 309.03125-15.433594-38.570312v-78.460938c0-4.417969-3.582031-8-8-8h-112c-4.417969 0-8 3.582031-8 8v78.460938l-15.433594 38.570312c-.984375 2.464844-.679687 5.257812.808594 7.453125 1.488281 2.199219 3.96875 3.515625 6.625 3.515625h88.65625c-1.617188.734375-2.941406 1.992188-3.753906 3.574219l-1.726563 3.472656c-1.304687 2.546875-1.148437 5.597656.410157 7.996094 1.558593 2.402343 4.277343 3.789062 7.136718 3.636719 2.855469-.152344 5.414063-1.816407 6.710938-4.371094l1.863281-3.734375c1.875-3.902344.304687-8.589844-3.542969-10.574219h48.246094c2.65625 0 5.136719-1.316406 6.625-3.515625 1.488281-2.195313 1.792969-4.988281.808594-7.453125zm-31.433594-109.03125v64h-96v-64zm-108.183594 104 9.597656-24h101.171876l9.597656 24zm0 0"/><path d="m48.078125 183.03125c4.1875 1.417969 8.726563-.824219 10.144531-5.007812.410156-1.191407.800782-2.402344 1.265625-3.578126 1.527344-4.144531-.59375-8.746093-4.742187-10.273437-4.144532-1.53125-8.746094.59375-10.273438 4.738281-.484375 1.3125-.953125 2.644532-1.402344 4-1.402343 4.175782.839844 8.703125 5.007813 10.121094zm0 0"/><path d="m57.214844 158.328125c3.960937 1.957031 8.761718.335937 10.722656-3.625 1.054688-2.136719 2.160156-4.25 3.285156-6.328125 1.417969-2.515625 1.371094-5.601562-.125-8.070312s-4.203125-3.941407-7.089844-3.851563c-2.886718.085937-5.5 1.722656-6.839843 4.28125-1.230469 2.265625-2.425781 4.558594-3.574219 6.871094-1.960938 3.960937-.339844 8.761719 3.621094 10.722656zm0 0"/><path d="m75.9375 133.597656c2.613281.003906 5.0625-1.273437 6.558594-3.414062 1.371094-1.953125 2.773437-3.878906 4.207031-5.777344 2.652344-3.535156 1.933594-8.546875-1.597656-11.199219-3.535157-2.652343-8.550781-1.933593-11.203125 1.597657-1.550782 2.054687-3.066406 4.136718-4.542969 6.25-1.707031 2.441406-1.914063 5.632812-.539063 8.273437 1.375 2.644531 4.105469 4.304687 7.082032 4.308594zm0 0"/><path d="m94.734375 110.527344c2.203125 0 4.304687-.90625 5.816406-2.503906 1.601563-1.730469 3.296875-3.425782 4.992188-5.089844 3.15625-3.09375 3.210937-8.160156.117187-11.316406s-8.160156-3.207032-11.316406-.113282c-1.855469 1.796875-3.664062 3.65625-5.449219 5.535156-2.1875 2.324219-2.789062 5.726563-1.523437 8.660157 1.265625 2.929687 4.15625 4.828125 7.347656 4.828125zm0 0"/><path d="m127.335938 84.511719c3.582031-2.589844 4.386718-7.59375 1.796874-11.171875-2.589843-3.582032-7.59375-4.386719-11.171874-1.796875-2.097657 1.519531-4.144532 3.070312-6.183594 4.664062-3.480469 2.726563-4.085938 7.753907-1.363282 11.230469 2.726563 3.476562 7.757813 4.085938 11.234376 1.359375 1.863281-1.460937 3.765624-2.894531 5.6875-4.285156zm0 0"/><path d="m152.28125 66.910156c-.1875 1.691406-.28125 3.386719-.28125 5.089844.027344 26.496094 21.5 47.972656 48 48h88c22.089844 0 40-17.910156 40-40 0-22.09375-17.910156-40-40-40 0-19.195312-13.636719-35.679688-32.484375-39.285156-18.851563-3.605469-37.609375 6.6875-44.691406 24.523437-12.722657-2.949219-26.101563-.582031-37.039063 6.554688-10.941406 7.136719-18.496094 18.425781-20.921875 31.261719-.097656-1.011719-.390625-1.992188-.863281-2.886719-2.113281-3.878907-6.96875-5.3125-10.847656-3.203125l-3.625 2.007812c-3.847656 2.171875-5.207032 7.054688-3.035156 10.902344 2.171874 3.847656 7.050781 5.207031 10.898437 3.035156l3.402344-1.878906c1.609375-.921875 2.84375-2.378906 3.488281-4.121094zm47.71875-26.910156c4.492188-.007812 8.933594.953125 13.023438 2.816406 2.296874 1.03125 4.949218.917969 7.152343-.300781s3.703125-3.40625 4.046875-5.902344c1.722656-12.523437 12.863282-21.5625 25.472656-20.667969 12.609376.890626 22.363282 11.414063 22.304688 24.054688.011719 2.378906-.347656 4.75-1.0625 7.023438-.902344 2.847656-.140625 5.957031 1.96875 8.066406 2.113281 2.113281 5.222656 2.871094 8.070312 1.972656 2.273438-.714844 4.640626-1.074219 7.023438-1.0625 13.253906 0 24 10.742188 24 24 0 13.253906-10.746094 24-24 24h-88c-17.671875 0-32-14.328125-32-32 0-17.675781 14.328125-32 32-32zm0 0"/><path d="m420.640625 174.789062 1.269531 3.632813c1.109375 3.238281 4.15625 5.410156 7.578125 5.410156.878907-.003906 1.75-.144531 2.582031-.425781 4.183594-1.429688 6.417969-5.976562 4.984376-10.160156l-1.367188-3.910156c-1.507812-4.15625-6.097656-6.304688-10.25-4.796876-4.15625 1.507813-6.304688 6.097657-4.796875 10.25zm0 0"/><path d="m393.441406 124.558594c1.421875 1.917968 2.832032 3.855468 4.199219 5.816406 2.527344 3.625 7.519531 4.511719 11.144531 1.984375 3.625-2.53125 4.511719-7.519531 1.984375-11.144531-1.480469-2.113282-2.992187-4.207032-4.554687-6.265625-2.648438-3.535157-7.664063-4.25-11.199219-1.597657-3.535156 2.648438-4.25 7.664063-1.601563 11.199219zm0 0"/><path d="m379.574219 108.167969c3.042969 3.207031 8.113281 3.34375 11.320312.300781 3.210938-3.039062 3.347657-8.109375.304688-11.316406-1.765625-1.875-3.574219-3.707032-5.40625-5.523438-3.148438-3.101562-8.214844-3.066406-11.316407.078125-3.105468 3.144531-3.070312 8.210938.074219 11.316407 1.703125 1.691406 3.378907 3.40625 5.023438 5.144531zm0 0"/><path d="m358.398438 88.855469c1.40625 1.105469 3.140624 1.707031 4.929687 1.703125 3.414063.003906 6.453125-2.160156 7.570313-5.386719 1.113281-3.226563.058593-6.804687-2.625-8.910156-2.035157-1.597657-4.105469-3.152344-6.195313-4.671875-2.308594-1.71875-5.367187-2.0625-8.003906-.898438-2.632813 1.164063-4.441407 3.65625-4.726563 6.523438-.289062 2.863281.988282 5.664062 3.339844 7.328125 1.953125 1.40625 3.847656 2.847656 5.710938 4.3125zm0 0"/><path d="m408.929688 148.6875c1.144531 2.078125 2.238281 4.1875 3.277343 6.320312 1.226563 2.625 3.78125 4.386719 6.671875 4.59375 2.890625.210938 5.671875-1.160156 7.265625-3.585937 1.589844-2.421875 1.746094-5.515625.40625-8.089844-1.144531-2.335937-2.34375-4.644531-3.589843-6.925781-2.125-3.875-6.984376-5.296875-10.859376-3.171875-3.875 2.121094-5.296874 6.984375-3.171874 10.859375zm0 0"/><path d="m331.238281 71.023438c1.121094.597656 2.25 1.214843 3.355469 1.847656 3.832031 2.183594 8.714844.847656 10.902344-2.984375 2.183594-3.835938.847656-8.714844-2.984375-10.902344-1.214844-.699219-2.398438-1.378906-3.664063-2.042969-3.886718-2.101562-8.742187-.652344-10.84375 3.238282-2.101562 3.886718-.652344 8.742187 3.234375 10.84375zm0 0"/><path d="m81.984375 349.09375c-2.515625-3.640625-7.503906-4.554688-11.144531-2.039062-3.640625 2.515624-4.554688 7.503906-2.039063 11.144531 1.75 2.535156 3.566407 5.023437 5.414063 7.488281 2.652344 3.535156 7.667968 4.25 11.199218 1.597656 3.535157-2.648437 4.253907-7.664062 1.601563-11.199218-1.71875-2.304688-3.394531-4.632813-5.03125-6.992188zm0 0"/><path d="m137.199219 402.191406c-2.40625-1.535156-4.785157-3.125-7.136719-4.761718-2.335938-1.703126-5.414062-2.007813-8.042969-.800782-2.628906 1.203125-4.402343 3.738282-4.636719 6.621094-.234374 2.882812 1.105469 5.667969 3.503907 7.285156 2.539062 1.773438 5.105469 3.480469 7.707031 5.144532 3.722656 2.375 8.667969 1.285156 11.046875-2.441407 2.375-3.722656 1.285156-8.671875-2.441406-11.046875zm0 0"/><path d="m103.871094 375.40625c-3.125-3.046875-8.117188-3.027344-11.21875.046875-3.097656 3.074219-3.160156 8.066406-.140625 11.21875 2.179687 2.195313 4.414062 4.34375 6.695312 6.445313 3.253907 2.992187 8.316407 2.78125 11.308594-.476563 2.992187-3.253906 2.777344-8.316406-.476563-11.304687-2.109374-1.9375-4.160156-3.914063-6.167968-5.929688zm0 0"/><path d="m398.015625 349.09375c-1.632813 2.363281-3.3125 4.6875-5.046875 6.96875-2.652344 3.535156-1.933594 8.550781 1.597656 11.199219 3.535156 2.652343 8.550782 1.933593 11.203125-1.597657 1.847657-2.464843 3.664063-4.953124 5.414063-7.488281 1.707031-2.347656 2.011718-5.4375.789062-8.070312-1.21875-2.636719-3.769531-4.402344-6.664062-4.617188-2.898438-.214843-5.679688 1.15625-7.277344 3.582031zm0 0"/><path d="m376.128906 375.40625c-2.007812 2.015625-4.058594 4-6.167968 5.929688-3.253907 2.992187-3.464844 8.054687-.472657 11.3125 2.992188 3.253906 8.058594 3.464843 11.3125.46875 2.28125-2.09375 4.515625-4.242188 6.695313-6.445313 3.019531-3.152344 2.957031-8.144531-.140625-11.21875-3.101563-3.074219-8.09375-3.09375-11.21875-.046875zm0 0"/><path d="m349.9375 397.429688c-2.347656 1.632812-4.726562 3.21875-7.136719 4.761718-3.726562 2.375-4.816406 7.324219-2.441406 11.046875 2.378906 3.726563 7.324219 4.816407 11.046875 2.441407 2.601562-1.664063 5.167969-3.371094 7.707031-5.144532 2.398438-1.617187 3.738281-4.402344 3.503907-7.285156-.234376-2.882812-2.007813-5.417969-4.636719-6.621094-2.628907-1.207031-5.707031-.902344-8.042969.800782zm0 0"/><path d="m320.3125 414.445312-3.550781 1.601563c-2.867188 1.253906-4.730469 4.074219-4.761719 7.199219v-79.246094c0-4.417969-3.582031-8-8-8h-128c-4.417969 0-8 3.582031-8 8v79.253906c-.03125-3.125-1.894531-5.945312-4.761719-7.199218l-3.550781-1.601563c-4.015625-1.839844-8.765625-.078125-10.609375 3.9375-1.839844 4.015625-.078125 8.765625 3.9375 10.609375l3.816406 1.710938c1.007813.445312 2.097657.675781 3.199219.671874 3.183594 0 6.0625-1.882812 7.335938-4.800781.398437-.925781.613281-1.921875.632812-2.925781v16.34375c0 4.417969 3.582031 8 8 8h40v16h-16c-4.417969 0-8 3.582031-8 8s3.582031 8 8 8h80c4.417969 0 8-3.582031 8-8s-3.582031-8-8-8h-16v-16h40c4.417969 0 8-3.582031 8-8v-16.34375c.023438 1.003906.238281 1.996094.632812 2.917969 1.273438 2.917969 4.152344 4.800781 7.335938 4.800781 1.101562 0 2.191406-.226562 3.199219-.671875l3.816406-1.710937c4.015625-1.84375 5.777344-6.59375 3.9375-10.609376-1.84375-4.015624-6.59375-5.777343-10.609375-3.9375zm-24.3125-62.445312v56h-112v-56zm-48 112h-16v-16h16zm-64-32v-8h112v8zm0 0"/></svg>