<?xml version="1.0" encoding="UTF-8" standalone="no"?>
<!DOCTYPE svg PUBLIC "-//W3C//DTD SVG 1.1//EN" "http://www.w3.org/Graphics/SVG/1.1/DTD/svg11.dtd">
<svg version="1.1" xmlns="http://www.w3.org/2000/svg" xmlns:xlink="http://www.w3.org/1999/xlink" preserveAspectRatio="xMidYMid meet" viewBox="-1 -0.9999999999999982 303.41925221229565 451.1437585663135" width="299.42" height="447.14"><defs><path d="M145.21 8.47L145.5 8.51L145.8 8.56L146.38 8.7L146.67 8.79L146.96 8.88L147.25 8.99L147.52 9.12L147.81 9.26L148.07 9.4L148.35 9.56L148.61 9.73L148.87 9.91L149.61 10.44L149.63 10.46L149.64 10.46L149.65 10.47L149.65 10.48L149.65 10.48L149.67 10.5L149.68 10.5L149.68 10.51L149.7 10.52L149.72 10.54L149.73 10.56L149.78 10.6L149.85 10.67L149.86 10.67L149.87 10.68L149.87 10.69L149.88 10.69L149.9 10.71L149.92 10.72L149.94 10.74L149.97 10.76L149.99 10.77L150.01 10.79L150.03 10.8L150.03 10.81L150.05 10.82L150.08 10.85L150.09 10.85L150.09 10.86L150.1 10.87L150.11 10.87L150.11 10.88L150.12 10.89L150.13 10.89L150.13 10.9L150.14 10.91L150.15 10.91L150.15 10.92L150.18 10.95L150.18 10.96L150.19 10.96L150.19 10.97L150.21 10.99L150.21 11L150.23 11.01L150.23 11.02L150.25 11.04L150.27 11.05L150.29 11.07L150.32 11.11L150.37 11.16L150.38 11.16L150.39 11.18L150.4 11.19L150.4 11.2L150.41 11.2L150.42 11.21L150.42 11.22L150.43 11.23L150.44 11.25L150.45 11.25L150.46 11.27L150.47 11.28L150.49 11.32L150.5 11.32L150.51 11.34L150.53 11.36L150.54 11.38L150.59 11.43L150.61 11.46L150.63 11.48L150.69 11.55L150.7 11.56L150.7 11.58L150.71 11.59L150.71 11.6L150.72 11.61L150.72 11.62L150.73 11.62L150.75 11.65L257.72 150.83L258.65 151.92L259.58 153.01L260.49 154.11L261.38 155.22L262.27 156.33L263.14 157.45L264.01 158.58L264.85 159.72L265.68 160.86L266.51 162L268.12 164.32L268.91 165.49L270.44 167.85L271.18 169.04L271.92 170.23L272.65 171.43L273.35 172.64L274.05 173.85L274.74 175.07L275.42 176.29L276.07 177.52L276.72 178.76L277.36 180L277.98 181.23L278.6 182.49L279.2 183.75L279.78 185L280.36 186.27L280.92 187.54L281.47 188.81L282 190.09L282.52 191.38L283.03 192.66L283.53 193.95L284.01 195.25L284.48 196.55L284.94 197.86L285.39 199.17L285.43 199.24L285.48 199.32L285.8 199.95L285.83 200.03L285.87 200.11L285.92 200.27L285.95 200.35L286.07 200.67L286.09 200.76L286.15 200.91L286.17 201L286.21 201.16L286.24 201.25L286.26 201.33L286.28 201.41L286.29 201.49L286.31 201.58L286.33 201.66L286.35 201.75L286.36 201.83L286.38 201.92L286.39 201.99L286.4 202.08L286.41 202.16L286.43 202.25L286.44 202.33L286.44 202.42L287.43 205.72L288.33 209.03L289.16 212.36L289.91 215.71L290.58 219.08L291.18 222.46L291.69 225.85L292.13 229.26L292.48 232.67L292.77 236.09L292.97 239.52L293.09 242.96L293.14 246.38L293.1 249.83L293 253.27L292.81 256.7L292.53 260.13L292.19 263.56L291.76 266.99L291.26 270.4L290.67 273.81L290.01 277.2L289.26 280.59L288.44 283.96L287.54 287.3L286.56 290.64L285.5 293.96L284.36 297.26L283.15 300.54L281.84 303.79L280.46 307.02L279 310.23L277.47 313.41L275.85 316.55L274.15 319.66L272.37 322.75L270.52 325.8L268.58 328.82L266.57 331.79L264.47 334.73L263.58 335.92L262.7 337.1L261.8 338.26L260.88 339.42L259.97 340.57L259.04 341.7L258.09 342.83L257.14 343.95L256.18 345.05L255.21 346.15L254.22 347.23L253.23 348.31L252.23 349.37L251.22 350.42L250.2 351.46L249.17 352.49L248.13 353.51L247.06 354.53L246 355.52L244.93 356.51L243.85 357.48L242.76 358.44L241.66 359.41L240.55 360.35L239.43 361.27L238.3 362.2L237.17 363.11L236.02 364L234.87 364.89L233.7 365.77L232.52 366.64L230.14 368.32L227.73 369.97L226.5 370.78L225.27 371.57L224.04 372.35L222.78 373.13L221.52 373.88L220.3 374.61L219.08 375.32L217.84 376.01L216.6 376.69L215.35 377.37L214.11 378.03L212.85 378.68L211.59 379.3L210.33 379.93L209.05 380.54L206.5 381.72L205.21 382.29L203.91 382.85L201.32 383.93L200.01 384.44L198.7 384.95L197.38 385.45L196.07 385.93L194.74 386.39L193.41 386.86L192.07 387.3L190.73 387.73L189.39 388.15L188.04 388.55L186.69 388.95L185.33 389.33L183.97 389.69L182.6 390.05L181.24 390.39L179.86 390.72L178.48 391.03L177.09 391.33L175.71 391.62L174.32 391.89L172.93 392.16L171.53 392.41L170.13 392.65L168.72 392.88L168.31 392.93L167.9 392.99L167.5 393.05L166.67 393.17L166.27 393.23L165.86 393.29L165.46 393.34L165.04 393.4L164.64 393.45L164.23 393.49L163.83 393.54L163 393.64L162.6 393.69L162.19 393.73L161.78 393.78L160.96 393.86L160.56 393.9L160.14 393.94L159.74 393.98L159.33 394.01L158.93 394.05L158.51 394.08L158.1 394.12L157.7 394.15L157.29 394.18L156.87 394.22L156.47 394.25L156.06 394.28L155.66 394.3L154.83 394.36L154.43 394.38L154.02 394.4L153.6 394.43L153.2 394.45L152.38 394.49L152.37 439.42L152.36 439.73L152.34 440.04L152.26 440.67L152.2 440.98L152.13 441.27L152.05 441.57L151.96 441.86L151.75 442.43L151.62 442.7L151.49 442.97L151.34 443.24L151.2 443.49L151.03 443.75L150.86 443.98L150.49 444.45L150.29 444.67L150.09 444.89L149.87 445.09L149.65 445.29L149.42 445.48L149.18 445.66L148.95 445.83L148.69 445.99L148.44 446.14L148.17 446.29L147.91 446.42L147.63 446.54L147.06 446.76L146.78 446.85L146.48 446.93L146.18 447L145.57 447.09L145.26 447.12L144.94 447.13L144.62 447.14L144.3 447.13L143.99 447.11L143.67 447.08L143.37 447.04L142.76 446.92L142.17 446.74L141.89 446.64L141.34 446.41L141.06 446.27L140.8 446.13L140.54 445.98L140.3 445.82L140.05 445.64L139.81 445.46L139.58 445.28L139.15 444.87L138.94 444.66L138.74 444.43L138.56 444.21L138.37 443.97L138.04 443.48L137.89 443.22L137.74 442.96L137.49 442.41L137.38 442.14L137.28 441.85L137.18 441.56L137.1 441.26L137.05 440.97L136.99 440.66L136.95 440.35L136.91 440.04L136.9 439.72L136.89 439.41L136.89 394.32L136.27 394.28L135.66 394.24L133.83 394.09L131.4 393.86L130.79 393.79L130.18 393.73L129.57 393.66L128.96 393.58L128.36 393.51L126.54 393.28L125.32 393.1L124.72 393.01L124.11 392.92L123.5 392.83L122.9 392.73L121.69 392.53L121.09 392.42L120.48 392.32L119.88 392.21L119.27 392.1L118.67 391.98L118.06 391.86L117.46 391.75L116.85 391.62L116.26 391.5L115.66 391.37L115.06 391.24L114.45 391.11L112.65 390.7L111.22 390.35L109.79 389.99L108.38 389.62L106.97 389.23L105.56 388.83L104.16 388.42L102.76 387.99L101.37 387.55L98.6 386.63L97.22 386.15L95.85 385.65L94.49 385.14L93.13 384.62L91.77 384.08L90.43 383.53L89.09 382.97L87.75 382.39L86.42 381.8L85.09 381.19L83.78 380.57L82.46 379.94L81.16 379.3L79.86 378.65L78.56 377.97L77.28 377.28L75.99 376.58L74.71 375.88L73.45 375.15L72.18 374.41L70.92 373.67L69.68 372.9L68.43 372.12L67.19 371.33L65.95 370.52L64.74 369.71L63.51 368.87L62.3 368.03L61.09 367.18L59.9 366.31L58.71 365.43L57.53 364.54L56.36 363.64L55.2 362.73L54.05 361.8L51.79 359.94L50.67 358.98L49.57 358.02L48.47 357.05L47.39 356.07L46.31 355.08L45.25 354.07L44.2 353.06L43.16 352.03L42.13 351L41.11 349.96L40.1 348.91L39.11 347.85L38.11 346.78L37.14 345.7L36.18 344.61L35.22 343.51L34.27 342.4L33.35 341.28L32.43 340.15L31.51 339.01L30.62 337.86L29.74 336.7L28.85 335.53L27.99 334.36L27.14 333.18L26.3 331.98L25.47 330.78L24.65 329.56L23.84 328.34L23.05 327.12L21.5 324.62L20.74 323.37L20.01 322.14L19.31 320.91L18.61 319.68L17.92 318.44L17.25 317.2L16.6 315.94L15.95 314.69L14.69 312.16L14.08 310.89L13.49 309.62L12.9 308.33L12.33 307.04L11.77 305.76L11.23 304.46L10.69 303.16L10.17 301.85L9.67 300.54L9.17 299.23L8.69 297.9L8.22 296.58L7.77 295.25L7.33 293.91L6.89 292.58L6.47 291.23L6.07 289.88L5.68 288.53L5.29 287.17L4.93 285.81L4.58 284.45L4.23 283.07L3.91 281.7L3.59 280.32L3.29 278.94L3.01 277.55L2.73 276.16L2.46 274.76L2.21 273.37L1.97 271.97L1.75 270.56L1.54 269.16L1.34 267.74L1.16 266.33L0.98 264.92L0.82 263.51L0.69 262.11L0.55 260.69L0.43 259.29L0.33 257.87L0.25 256.47L0.17 255.05L0.11 253.65L0.06 252.24L0.03 250.83L0.01 249.42L0 248.01L0.01 246.61L0.03 245.2L0.07 243.8L0.12 242.39L0.18 240.98L0.26 239.59L0.34 238.18L0.44 236.78L0.56 235.37L0.69 233.98L0.83 232.58L0.99 231.18L1.16 229.79L1.35 228.38L1.54 226.99L1.76 225.59L1.98 224.21L2.22 222.81L2.46 221.42L2.73 220.03L3.01 218.65L3.31 217.26L3.61 215.87L3.93 214.5L4.24 213.2L4.57 211.91L4.9 210.64L5.24 209.36L5.6 208.08L6.34 205.55L6.74 204.29L7.14 203.04L7.55 201.78L7.97 200.53L8.41 199.28L9.31 196.81L10.25 194.35L10.74 193.14L11.24 191.92L11.76 190.71L12.82 188.29L13.37 187.1L13.92 185.91L14.49 184.72L15.06 183.53L15.65 182.35L16.25 181.17L16.86 180.01L17.48 178.85L18.76 176.53L19.42 175.38L20.08 174.24L20.76 173.1L21.45 171.97L22.15 170.84L22.85 169.71L23.57 168.6L24.31 167.48L25.04 166.38L25.06 166.36L25.07 166.33L25.09 166.3L25.1 166.28L25.11 166.25L25.13 166.22L25.14 166.19L25.16 166.17L25.17 166.14L25.19 166.11L25.2 166.08L25.22 166.06L25.23 166.03L25.25 166L25.26 165.98L25.28 165.95L25.29 165.92L25.31 165.9L25.33 165.87L25.34 165.84L25.36 165.82L25.37 165.8L25.41 165.74L25.42 165.72L25.45 165.66L25.47 165.64L25.48 165.61L25.5 165.58L25.52 165.56L25.56 165.5L25.58 165.48L25.59 165.45L25.61 165.42L25.63 165.4L25.67 165.34L25.69 165.32L138.09 11.57L138.28 11.32L138.48 11.08L138.7 10.85L138.91 10.62L139.36 10.21L139.6 10.02L139.84 9.85L140.1 9.67L140.35 9.51L140.61 9.36L140.88 9.23L141.15 9.1L141.43 8.98L141.7 8.87L142.27 8.7L142.84 8.56L143.13 8.51L143.43 8.47L143.72 8.44L144.02 8.42L144.62 8.42L144.91 8.44L145.21 8.47ZM152.39 379.01L152.73 379L153.08 378.98L153.43 378.96L153.78 378.94L154.47 378.9L154.82 378.87L155.16 378.85L155.52 378.82L155.86 378.8L156.22 378.77L156.56 378.74L156.91 378.72L157.26 378.69L157.61 378.67L157.95 378.64L158.31 378.6L158.66 378.57L159 378.54L159.36 378.5L159.7 378.46L160.05 378.43L160.41 378.39L160.75 378.35L161.46 378.27L161.8 378.23L162.16 378.19L162.51 378.14L162.85 378.11L163.56 378.01L163.9 377.97L164.61 377.87L164.96 377.82L165.31 377.77L165.66 377.71L166.02 377.66L166.36 377.6L168.94 377.18L171.52 376.71L174.07 376.19L176.59 375.62L179.12 375L181.61 374.33L184.09 373.62L186.55 372.86L188.99 372.06L191.41 371.2L193.81 370.3L196.18 369.36L198.54 368.36L200.88 367.32L203.19 366.24L205.47 365.12L207.73 363.95L209.97 362.74L212.19 361.48L214.38 360.18L216.54 358.84L218.67 357.45L220.78 356.02L222.87 354.56L224.92 353.04L226.94 351.49L228.94 349.89L230.9 348.26L232.84 346.58L234.75 344.87L236.62 343.11L238.46 341.32L240.27 339.49L242.05 337.62L243.78 335.7L245.5 333.76L247.17 331.77L248.81 329.75L250.41 327.69L251.98 325.59L253.68 323.21L255.32 320.81L256.9 318.38L258.43 315.93L259.9 313.45L261.3 310.94L262.65 308.42L263.95 305.87L265.17 303.29L266.35 300.71L267.47 298.1L268.52 295.47L269.52 292.82L270.47 290.16L271.35 287.49L272.19 284.8L272.95 282.1L273.66 279.38L274.32 276.66L274.92 273.92L275.46 271.18L275.94 268.43L276.36 265.67L276.72 262.91L277.03 260.14L277.28 257.36L277.48 254.59L277.62 251.81L277.69 249.03L277.71 246.27L277.68 243.49L277.59 240.72L277.44 237.95L277.23 235.18L276.97 232.42L276.64 229.67L276.27 226.93L275.83 224.19L275.34 221.46L274.8 218.75L152.38 349.95L152.39 379.01ZM39.24 172.98L37.76 175.13L36.33 177.32L34.93 179.51L33.59 181.72L32.29 183.96L31.04 186.22L29.84 188.5L28.69 190.8L27.58 193.12L26.52 195.44L25.5 197.8L24.54 200.17L23.62 202.54L22.75 204.95L21.93 207.36L21.15 209.78L20.43 212.23L19.75 214.68L19.12 217.15L18.54 219.63L18.01 222.12L17.53 224.62L17.1 227.12L16.71 229.65L16.38 232.18L16.1 234.72L15.86 237.26L15.67 239.81L15.55 242.38L15.46 244.94L15.43 247.5L15.44 250.09L15.51 252.66L15.62 255.24L15.8 257.82L16.02 260.42L16.29 263L16.61 265.59L16.99 268.18L17.41 270.77L17.88 273.33L18.4 275.88L18.97 278.42L19.59 280.93L20.26 283.43L20.98 285.91L21.73 288.37L22.54 290.81L23.39 293.23L24.3 295.63L25.24 298.01L26.23 300.37L27.27 302.69L28.35 305L29.47 307.29L30.64 309.56L31.86 311.8L33.11 314.01L34.41 316.2L35.76 318.36L37.14 320.5L38.58 322.61L40.04 324.68L41.55 326.74L43.1 328.77L44.7 330.76L46.33 332.72L48.01 334.66L49.72 336.56L51.48 338.44L53.28 340.28L55.1 342.09L56.98 343.87L58.89 345.61L60.84 347.32L62.82 349L64.84 350.64L66.91 352.24L69.01 353.81L70.53 354.9L72.06 355.98L73.6 357.03L75.16 358.05L76.72 359.05L78.3 360.04L79.88 360.99L81.48 361.92L83.09 362.82L84.71 363.71L86.33 364.56L87.97 365.41L89.62 366.21L91.28 367L92.94 367.76L94.62 368.5L96.3 369.22L97.99 369.91L99.69 370.57L101.4 371.21L103.12 371.83L104.83 372.42L106.56 372.99L108.3 373.53L110.05 374.05L111.8 374.54L113.55 375L115.32 375.44L117.09 375.87L118.87 376.26L120.65 376.63L122.43 376.97L124.22 377.29L126.02 377.58L127.81 377.85L129.62 378.09L131.43 378.3L133.24 378.5L135.06 378.67L136.89 378.8L136.89 267L45.52 164.37L40.76 170.86L39.24 172.98ZM152.39 327.26L269.82 201.39L269.42 200.29L269 199.2L268.58 198.11L268.15 197.02L267.71 195.93L267.26 194.84L266.78 193.76L266.31 192.69L265.83 191.62L265.34 190.56L264.83 189.49L264.32 188.44L263.8 187.39L262.72 185.29L262.17 184.25L261.03 182.19L260.44 181.15L259.85 180.13L259.25 179.12L258.01 177.1L256.74 175.1L256.08 174.1L255.42 173.12L254.74 172.14L254.07 171.17L253.37 170.2L252.67 169.23L251.96 168.27L250.5 166.37L249.76 165.42L249.01 164.49L248.24 163.56L247.48 162.63L246.69 161.72L245.9 160.81L245.9 160.8L245.89 160.79L245.89 160.78L245.88 160.77L245.88 160.76L245.87 160.75L245.86 160.75L245.85 160.74L245.84 160.72L245.82 160.7L245.81 160.68L245.8 160.67L245.8 160.66L245.79 160.66L245.79 160.65L245.78 160.64L245.78 160.63L245.77 160.63L245.77 160.62L245.76 160.61L245.76 160.6L245.75 160.6L245.75 160.59L245.72 160.56L245.71 160.54L245.7 160.54L245.7 160.53L245.65 160.48L245.65 160.47L245.61 160.43L245.61 160.41L245.6 160.41L203.8 106.05L152.35 161.81L152.39 327.26ZM136.89 243.71L136.89 39.4L54.85 151.58L136.89 243.71ZM194.22 93.62L152.34 39.12L152.35 139.02L194.22 93.62Z" id="aG0qzrIZA"></path><path d="M256.06 189.25C263.89 178.56 278.92 176.23 289.61 184.06C300.29 191.89 302.61 206.92 294.78 217.61C286.96 228.29 271.93 230.62 261.24 222.79C250.55 214.96 248.23 199.93 256.06 189.25Z" id="a2V7U6KjKi"></path><path d="M124.31 328.34C132.14 317.66 147.16 315.34 157.85 323.17C168.54 331 170.86 346.03 163.03 356.72C155.2 367.4 140.17 369.72 129.48 361.89C118.8 354.06 116.48 339.03 124.31 328.34Z" id="c3CYASRSPU"></path><path d="M124.46 243.53C132.28 232.84 147.32 230.52 158 238.35C168.69 246.18 171 261.21 163.18 271.9C155.35 282.58 140.32 284.9 129.63 277.07C118.95 269.25 116.63 254.21 124.46 243.53Z" id="e9waLIyA"></path><path d="M124.63 141.02C132.46 130.33 147.49 128.01 158.18 135.83C168.86 143.67 171.18 158.7 163.35 169.38C155.53 180.06 140.5 182.39 129.82 174.57C119.12 166.73 116.81 151.7 124.63 141.02Z" id="c8Ivl1DhbZ"></path><path d="M27.17 139.11C35 128.43 50.04 126.11 60.72 133.94C71.41 141.76 73.72 156.79 65.9 167.47C58.07 178.17 43.04 180.49 32.36 172.66C21.66 164.83 19.35 149.8 27.17 139.11Z" id="a6VKxMHd4"></path><path d="M124.63 9.82C132.46 -0.87 147.49 -3.2 158.18 4.64C168.86 12.47 171.18 27.49 163.36 38.18C155.53 48.86 140.49 51.19 129.81 43.36C119.12 35.54 116.81 20.5 124.63 9.82Z" id="dsd1b2xKo"></path><path d="M184.74 79.78C192.57 69.09 207.61 66.77 218.29 74.59C228.98 82.43 231.29 97.45 223.47 108.14C215.64 118.82 200.61 121.15 189.93 113.32C179.23 105.49 176.92 90.46 184.74 79.78Z" id="a1ACPXg9UR"></path></defs><g><g><use xlink:href="#aG0qzrIZA" opacity="1" fill="#264f6b" fill-opacity="1"></use><g><use xlink:href="#aG0qzrIZA" opacity="1" fill-opacity="0" stroke="#000000" stroke-width="1" stroke-opacity="0"></use></g></g><g><use xlink:href="#a2V7U6KjKi" opacity="1" fill="#3b6e90" fill-opacity="1"></use><g><use xlink:href="#a2V7U6KjKi" opacity="1" fill-opacity="0" stroke="#000000" stroke-width="1" stroke-opacity="0"></use></g></g><g><use xlink:href="#c3CYASRSPU" opacity="1" fill="#3b6e90" fill-opacity="1"></use><g><use xlink:href="#c3CYASRSPU" opacity="1" fill-opacity="0" stroke="#000000" stroke-width="1" stroke-opacity="0"></use></g></g><g><use xlink:href="#e9waLIyA" opacity="1" fill="#3b6e90" fill-opacity="1"></use><g><use xlink:href="#e9waLIyA" opacity="1" fill-opacity="0" stroke="#000000" stroke-width="1" stroke-opacity="0"></use></g></g><g><use xlink:href="#c8Ivl1DhbZ" opacity="1" fill="#3b6e90" fill-opacity="1"></use><g><use xlink:href="#c8Ivl1DhbZ" opacity="1" fill-opacity="0" stroke="#000000" stroke-width="1" stroke-opacity="0"></use></g></g><g><use xlink:href="#a6VKxMHd4" opacity="1" fill="#3b6e90" fill-opacity="1"></use><g><use xlink:href="#a6VKxMHd4" opacity="1" fill-opacity="0" stroke="#000000" stroke-width="1" stroke-opacity="0"></use></g></g><g><use xlink:href="#dsd1b2xKo" opacity="1" fill="#3b6e90" fill-opacity="1"></use><g><use xlink:href="#dsd1b2xKo" opacity="1" fill-opacity="0" stroke="#000000" stroke-width="1" stroke-opacity="0"></use></g></g><g><use xlink:href="#a1ACPXg9UR" opacity="1" fill="#3b6e90" fill-opacity="1"></use><g><use xlink:href="#a1ACPXg9UR" opacity="1" fill-opacity="0" stroke="#000000" stroke-width="1" stroke-opacity="0"></use></g></g></g></svg>