<?xml version="1.0" encoding="iso-8859-1"?>
<!-- Generator: Adobe Illustrator 18.0.0, SVG Export Plug-In . SVG Version: 6.00 Build 0)  -->
<!DOCTYPE svg PUBLIC "-//W3C//DTD SVG 1.1//EN" "http://www.w3.org/Graphics/SVG/1.1/DTD/svg11.dtd">
<svg version="1.1" id="Capa_1" xmlns="http://www.w3.org/2000/svg" xmlns:xlink="http://www.w3.org/1999/xlink" x="0px" y="0px"
	 viewBox="0 0 478.793 478.793" style="enable-background:new 0 0 478.793 478.793;" xml:space="preserve">
<path d="M439.356,204.963c-1.36-2.357-3.875-3.809-6.597-3.809h-53.126c-2.724,0-5.237,1.451-6.598,3.809l-8.642,14.966
	l-68.155-38.892l9.461-16.387c1.36-2.357,1.36-5.261,0-7.617l-8.304-14.383l66.418-41.898l9.222,15.97
	c1.36,2.356,3.874,3.809,6.598,3.809h53.126c2.722,0,5.236-1.452,6.597-3.81l26.564-46.011c1.36-2.356,1.36-5.261,0-7.618
	l-26.564-46.01c-1.36-2.358-3.875-3.809-6.597-3.809h-53.126c-2.724,0-5.237,1.451-6.598,3.808l-26.568,46.011
	c-1.361,2.358-1.361,5.262,0,7.618l9.354,16.2l-66.416,41.9l-10.27-17.788c-1.36-2.357-3.876-3.81-6.596-3.81h-53.127
	c-2.723,0-5.237,1.452-6.598,3.809l-9.749,16.883l-29.146-16.309l15.541-26.918c2.006-3.475,2.006-7.756,0-11.23L150.299,5.615
	C148.293,2.141,144.586,0,140.574,0H62.251c-4.013,0-7.72,2.141-9.726,5.615L13.357,73.447c-2.007,3.475-2.007,7.756,0,11.23
	l39.168,67.833c2.006,3.475,5.713,5.614,9.726,5.614H96.41v162.543H62.251c-4.013,0-7.72,2.14-9.726,5.614l-39.168,67.831
	c-2.007,3.476-2.007,7.757,0,11.232l39.168,67.832c2.006,3.475,5.713,5.615,9.726,5.615h78.323c4.012,0,7.719-2.141,9.725-5.615
	l38.414-66.537h70.443l25.158,43.57c1.36,2.357,3.875,3.809,6.598,3.809h53.127c2.721,0,5.234-1.452,6.596-3.81l26.564-46.011
	c1.36-2.358,1.36-5.261,0-7.617l-26.564-46.011c-1.361-2.357-3.875-3.809-6.596-3.809h-53.127c-2.723,0-5.237,1.452-6.598,3.809
	l-23.152,40.095h-73.692l-37.171-64.382c-2.006-3.475-5.713-5.615-9.725-5.615H112.39V158.125h28.184
	c4.012,0,7.719-2.141,9.725-5.615l15.565-26.961l29.218,16.183l-8.835,15.302c-1.361,2.356-1.361,5.26,0,7.617l26.568,46.012
	c1.36,2.358,3.875,3.809,6.598,3.809h53.127c2.72,0,5.235-1.452,6.596-3.81l9.114-15.786l68.152,38.895l-9.935,17.204
	c-1.361,2.356-1.361,5.261,0,7.618l26.568,46.012c1.36,2.356,3.874,3.809,6.598,3.809h53.126c2.722,0,5.236-1.453,6.597-3.811
	l26.564-46.01c1.36-2.357,1.36-5.262,0-7.618L439.356,204.963z M406.192,27.203c7.62,0,13.769,8.684,13.769,19.386
	c0,6.665-2.382,12.542-6.018,16.03v8.916h2.028c-0.383,1.469-1.08,2.81-2.028,3.938c-1.857,2.21-4.638,3.619-7.751,3.619
	c-3.099,0-5.875-1.408-7.728-3.617c-0.949-1.13-1.647-2.471-2.031-3.94h2.031v-8.914c-3.631-3.487-6.015-9.365-6.015-16.032
	C392.449,35.887,398.597,27.203,406.192,27.203z M378.02,93.291l1.299-3.4l4.982-12.973c1.119-2.911,3.754-4.984,6.848-5.382
	l0.002-0.001c0.781,4.489,3.524,8.371,7.313,10.604c0.552,0.326,1.124,0.619,1.717,0.874c1.847,0.795,3.88,1.237,6.012,1.237
	c2.143,0,4.182-0.442,6.031-1.237c0.594-0.255,1.167-0.548,1.72-0.874c3.79-2.232,6.53-6.115,7.31-10.604l0.002,0.001
	c3.096,0.399,5.724,2.467,6.844,5.38l4.99,12.975l1.317,3.4c0.752,1.998,0.018,4.265-1.77,5.436
	c-7.633,4.955-16.683,7.865-26.425,7.865c-9.761,0-18.805-2.91-26.423-7.865C377.983,97.556,377.252,95.294,378.02,93.291z
	 M317.47,360.693c7.62,0,13.769,8.684,13.769,19.385c0,6.666-2.382,12.542-6.018,16.03v8.917h2.028
	c-0.383,1.468-1.08,2.809-2.028,3.938c-1.856,2.211-4.638,3.619-7.751,3.619c-3.098,0-5.875-1.408-7.729-3.617
	c-0.949-1.129-1.646-2.471-2.031-3.94h2.031v-8.914c-3.631-3.488-6.014-9.366-6.014-16.033
	C303.728,369.377,309.875,360.693,317.47,360.693z M289.299,426.779l1.299-3.398l4.982-12.973c1.119-2.912,3.754-4.985,6.848-5.383
	h0.002c0.781,4.488,3.525,8.369,7.313,10.604c0.552,0.325,1.124,0.618,1.717,0.873c1.848,0.795,3.88,1.237,6.012,1.237
	c2.143,0,4.182-0.442,6.031-1.237c0.594-0.255,1.167-0.548,1.72-0.873c3.79-2.233,6.53-6.116,7.31-10.604h0.002
	c3.096,0.398,5.723,2.467,6.844,5.379l4.99,12.977l1.318,3.398c0.751,2,0.017,4.266-1.772,5.438
	c-7.633,4.954-16.683,7.864-26.424,7.864c-9.762,0-18.805-2.91-26.424-7.864C289.261,431.045,288.53,428.783,289.299,426.779z
	 M123.612,406.563c4.563,0.588,8.437,3.637,10.089,7.931l7.357,19.13l1.944,5.012c1.106,2.946,0.026,6.287-2.613,8.015
	c-11.252,7.304-24.593,11.595-38.954,11.595c-14.393,0-27.725-4.291-38.955-11.595c-2.661-1.728-3.74-5.062-2.606-8.015l1.913-5.012
	l7.347-19.125c1.649-4.293,5.533-7.35,10.095-7.936h0.003c1.15,6.617,5.197,12.339,10.779,15.632
	c0.813,0.479,1.658,0.911,2.531,1.288c2.724,1.172,5.721,1.824,8.863,1.824c3.158,0,6.164-0.652,8.892-1.824
	c0.876-0.376,1.721-0.809,2.535-1.288c5.589-3.292,9.628-9.016,10.776-15.632H123.612z M121.705,369.784
	c0,9.827-3.512,18.489-8.872,23.633v13.146h2.991c-0.565,2.164-1.594,4.141-2.991,5.805c-2.737,3.259-6.837,5.336-11.427,5.336
	c-4.566,0-8.66-2.076-11.395-5.333c-1.398-1.665-2.427-3.643-2.993-5.808h2.993V393.42c-5.354-5.143-8.867-13.807-8.867-23.636
	c0-15.777,9.064-28.579,20.262-28.579C112.64,341.205,121.705,354.007,121.705,369.784z M101.406,20.538
	c11.234,0,20.299,12.802,20.299,28.579c0,9.826-3.512,18.49-8.872,23.633v13.145h2.991c-0.565,2.165-1.594,4.142-2.991,5.806
	c-2.737,3.259-6.837,5.335-11.427,5.335c-4.566,0-8.66-2.075-11.395-5.332c-1.398-1.665-2.427-3.643-2.993-5.809h2.993V72.754
	c-5.354-5.143-8.867-13.808-8.867-23.637C81.144,33.34,90.209,20.538,101.406,20.538z M140.389,125.982
	c-11.252,7.305-24.593,11.594-38.954,11.594c-14.393,0-27.725-4.289-38.955-11.594c-2.661-1.727-3.74-5.062-2.606-8.016l1.913-5.011
	l7.347-19.125c1.649-4.293,5.533-7.349,10.095-7.936l0.003-0.001c1.15,6.617,5.197,12.34,10.779,15.633
	c0.813,0.479,1.658,0.912,2.531,1.288c2.724,1.172,5.721,1.823,8.863,1.823c3.158,0,6.164-0.651,8.892-1.823
	c0.876-0.376,1.721-0.808,2.535-1.288c5.589-3.292,9.628-9.016,10.776-15.633l0.003,0.001c4.563,0.589,8.437,3.636,10.089,7.931
	l7.357,19.13l1.944,5.011C144.109,120.914,143.029,124.256,140.389,125.982z M245.971,121.145c7.62,0,13.769,8.684,13.769,19.385
	c0,6.666-2.383,12.542-6.018,16.03v8.917h2.028c-0.383,1.468-1.08,2.809-2.028,3.938c-1.856,2.211-4.638,3.619-7.751,3.619
	c-3.098,0-5.875-1.408-7.73-3.617c-0.948-1.129-1.645-2.471-2.031-3.94h2.031v-8.914c-3.63-3.488-6.014-9.366-6.014-16.033
	C232.228,129.828,238.377,121.145,245.971,121.145z M272.415,192.668c-7.633,4.954-16.683,7.864-26.425,7.864
	c-9.761,0-18.804-2.91-26.423-7.864c-1.805-1.172-2.536-3.434-1.768-5.438l1.299-3.398l4.982-12.973
	c1.119-2.912,3.754-4.985,6.847-5.383h0.003c0.78,4.488,3.525,8.369,7.311,10.604c0.553,0.325,1.125,0.618,1.717,0.873
	c1.849,0.795,3.881,1.237,6.013,1.237c2.143,0,4.182-0.442,6.031-1.237c0.594-0.255,1.167-0.548,1.72-0.873
	c3.79-2.233,6.53-6.116,7.31-10.604h0.002c3.096,0.398,5.723,2.467,6.844,5.379l4.99,12.977l1.318,3.398
	C274.937,189.23,274.204,191.496,272.415,192.668z M406.192,215.085c7.62,0,13.769,8.684,13.769,19.386
	c0,6.665-2.382,12.541-6.018,16.029v8.917h2.028c-0.383,1.468-1.08,2.81-2.028,3.939c-1.857,2.21-4.638,3.619-7.751,3.619
	c-3.099,0-5.875-1.408-7.728-3.617c-0.949-1.13-1.647-2.471-2.031-3.941h2.031v-8.914c-3.631-3.487-6.015-9.366-6.015-16.032
	C392.449,223.769,398.597,215.085,406.192,215.085z M432.636,286.608c-7.633,4.954-16.683,7.864-26.425,7.864
	c-9.761,0-18.805-2.91-26.423-7.864c-1.805-1.171-2.536-3.433-1.768-5.436l1.299-3.399l4.982-12.973
	c1.119-2.911,3.754-4.985,6.848-5.382l0.002-0.001c0.781,4.489,3.524,8.37,7.313,10.604c0.552,0.325,1.124,0.618,1.717,0.874
	c1.847,0.795,3.88,1.236,6.012,1.236c2.143,0,4.182-0.441,6.031-1.236c0.594-0.256,1.167-0.549,1.72-0.874
	c3.79-2.233,6.53-6.116,7.31-10.604l0.002,0.001c3.096,0.398,5.724,2.467,6.844,5.379l4.99,12.976l1.317,3.399
	C435.158,283.171,434.424,285.438,432.636,286.608z"/>
</svg>
