<svg xmlns="http://www.w3.org/2000/svg" width="323" height="42" viewBox="0 0 323 42" fill="none"><g clip-path="url(#clip0_844_1089)"><path d="M80.6897 22.2096V22.1223C80.6897 18.0473 77.9083 15.3403 74.5587 15.3403C71.209 15.3403 68.3678 17.989 68.3678 22.1223V22.2096C68.3678 26.2847 71.209 28.9917 74.5587 28.9917C77.9083 28.9917 80.6897 26.2847 80.6897 22.2096ZM61.22 22.2096V22.1223C61.22 13.914 66.7528 9.40234 72.7343 9.40234C76.5625 9.40234 78.9252 11.0906 80.6 13.0699V9.86806H87.7778V34.4639H80.6V30.9419C78.8653 33.2414 76.4428 34.9296 72.7343 34.9296C66.8426 34.9296 61.22 30.4179 61.22 22.2096Z" fill="#142D61"></path><path d="M94.2079 15.8352H91.2471V10.101H94.2079V8.52924C94.2079 5.82224 94.9257 3.84294 96.2416 2.56221C97.5575 1.28148 99.5015 0.641113 102.044 0.641113C104.317 0.641113 105.812 0.903081 107.128 1.33969V7.13208C106.081 6.75368 105.094 6.52082 103.868 6.52082C102.223 6.52082 101.266 7.33583 101.266 9.1696V10.1301H107.068V15.8352H101.356V34.464H94.178V15.8352H94.2079Z" fill="#142D61"></path><path d="M113.259 15.8352H110.299V10.101H113.259V8.52924C113.259 5.82224 113.977 3.84294 115.293 2.56221C116.609 1.28148 118.553 0.641113 121.095 0.641113C123.368 0.641113 124.863 0.903081 126.179 1.33969V7.13208C125.133 6.75368 124.146 6.52082 122.92 6.52082C121.275 6.52082 120.318 7.33583 120.318 9.1696V10.1301H126.12V15.8352H120.407V34.464H113.23V15.8352H113.259Z" fill="#142D61"></path><path d="M141.044 9.86806H148.221V13.361C149.866 11.2943 151.99 9.40234 155.639 9.40234C161.052 9.40234 164.222 12.8952 164.222 18.5421V34.4639H157.044V20.7251C157.044 17.4069 155.429 15.7187 152.708 15.7187C149.986 15.7187 148.221 17.4069 148.221 20.7251V34.4639H141.044V9.86806Z" fill="#142D61"></path><path d="M181.717 27.4773V15.8052H178.697V9.83818H181.717V3.58008H188.895V9.86729H194.847V15.8343H188.895V26.3421C188.895 27.943 189.613 28.7289 191.198 28.7289C192.514 28.7289 193.71 28.4087 194.727 27.8557V33.4443C193.232 34.3176 191.467 34.8706 189.075 34.8706C184.678 34.8706 181.717 33.1824 181.717 27.4773Z" fill="#142D61"></path><path d="M231.932 22.4704V22.383C231.932 16.3578 227.117 12.341 222.122 12.341C217.127 12.341 212.701 16.0667 212.701 22.3539V22.4413C212.701 28.5829 217.098 32.5415 222.122 32.5415C227.146 32.5415 231.932 28.4665 231.932 22.4995V22.4704ZM231.782 28.9031C229.719 31.9885 226.638 34.6955 221.883 34.6955C216.081 34.6955 210.189 30.1547 210.189 22.5286V22.4413C210.189 14.8151 216.081 10.187 221.883 10.187C226.698 10.187 229.808 12.8358 231.782 15.7756V10.7401H234.085V41.5066H231.782V28.9322V28.9031Z" fill="#142D61"></path><path d="M239.559 25.0318V10.7109H241.861V24.6243C241.861 29.4561 244.643 32.5998 249.518 32.5998C254.393 32.5998 257.862 29.1069 257.862 24.2459V10.7109H260.165V34.1133H257.862V29.7472C256.247 32.5124 253.555 34.6664 249.189 34.6664C243.118 34.6664 239.559 30.6204 239.559 25.0318Z" fill="#142D61"></path><path d="M284.42 21.3364C284.091 16.621 281.309 12.2549 275.776 12.2549C271.021 12.2549 267.343 16.1553 266.924 21.3364H284.42ZM264.471 22.4716V22.3843C264.471 15.6023 269.376 10.1592 275.896 10.1592C282.416 10.1592 286.932 15.4858 286.932 22.4134C286.932 22.8209 286.932 22.9665 286.872 23.3449H266.924C267.343 29.1664 271.649 32.5719 276.345 32.5719C280.083 32.5719 282.625 30.971 284.599 28.9044L286.214 30.2724C283.762 32.8339 280.891 34.6677 276.255 34.6677C269.944 34.6677 264.471 29.7485 264.471 22.4425V22.4716Z" fill="#142D61"></path><path d="M288.756 31.2034L290.131 29.4278C292.763 31.4071 295.694 32.5132 298.775 32.5132C302.035 32.5132 304.577 30.7667 304.577 28.0598V27.9724C304.577 25.2072 301.556 24.2176 298.206 23.2861C294.289 22.18 289.952 21.0449 289.952 16.8534V16.7661C289.952 13.0112 293.212 10.3042 297.877 10.3042C300.749 10.3042 304.009 11.323 306.401 12.8657L305.175 14.7576C302.962 13.3314 300.33 12.429 297.758 12.429C294.468 12.429 292.285 14.1755 292.285 16.5041V16.5914C292.285 19.2111 295.545 20.1716 298.984 21.1322C302.842 22.18 306.91 23.5772 306.91 27.7105V27.7978C306.91 31.9893 303.231 34.638 298.595 34.638C295.096 34.638 291.298 33.27 288.726 31.2325L288.756 31.2034Z" fill="#142D61"></path><path d="M312.233 28.1169V12.7772H308.734V10.7106H312.233V3.22998H314.536V10.7106H322.97V12.7772H314.536V27.884C314.536 31.2314 316.57 32.4248 319.351 32.4248C320.518 32.4248 321.505 32.1919 322.88 31.6098V33.7346C321.654 34.2876 320.458 34.5496 318.962 34.5496C315.224 34.5496 312.203 32.5703 312.203 28.1169H312.233Z" fill="#142D61"></path><path d="M167.841 9.86816H175.018V34.464H167.841V9.86816Z" fill="#142D61"></path><path d="M174.989 4.33743C174.989 6.28763 173.374 7.85944 171.37 7.85944C169.366 7.85944 167.751 6.28763 167.751 4.33743C167.751 2.38723 169.366 0.81543 171.37 0.81543C173.374 0.81543 174.989 2.38723 174.989 4.33743Z" fill="#142D61"></path><path d="M129.679 9.86816H136.856V34.464H129.679V9.86816Z" fill="#142D61"></path><path d="M136.827 4.33743C136.827 6.28763 135.212 7.85944 133.208 7.85944C131.204 7.85944 129.589 6.28763 129.589 4.33743C129.589 2.38723 131.204 0.81543 133.208 0.81543C135.212 0.81543 136.827 2.38723 136.827 4.33743Z" fill="#142D61"></path><path d="M198.436 9.86816H205.613V34.464H198.436V9.86816Z" fill="#142D61"></path><path d="M205.583 4.33743C205.583 6.28763 203.968 7.85944 201.964 7.85944C199.961 7.85944 198.346 6.28763 198.346 4.33743C198.346 2.38723 199.961 0.81543 201.964 0.81543C203.968 0.81543 205.583 2.38723 205.583 4.33743Z" fill="#142D61"></path><path d="M43.3958 18.3076L31.7917 29.6013C29.8477 31.4933 29.8477 34.5787 31.7917 36.4707C32.7787 37.4312 34.0348 37.8969 35.3208 37.8969C36.6068 37.8969 37.8629 37.4312 38.8499 36.4707L50.454 25.177C52.3979 23.285 52.3979 20.1996 50.454 18.3076C49.467 17.3471 48.2109 16.8813 46.9249 16.8813C45.6389 16.8813 44.3827 17.3471 43.3958 18.3076Z" fill="url(#paint0_linear_844_1089)"></path><path d="M31.5524 3.37616L5.77223 28.4668C3.85815 30.3297 3.85815 33.3277 5.77223 35.1906C6.72926 36.1221 7.98537 36.5878 9.21158 36.5878C10.4378 36.5878 11.7238 36.1221 12.6509 35.1906L38.461 10.1C40.3751 8.23711 40.3751 5.23904 38.461 3.37616C37.504 2.44472 36.2479 1.979 35.0217 1.979C33.7955 1.979 32.5094 2.44472 31.5823 3.37616H31.5524Z" fill="url(#paint1_linear_844_1089)"></path><path d="M13.0699 1.42627L1.4658 12.72C-0.478183 14.6119 -0.478183 17.6973 1.4658 19.5893C3.40978 21.4813 6.57997 21.4813 8.52395 19.5893L20.128 8.29563C22.072 6.40364 22.072 3.31825 20.128 1.42627C19.1411 0.465719 17.885 0 16.5989 0C15.3129 0 14.0568 0.465719 13.0699 1.42627Z" fill="url(#paint2_linear_844_1089)"></path><path d="M31.5527 3.37616C30.147 4.48225 28.4423 6.19959 25.9899 8.5864C24.6441 9.92534 22.8197 11.8464 20.9355 13.7093C22.2216 13.36 23.5674 13.0107 24.9132 12.9816C26.2591 12.9816 27.6647 13.3309 28.6217 14.2332C30.5657 16.067 30.147 19.3562 30.147 21.8012V33.5606C30.147 36.1803 32.3303 38.3051 35.0219 38.3051C37.7136 38.3051 39.8968 36.1803 39.8968 33.5606V6.72352C39.8968 4.10385 37.7136 1.979 35.0219 1.979C33.6761 1.979 32.4499 2.50294 31.5527 3.37616Z" fill="url(#paint3_linear_844_1089)"></path></g><defs><linearGradient id="paint0_linear_844_1089" x1="55.0896" y1="25.6427" x2="35.8767" y2="28.1909" gradientUnits="userSpaceOnUse"><stop stop-color="#FFBB38"></stop><stop offset="0.26" stop-color="#FFBB38"></stop><stop offset="0.5" stop-color="#FFBB38"></stop><stop offset="1" stop-color="#FF3C44"></stop></linearGradient><linearGradient id="paint1_linear_844_1089" x1="4.33667" y1="19.2688" x2="39.8966" y2="19.2688" gradientUnits="userSpaceOnUse"><stop stop-color="#00CFCB"></stop><stop offset="0.37" stop-color="#3955D7"></stop><stop offset="0.71" stop-color="#142D61"></stop><stop offset="1" stop-color="#142D61"></stop></linearGradient><linearGradient id="paint2_linear_844_1089" x1="-8.58309" y1="24.3921" x2="21.2191" y2="1.84806" gradientUnits="userSpaceOnUse"><stop stop-color="#FFBB38"></stop><stop offset="0.26" stop-color="#FFBB38"></stop><stop offset="0.5" stop-color="#FFBB38"></stop><stop offset="1" stop-color="#FF3C44"></stop></linearGradient><linearGradient id="paint3_linear_844_1089" x1="28.3526" y1="12.6323" x2="40.2636" y2="26.836" gradientUnits="userSpaceOnUse"><stop stop-color="#4280E7"></stop><stop offset="0.61" stop-color="#00CFCB"></stop><stop offset="0.86" stop-color="#00CFCB"></stop><stop offset="1" stop-color="#00E2B0"></stop></linearGradient><clipPath id="clip0_844_1089"><rect width="323" height="41.4781" fill="white"></rect></clipPath></defs></svg>