<?xml version="1.0" encoding="utf-8"?>
<!-- Generator: Adobe Illustrator 22.0.1, SVG Export Plug-In . SVG Version: 6.00 Build 0)  -->
<svg version="1.1" id="Layer_1" xmlns="http://www.w3.org/2000/svg" xmlns:xlink="http://www.w3.org/1999/xlink" x="0px" y="0px"
	 viewBox="0 0 566.9 226.8" style="enable-background:new 0 0 566.9 226.8;" xml:space="preserve">
<style type="text/css">
	.st0{fill:#2D3C4D;}
	.st1{fill:#039492;}
</style>
<g>
	<path class="st0" d="M246.6,110.9c0-19.8,12.6-32.1,31.3-33.5l-13.7,13.7l9.9,9.9L290,85.1l18.6-18.6L290,47.9L274.1,32l-9.9,9.9
		l13.9,13.9v0c-35.1,1.8-56.4,26.2-56.4,57.2c0,34.8,27,52.8,57.9,52.8c29.3,0,42.1-12.9,42.1-12.9l-10.1-17.9
		c0,0-11.2,9.3-30.6,9.3C263.3,144.4,246.6,133.5,246.6,110.9 M178.9,164h25.4V57.6h-24.2v68.1l-45.9-68.1h-25V164h24.2V95.9
		L178.9,164z M85.3,142.5V57.6H60.6v85.7c0,11.5-2.2,29.2-21.1,30.6l6.9,20.9C79.1,190.2,85.3,167.3,85.3,142.5"/>
	<path class="st1" d="M326.4,47.9l-18.7,18.7l18.7,18.7l15.9,15.9l9.9-9.9l-12.9-12.9h20.2v86h24.8v-86h32.9V57.7h-80.7L352.2,42
		l-9.9-9.9L326.4,47.9z M503.1,57.7v68.2l-46-68.2H432v106.6h24.3V96l45.7,68.2h25.4V57.7H503.1z"/>
</g>
</svg>
