<svg viewBox="18.72 113.04 324.72 141.84" version="1.1" xmlns="http://www.w3.org/2000/svg" id="Layer_1" style="max-height: 500px" width="324.72" height="141.84">
  
  <defs>
    <style>
      .st0 {
        fill: #28b45f;
      }

      .st1 {
        fill: #262649;
      }
    </style>
  </defs>
  <g>
    <path d="M35.27,243.15c-1.52,0-2.63-.54-3.34-1.63-.7-1.09-1.06-2.28-1.06-3.58,0-1.85.38-3.64,1.14-5.38.33-.87.71-1.68,1.14-2.44.44-.87.87-1.44,1.3-1.71.43-.27.76-.41.98-.41s.44.11.65.33l.33.33c0,1.74.24,3.07.73,3.99.49.92,1,1.65,1.55,2.2.65.54,1.41.98,2.28,1.3,3.15,0,6.33-1.28,9.53-3.83,3.2-2.55,6.05-5.4,8.55-8.55,2.93-3.58,5.81-7.71,8.63-12.38,2.5-4.34,4.7-8.33,6.6-11.97,1.9-3.64,3.61-6.81,5.13-9.53,1.63-3.15,3.15-5.97,4.56-8.47,3.47-6.41,6.81-12.76,10.02-19.06,3.2-6.3,6.05-11.94,8.55-16.94,2.93-5.86,5.75-11.45,8.47-16.78.11-.11.16-.33.16-.65,0-.11-.11-.27-.33-.49-.11,0-.22-.05-.33-.16-2.5.22-4.7.52-6.6.9-1.9.38-3.56.84-4.97,1.38-1.63.54-3.04,1.2-4.24,1.95-1.52.87-2.71,1.63-3.58,2.28-.87.65-1.6,1.17-2.2,1.55-.6.38-1.09.68-1.47.9-.38.22-.9.33-1.55.33s-.98-.38-.98-1.14c0-.11.11-.54.33-1.3.22-.76.6-1.65,1.14-2.69.54-1.03,1.22-2.06,2.04-3.09.81-1.03,1.87-1.98,3.18-2.85,1.96-.98,4.72-1.79,8.31-2.44,3.15-.54,7.3-1.06,12.46-1.55,5.16-.49,11.75-.79,19.79-.9.65,0,.98.22.98.65,0,.76-.68,1.85-2.04,3.26-1.36,1.41-3.88,2.28-7.57,2.61-.11.11-.22.16-.33.16-.11.11-.24.16-.41.16s-.3.11-.41.33c-1.85,2.5-4.13,5.86-6.84,10.1-2.28,3.69-5.13,8.47-8.55,14.33-3.42,5.86-7.41,13.19-11.97,21.99-3.15,6.73-6.3,13.09-9.45,19.06-1.3,2.61-2.69,5.24-4.15,7.9-1.47,2.66-2.93,5.21-4.4,7.66s-2.91,4.7-4.32,6.76c-1.41,2.06-2.77,3.8-4.07,5.21-3.58,4.24-7.22,7.98-10.91,11.24-3.15,2.82-6.7,5.38-10.67,7.66-3.96,2.28-7.9,3.42-11.81,3.42Z" class="st1"/>
    <path d="M137.23,201.62c-.54,0-.92-.38-1.14-1.14-.22-.76-.33-1.41-.33-1.96,0-.65.05-1.38.16-2.2.11-.81.27-1.55.49-2.2.22-.76.49-1.52.81-2.28l.16-.33c0-.22-.11-.33-.33-.33-.11,0-.19.03-.25.08-.06.06-.14.08-.24.08l-.16.16c-4.67,3.8-8.44,6.73-11.32,8.79-2.88,2.06-5.19,3.61-6.92,4.64-1.74,1.03-3.01,1.66-3.83,1.87-.81.22-1.49.33-2.04.33-1.09,0-1.96-.35-2.61-1.06-.65-.71-1.17-1.52-1.55-2.44-.38-.92-.63-1.9-.73-2.93-.11-1.03-.16-1.87-.16-2.52,0-3.36.92-6.98,2.77-10.83,1.84-3.85,3.88-7.44,6.11-10.75,2.22-3.31,4.29-6.08,6.19-8.31,1.9-2.22,2.96-3.45,3.18-3.67.11,0,.22-.05.33-.16.11,0,.24-.03.41-.08.16-.05.35-.08.57-.08.65,0,1.52.38,2.61,1.14,1.08.76,1.63,1.95,1.63,3.58-.22.54-.79,1.2-1.71,1.95-.92.76-1.87,1.68-2.85,2.77-1.09,1.2-2.39,2.8-3.91,4.8-1.52,2.01-3.01,4.18-4.48,6.52-1.47,2.34-2.74,4.7-3.83,7.08-1.09,2.39-1.79,4.56-2.12,6.51,0,.22.05.49.16.81.11.33.49.49,1.14.49.87,0,2.42-.46,4.64-1.38,2.22-.92,4.78-2.28,7.66-4.07,2.88-1.79,5.84-3.96,8.88-6.51,3.04-2.55,5.86-5.46,8.47-8.71.33-.33.76-.71,1.3-1.14.54-.22,1.19-.46,1.95-.73.76-.27,1.74-.41,2.93-.41,2.06.11,3.09.49,3.09,1.14s-.54,1.63-1.63,2.93c-1.09,1.3-2.06,2.5-2.93,3.58-1.41,2.06-2.71,4.07-3.91,6.03-1.09,1.63-2.17,3.34-3.26,5.13-1.09,1.79-1.9,3.34-2.44,4.64-.11.33-.22.54-.33.65l-.33.33c-.11.11-.22.16-.33.16Z" class="st1"/>
    <path d="M209.87,182.24c-.22,1.09-.54,1.98-.98,2.69-.44.71-.81,1.33-1.14,1.87-.43.54-.87,1.03-1.3,1.47-5.32,3.8-10.26,7-14.82,9.61-4.56,2.61-8.58,4.72-12.05,6.35-4.02,1.95-7.76,3.47-11.24,4.56-1.2.54-2.31.87-3.34.98-1.03.11-1.93.16-2.69.16-2.83,0-4.59-.98-5.29-2.93-.71-1.95-1.06-4.29-1.06-7,0-1.74.3-3.72.9-5.94.6-2.22,1.36-4.56,2.28-7,.92-2.44,2.01-4.89,3.26-7.33,1.25-2.44,2.52-4.81,3.83-7.09,2.93-5.32,6.35-10.86,10.26-16.61,2.39-3.47,4.91-7.3,7.57-11.48,2.66-4.18,5.18-8.12,7.57-11.81,2.71-4.34,5.43-8.63,8.14-12.87.33-.33.71-.65,1.14-.98.43-.22,1-.43,1.71-.65.71-.22,1.65-.33,2.85-.33.98.11,1.9.24,2.77.41.87.16,1.3.52,1.3,1.06,0,.11-.11.38-.33.81-.98,1.41-2.61,3.8-4.89,7.17-1.95,2.82-4.75,6.82-8.39,11.97-3.64,5.16-8.44,11.92-14.42,20.28-4.02,5.65-7.55,11.02-10.59,16.12-2.61,4.45-5,8.9-7.17,13.36-2.17,4.45-3.26,8.09-3.26,10.91,0,.54.13,1.25.41,2.12.27.87,1.33,1.3,3.18,1.3.98,0,2.39-.19,4.23-.57,1.84-.38,4.45-1.3,7.82-2.77,3.36-1.47,7.63-3.61,12.79-6.43,5.16-2.82,11.59-6.68,19.3-11.56.11,0,.22-.05.33-.16.22-.22.49-.33.81-.33s.49.22.49.65Z" class="st1"/>
    <path d="M226.8,168.72c-.98.76-2.44,2.23-4.4,4.4-1.96,2.17-3.91,4.59-5.86,7.25-1.95,2.66-3.66,5.35-5.13,8.06-1.47,2.71-2.2,5-2.2,6.84,0,1.41.35,2.31,1.06,2.69.71.38,1.65.57,2.85.57.54,0,1.14-.03,1.79-.08.65-.05,1.25-.13,1.79-.24.54-.11,1.08-.27,1.63-.49,4.12-1.19,8.33-2.82,12.62-4.89,4.29-2.06,8.22-4.07,11.81-6.03,4.24-2.28,8.36-4.61,12.38-7,1.3-.87,2.17-1.3,2.61-1.3.33,0,.49.27.49.81-.33,1.41-.95,2.63-1.87,3.67-.92,1.03-1.87,1.93-2.85,2.69-1.2.87-2.44,1.69-3.75,2.44-6.95,3.8-12.57,6.76-16.86,8.88-4.29,2.12-7.68,3.66-10.18,4.64-2.82,1.2-5,1.9-6.51,2.12-.44.11-1.09.16-1.95.16-1.3,0-2.47-.22-3.5-.65-1.03-.43-1.93-.92-2.69-1.47-.87-.65-1.58-1.41-2.12-2.28-.65-.76-1.09-1.6-1.3-2.52-.22-.92-.33-1.87-.33-2.85,0-2.39.71-5.13,2.12-8.22,1.41-3.09,2.96-6,4.64-8.71,1.68-2.71,3.26-4.97,4.72-6.76s2.2-2.58,2.2-2.36c1.3-.87,2.71-1.41,4.23-1.63,1.52-.22,2.93-.33,4.23-.33.22,0,.43.06.65.16.54.33.81.54.81.65,0,.22-.06.49-.16.81-.11.33-.43.65-.98.98Z" class="st1"/>
    <path d="M322.08,178.49c0,.98-.3,1.87-.9,2.69-.6.81-1.22,1.49-1.87,2.04-.76.65-1.63,1.2-2.61,1.63-5.97,3.15-11.56,5.97-16.78,8.47-2.28,1.09-4.59,2.12-6.92,3.09-2.34.98-4.56,1.87-6.68,2.69-2.12.81-4.07,1.47-5.86,1.95-1.79.49-3.29.73-4.48.73-1.3,0-2.34-.35-3.09-1.06-.76-.71-1.33-1.55-1.71-2.52-.38-.98-.63-2.01-.73-3.09-.11-1.08-.16-2.06-.16-2.93,0-.43-.11-.65-.33-.65-.11,0-.19.03-.24.08-.06.06-.14.08-.24.08l-.16.16c-1.74,1.41-3.58,2.8-5.54,4.15-1.95,1.36-3.75,2.63-5.38,3.83-1.95,1.3-3.86,2.61-5.7,3.91-1.74,1.2-3.15,1.96-4.23,2.28-1.09.33-1.9.49-2.44.49-.98,0-1.82-.22-2.52-.65-.71-.43-1.3-.95-1.79-1.55-.49-.6-.84-1.19-1.06-1.79-.22-.59-.33-1-.33-1.22,0-.65.27-1.74.81-3.26.54-1.52,1.9-3.75,4.07-6.68,3.58-4.12,7.17-7.87,10.75-11.24,1.52-1.41,3.12-2.82,4.8-4.24,1.68-1.41,3.36-2.71,5.05-3.91,1.68-1.19,3.36-2.2,5.05-3.01,1.68-.81,3.28-1.33,4.8-1.55.98,0,1.96.24,2.93.73.98.49,1.82,1.11,2.53,1.87.7.76,1.3,1.52,1.79,2.28.49.76.73,1.47.73,2.12s-.22.98-.65.98c-.22,0-.44-.05-.65-.16-.54-.22-1.14-.49-1.79-.81-.54-.22-1.17-.41-1.87-.57-.71-.16-1.44-.24-2.2-.24-1.09.11-2.44.54-4.07,1.3-1.41.65-3.12,1.66-5.13,3.01-2.01,1.36-4.37,3.23-7.08,5.62-.98.87-2.04,1.85-3.18,2.93-1.14,1.09-2.28,2.23-3.42,3.42-1.14,1.2-2.23,2.39-3.26,3.58-1.03,1.2-1.82,2.28-2.36,3.26-.22.33-.38.6-.49.81-.22.65-.33,1.03-.33,1.14,0,.54.38.81,1.14.81.43,0,1.03-.11,1.79-.33.76-.22,1.79-.65,3.09-1.3,2.93-1.63,5.7-3.31,8.31-5.05,2.17-1.41,4.4-2.93,6.68-4.56s4.02-3.09,5.21-4.4c.87-.87,1.6-1.76,2.2-2.69.6-.92,1.76-1.38,3.5-1.38.33,0,1.08.14,2.28.41,1.19.27,1.79.79,1.79,1.55,0,.54-.33,1.14-.98,1.79-1.3,1.63-2.5,3.15-3.58,4.56-.87,1.2-1.66,2.5-2.36,3.91-.71,1.41-1.06,2.55-1.06,3.42,0,.54.05.9.16,1.06.11.16.49.3,1.14.41,1.96-.11,4.83-.9,8.63-2.36,3.8-1.47,7.92-3.2,12.38-5.21,4.45-2.01,8.85-4.1,13.19-6.27,4.34-2.17,7.98-4.02,10.91-5.54.33,0,.49.33.49.98Z" class="st1"/>
  </g>
  <path d="M226.21,149.98c.41,2.76.74,5.54,1.32,8.28.19.9,4.87.85,5.46.35,3.2-2.78,6.37-5.58,9.62-8.31s7.8-8.15,12.37-8.54c3.45-.29-1.69-1.07-2.77-.98-5.55.47-8.85,3.96-12.99,7.41-3.91,3.25-7.73,6.6-11.57,9.94l5.46.35c-.57-2.73-.91-5.51-1.32-8.28-.15-1.01-5.63-.65-5.56-.22h0Z" class="st0"/>
  <g>
    <path d="M88.75,231.17v-9.78h-3.78v-.98h8.7v.98h-3.78v9.78h-1.14Z" class="st0"/>
    <path d="M97,231.17h-1.14v-10.76h1.14v10.76ZM103.84,226.21h-6.96v-1h6.96v1ZM103.74,220.41h1.12v10.76h-1.12v-10.76Z" class="st0"/>
    <path d="M109.88,230.19h6.47v.98h-7.61v-10.76h7.38v.98h-6.24v8.79ZM109.76,225.22h5.69v.97h-5.69v-.97Z" class="st0"/>
    <path d="M123.83,231.17v-10.76h1.14v10.76h-1.14Z" class="st0"/>
    <path d="M128.85,231.17v-10.76h.94l7.42,9.35h-.49v-9.35h1.12v10.76h-.94l-7.41-9.35h.49v9.35h-1.14Z" class="st0"/>
    <path d="M143.83,231.17v-9.78h-3.78v-.98h8.7v.98h-3.78v9.78h-1.14Z" class="st0"/>
    <path d="M152.08,230.19h6.47v.98h-7.61v-10.76h7.38v.98h-6.24v8.79ZM151.96,225.22h5.69v.97h-5.69v-.97Z" class="st0"/>
    <path d="M161.61,231.17v-10.76h4.03c.91,0,1.7.15,2.35.44s1.16.71,1.51,1.26c.35.55.53,1.21.53,1.99s-.18,1.41-.53,1.96c-.35.55-.86.97-1.51,1.26s-1.44.44-2.35.44h-3.4l.51-.52v3.94h-1.14ZM162.75,227.33l-.51-.54h3.37c1.08,0,1.89-.24,2.45-.71.56-.47.84-1.13.84-1.98s-.28-1.53-.84-2c-.56-.47-1.38-.71-2.45-.71h-3.37l.51-.54v6.47ZM168.96,231.17l-2.77-3.9h1.23l2.78,3.9h-1.25Z" class="st0"/>
    <path d="M173.11,231.17v-10.76h.94l7.42,9.35h-.49v-9.35h1.12v10.76h-.94l-7.41-9.35h.49v9.35h-1.14Z" class="st0"/>
    <path d="M187.13,230.19h6.47v.98h-7.61v-10.76h7.38v.98h-6.24v8.79ZM187,225.22h5.69v.97h-5.69v-.97Z" class="st0"/>
    <path d="M198.75,231.17v-9.78h-3.78v-.98h8.7v.98h-3.78v9.78h-1.14Z" class="st0"/>
    <path d="M211.42,231.17h-1.14v-10.76h7.38v.98h-6.24v9.78ZM211.29,225.62h5.69v.98h-5.69v-.98Z" class="st0"/>
    <path d="M225.1,231.26c-.81,0-1.56-.14-2.25-.41-.69-.27-1.29-.66-1.8-1.15-.51-.5-.9-1.08-1.18-1.74-.28-.66-.42-1.39-.42-2.17s.14-1.51.42-2.18c.28-.66.68-1.24,1.18-1.74.51-.5,1.1-.88,1.79-1.15s1.44-.41,2.26-.41,1.56.14,2.25.41c.69.27,1.28.65,1.79,1.15.51.49.9,1.07,1.18,1.74.28.67.42,1.39.42,2.18s-.14,1.52-.42,2.18c-.28.67-.68,1.25-1.18,1.74-.51.49-1.1.87-1.79,1.14-.69.27-1.44.41-2.25.41ZM225.1,230.25c.65,0,1.24-.11,1.79-.33.55-.22,1.02-.53,1.43-.94s.72-.88.95-1.41.34-1.13.34-1.78-.11-1.24-.34-1.78-.54-1.01-.95-1.41c-.41-.4-.88-.72-1.43-.94s-1.15-.33-1.79-.33-1.25.11-1.8.33c-.55.22-1.04.53-1.45.94-.41.41-.73.88-.95,1.41s-.34,1.13-.34,1.78.11,1.22.34,1.77.54,1.02.95,1.42.89.72,1.45.94c.55.22,1.15.33,1.8.33Z" class="st0"/>
    <path d="M233.68,231.17v-10.76h4.03c.91,0,1.7.15,2.35.44s1.16.71,1.51,1.26c.35.55.53,1.21.53,1.99s-.18,1.41-.53,1.96c-.35.55-.86.97-1.51,1.26s-1.44.44-2.35.44h-3.4l.51-.52v3.94h-1.14ZM234.81,227.33l-.51-.54h3.37c1.08,0,1.89-.24,2.45-.71.56-.47.84-1.13.84-1.98s-.28-1.53-.84-2c-.56-.47-1.38-.71-2.45-.71h-3.37l.51-.54v6.47ZM241.02,231.17l-2.77-3.9h1.23l2.78,3.9h-1.25Z" class="st0"/>
    <path d="M250.72,231.17h-1.14v-10.76h1.14v10.76ZM257.56,226.21h-6.96v-1h6.96v1ZM257.46,220.41h1.12v10.76h-1.12v-10.76Z" class="st0"/>
    <path d="M266.8,231.26c-1.37,0-2.46-.39-3.24-1.18-.79-.79-1.18-1.96-1.18-3.5v-6.16h1.14v6.12c0,1.27.29,2.21.86,2.81.57.6,1.38.91,2.43.91s1.87-.3,2.44-.91c.57-.6.86-1.54.86-2.81v-6.12h1.11v6.16c0,1.55-.39,2.72-1.18,3.5-.78.79-1.86,1.18-3.24,1.18Z" class="st0"/>
    <path d="M275.03,231.17v-10.76h.94l4.92,8.39h-.49l4.87-8.39h.94v10.76h-1.09v-9.05h.26l-4.49,7.69h-.54l-4.52-7.69h.29v9.05h-1.09Z" class="st0"/>
    <path d="M288.37,231.17l4.92-10.76h1.12l4.92,10.76h-1.2l-4.52-10.1h.46l-4.52,10.1h-1.18ZM290.31,228.29l.34-.92h6.26l.34.92h-6.93Z" class="st0"/>
    <path d="M301.5,231.17v-10.76h.94l7.42,9.35h-.49v-9.35h1.12v10.76h-.94l-7.41-9.35h.49v9.35h-1.14Z" class="st0"/>
    <path d="M317.35,231.26c-.8,0-1.57-.13-2.3-.39s-1.3-.6-1.7-1.01l.45-.88c.38.37.89.68,1.53.93.64.25,1.31.38,2.02.38s1.23-.08,1.65-.25c.42-.17.74-.4.94-.68.2-.29.3-.61.3-.95,0-.42-.12-.76-.36-1.01-.24-.26-.56-.46-.95-.61s-.82-.28-1.29-.39c-.47-.11-.94-.23-1.42-.36-.47-.13-.9-.3-1.3-.52-.39-.21-.71-.5-.95-.85-.24-.35-.36-.82-.36-1.39,0-.53.14-1.02.42-1.47.28-.45.71-.8,1.3-1.08.58-.27,1.33-.41,2.25-.41.6,0,1.2.08,1.8.25.59.17,1.11.4,1.54.7l-.38.91c-.46-.31-.95-.53-1.47-.68s-1.02-.22-1.5-.22c-.65,0-1.18.09-1.6.26-.42.17-.73.41-.93.7-.2.29-.3.62-.3.99,0,.42.12.76.36,1.01.24.26.56.46.95.6s.83.27,1.3.38c.47.11.94.24,1.41.37.47.13.9.3,1.29.51s.71.49.95.84.36.8.36,1.37c0,.52-.14,1.01-.43,1.45-.29.45-.72.8-1.31,1.08-.59.27-1.34.41-2.27.41Z" class="st0"/>
  </g>
</svg>