<?xml version="1.0" encoding="UTF-8" standalone="no"?>
<svg
   xmlns:dc="http://purl.org/dc/elements/1.1/"
   xmlns:cc="http://creativecommons.org/ns#"
   xmlns:rdf="http://www.w3.org/1999/02/22-rdf-syntax-ns#"
   xmlns:svg="http://www.w3.org/2000/svg"
   xmlns="http://www.w3.org/2000/svg"
   xmlns:sodipodi="http://sodipodi.sourceforge.net/DTD/sodipodi-0.dtd"
   xmlns:inkscape="http://www.inkscape.org/namespaces/inkscape"
   viewBox="0 0 205.13 27.111503"
   version="1.1"
   id="svg3300"
   sodipodi:docname="Logo Black.svg"
   width="205.13"
   height="27.111504"
   inkscape:version="0.92.4 (5da689c313, 2019-01-14)">
  <metadata
     id="metadata3304">
    <rdf:RDF>
      <cc:Work
         rdf:about="">
        <dc:format>image/svg+xml</dc:format>
        <dc:type
           rdf:resource="http://purl.org/dc/dcmitype/StillImage" />
        <dc:title>Risorsa 7</dc:title>
      </cc:Work>
    </rdf:RDF>
  </metadata>
  <sodipodi:namedview
     pagecolor="#ffffff"
     bordercolor="#666666"
     borderopacity="1"
     objecttolerance="10"
     gridtolerance="10"
     guidetolerance="10"
     inkscape:pageopacity="0"
     inkscape:pageshadow="2"
     inkscape:window-width="1920"
     inkscape:window-height="1057"
     id="namedview3302"
     showgrid="false"
     inkscape:pagecheckerboard="true"
     showborder="false"
     inkscape:zoom="1.7696095"
     inkscape:cx="102.565"
     inkscape:cy="13.556503"
     inkscape:window-x="-8"
     inkscape:window-y="-8"
     inkscape:window-maximized="1"
     inkscape:current-layer="svg3300" />
  <defs
     id="defs3270">
    <style
       id="style3268">.cls-1{fill:#1d1d1b;}</style>
  </defs>
  <title
     id="title3272">Risorsa 7</title>
  <g
     id="Livello_2"
     data-name="Livello 2"
     style="fill:#1a1a1a"
     inkscape:export-filename="C:\Users\Gianluca\Google Drive\AG\Keyless\Growth\Branding\Logo\Image\Logo Black.png"
     inkscape:export-xdpi="467.99588"
     inkscape:export-ydpi="467.99588">
    <g
       id="Livello_1-2"
       data-name="Livello 1"
       style="fill:#1a1a1a">
      <polygon
         class="cls-1"
         points="2.92,12.1 2.92,0.59 0,0.59 0,26.53 2.92,26.53 2.92,15.02 8.41,15.02 16.77,26.53 20.35,26.53 10.93,13.56 20.35,0.59 16.77,0.59 8.41,12.1 "
         id="polygon3274"
         style="fill:#1a1a1a" />
      <rect
         class="cls-1"
         x="31.57"
         y="23.610001"
         width="18.379999"
         height="2.9200001"
         id="rect3276"
         style="fill:#1a1a1a" />
      <rect
         class="cls-1"
         x="31.57"
         y="0.58999997"
         width="18.379999"
         height="2.9200001"
         id="rect3278"
         style="fill:#1a1a1a" />
      <rect
         class="cls-1"
         x="31.57"
         y="12.02"
         width="18.379999"
         height="2.9200001"
         id="rect3280"
         style="fill:#1a1a1a" />
      <polygon
         class="cls-1"
         points="63.1,0.59 59.52,0.59 70.16,15.82 70.16,26.53 73.08,26.53 73.08,15.82 83.68,0.59 80.13,0.59 71.62,12.83 "
         id="polygon3282"
         style="fill:#1a1a1a" />
      <polygon
         class="cls-1"
         points="113.49,26.53 113.49,23.61 97.67,23.61 97.67,0.59 94.75,0.59 94.75,26.53 "
         id="polygon3284"
         style="fill:#1a1a1a" />
      <rect
         class="cls-1"
         x="124.82"
         y="23.610001"
         width="18.379999"
         height="2.9200001"
         id="rect3286"
         style="fill:#1a1a1a" />
      <rect
         class="cls-1"
         x="124.82"
         y="0.58999997"
         width="18.379999"
         height="2.9200001"
         id="rect3288"
         style="fill:#1a1a1a" />
      <rect
         class="cls-1"
         x="124.82"
         y="12.1"
         width="18.379999"
         height="2.9200001"
         id="rect3290"
         style="fill:#1a1a1a" />
      <path
         class="cls-1"
         d="m 153.84,19.53 c 0.06,4.54 4.52,7.66 10.36,7.58 6,-0.07 10.26,-3.24 10.21,-7.84 -0.13,-9.79 -17,-5.7 -17.07,-11.88 0,-2.55 2.46,-4.41 6.55,-4.47 3.84,0 6.68,1.75 6.71,4.3 h 2.92 c -0.05,-4.17 -4,-7.26 -9.66,-7.19 -5.66,0.07 -9.5,3.08 -9.45,7.43 0.13,9.61 17,4.83 17.07,11.88 0.05,3.58 -4.57,4.84 -7.31,4.88 -4.24,0 -7.37,-1.81 -7.41,-4.69 z"
         id="path3292"
         style="fill:#1a1a1a"
         inkscape:connector-curvature="0" />
      <path
         class="cls-1"
         d="m 189.93,13.26 c 0,0 1,-2.81 0.95,-2.81 -1.6,-0.66 -2.66,-1.61 -2.66,-3.14 0,-2.56 2.52,-4.39 6.61,-4.39 3.84,0 6.65,1.83 6.65,4.39 h 2.92 C 204.4,3.14 200.46,0 194.83,0 c -5.63,0 -9.54,3 -9.54,7.31 0,3.32 2,5 4.64,6"
         id="path3294"
         style="fill:#1a1a1a"
         inkscape:connector-curvature="0" />
      <path
         class="cls-1"
         d="m 198.56,15.53 c 2.12,0.73 3.65,1.75 3.65,3.87 0,3.58 -4.64,4.79 -7.38,4.79 -4.24,0 -7.34,-1.9 -7.34,-4.79 h -2.93 c 0,4.53 4.42,7.71 10.27,7.71 6,0 10.3,-3.1 10.3,-7.71 0,-3.8 -2.52,-5.52 -5.62,-6.57 z"
         id="path3296"
         style="fill:#1a1a1a"
         inkscape:connector-curvature="0" />
    </g>
  </g>
</svg>
