<?xml version="1.0" encoding="UTF-8" standalone="no"?>
<!DOCTYPE svg PUBLIC "-//W3C//DTD SVG 1.1//EN" "http://www.w3.org/Graphics/SVG/1.1/DTD/svg11.dtd">
<svg version="1.1" xmlns="http://www.w3.org/2000/svg" xmlns:xlink="http://www.w3.org/1999/xlink" preserveAspectRatio="xMidYMid meet" viewBox="-0.9985519139109147 -1 643.9685519139109 162.56125006142202" width="639.97" height="158.56"><defs><path d="M176.36 76.86L127.27 76.86L127.27 127.43L81.64 127.43L112.81 158.56L158.34 158.56L158.34 107.99L207.56 107.99L207.56 62.33L176.39 31.13L176.36 31.13L176.36 31.13L176.36 76.86Z" id="bIaVBHYc"></path><path d="M176.39 31.13L145.26 0L0 0L0 45.79L31.07 76.86L81.58 127.36L81.58 76.86L31.23 76.86L31.23 31.13L31.23 31.13L176.39 31.13Z" id="b5T7u4qJUd"></path><path d="M254.35 74.31L241.77 74.31L241.77 68.02L273.85 68.02L273.85 74.31L261.27 74.31L261.27 107.33L254.35 107.33L254.35 74.31Z" id="a1i0EVQmrG"></path><path d="M308.48 92.39C314.1 91.24 318.07 86.21 317.91 80.48C317.91 80.48 317.91 80.48 317.91 80.48C318.02 77.34 316.89 74.29 314.77 71.98C311.64 69.23 307.55 67.8 303.38 68.02C302.2 68.02 296.3 68.02 285.68 68.02L285.68 107.33L292.47 107.33L292.47 74.22C298.53 74.22 301.89 74.22 302.56 74.22C307.69 74.22 310.74 76.51 310.74 80.76C310.74 80.76 310.74 80.76 310.74 80.76C310.74 84.75 307.6 87.36 302.63 87.36C302.24 87.36 300.31 87.36 296.84 87.36L310.96 107.27L319.14 107.27C313.45 99.34 309.9 94.38 308.48 92.39Z" id="a4gUCGZJpt"></path><path d="M344.86 67.61L327.53 107.33L334.61 107.33L347.97 75.92L361.31 107.33L368.64 107.33L351.31 67.61L351.31 67.61L344.86 67.61Z" id="b2T8bcqNk3"></path><path d="M379.89 67.9L386.18 67.9L407.29 95.16L407.29 67.9L414.11 67.9L414.11 107.33L408.29 107.33L386.81 79.28L386.81 107.33L379.89 107.33L379.89 67.9Z" id="b9QFqgbmK"></path><path d="M432.7 96.64C436.03 99.88 440.47 101.71 445.12 101.77C449.39 101.77 452.1 99.78 452.1 96.8C452.1 96.8 452.1 96.8 452.1 96.8C452.1 94 450.53 92.49 443.2 90.79C434.83 88.75 430.09 86.26 430.09 79C430.09 79 430.09 79 430.09 79C430.09 72.24 435.71 67.55 443.55 67.55C448.73 67.41 453.8 69.1 457.85 72.33C457.48 72.85 454.51 77.03 454.14 77.55C451.11 75.08 447.36 73.67 443.45 73.53C439.39 73.53 437.16 75.6 437.16 78.18C437.16 78.18 437.16 78.18 437.16 78.18C437.16 81.32 438.99 82.55 446.6 84.47C454.93 86.48 459.17 89.47 459.17 96.01C459.17 96.01 459.17 96.01 459.17 96.01C459.17 103.37 453.36 107.77 445.09 107.77C438.98 107.88 433.05 105.66 428.51 101.58C429.35 100.59 432.28 97.13 432.7 96.64Z" id="a2Br6c8vc"></path><path d="M471.72 67.9L479.08 67.9L491.09 86.55L503.17 67.9L510.56 67.9L510.56 107.33L503.64 107.33L503.64 79.03L491.06 97.61L490.84 97.61L478.48 79.12L478.48 107.43L471.72 107.43L471.72 67.9Z" id="bt2gPD6Sm"></path><path d="M524.49 67.9L531.47 67.9C531.47 81.35 531.47 88.82 531.47 90.32C531.47 97.65 535.25 101.58 541.44 101.58C547.64 101.58 551.35 97.87 551.35 90.6C551.35 89.09 551.35 81.52 551.35 67.9L558.3 67.9C558.3 81.31 558.3 88.77 558.3 90.26C558.3 102.05 551.63 107.96 541.35 107.96C531.07 107.96 524.49 102.05 524.49 90.6C524.49 87.57 524.49 80.01 524.49 67.9Z" id="beME06ihk"></path><path d="M581.95 74.31L569.37 74.31L569.37 68.02L601.35 68.02L601.35 74.31L588.77 74.31L588.77 107.33L581.79 107.33L581.95 74.31Z" id="c7v6swBKuF"></path><path d="M639.97 67.9C639.97 67.9 639.97 67.9 639.97 67.9C639.97 71.69 639.97 73.8 639.97 74.22C639.97 74.22 639.97 74.22 639.97 74.22C623.95 74.22 615.05 74.22 613.27 74.22C613.27 74.22 613.27 74.22 613.27 74.22C613.27 70.42 613.27 68.32 613.27 67.9C613.27 67.9 613.27 67.9 613.27 67.9C629.29 67.9 638.19 67.9 639.97 67.9Z" id="aunD0MmEd"></path><path d="M620.19 90.54L639.97 90.54L639.97 84.34L613.27 84.34L613.27 107.33L639.97 107.33L639.97 101.14L620.19 101.14L620.19 101.14L620.19 90.54Z" id="a2gw7bqcK"></path></defs><g><g><use xlink:href="#bIaVBHYc" opacity="1" fill="#27225b" fill-opacity="1"></use><g><use xlink:href="#bIaVBHYc" opacity="1" fill-opacity="0" stroke="#000000" stroke-width="1" stroke-opacity="0"></use></g></g><g><use xlink:href="#b5T7u4qJUd" opacity="1" fill="#27225b" fill-opacity="1"></use><g><use xlink:href="#b5T7u4qJUd" opacity="1" fill-opacity="0" stroke="#000000" stroke-width="1" stroke-opacity="0"></use></g></g><g><use xlink:href="#a1i0EVQmrG" opacity="1" fill="#27225b" fill-opacity="1"></use><g><use xlink:href="#a1i0EVQmrG" opacity="1" fill-opacity="0" stroke="#000000" stroke-width="1" stroke-opacity="0"></use></g></g><g><use xlink:href="#a4gUCGZJpt" opacity="1" fill="#27225b" fill-opacity="1"></use><g><use xlink:href="#a4gUCGZJpt" opacity="1" fill-opacity="0" stroke="#000000" stroke-width="1" stroke-opacity="0"></use></g></g><g><use xlink:href="#b2T8bcqNk3" opacity="1" fill="#27225b" fill-opacity="1"></use><g><use xlink:href="#b2T8bcqNk3" opacity="1" fill-opacity="0" stroke="#000000" stroke-width="1" stroke-opacity="0"></use></g></g><g><use xlink:href="#b9QFqgbmK" opacity="1" fill="#27225b" fill-opacity="1"></use><g><use xlink:href="#b9QFqgbmK" opacity="1" fill-opacity="0" stroke="#000000" stroke-width="1" stroke-opacity="0"></use></g></g><g><use xlink:href="#a2Br6c8vc" opacity="1" fill="#27225b" fill-opacity="1"></use><g><use xlink:href="#a2Br6c8vc" opacity="1" fill-opacity="0" stroke="#000000" stroke-width="1" stroke-opacity="0"></use></g></g><g><use xlink:href="#bt2gPD6Sm" opacity="1" fill="#27225b" fill-opacity="1"></use><g><use xlink:href="#bt2gPD6Sm" opacity="1" fill-opacity="0" stroke="#000000" stroke-width="1" stroke-opacity="0"></use></g></g><g><use xlink:href="#beME06ihk" opacity="1" fill="#27225b" fill-opacity="1"></use><g><use xlink:href="#beME06ihk" opacity="1" fill-opacity="0" stroke="#000000" stroke-width="1" stroke-opacity="0"></use></g></g><g><use xlink:href="#c7v6swBKuF" opacity="1" fill="#27225b" fill-opacity="1"></use><g><use xlink:href="#c7v6swBKuF" opacity="1" fill-opacity="0" stroke="#000000" stroke-width="1" stroke-opacity="0"></use></g></g><g><use xlink:href="#aunD0MmEd" opacity="1" fill="#27225b" fill-opacity="1"></use><g><use xlink:href="#aunD0MmEd" opacity="1" fill-opacity="0" stroke="#000000" stroke-width="1" stroke-opacity="0"></use></g></g><g><use xlink:href="#a2gw7bqcK" opacity="1" fill="#27225b" fill-opacity="1"></use><g><use xlink:href="#a2gw7bqcK" opacity="1" fill-opacity="0" stroke="#000000" stroke-width="1" stroke-opacity="0"></use></g></g></g></svg>