<?xml version="1.0" encoding="utf-8"?>
<!-- Generator: Adobe Illustrator 23.0.6, SVG Export Plug-In . SVG Version: 6.00 Build 0)  -->
<svg version="1.1" id="Ebene_1" xmlns="http://www.w3.org/2000/svg" xmlns:xlink="http://www.w3.org/1999/xlink" x="0px" y="0px"
	 viewBox="0 0 187.9 60.2" style="enable-background:new 0 0 187.9 60.2;" xml:space="preserve">
<style type="text/css">
	.st0{fill:#7FC9CD;}
	.st1{fill:#002531;}
</style>
<title>EVANGmbH_Logo_kompakt_RGB_negativ</title>
<rect x="181.4" y="46.9" class="st0" width="6.6" height="6.7"/>
<path class="st1" d="M0.6,33.5h33.5v-6.7H7.3v-6.7h26.8V0H0.6V33.5z M27.4,6.7v6.7H7.3V6.7H27.4z"/>
<polygon class="st1" points="67.5,6.7 67.5,26.8 74.2,26.8 74.2,0 67.5,0 "/>
<polygon class="st1" points="47.4,0 40.7,0 40.7,33.5 67.5,33.5 67.5,26.8 47.4,26.8 "/>
<polygon class="st1" points="121,0 121,33.5 127.7,33.5 127.7,6.7 147.8,6.7 147.8,26.8 147.8,33.5 154.5,33.5 154.5,0 "/>
<path class="st1" d="M81,6.7h26.8v6.7H81v20.1h33.5V0H81V6.7z M87.7,26.8v-6.7h20.1v6.7H87.7z"/>
<rect x="47.4" y="46.9" class="st0" width="100.4" height="6.7"/>
<rect x="147.8" y="53.6" class="st0" width="27" height="6.7"/>
<path class="st1" d="M6.7,47v1l-1,0.3c0.2,0.3,0.3,0.6,0.3,1c0,0.6-0.2,1.3-0.8,1.7c-0.6,0.4-1.3,0.6-2.1,0.6H2.8H2.5
	c-0.2,0.1-0.3,0.3-0.3,0.5c0,0.3,0.3,0.4,1,0.4h1.1c0.6,0,1.2,0.1,1.7,0.5c0.4,0.3,0.6,0.9,0.6,1.4c0,0.7-0.4,1.4-1,1.8
	c-0.9,0.5-1.8,0.7-2.8,0.6c-0.7,0-1.5-0.1-2.1-0.5c-0.5-0.3-0.8-0.9-0.7-1.5c0-0.4,0.1-0.7,0.4-1c0.3-0.3,0.7-0.5,1.1-0.6
	C1.3,53.1,1.1,53,1,52.8c-0.3-0.4-0.3-0.9,0-1.2c0.2-0.2,0.4-0.4,0.6-0.5c-0.3-0.1-0.6-0.4-0.8-0.7c-0.2-0.4-0.3-0.8-0.3-1.2
	c0-0.6,0.2-1.3,0.7-1.7c0.6-0.4,1.3-0.6,2-0.6c0.2,0,0.5,0.1,0.7,0.1l0.5,0.1L6.7,47z M1.6,54.6c0,0.2,0.1,0.5,0.4,0.6
	c0.3,0.2,0.7,0.2,1,0.2c0.5,0,1-0.1,1.5-0.3C4.8,55,5,54.8,5,54.4c0-0.2-0.1-0.4-0.3-0.5c-0.3-0.1-0.7-0.2-1-0.2H2.8
	c-0.3,0-0.6,0.1-0.8,0.2C1.7,54.1,1.6,54.4,1.6,54.6L1.6,54.6z M2.2,49.2c0,0.3,0.1,0.6,0.2,0.9c0.2,0.2,0.5,0.3,0.8,0.3
	c0.3,0,0.6-0.1,0.8-0.3c0.2-0.3,0.3-0.6,0.2-0.9c0-0.8-0.3-1.2-1-1.2C2.6,48,2.2,48.4,2.2,49.2L2.2,49.2z"/>
<path class="st1" d="M15.6,53.7h-1.8v-3.9c0-0.4-0.1-0.7-0.2-1.1c-0.2-0.2-0.5-0.4-0.8-0.4c-0.4,0-0.8,0.2-1,0.5
	c-0.2,0.5-0.4,1.1-0.3,1.7v3.1H9.6V47H11l0.2,0.9h0.1c0.2-0.3,0.5-0.6,0.8-0.7c0.4-0.2,0.8-0.3,1.2-0.3c0.8-0.1,1.6,0.3,2,1h0.2
	c0.2-0.3,0.5-0.6,0.8-0.7c0.4-0.2,0.8-0.3,1.2-0.2c0.6,0,1.2,0.2,1.7,0.6c0.4,0.5,0.6,1.2,0.6,1.9v4.3h-1.8v-3.9
	c0-0.4-0.1-0.7-0.2-1.1c-0.2-0.2-0.5-0.4-0.8-0.4c-0.4,0-0.8,0.2-1,0.5c-0.3,0.5-0.4,1-0.3,1.5V53.7z"/>
<path class="st1" d="M27.1,46.9c0.7,0,1.4,0.3,1.9,0.9c0.5,0.7,0.7,1.6,0.7,2.5c0.1,0.9-0.2,1.8-0.7,2.5c-0.8,1-2.3,1.2-3.4,0.4
	c-0.1-0.1-0.2-0.2-0.3-0.3H25l-0.3,0.7h-1.4v-9.3h1.8v2.2c0,0.3,0,0.7-0.1,1.3h0.1C25.6,47.2,26.3,46.9,27.1,46.9z M26.5,48.4
	c-0.4,0-0.8,0.1-1,0.4c-0.2,0.4-0.3,0.9-0.3,1.4v0.2c0,0.5,0.1,1.1,0.3,1.5c0.2,0.3,0.6,0.5,1,0.5c0.4,0,0.7-0.2,0.9-0.5
	c0.2-0.5,0.4-1,0.3-1.5c0-0.5-0.1-1-0.3-1.5C27.2,48.5,26.8,48.3,26.5,48.4z"/>
<path class="st1" d="M39,53.7h-1.8v-3.9c0-1-0.3-1.4-1.1-1.4c-0.4,0-0.9,0.2-1.1,0.5c-0.3,0.5-0.4,1.1-0.3,1.7v3.1h-1.8v-9.3h1.8
	v1.9c0,0.2,0,0.5,0,1v0.5h0.1c0.4-0.7,1.2-1.1,1.9-1c0.7,0,1.3,0.2,1.8,0.6c0.4,0.5,0.6,1.2,0.5,1.9V53.7z"/>
</svg>
