<?xml version="1.0" encoding="UTF-8"?><svg id="a" xmlns="http://www.w3.org/2000/svg" viewBox="0 0 215.1898881354 73"><defs><style>.b{fill:#2564bf;}.b,.c,.d{stroke-width:0px;}.c{fill:#3465af;}.d{fill:#323242;}</style></defs><path class="d" d="M38.35922438,21.7384483308c-.5265829761-.7647351019-.3343372498-1.8109720136.4295482914-2.3377096378.7640180968-.5275912017,1.8111306785-.3351868105,2.3377096378.4295502998.5284628549.7642028712.3362171287,1.8104397829-.4295482914,2.3377096378-.7638855413.5267376242-1.810998123.334333233-2.3377096378-.4295502998"/><path class="d" d="M21.722612227,33.2099267528c-.5267476663-.7638333224-.3343372498-1.8109720136.4295502998-2.3377096378.7648917584-.5274305283,1.8111286701-.3351868105,2.3385853078.4297109732.5275871849.7640421978.3351767684,1.811180889-.4295502998,2.3377096378-.76492791.5274767219-1.8111648216.3352350125-2.3385853078-.4297109732"/><path class="d" d="M36.2064819633,33.4541764342c.7640180968-.5275912017,1.8111306785-.3351868105,2.3377096378.4295502998.5284628549.7642028712.3360524384,1.8113435708-.4295603419,2.3377618567-.7640421978.5275871849-1.8111547796.3351807852-2.3377096378-.4295482914-.5267356158-.7638855413-.3343292162-1.8110262408.4295603419-2.3377638651"/><path class="d" d="M24.7346199335,16.8178765901c.7648917584-.5274305283,1.8111286701-.3351868105,2.3385853078.429709969.5275871849.7640421978.3351767684,1.8111828974-.4295583335,2.3377638651-.7649178679.5274265115-1.8111547796.3351807852-2.3385853078-.4297109732-.5267376242-.7638875497-.3343272078-1.8110262408.4295583335-2.3377628609"/><path class="d" d="M39.7093991338,28.0420193972c.1677912344-.9131611744,1.044742649-1.5170722423,1.957026145-1.3494416814.9131872838.1677972596,1.5181668299,1.0440095766,1.3503755955,1.957170751-.1678032849.9132133932-1.0447506827,1.5171264696-1.9579379665,1.34932921-.9122834959-.167630561-1.5172670588-1.0438448864-1.349463774-1.9570582796"/><path class="d" d="M19.8340088505,24.3899571407c.1677912344-.9131611744,1.0447406406-1.5170722423,1.957026145-1.3494416814.9131872838.1677972596,1.5181668299,1.0440095766,1.3503755955,1.957170751-.1678012764.9132133932-1.0447506827,1.5171264696-1.9579399749,1.34932921-.9122855043-.167630561-1.5172650504-1.0438448864-1.349463774-1.9570582796"/><path class="d" d="M29.9030273852,34.8043170449c.9131611744.1677912344,1.5172550083,1.0438950968,1.349463774,1.9570582796-.1678012764.9132154017-1.0438750127,1.517287143-1.957036187,1.3494959086-.9131872838-.1677952512-1.5172911598-1.0438468948-1.3494898834-1.9570622965.1677912344-.9131631828,1.0438750127-1.517287143,1.9570622965-1.3494918918"/><path class="d" d="M33.5550956669,14.9288986437c.9131611744.1677912344,1.5172570167,1.0438971053,1.3494657824,1.9570582796-.1678032849.9132133932-1.0438750127,1.517287143-1.957036187,1.3494959086-.9131872838-.1677972596-1.5172911598-1.0438489032-1.3494898834-1.9570633007.1677912344-.9131611744,1.0438750127-1.517287143,1.9570622965-1.3494908876"/><path class="d" d="M34.9472684396,9.1397084127c-.0217632124-.0039987593-.0450608558-.0092126112-.0668240682-.0132113705-1.2082539456-.2400129246-2.2509419835-.9359491818-2.9357701855-1.9599579325-.6839605655-1.0237943521-.9292024052-2.2529222832-.690086239-3.4613685349.2408675063-1.2081241517.9369870316-2.2516579844,1.960812012-2.9356401404,1.0239977043-.6847734725,2.2479112815-.9067183592,3.4621081346-.6890446235,2.4937958148.4951054247,4.1200837941,2.9273682218,3.6249807544,5.4211650407-.2408654979,1.2081244027-.935954705,2.2509695993-1.9599343335,2.9358013159-1.0063216216.671888972-2.2090463938.9202247788-3.3952860749.7022562451M36.2875858801,1.8258164633c-.7262076283-.1334392609-1.4626541693.0189428921-2.0785153215.4299336565-.62646158.4198529068-1.0529912198,1.0580200463-1.1995715566,1.7970684921-.1467369934.7398975043.0034564866,1.4930355013.4222456853,2.1202060527.4189719647.6263260118,1.0571386021,1.0528566559,1.7970597053,1.1996252818.7458379013.1586112599,1.4911576309-.0029503654,2.1193625173-.4224284513.6271725598-.4187897008,1.0529892114-1.0580197952,1.1995715566-1.7970682411.3038695559-1.52650352-.691048271-3.015641436-2.2185944108-3.3187681284-.0137415928-.0034578674-.0267722057-.0058524032-.0415581756-.0085687879"/><path class="d" d="M52.5086785383,35.4095938367l-.0652374183-.0119862358c-1.2089910349-.241082407-2.2518337209-.9361675972-2.9356316046-1.9608642309-.6848101262-1.0239515107-.9292024052-2.2529222832-.6900601296-3.4613630117.491953841-2.4718779542,2.8861803482-4.0916847702,5.3578393849-3.6375213135.0208594245.0038340691.0433175493.0088370371.0650526439.0128317796,2.4929201447.4949443747,4.1200837941,2.9273689749,3.6248401652,5.4220725944-.4911062888,2.4720326024-2.8860518094,4.0908291843-5.3568110751,3.6368344347M53.852474558,28.0963430746c-1.5132743248-.2780613906-2.9794030564.7139221383-3.2798382183,2.2266802997-.1476146718.7397363288.002606926,1.4928788447.4215507728,2.1192018439.4196668771.6273312248,1.0587091846,1.0540235465,1.7977506009,1.2006299927,1.5514342579.3003287158,3.0166873194-.6918174949,3.3187934847-2.2185883855.3040342461-1.5274055505-.6917592508-3.0167053952-2.2182610135-3.3205729427l-.0399956267-.0073487998"/><path class="d" d="M8.6765455055,26.7025314331c-.021737103-.0039947425-.0441932194-.0089977105-.065957436-.0129964699-1.2091296157-.2401746022-2.2509429878-.9359486797-2.9356135289-1.9608079952-.6848266956-1.0240077464-.9292280125-2.2529283085-.6902423935-3.4605194763.2408670042-1.2081233985.9359542029-2.2509701014,1.960812012-2.9356396383,1.0231230385-.684934648,2.2476356262-.9247678193,3.4612339709-.6892065521,1.2084367116.2391683851,2.2509701014.935954705,2.9350491636,1.9589482005.6846705411,1.0248573071.9290718581,2.2537758607.6899305867,3.4622165892-.239990832,1.2082840719-.9359537008,2.2509701014-1.959936342,2.9358003117-1.005472061.6720446243-2.2081616859.9203332334-3.395277037.702203022M10.0168539081,19.3886922046c-.7262086325-.1334392609-1.4617795034.0191040676-2.0778053459.4309963604-.6262948813.4189498721-1.0528250233,1.0571185179-1.1995625188,1.7970155201-.147457011.7388867682.0020164512,1.4910150332.421681822,2.118346258.4198215253.6264816642,1.0580152763,1.0530173293,1.7969025466,1.2004753445.7365278818.1505911466,1.4929109794-.0026290186,2.1202381873-.4222677779.6262948813-.4189498721,1.0528245212-1.0571185179,1.1987230002-1.7972243955.1476136676-.7397363288-.0017302517-1.4927181713-.4215527812-2.1192018439-.4196658729-.6273312248-1.0562639362-1.0526959825-1.7970416296-1.1995675398-.0137677022-.0034625118-.0267993193-.0058565455-.0415832808-.0085739344M5.8617674133,21.4419255662l.0060779736.0011166801-.0060779736-.0011166801Z"/><path class="d" d="M49.1690135786,18.6376022915c-.0217350945-.0039947425-.044349876-.0081481499-.0667959503-.0132073537-1.2082800551-.2400179457-2.2509701014-.935954705-2.9347639683-1.9606513386-.6848261935-1.0240087506-.9292024052-2.2529222832-.6900882474-3.461369037.2408654979-1.2081244027.936830375-2.2508084238,1.9608140204-2.9356396383,1.0053174129-.6711950637,2.2080060335-.9194836728,3.3942698156-.7015101179l.0669606405.01230457c1.2082800551.2400179457,2.2508054112.9368564844,2.9356115205,1.960806991,1.4133354683,2.1135511612.8429850574,4.9827975369-1.2696934464,6.3963197881-1.0064782782.6727375284-2.2092030504.9210743395-3.3963184015.7029441281M50.5102066891,11.3238715175c-.7270832984-.1335999343-1.4633731827.0179331602-2.078358665.429084347-.6274939066.420541543-1.0529811778,1.0579670743-1.1997282132,1.7979172996-.1467390018.7398980065.0027354647,1.4920252673.4224023418,2.119356492.4188153081.6271755724,1.0569819455,1.0537062165,1.7969030487,1.2004753445l.0408712968.0075094732c.7261835273.133435244,1.4624734117-.0180978504,2.0784872037-.4299389286,1.293617716-.8654271149,1.6434679829-2.6226207364.7771692148-3.9164252352-.4187912071-.6271705514-1.0569578445-1.0537011954-1.7968749309-1.2004693193,0,0-.0408712968-.0075104774-.0408712968-.0075094732Z"/><path class="d" d="M12.017306057,43.4743944397l-.066962649-.0123035658c-1.207404385-.2398572723-2.2508134448-.9368022572-2.9340449548-1.9596411046-.6855462112-1.0250199889-.9299214187-2.2539305088-.6899300846-3.4622185976.2400174436-1.2082800551.9359542029-2.2509701014,1.9598062969-2.9349487427,1.0230969291-.6849386649,2.2225509933-.930254816,3.4612073593-.6892085606,1.2093123817.2393310669,2.2511257537.9351031359,2.9357962949,1.9599624514,1.4133344641,2.113550157.8429599521,4.9827915116-1.26972056,6.3963157712-1.0063216216.6718879678-2.2090383601.92017256-3.396152707.7020423486M13.3592111516,36.1617301354c-.7270843026-.1335999343-1.4633751912.0179311517-2.0793648821.429777251-.6273362458.4196909782-1.0528516348,1.057114501-1.1995986703,1.7970637221-.1467369934.7398970022.002606926,1.4928808531.4217084336,2.1183502749l.0007200177.0010122424c.4187902029.6271725598,1.0569568403,1.0537001912,1.7968759351,1.2004713277l.040872301.0075114816c.7261815189.133435244,1.4626551735-.0189433942,2.0784892121-.4299379244,1.2936167118-.8654271149,1.6426194265-2.6227763887.7773268756-3.9172737916-.4189458553-.6263209908-1.0572691492-1.05200107-1.7970325917-1.1996197587,0,0-.039996631-.0073508082-.039996631-.007354825Z"/><path class="d" d="M43.0116874432,49.6303267332c-1.1836648898-.2174955515-2.2810160277-.894721893-3.0011743024-1.9710408825-.6846695369-1.0248593155-.929937486-2.2539907614-.6890438703-3.462110143.2389494675-1.2075449742.9357900147-2.2500663135,1.9597696433-2.9348965238,1.0239836454-.6848302103,2.2595420274-.9405780821,3.461234473-.6892045437,1.2084206443.2391101409,2.2500944313.9357940316,2.935768177,1.9599584346.6839585571,1.0237948542.9292024052,2.2529222832.6892085606,3.4612063551-.2399898278,1.2082840719-.936830375,2.250809428-1.9616896905,2.9354789649-1.0354758105.6934744394-2.2547901115.9099537316-3.3940810244.7006123553M44.3533987255,42.3185541664c-.7261835273-.133435244-1.4626300683.018947411-2.0776115336.4300985978l-.0010323266.0006868788c-.6262928729.4189518805-1.0528245212,1.0571185179-1.2004472267,1.7969070656-.1457307762.7392061066.0036111347,1.4921859407.4232780119,2.1195191739.8640172058,1.291573147,2.6212178567,1.6413993128,3.915389896.7778842115.6273251995-.4196387593,1.0528245212-1.0571185179,1.2006038833-1.7977586346.1467470355-.7399492211-.0036111347-1.4921859407-.4217074294-2.1183502749-.4203577728-.628337442-1.0578335145-1.0538608646-1.7967182743-1.2013188799l-.0417469668-.007672155-.0000080337.0000040168ZM41.7785311286,42.005441873l.0052018014.0009560067-.0052018014-.0009560067Z"/><path class="d" d="M18.1738288253,12.4776832891c-1.1836387804-.2174915346-2.2820583964-.8939817912-3.0013289506-1.9701933303-.6846705411-1.0248583113-.9299214187-2.2539325173-.6899305867-3.4622175934.2408665021-1.2081244027.936830375-2.2508084238,1.9606563597-2.9347908309,1.005472061-.6720448754,2.2081626901-.9203329823,3.3953041506-.702198252.021737103.0039939893.044349876.0081491541.0668059924.0131533775,1.2084106022.2391636151,2.2500843893.9358465015,2.9348945154,1.959797008.6848261935,1.0240087506.9292285146,2.2529273043.689210569,3.4612078614-.2399918362,1.2082850761-.9357980484,2.2501205408-1.959936342,2.9358013159-1.0372090749.6932113367-2.2563868035.9087828242-3.3956757079.6994414479M19.5154115689,5.1667673123c-.7262076283-.1334392609-1.4624995211.0180938336-2.0785153215.4299334055-.6273362458.4196919824-1.0537011954,1.0569568403-1.1995725609,1.7970682411-.1476136676.7397368309.0025798123,1.4928748279.4213961246,2.1200504003.8655787504,1.2927942648,2.622056371,1.6416091925,3.9174254272.7765034244.6271805935-.4188424218,1.052669873-1.0562679531,1.1994169085-1.7962191826.1467631028-.7398929854-.0027354647-1.4920252673-.4215266718-2.1191958186-.4196648687-.6273317269-1.0579881627-1.0530123082-1.7977526094-1.2006304948,0,0-.0408733052-.0075104774-.0408712968-.0075099753Z"/><path class="b" d="M42.1505422745,54.124036441h-.0079573503c-.6242483039,0-1.13516964.5068241644-1.1404758792,1.1337235794l-.0916240078,14.3724045717-16.7507706056-12.1618598984c-.2664326531-.1957845579-.6037524029-.266191643-.9254004708-.1900003154l-20.1384427696,4.6062694599,5.8034068145-13.2553187232c.2522070317-.5765082191-.011573506-1.2509067088-.5900093039-1.5040797893-.5765067128-.2464207808-1.2499421663.0178427814-1.5002201129.5888037513L.0971186009,63.0443425761c-.1743264524.3973573752-.110913093.8516212528.1656462915,1.1858058629.1656462915.1991627162.396393727.3375627684.6500471959.3891590148.1605828983.0337574819.3233357662.031343364.4829542475-.0057882593l21.8419217663-4.9963925152,18.1292299035,13.1644217625c.1989217061.1446703317.4330429379.2184515582.6690962674.2184515582.1757726856,0,.3525094117-.040987785.5167095955-.1234534089.3836157824-.1938604939.6235252736-.5815734481.6259353746-1.0112382278l.1063336579-16.5925976828c.0033741415-.6273814352-.5051370937-1.14240396-1.1344506266-1.1486742395Z"/><path class="d" d="M66.2892827998,47.2119469968h2.1143414735v7.1432060833h4.1548615521v2.0412190079h-6.2692030256v-9.1844250913Z"/><path class="d" d="M82.6956680427,54.6469600803l-.5836059667,1.7494160246h-2.1867650097l3.2808544775-9.1844250913h2.1867650097l3.2801555482,9.1844250913h-2.1867650097l-.5836059667-1.7494160246h-3.2070330827ZM85.3197860543,52.8244175733l-1.0202600393-3.0614750304-1.0209589686,3.0614750304h2.0412190079Z"/><path class="d" d="M103.9136432699,53.6991275941c0,1.4583159874-1.2396354696,2.6972485108-2.989055511,2.6972485108h-4.1548615521v-9.1844250913h3.9361850511c1.6769884715,0,2.8435014756,1.1658060411,2.8435014756,2.5509955461,0,1.2396354696-1.0940894678,1.7494160246-1.0940894678,1.7494160246,0,0,1.4583119706.5836059667,1.4583119706,2.1867690265l.0000080337-.0000040168ZM98.8840757139,50.8563290646h1.603159043c.5836059667,0,1.0209589686-.4373530019,1.0209589686-.9478324863,0-.5097765382-.4373530019-.9471295401-1.0209589686-.9471295401h-1.603159043s0,1.8949660432,0,1.8949620264ZM100.7059112579,54.6469600803c.6560295029,0,1.1665130041-.5104794843,1.1665130041-1.0933825049s-.5104835011-1.0933825049-1.1665130041-1.0933825049h-1.821835544v2.1867690265s1.821835544,0,1.821835544-.0000040168Z"/><path class="d" d="M116.6032269255,56.4695025873c-2.4785720099,0-4.5197910178-2.0412190079-4.5197910178-4.6653370196s2.0412190079-4.6653370196,4.5197910178-4.6653370196,4.5190840548,2.0412190079,4.5190840548,4.6653370196-2.040512045,4.6653370196-4.5190840548,4.6653370196ZM116.6032269255,49.1800395224c-1.3120590058,0-2.4054415107,1.0933825049-2.4054415107,2.6241220285s1.0933825049,2.6241220285,2.4054415107,2.6241220285,2.4054415107-1.0933825049,2.4054415107-2.6241220285-1.0933825049-2.6241220285-2.4054415107-2.6241220285Z"/><path class="d" d="M133.4469651704,47.2119469968c1.8956649725,0,3.2077239783,1.3120590058,3.2077239783,2.9152220657,0,2.0412190079-1.7346461221,2.7703749932-1.7494120078,2.7703749932l2.0412109743,3.4988280324h-2.3330179744l-1.6762895422-3.0614750304h-1.0933825049v3.0614750304h-2.1143414735v-9.1844250913h3.7175085502ZM133.4469651704,51.2936820665c.7291600021,0,1.1665130041-.4373530019,1.1665130041-1.0202560225,0-.5836059667-.4373530019-1.0209589686-1.1665130041-1.0209589686h-1.603159043v2.0412190079s1.603159043,0,1.603159043-.0000040168Z"/><path class="d" d="M147.1568008317,54.6469600803l-.5836140003,1.7494160246h-2.1867650097l3.2808544775-9.1844250913h2.1867650097l3.2801475146,9.1844250913h-2.1867650097l-.5836140003-1.7494160246h-3.207025049.0000160673ZM149.7809188433,52.8244175733l-1.0202600393-3.0614750304-1.0209670023,3.0614750304h2.0412270416Z"/><path class="d" d="M164.6572675087,56.3963720881h-2.1136425442v-7.1439090295h-2.6248249746v-2.0405160618h7.3625855304v2.0405160618h-2.6241180116v7.1439090295Z"/><path class="d" d="M179.387371243,56.4695025873c-2.4785639762,0-4.5197910178-2.0412190079-4.5197910178-4.6653370196s2.0412109743-4.6653370196,4.5197910178-4.6653370196,4.5190840548,2.0412190079,4.5190840548,4.6653370196-2.0405200786,4.6653370196-4.5190840548,4.6653370196ZM179.387371243,49.1800395224c-1.3120590058,0-2.4054415107,1.0933825049-2.4054415107,2.6241220285s1.0933825049,2.6241220285,2.4054415107,2.6241220285,2.4054415107-1.0933825049,2.4054415107-2.6241220285-1.0933825049-2.6241220285-2.4054415107-2.6241220285Z"/><path class="d" d="M196.2318084171,47.2119469968c1.8956730062,0,3.207732012,1.3120590058,3.207732012,2.9152220657,0,2.0412190079-1.7346461221,2.7703749932-1.7494120078,2.7703749932l2.0412109743,3.4988280324h-2.3330260081l-1.6762895422-3.0614750304h-1.0933825049v3.0614750304h-2.1143495071v-9.1844250913h3.7175165838ZM196.2318084171,51.2936820665c.7291519684,0,1.1665049704-.4373530019,1.1665049704-1.0202560225,0-.5836059667-.4373530019-1.0209589686-1.1665049704-1.0209589686h-1.6031670767v2.0412190079s1.6031670767,0,1.6031670767-.0000040168Z"/><path class="d" d="M210.0140676147,52.9706705381l-3.0614710136-5.7587235413h2.2598874752l1.8661412348,3.644378051,1.8513753491-3.644378051h2.2598874752l-3.0614710136,5.7587235413v3.42570155h-2.1143495071v-3.42570155Z"/><path class="b" d="M72.3874570219,23.8593995063h5.4513272042c4.4368996094,0,7.9866249589,3.5497253495,7.9866249589,7.9866249589,0,4.4371546784-3.5497253495,7.9866229505-7.9866249589,7.9866229505h-5.4513272042s0-15.9732499178,0-15.9732479093ZM77.8387842262,36.2831791436c2.4085585747,0,4.3101604294-1.9016018547,4.3101604294-4.4371566868,0-2.5352977547-1.9016018547-4.4368996094-4.3101604294-4.4368996094h-1.7748626747v8.8740562962h1.7748626747Z"/><path class="b" d="M89.7545808421,23.098707349c1.0141705174,0,1.9016018547.8874313374,1.9016018547,1.9016018547s-.8874313374,1.9016018547-1.9016018547,1.9016018547-1.9016018547-.8874313374-1.9016018547-1.9016018547.8874313374-1.9016018547,1.9016018547-1.9016018547ZM91.4027043369,39.8326474157h-3.4229861695v-11.6628324109h3.4229861695v11.6628324109Z"/><path class="c" d="M102.304587513,29.3107267105l.5072137974-1.1409096973h2.5352977547v10.6486598851c0,3.0425115521-2.2818193947,5.3243309468-5.8312876667,5.3243309468-4.3104175069,0-5.4513272042-3.9299428894-5.4513272042-3.9299428894l3.4229861695-.25347836s.50695672,1.1409096973,2.0283410347,1.1409096973c1.3943880573,0,2.4085585747-1.0141705174,2.4085585747-2.2818193947v-.6339529774s-.8874313374,1.0141705174-2.9157723721,1.0141705174c-2.9157723721,0-5.3243309468-2.4085585747-5.3243309468-5.5778093067s2.4085585747-5.5780663842,5.3243309468-5.5780663842c2.0283410347,0,3.2959899121,1.2679059548,3.2959899121,1.2679079632ZM99.5158113983,36.0294437062c1.3943880573,0,2.4085585747-1.0141705174,2.4085585747-2.4085585747s-1.0141705174-2.4088156521-2.4085585747-2.4088156521c-1.3946451348,0-2.4088156521,1.0144275948-2.4088156521,2.4088156521s1.0141705174,2.4085585747,2.4088156521,2.4085585747Z"/><path class="b" d="M109.7832274421,23.098707349c1.0141705174,0,1.9016018547.8874313374,1.9016018547,1.9016018547s-.8874313374,1.9016018547-1.9016018547,1.9016018547-1.9016018547-.8874313374-1.9016018547-1.9016018547.8874313374-1.9016018547,1.9016018547-1.9016018547ZM111.4313509369,39.8326474157h-3.4229861695v-11.6628324109h3.4229861695v11.6628324109Z"/><path class="b" d="M115.2342975689,31.3390677453h-1.7746055973v-2.9157723721h.8871742599c.8874313374,0,1.3946451348-.5072137974,1.3946451348-1.3946451348v-1.6478664173h2.9157723721v2.7890331921h2.4085585747v3.1692507321h-2.4085585747v3.8029446236c0,1.0141705174.6336958999,1.6481234947,1.5211272373,1.6481234947.5072137974,0,.8874313374-.12673918.8874313374-.12673918v3.0425115521s-.6845972339.25347836-1.6481234947.25347836c-2.6620369347,0-4.1834212494-1.5211272373-4.1834212494-4.3101604294,0,0,0-4.3101604294,0-4.310158421Z"/><path class="c" d="M133.1086351865,32.7334558026v7.0991916131h-2.5352977547l-.5072137974-1.1409096973s-1.3943880573,1.2676488773-3.422729092,1.2676488773c-2.5355548321,0-3.9299428894-1.3943880573-3.9299428894-3.2959899121,0-2.2818193947,1.6478664173-3.9299428894,6.9724544415-3.9299428894,0-1.1409096973-.6339529774-1.7748626747-1.5213843148-1.7748626747-1.2676488773,0-1.5211272373,1.1409096973-1.5211272373,1.1409096973l-3.4229861695-.25347836c.3804746174-2.2818193947,2.0283410347-3.9299428894,5.0708525868-3.9299428894,2.7890331921,0,4.8173742268,2.0283410347,4.8173742268,4.8173762352ZM129.6859060944,35.2687515488v-.50695672c-2.9157723721,0-3.5497253495.6339529774-3.5497253495,1.5213843148,0,.6336958999.5072137974,1.1409096973,1.3943880573,1.1409096973,1.2679059548,0,2.1553372921-.8874313374,2.1553372921-2.1553372921Z"/><path class="b" d="M138.9391596545,39.8326474157h-3.4229861695v-15.9732499178h3.4229861695v15.9732499178Z"/><path class="b" d="M154.5309066451,39.8326474157h-3.676207452v-12.4235245683h-4.5638958668v-3.5497253495h12.8039991857v3.5497253495h-4.5638958668v12.4235245683Z"/><path class="c" d="M166.8274349559,28.1698170132v3.549468272s-.50695672-.25347836-1.2676488773-.25347836c-1.2676488773,0-2.1550802147.8874313374-2.1550802147,2.4085565663v5.9582839242h-3.4229861695v-11.6628324109h2.5355548321l.50695672,1.2676488773s1.0141705174-1.3946451348,2.7890331921-1.3946451348c.6339529774,0,1.0141705174.1269962574,1.0141705174.1269982659Z"/><path class="c" d="M168.4750442958,35.0152731889v-6.8454581841h3.4229861695v6.2117622841c0,1.5211272373.8871742599,2.4085585747,2.1550802147,2.4085585747,1.2676488773,0,2.1550802147-.8874313374,2.1550802147-2.4085585747v-6.2117622841h3.422729092v11.6628324109h-2.5352977547l-.5072137974-1.1409096973s-1.3943880573,1.2676488773-3.422729092,1.2676488773c-2.7890331921,0-4.6906350468-1.9016018547-4.6906350468-4.9441134068Z"/><path class="c" d="M184.9544797012,36.0294437062c.12673918.7606921574.6339529774,1.2676488773,1.5213843148,1.2676488773.8871742599,0,1.3943880573-.50695672,1.3943880573-1.0139134399,0-1.2679059548-5.9582839242-.6339529774-5.9582839242-4.8173742268,0-1.9016018547,1.6481234947-3.5497253495,4.4368996094-3.5497253495,3.0425115521,0,4.5638958668,1.5213843148,4.9441134068,3.5497253495l-3.2959899121.25347836c-.12673918-.5072137974-.6339529774-1.0141705174-1.3943880573-1.0141705174-.7606921574,0-1.1411667748.38021754-1.1411667748.8874313374,0,1.2676488773,5.9582839242.6339529774,5.9582839242,4.8173742268,0,1.9016018547-1.7746055973,3.676207452-4.6903779694,3.676207452-3.1692507321,0-4.6906350468-1.5211272373-5.0708525868-3.802946632l3.2959899121-.2537354374Z"/><path class="b" d="M194.461460665,31.3390677453h-1.7746055973v-2.9157723721h.8871742599c.8874313374,0,1.3946451348-.5072137974,1.3946451348-1.3946451348v-1.6478664173h2.9157723721v2.7890331921h2.4085585747v3.1692507321h-2.4085585747v3.8029446236c0,1.0141705174.6336958999,1.6481234947,1.5211272373,1.6481234947.5072137974,0,.8874313374-.12673918.8874313374-.12673918v3.0425115521s-.6845972339.25347836-1.6481234947.25347836c-2.6620369347,0-4.1834212494-1.5211272373-4.1834212494-4.3101604294,0,0,0-4.3101604294,0-4.310158421Z"/></svg>