<svg id="Layer_1" data-name="Layer 1" xmlns="http://www.w3.org/2000/svg" viewBox="0 0 280.48 63.35"><title>Logo-Export</title><path d="M52.13,37s-11.89-21.36-12-21.7-17.12-3-17.12-3L12.55,23.24l-2.44,7.33-.6,2.33-7-1.26L12.72,11.19l15.21-6,16.63,6.9,7,10,2.17,7.23.4,4.75,0,1.75Z" transform="translate(0 0)" fill="#968bff"/><polygon points="44.33 29.87 44.34 34.02 43.51 39.56 40.18 47.05 29.93 51.31 18.51 48.93 9.64 42.11 3.88 36.68 1.88 29.98 0 25.38 0.5 37.24 9.03 51.87 25.77 56.41 35.69 55.42 46.89 46.38 46.45 32.53 45.06 29.92 44.33 29.87" fill="#968bff"/><path d="M53.76,31.67A27.11,27.11,0,0,0,27.09,9.2,17.85,17.85,0,0,0,9.22,27a18,18,0,0,0,.6,4.68A17.85,17.85,0,1,1,27.09,54.11,27.09,27.09,0,0,1,0,27v9.23a27.07,27.07,0,1,0,53.74-4.59Z" transform="translate(0 0)" fill="#5940c3"/><path d="M96.61,40.12a11.63,11.63,0,0,1-16.43.57,7.66,7.66,0,0,1-.57-.57,12.46,12.46,0,0,1-3.44-8.55A12.07,12.07,0,0,1,79.61,23a11.91,11.91,0,0,1,16.85-.15l.15.15A12.15,12.15,0,0,1,100,31.57a12.55,12.55,0,0,1-3.44,8.55M88.13,14.34a17.43,17.43,0,0,0-12.32,5.07,17,17,0,0,0-5.13,12.16,17.45,17.45,0,0,0,34.89,0,17,17,0,0,0-5.13-12.16,17.44,17.44,0,0,0-12.31-5.07" transform="translate(0 0)" fill="#5940c3"/><path d="M122.11,22.38a11.45,11.45,0,0,0-7.86,2.86V22.78h-4.6V48.41h4.6V34.8c0-2.65.71-4.69,2.12-6a7.7,7.7,0,0,1,5.74-1.88c4,0,6.08,2.35,6.08,7V48.41h4.6V33.84c0-8-3.19-11.46-10.68-11.46" transform="translate(0 0)" fill="#5940c3"/><path d="M150.79,26.87a8.72,8.72,0,0,1,8.36,6.51H142.43a8.58,8.58,0,0,1,8.36-6.51m0-4.48a13.3,13.3,0,1,0,.12,26.6,13.47,13.47,0,0,0,11.92-7.37l.27-.54h-5.54l-.11.14a8.52,8.52,0,0,1-6.66,3.29,8.72,8.72,0,0,1-8.37-6.74h21.76V35.62a13.33,13.33,0,0,0-13.39-13.23" transform="translate(0 0)" fill="#5940c3"/><path d="M210.87,45.11a9.85,9.85,0,0,1-9.63-9.51,9.66,9.66,0,0,1,9.63-9.39,9.17,9.17,0,0,1,9.15,9.2v.19a9.36,9.36,0,0,1-9.16,9.51m-.12-22.73A12.68,12.68,0,0,0,201,27v-4.2h-3.94V59.9H201V44.24a12.62,12.62,0,0,0,9.74,4.7A13.56,13.56,0,0,0,224.15,35.6a13.38,13.38,0,0,0-13.39-13.22" transform="translate(0 0)" fill="#5940c3"/><path d="M239.65,45.14a9.37,9.37,0,0,1-9.17-9.52,9.2,9.2,0,0,1,9-9.41h.19a9.68,9.68,0,0,1,9.64,9.41,9.86,9.86,0,0,1-9.64,9.52M249.53,27a12.69,12.69,0,0,0-9.76-4.59,13.38,13.38,0,0,0-13.4,13.24A13.56,13.56,0,0,0,239.77,49a12.69,12.69,0,0,0,9.76-4.7v4.18h3.94V22.79h-3.94Z" transform="translate(0 0)" fill="#5940c3"/><path d="M269.81,22.38a11.15,11.15,0,0,0-8.48,3.5V22.79h-3.95V48.4h3.95V34.78c0-5.76,3.24-8.67,8.48-8.55,4.31,0,6.67,2.5,6.67,7.56V48.4h4V33.79c0-8.15-3.19-11.41-10.62-11.41" transform="translate(0 0)" fill="#5940c3"/><path d="M181.29,28.84c-5.8-1.11-8.17-2.68-8.17-5.41s3.1-4.79,7.36-4.79c3.87,0,6.73,1.58,7.38,4h4.22c-.71-5.08-5.22-8.33-11.6-8.33-7.07,0-11.63,3.56-11.63,9.08,0,5.19,3.49,8.1,11.69,9.72,6.15,1.21,8.72,2.3,8.72,5.87,0,3.32-3.61,5.64-8.78,5.64-4.29,0-8-2.33-8.72-5.35h-4.23c.48,5.79,5.64,9.65,13,9.65,8,0,13-3.81,13-9.94,0-5.49-3.52-8.44-12.16-10.18" transform="translate(0 0)" fill="#5940c3"/><path d="M52.74,18.42A27.06,27.06,0,1,0,27.09,54.13,17.9,17.9,0,0,0,44.34,31.67,17.86,17.86,0,1,1,27.09,9.2,27.11,27.11,0,0,1,53.76,31.67a28.38,28.38,0,0,1,.4,4.6V27.06A27.54,27.54,0,0,0,52.74,18.42Z" transform="translate(0 0)" fill="#968bff"/></svg>
