<?xml version="1.0" encoding="UTF-8"?><svg id="Layer_1" xmlns="http://www.w3.org/2000/svg" xmlns:xlink="http://www.w3.org/1999/xlink" viewBox="0 0 622.58 151.47"><defs><style>.cls-1{fill:#22143d;}.cls-2{fill:url(#linear-gradient);}</style><linearGradient id="linear-gradient" x1="21.02" y1="117.08" x2="156.97" y2="38.18" gradientUnits="userSpaceOnUse"><stop offset="0" stop-color="#a726c1"/><stop offset=".88" stop-color="#803bdf"/><stop offset="1" stop-color="#7b3fe4"/></linearGradient></defs><g><path class="cls-1" d="m200.09,130.35V51.31h11.76l1.12,6.38h.56c3.36-4.37,9.07-7.5,17.02-7.5,14.55,0,26.2,11.87,26.2,29.44s-11.64,29.44-26.2,29.44c-7.84,0-13.32-3.25-16.23-6.94h-.56v28.21h-13.66Zm42.99-50.71c0-10.3-6.61-16.79-14.67-16.79s-14.67,6.49-14.67,16.79,6.61,16.79,14.67,16.79,14.67-6.49,14.67-16.79Z"/><path class="cls-1" d="m263.68,79.64c0-17.13,12.31-29.44,28.77-29.44s28.77,12.31,28.77,29.44-12.31,29.44-28.77,29.44-28.77-12.43-28.77-29.44Zm43.77,0c0-10.08-6.72-16.79-15-16.79s-15.11,6.72-15.11,16.79,6.83,16.68,15.11,16.68,15-6.6,15-16.68Z"/><path class="cls-1" d="m331.12,107.96V29.59h13.66v78.37h-13.66Z"/><path class="cls-1" d="m395.49,51.31h14.55l-24.63,68.85c-2.46,6.83-5.82,10.19-14.67,10.19h-13.21v-12.65h11.2c2.02,0,3.13-1.01,3.81-2.69l1.34-3.69-23.06-60.01h14.55l14.67,39.3h2.24l13.21-39.3Z"/><path class="cls-1" d="m412.65,110.76h13.88c.56,3.69,4.25,8.73,12.99,8.73,8.17,0,13.55-5.15,13.55-12.99v-7.95h-.56c-3.02,3.25-8.62,6.16-15.79,6.16-14.55,0-25.75-11.2-25.75-27.32s11.2-27.2,25.75-27.2c7.5,0,12.99,3.02,16.46,7.28h.56l1.12-6.16h11.87v55.19c0,15-10.08,24.97-27.21,24.97-19.14,0-26.53-12.54-26.87-20.71Zm40.42-33.36c0-8.84-6.27-15-14.22-15s-14.11,6.16-14.11,15,6.27,15.11,14.11,15.11,14.22-6.16,14.22-15.11Z"/><path class="cls-1" d="m476.22,79.64c0-17.13,12.31-29.44,28.77-29.44s28.77,12.31,28.77,29.44-12.31,29.44-28.77,29.44-28.77-12.43-28.77-29.44Zm43.77,0c0-10.08-6.72-16.79-15-16.79s-15.11,6.72-15.11,16.79,6.83,16.68,15.11,16.68,15-6.6,15-16.68Z"/><path class="cls-1" d="m543.27,107.96v-56.65h11.75l1.12,5.37h.56c2.24-2.57,7.84-6.49,16.34-6.49,12.99,0,22.39,9.4,22.39,23.73v34.03h-13.66v-32.24c0-7.28-5.15-12.54-12.2-12.54s-12.65,5.49-12.65,12.54v32.24h-13.66Z"/></g><path class="cls-2" d="m126.59,101.35l33.58-19.39c1.78-1.03,2.88-2.94,2.88-4.99v-38.78c0-2.05-1.1-3.96-2.88-4.99l-33.58-19.39c-1.78-1.03-3.99-1.02-5.76,0l-33.58,19.39c-1.78,1.03-2.88,2.94-2.88,4.99v69.3l-23.55,13.59-23.55-13.59v-27.19l23.55-13.59,15.53,8.97v-18.24l-12.65-7.31c-.87-.5-1.87-.77-2.88-.77s-2.01.27-2.88.77l-33.58,19.39c-1.78,1.03-2.88,2.94-2.88,4.99v38.78c0,2.05,1.1,3.96,2.88,4.99l33.58,19.39c1.78,1.02,3.98,1.02,5.76,0l33.58-19.39c1.78-1.03,2.88-2.94,2.88-4.99V43.98l.42-.24,23.12-13.35,23.55,13.59v27.19l-23.55,13.59-15.51-8.95v18.24l12.63,7.29c1.78,1.02,3.99,1.02,5.76,0Z"/></svg>