<?xml version="1.0" encoding="utf-8"?>
<!-- Generator: Adobe Illustrator 23.0.3, SVG Export Plug-In . SVG Version: 6.00 Build 0)  -->
<svg version="1.1" id="Layer_1" xmlns="http://www.w3.org/2000/svg" xmlns:xlink="http://www.w3.org/1999/xlink" x="0px" y="0px"
	 viewBox="0 0 158.3 105.8" style="enable-background:new 0 0 158.3 105.8;" xml:space="preserve">
<style type="text/css">
	.st0{fill:#075567;}
	.st1{fill:#059884;}
	.st2{fill:url(#SVGID_1_);}
	.st3{opacity:0.2;fill:url(#SVGID_2_);enable-background:new    ;}
	.st4{fill:#0C7290;}
	.st5{fill:url(#SVGID_3_);}
	.st6{opacity:0.2;fill:url(#SVGID_4_);enable-background:new    ;}
	.st7{opacity:0.4;fill:#205027;enable-background:new    ;}
	.st8{opacity:0.4;fill:url(#SVGID_5_);enable-background:new    ;}
	.st9{fill:url(#SVGID_6_);}
	.st10{opacity:0.2;fill:url(#SVGID_7_);enable-background:new    ;}
	.st11{opacity:0.4;fill:url(#SVGID_8_);enable-background:new    ;}
	.st12{fill:url(#SVGID_9_);}
	.st13{fill:url(#SVGID_10_);}
	.st14{opacity:0.2;}
	.st15{fill:url(#SVGID_11_);}
	.st16{fill:url(#SVGID_12_);}
	.st17{opacity:0.4;fill:url(#SVGID_13_);enable-background:new    ;}
	.st18{fill:url(#SVGID_14_);}
	.st19{opacity:0.2;fill:url(#SVGID_15_);enable-background:new    ;}
	.st20{fill:url(#SVGID_16_);}
	.st21{opacity:0.2;fill:url(#SVGID_17_);enable-background:new    ;}
	.st22{fill:url(#SVGID_18_);}
	.st23{opacity:0.2;fill:url(#SVGID_19_);enable-background:new    ;}
	.st24{fill:url(#SVGID_20_);}
	.st25{fill:url(#SVGID_21_);}
	.st26{opacity:0.2;fill:url(#SVGID_22_);enable-background:new    ;}
	.st27{fill:url(#SVGID_23_);}
	.st28{opacity:0.2;fill:url(#SVGID_24_);enable-background:new    ;}
	.st29{opacity:0.4;fill:url(#SVGID_25_);enable-background:new    ;}
	.st30{fill:url(#SVGID_26_);}
	.st31{opacity:0.2;fill:url(#SVGID_27_);enable-background:new    ;}
	.st32{fill:url(#SVGID_28_);}
	.st33{opacity:0.2;fill:url(#SVGID_29_);enable-background:new    ;}
	.st34{opacity:0.4;fill:url(#SVGID_30_);enable-background:new    ;}
	.st35{fill:url(#SVGID_31_);}
	.st36{opacity:0.4;fill:url(#SVGID_32_);enable-background:new    ;}
	.st37{opacity:0.2;fill:url(#SVGID_33_);enable-background:new    ;}
	.st38{fill:#4BB649;}
	.st39{fill:url(#SVGID_34_);}
	.st40{opacity:0.2;fill:url(#SVGID_35_);enable-background:new    ;}
	.st41{opacity:0.2;fill:url(#SVGID_36_);enable-background:new    ;}
	.st42{opacity:0.2;fill:url(#SVGID_37_);enable-background:new    ;}
</style>
<g>
	<g>
		<path class="st0" d="M33.4,85.7c-0.6,1.1-1.5,1.9-2.7,2.6c-1.2,0.6-2.7,1-4.5,1c-1.7,0-3.3-0.3-4.7-0.9s-2.5-1.5-3.3-2.6
			s-1.3-2.4-1.4-3.8h4.4c0.1,1.1,0.6,2.1,1.4,2.9c0.8,0.8,1.9,1.2,3.3,1.2c1.3,0,2.2-0.3,2.9-1s1-1.5,1-2.6c0-0.9-0.3-1.7-0.8-2.3
			c-0.5-0.6-1.1-1.1-1.9-1.4c-0.7-0.3-1.8-0.7-3.1-1.2c-1.6-0.5-2.9-1-3.9-1.5s-1.8-1.2-2.5-2.2s-1-2.2-1-3.8c0-1.4,0.3-2.6,1-3.6
			s1.6-1.8,2.9-2.4c1.3-0.6,2.7-0.8,4.3-0.8c2.6,0,4.7,0.6,6.2,1.9c1.5,1.3,2.4,2.9,2.6,4.9h-4.4c-0.2-1-0.6-1.8-1.4-2.5
			c-0.7-0.7-1.7-1-3-1c-1.2,0-2.1,0.3-2.8,0.9s-1,1.4-1,2.5c0,0.9,0.2,1.6,0.7,2.1c0.5,0.6,1.1,1,1.8,1.3s1.7,0.7,3,1.1
			c1.6,0.5,2.9,1,4,1.5c1,0.5,1.9,1.3,2.6,2.3c0.7,1,1.1,2.3,1.1,3.9C34.3,83.4,34,84.6,33.4,85.7z"/>
		<path class="st0" d="M54.5,70.1c1.4,0.8,2.4,2,3.2,3.5c0.8,1.5,1.2,3.3,1.2,5.4s-0.4,3.9-1.2,5.5c-0.8,1.5-1.8,2.7-3.2,3.5
			c-1.4,0.8-2.9,1.2-4.6,1.2c-1.8,0-3.3-0.4-4.6-1.3c-1.3-0.9-2.2-2.1-2.7-3.5v14.1h-4.1V69.1h4.1v4.6c0.5-1.5,1.4-2.6,2.7-3.5
			c1.3-0.9,2.8-1.3,4.6-1.3C51.6,68.8,53.1,69.2,54.5,70.1z M45.5,73.2c-0.9,0.5-1.6,1.3-2.2,2.3c-0.5,1-0.8,2.1-0.8,3.4
			s0.3,2.5,0.8,3.5s1.3,1.8,2.2,2.3c0.9,0.5,1.9,0.8,3.1,0.8c1.8,0,3.3-0.6,4.4-1.8c1.1-1.2,1.7-2.8,1.7-4.8s-0.6-3.6-1.7-4.8
			c-1.1-1.2-2.6-1.8-4.4-1.8C47.4,72.4,46.4,72.7,45.5,73.2z"/>
		<path class="st0" d="M69.8,69.9c1.3-0.8,2.7-1.1,4.3-1.1v4.5h-1.2c-1.8,0-3.3,0.4-4.4,1.3s-1.6,2.3-1.6,4.4v10.1h-4.1v-20h4.1V73
			C67.6,71.7,68.5,70.6,69.8,69.9z"/>
		<path class="st0" d="M95.5,69.1V89h-4.2v-4.3c-0.5,1.5-1.4,2.6-2.6,3.4c-1.3,0.8-2.7,1.2-4.4,1.2c-2.3,0-4.2-0.7-5.6-2.2
			s-2.1-3.6-2.1-6.4V69.1h4.1v11.1c0,1.8,0.5,3.2,1.4,4.2s2.2,1.5,3.8,1.5c1.6,0,2.9-0.5,3.9-1.6s1.5-2.6,1.5-4.6V69.1H95.5z"/>
		<path class="st0" d="M115.7,70.9c1.7,1.4,2.7,3.2,3.1,5.5h-4.4c-0.2-1.3-0.8-2.2-1.8-2.9c-0.9-0.7-2.1-1.1-3.5-1.1
			c-1.6,0-2.9,0.6-4,1.7c-1.1,1.1-1.6,2.8-1.6,4.9s0.5,3.8,1.6,4.9c1.1,1.1,2.4,1.7,4,1.7c1.4,0,2.6-0.4,3.5-1.1s1.5-1.7,1.8-3h4.4
			c-0.4,2.3-1.5,4.2-3.1,5.6c-1.7,1.4-3.8,2.1-6.4,2.1c-1.9,0-3.6-0.4-5.1-1.2c-1.5-0.8-2.6-2-3.5-3.5c-0.8-1.5-1.3-3.4-1.3-5.5
			s0.4-3.9,1.3-5.4c0.8-1.5,2-2.7,3.5-3.5c1.5-0.8,3.2-1.2,5.1-1.2C111.9,68.8,114,69.5,115.7,70.9z"/>
		<path class="st0" d="M141.2,79.8h-15.3c0.1,2,0.6,3.6,1.7,4.5c1.1,1,2.4,1.5,3.9,1.5c1.4,0,2.5-0.3,3.5-1s1.5-1.6,1.8-2.8h4.4
			c-0.3,1.4-0.8,2.6-1.7,3.7c-0.8,1.1-1.9,1.9-3.3,2.5c-1.3,0.6-2.9,0.9-4.5,0.9c-1.9,0-3.6-0.4-5.1-1.2c-1.5-0.8-2.6-2-3.5-3.5
			c-0.8-1.5-1.3-3.4-1.3-5.5s0.4-3.9,1.3-5.4c0.8-1.5,2-2.7,3.5-3.5s3.2-1.2,5.1-1.2c1.9,0,3.7,0.4,5.1,1.2c1.5,0.8,2.6,1.9,3.4,3.3
			c0.8,1.4,1.2,3,1.2,4.7C141.3,78.7,141.3,79.3,141.2,79.8z M136.5,74.7c-0.5-0.9-1.2-1.5-2-1.9c-0.9-0.4-1.8-0.6-2.8-0.6
			c-1.6,0-3,0.5-4,1.5c-1.1,1-1.7,2.4-1.8,4.4h11.3C137.2,76.7,137,75.6,136.5,74.7z"/>
	</g>
</g>
<g>
	<path class="st1" d="M59.5,54.6c0.2,0,0.3,0,0.5,0C59.8,54.7,59.7,54.6,59.5,54.6z"/>
	
		<linearGradient id="SVGID_1_" gradientUnits="userSpaceOnUse" x1="59.5172" y1="50.1258" x2="83.0676" y2="94.5819" gradientTransform="matrix(1 0 0 -1 0 105.1953)">
		<stop  offset="0" style="stop-color:#04715F"/>
		<stop  offset="0.8751" style="stop-color:#059884"/>
	</linearGradient>
	<path class="st2" d="M59.5,54.6c0.2,0,0.3,0,0.5,0C59.8,54.7,59.7,54.6,59.5,54.6z"/>
	
		<linearGradient id="SVGID_2_" gradientUnits="userSpaceOnUse" x1="59.5172" y1="50.1258" x2="83.0676" y2="94.5819" gradientTransform="matrix(1 0 0 -1 0 105.1953)">
		<stop  offset="0" style="stop-color:#04715F"/>
		<stop  offset="0.8751" style="stop-color:#059884"/>
	</linearGradient>
	<path class="st3" d="M59.5,54.6c0.2,0,0.3,0,0.5,0C59.8,54.7,59.7,54.6,59.5,54.6z"/>
	<path class="st4" d="M59.5,54.6L59.5,54.6L59.5,54.6z"/>
	
		<linearGradient id="SVGID_3_" gradientUnits="userSpaceOnUse" x1="59.541" y1="50.6425" x2="59.541" y2="50.6425" gradientTransform="matrix(1 0 0 -1 0 105.1953)">
		<stop  offset="0" style="stop-color:#075567"/>
		<stop  offset="0.8751" style="stop-color:#0C7290"/>
	</linearGradient>
	<path class="st5" d="M59.5,54.6L59.5,54.6L59.5,54.6z"/>
	
		<linearGradient id="SVGID_4_" gradientUnits="userSpaceOnUse" x1="59.541" y1="50.6425" x2="59.541" y2="50.6425" gradientTransform="matrix(1 0 0 -1 0 105.1953)">
		<stop  offset="0" style="stop-color:#075567"/>
		<stop  offset="0.8751" style="stop-color:#0C7290"/>
	</linearGradient>
	<path class="st6" d="M59.5,54.6L59.5,54.6L59.5,54.6z"/>
	<path class="st7" d="M59.5,54.6L59.5,54.6L59.5,54.6z"/>
	
		<linearGradient id="SVGID_5_" gradientUnits="userSpaceOnUse" x1="59.541" y1="50.6425" x2="59.541" y2="50.6425" gradientTransform="matrix(1 0 0 -1 0 105.1953)">
		<stop  offset="0" style="stop-color:#023D4B"/>
		<stop  offset="0.8751" style="stop-color:#205027"/>
	</linearGradient>
	<path class="st8" d="M59.5,54.6L59.5,54.6L59.5,54.6z"/>
	<path class="st4" d="M60.4,54.7c-0.2,0-0.3,0-0.5,0C60.1,54.7,60.3,54.7,60.4,54.7z"/>
	
		<linearGradient id="SVGID_6_" gradientUnits="userSpaceOnUse" x1="57.9118" y1="46.2402" x2="85.6564" y2="98.6138" gradientTransform="matrix(1 0 0 -1 0 105.1953)">
		<stop  offset="0" style="stop-color:#075567"/>
		<stop  offset="0.8751" style="stop-color:#0C7290"/>
	</linearGradient>
	<path class="st9" d="M60.4,54.7c-0.2,0-0.3,0-0.5,0C60.1,54.7,60.3,54.7,60.4,54.7z"/>
	
		<linearGradient id="SVGID_7_" gradientUnits="userSpaceOnUse" x1="57.9118" y1="46.2402" x2="85.6564" y2="98.6138" gradientTransform="matrix(1 0 0 -1 0 105.1953)">
		<stop  offset="0" style="stop-color:#075567"/>
		<stop  offset="0.8751" style="stop-color:#0C7290"/>
	</linearGradient>
	<path class="st10" d="M60.4,54.7c-0.2,0-0.3,0-0.5,0C60.1,54.7,60.3,54.7,60.4,54.7z"/>
	<path class="st7" d="M60.4,54.7c-0.2,0-0.3,0-0.5,0C60.1,54.7,60.3,54.7,60.4,54.7z"/>
	
		<linearGradient id="SVGID_8_" gradientUnits="userSpaceOnUse" x1="58.8492" y1="50.5425" x2="103.5385" y2="50.5425" gradientTransform="matrix(1 0 0 -1 0 105.1953)">
		<stop  offset="0" style="stop-color:#023D4B"/>
		<stop  offset="0.8751" style="stop-color:#205027"/>
	</linearGradient>
	<path class="st11" d="M60.4,54.7c-0.2,0-0.3,0-0.5,0C60.1,54.7,60.3,54.7,60.4,54.7z"/>
	<g>
		<g>
			<path class="st4" d="M84.7,12.7c-0.5-0.9-1.2-1.6-1.9-2.1c-3.4-1.7-7.9-1-10.4,2.5l-18,31.1c-2.5,4.4,0.3,9.8,5.1,10.4l0,0
				c0.2,0,0.3,0,0.5,0s0.3,0,0.5,0h8.7c-4.4,0-7.2-4.8-5-8.6l14.9-25.8c0.1-0.2,0.3-0.4,0.4-0.7c2.1-2.7,6.2-2.9,8.5-0.6
				c0.2,0.1,0.3,0.3,0.5,0.4L84.7,12.7z"/>
			<polygon class="st4" points="89,20.3 88.5,19.4 88.5,19.4 			"/>
		</g>
		<g>
			
				<linearGradient id="SVGID_9_" gradientUnits="userSpaceOnUse" x1="64.0816" y1="45.6003" x2="72.3573" y2="77.3007" gradientTransform="matrix(1 0 0 -1 0 105.1953)">
				<stop  offset="0" style="stop-color:#075567"/>
				<stop  offset="0.8751" style="stop-color:#0C7290"/>
			</linearGradient>
			<path class="st12" d="M84.7,12.7c-0.5-0.9-1.2-1.6-1.9-2.1c-3.4-1.7-7.9-1-10.4,2.5l-18,31.1c-2.5,4.4,0.3,9.8,5.1,10.4l0,0
				c0.2,0,0.3,0,0.5,0s0.3,0,0.5,0h8.7c-4.4,0-7.2-4.8-5-8.6l14.9-25.8c0.1-0.2,0.3-0.4,0.4-0.7c2.1-2.7,6.2-2.9,8.5-0.6
				c0.2,0.1,0.3,0.3,0.5,0.4L84.7,12.7z"/>
			
				<linearGradient id="SVGID_10_" gradientUnits="userSpaceOnUse" x1="77.4889" y1="42.1001" x2="85.7647" y2="73.8005" gradientTransform="matrix(1 0 0 -1 0 105.1953)">
				<stop  offset="0" style="stop-color:#075567"/>
				<stop  offset="0.8751" style="stop-color:#0C7290"/>
			</linearGradient>
			<polygon class="st13" points="89,20.3 88.5,19.4 88.5,19.4 			"/>
		</g>
		<g class="st14">
			
				<linearGradient id="SVGID_11_" gradientUnits="userSpaceOnUse" x1="64.0816" y1="45.6003" x2="72.3573" y2="77.3007" gradientTransform="matrix(1 0 0 -1 0 105.1953)">
				<stop  offset="0" style="stop-color:#075567"/>
				<stop  offset="0.8751" style="stop-color:#0C7290"/>
			</linearGradient>
			<path class="st15" d="M84.7,12.7c-0.5-0.9-1.2-1.6-1.9-2.1c-3.4-1.7-7.9-1-10.4,2.5l-18,31.1c-2.5,4.4,0.3,9.8,5.1,10.4l0,0
				c0.2,0,0.3,0,0.5,0s0.3,0,0.5,0h8.7c-4.4,0-7.2-4.8-5-8.6l14.9-25.8c0.1-0.2,0.3-0.4,0.4-0.7c2.1-2.7,6.2-2.9,8.5-0.6
				c0.2,0.1,0.3,0.3,0.5,0.4L84.7,12.7z"/>
			
				<linearGradient id="SVGID_12_" gradientUnits="userSpaceOnUse" x1="77.4889" y1="42.1001" x2="85.7647" y2="73.8005" gradientTransform="matrix(1 0 0 -1 0 105.1953)">
				<stop  offset="0" style="stop-color:#075567"/>
				<stop  offset="0.8751" style="stop-color:#0C7290"/>
			</linearGradient>
			<polygon class="st16" points="89,20.3 88.5,19.4 88.5,19.4 			"/>
		</g>
	</g>
	
		<linearGradient id="SVGID_13_" gradientUnits="userSpaceOnUse" x1="58.9347" y1="68.2417" x2="103.624" y2="68.2417" gradientTransform="matrix(1 0 0 -1 0 105.1953)">
		<stop  offset="0" style="stop-color:#023D4B"/>
		<stop  offset="0.8751" style="stop-color:#205027"/>
	</linearGradient>
	<path class="st17" d="M64.2,46l14.9-25.8c0.1-0.2,0.3-0.4,0.4-0.7c-0.3,0.3-0.5,0.6-0.7,0.9L60,48c-1.4,2.1-1.4,4.5-0.4,6.5l0,0
		c0.2,0,0.3,0,0.5,0s0.3,0,0.5,0h8.7C64.8,54.6,62,49.8,64.2,46z"/>
	<path class="st1" d="M88,19c0.4,0.4,0.7,0.8,1,1.2l-0.5-0.8C88.4,19.3,88.2,19.1,88,19z"/>
	<polygon class="st7" points="90.6,23.1 90.6,23.1 89,20.3 89,20.3 	"/>
	
		<linearGradient id="SVGID_14_" gradientUnits="userSpaceOnUse" x1="70.9355" y1="47.8547" x2="97.8334" y2="98.63" gradientTransform="matrix(1 0 0 -1 0 105.1953)">
		<stop  offset="0" style="stop-color:#36B566"/>
		<stop  offset="0.8751" style="stop-color:#56B960"/>
	</linearGradient>
	<polygon class="st18" points="90.6,23.1 90.6,23.1 89,20.3 89,20.3 	"/>
	
		<linearGradient id="SVGID_15_" gradientUnits="userSpaceOnUse" x1="70.9355" y1="47.8547" x2="97.8334" y2="98.63" gradientTransform="matrix(1 0 0 -1 0 105.1953)">
		<stop  offset="0" style="stop-color:#007A46"/>
		<stop  offset="0.8751" style="stop-color:#56B960"/>
	</linearGradient>
	<polygon class="st19" points="90.6,23.1 90.6,23.1 89,20.3 89,20.3 	"/>
	<polygon class="st4" points="90.6,23.1 89,20.3 89,20.3 	"/>
	
		<linearGradient id="SVGID_16_" gradientUnits="userSpaceOnUse" x1="67.4137" y1="41.2066" x2="95.1583" y2="93.5801" gradientTransform="matrix(1 0 0 -1 0 105.1953)">
		<stop  offset="0" style="stop-color:#075567"/>
		<stop  offset="0.8751" style="stop-color:#0C7290"/>
	</linearGradient>
	<polygon class="st20" points="90.6,23.1 89,20.3 89,20.3 	"/>
	
		<linearGradient id="SVGID_17_" gradientUnits="userSpaceOnUse" x1="67.4137" y1="41.2066" x2="95.1583" y2="93.5801" gradientTransform="matrix(1 0 0 -1 0 105.1953)">
		<stop  offset="0" style="stop-color:#075567"/>
		<stop  offset="0.8751" style="stop-color:#0C7290"/>
	</linearGradient>
	<polygon class="st21" points="90.6,23.1 89,20.3 89,20.3 	"/>
	<polygon class="st7" points="90.6,23.1 89,20.3 89,20.3 	"/>
	
		<linearGradient id="SVGID_18_" gradientUnits="userSpaceOnUse" x1="70.9355" y1="47.8546" x2="97.8335" y2="98.6299" gradientTransform="matrix(1 0 0 -1 0 105.1953)">
		<stop  offset="0" style="stop-color:#36B566"/>
		<stop  offset="0.8751" style="stop-color:#56B960"/>
	</linearGradient>
	<polygon class="st22" points="90.6,23.1 89,20.3 89,20.3 	"/>
	
		<linearGradient id="SVGID_19_" gradientUnits="userSpaceOnUse" x1="70.9355" y1="47.8546" x2="97.8335" y2="98.6299" gradientTransform="matrix(1 0 0 -1 0 105.1953)">
		<stop  offset="0" style="stop-color:#007A46"/>
		<stop  offset="0.8751" style="stop-color:#56B960"/>
	</linearGradient>
	<polygon class="st23" points="90.6,23.1 89,20.3 89,20.3 	"/>
	<path class="st1" d="M79.5,19.6c2.3-2.4,6-2.5,8.5-0.6C85.6,16.7,81.6,16.9,79.5,19.6z"/>
	
		<linearGradient id="SVGID_20_" gradientUnits="userSpaceOnUse" x1="63.6558" y1="47.9334" x2="87.2062" y2="92.3895" gradientTransform="matrix(1 0 0 -1 0 105.1953)">
		<stop  offset="0" style="stop-color:#04715F"/>
		<stop  offset="0.8751" style="stop-color:#059884"/>
	</linearGradient>
	<path class="st24" d="M79.5,19.6c2.3-2.4,6-2.5,8.5-0.6C85.6,16.7,81.6,16.9,79.5,19.6z"/>
	<polygon class="st1" points="89,20.3 89,20.3 90.6,23.1 90.6,23.1 	"/>
	
		<linearGradient id="SVGID_21_" gradientUnits="userSpaceOnUse" x1="69.3728" y1="44.9048" x2="92.9233" y2="89.3609" gradientTransform="matrix(1 0 0 -1 0 105.1953)">
		<stop  offset="0" style="stop-color:#04715F"/>
		<stop  offset="0.8751" style="stop-color:#059884"/>
	</linearGradient>
	<polygon class="st25" points="89,20.3 89,20.3 90.6,23.1 90.6,23.1 	"/>
	
		<linearGradient id="SVGID_22_" gradientUnits="userSpaceOnUse" x1="69.3728" y1="44.9048" x2="92.9233" y2="89.3609" gradientTransform="matrix(1 0 0 -1 0 105.1953)">
		<stop  offset="0" style="stop-color:#04715F"/>
		<stop  offset="0.8751" style="stop-color:#059884"/>
	</linearGradient>
	<polygon class="st26" points="89,20.3 89,20.3 90.6,23.1 90.6,23.1 	"/>
	
		<linearGradient id="SVGID_23_" gradientUnits="userSpaceOnUse" x1="70.9355" y1="47.8546" x2="97.8335" y2="98.6299" gradientTransform="matrix(1 0 0 -1 0 105.1953)">
		<stop  offset="0" style="stop-color:#36B566"/>
		<stop  offset="0.8751" style="stop-color:#56B960"/>
	</linearGradient>
	<polygon class="st27" points="89,20.3 89,20.3 90.6,23.1 90.6,23.1 	"/>
	
		<linearGradient id="SVGID_24_" gradientUnits="userSpaceOnUse" x1="70.9355" y1="47.8546" x2="97.8335" y2="98.6299" gradientTransform="matrix(1 0 0 -1 0 105.1953)">
		<stop  offset="0" style="stop-color:#007A46"/>
		<stop  offset="0.8751" style="stop-color:#56B960"/>
	</linearGradient>
	<polygon class="st28" points="89,20.3 89,20.3 90.6,23.1 90.6,23.1 	"/>
	<path class="st1" d="M70.6,50.3l13.9-19.8l1.4-2.4c1.4-2.4,4.6-2.9,6.6-1.3L90.7,23l-1.6-2.8c-0.3-0.5-0.6-0.9-1-1.2
		c-2.5-1.9-6.2-1.8-8.5,0.6c-0.2,0.2-0.3,0.4-0.4,0.7L64.1,46.1c-2.2,3.8,0.6,8.6,5,8.6h0.7C69.5,53.3,69.6,51.7,70.6,50.3z"/>
	
		<linearGradient id="SVGID_25_" gradientUnits="userSpaceOnUse" x1="58.8492" y1="69.0541" x2="103.5385" y2="69.0541" gradientTransform="matrix(1 0 0 -1 0 105.1953)">
		<stop  offset="0" style="stop-color:#023D4B"/>
		<stop  offset="0.8751" style="stop-color:#205027"/>
	</linearGradient>
	<path class="st29" d="M70.6,50.3l13.9-19.8l1.4-2.4c1.4-2.4,4.6-2.9,6.6-1.3L90.7,23l-1.6-2.8c-0.3-0.5-0.6-0.9-1-1.2
		c-2.5-1.9-6.2-1.8-8.5,0.6c-0.2,0.2-0.3,0.4-0.4,0.7L64.1,46.1c-2.2,3.8,0.6,8.6,5,8.6h0.7C69.5,53.3,69.6,51.7,70.6,50.3z"/>
	<path class="st1" d="M70.6,50.3l13.9-19.8l1.4-2.4c1.4-2.4,4.6-2.9,6.6-1.3L90.7,23l-1.6-2.8c-0.3-0.5-0.6-0.9-1-1.2
		c-2.5-1.9-6.2-1.8-8.5,0.6c-0.2,0.2-0.3,0.4-0.4,0.7L64.1,46.1c-2.2,3.8,0.6,8.6,5,8.6h0.7C69.5,53.3,69.6,51.7,70.6,50.3z"/>
	
		<linearGradient id="SVGID_26_" gradientUnits="userSpaceOnUse" x1="68.6145" y1="49.6714" x2="89.7949" y2="91.3308" gradientTransform="matrix(1 0 0 -1 0 105.1953)">
		<stop  offset="0" style="stop-color:#04715F"/>
		<stop  offset="0.6467" style="stop-color:#059884"/>
	</linearGradient>
	<path class="st30" d="M70.6,50.3l13.9-19.8l1.4-2.4c1.4-2.4,4.6-2.9,6.6-1.3L90.7,23l-1.6-2.8c-0.3-0.5-0.6-0.9-1-1.2
		c-2.5-1.9-6.2-1.8-8.5,0.6c-0.2,0.2-0.3,0.4-0.4,0.7L64.1,46.1c-2.2,3.8,0.6,8.6,5,8.6h0.7C69.5,53.3,69.6,51.7,70.6,50.3z"/>
	
		<linearGradient id="SVGID_27_" gradientUnits="userSpaceOnUse" x1="63.4073" y1="69.136" x2="92.5028" y2="69.136" gradientTransform="matrix(1 0 0 -1 0 105.1953)">
		<stop  offset="0" style="stop-color:#04715F"/>
		<stop  offset="0.8751" style="stop-color:#059884"/>
	</linearGradient>
	<path class="st31" d="M90.6,23.1L89,20.3c-0.3-0.5-0.6-0.9-1-1.2c-2.4-2.3-6.4-2.1-8.5,0.6c-0.2,0.2-0.3,0.4-0.4,0.7l-15,25.7
		c-2.2,3.8,0.6,8.6,5,8.6h0.7c-0.4-1.4-0.2-3,0.8-4.4l13.9-19.8l1.4-2.4c1.4-2.4,4.6-2.9,6.6-1.3L90.6,23.1z"/>
	<path class="st1" d="M74.4,48l10.1-17.5L70.6,50.3c-1,1.4-1.2,3-0.8,4.4h8.4C74.8,54.7,72.7,51,74.4,48z"/>
	
		<linearGradient id="SVGID_28_" gradientUnits="userSpaceOnUse" x1="70.0662" y1="44.5376" x2="93.6166" y2="88.9937" gradientTransform="matrix(1 0 0 -1 0 105.1953)">
		<stop  offset="0" style="stop-color:#04715F"/>
		<stop  offset="0.8751" style="stop-color:#059884"/>
	</linearGradient>
	<path class="st32" d="M74.4,48l10.1-17.5L70.6,50.3c-1,1.4-1.2,3-0.8,4.4h8.4C74.8,54.7,72.7,51,74.4,48z"/>
	
		<linearGradient id="SVGID_29_" gradientUnits="userSpaceOnUse" x1="70.0662" y1="44.5376" x2="93.6166" y2="88.9937" gradientTransform="matrix(1 0 0 -1 0 105.1953)">
		<stop  offset="0" style="stop-color:#04715F"/>
		<stop  offset="0.8751" style="stop-color:#059884"/>
	</linearGradient>
	<path class="st33" d="M74.4,48l10.1-17.5L70.6,50.3c-1,1.4-1.2,3-0.8,4.4h8.4C74.8,54.7,72.7,51,74.4,48z"/>
	
		<linearGradient id="SVGID_30_" gradientUnits="userSpaceOnUse" x1="58.8492" y1="62.6425" x2="103.5286" y2="62.6425" gradientTransform="matrix(1 0 0 -1 0 105.1953)">
		<stop  offset="0" style="stop-color:#023D4B"/>
		<stop  offset="0.8751" style="stop-color:#205027"/>
	</linearGradient>
	<path class="st34" d="M74.4,48l10.1-17.5L70.6,50.3c-1,1.4-1.2,3-0.8,4.4h8.4C74.8,54.7,72.7,51,74.4,48z"/>
	
		<linearGradient id="SVGID_31_" gradientUnits="userSpaceOnUse" x1="71.6288" y1="47.4874" x2="98.5267" y2="98.2627" gradientTransform="matrix(1 0 0 -1 0 105.1953)">
		<stop  offset="0" style="stop-color:#36B566"/>
		<stop  offset="0.8751" style="stop-color:#56B960"/>
	</linearGradient>
	<path class="st35" d="M74.4,48l10.1-17.5L70.6,50.3c-1,1.4-1.2,3-0.8,4.4h8.4C74.8,54.7,72.7,51,74.4,48z"/>
	
		<linearGradient id="SVGID_32_" gradientUnits="userSpaceOnUse" x1="90.771" y1="80.2168" x2="77.8813" y2="58.546" gradientTransform="matrix(1 0 0 -1 0 105.1953)">
		<stop  offset="0.1249" style="stop-color:#205027"/>
		<stop  offset="1" style="stop-color:#083D38"/>
	</linearGradient>
	<path class="st36" d="M74.4,48l10.1-17.5L70.6,50.3c-1,1.4-1.2,3-0.8,4.4h8.4C74.8,54.7,72.7,51,74.4,48z"/>
	
		<linearGradient id="SVGID_33_" gradientUnits="userSpaceOnUse" x1="71.6288" y1="47.4874" x2="98.5267" y2="98.2627" gradientTransform="matrix(1 0 0 -1 0 105.1953)">
		<stop  offset="0" style="stop-color:#007A46"/>
		<stop  offset="0.8751" style="stop-color:#56B960"/>
	</linearGradient>
	<path class="st37" d="M74.4,48l10.1-17.5L70.6,50.3c-1,1.4-1.2,3-0.8,4.4h8.4C74.8,54.7,72.7,51,74.4,48z"/>
	<path class="st38" d="M105,47.9l-1.2-2l-1.1-1.9l0,0l-5.6-9.7l4.5,7.8l0,0l-8.4-14.6c-1.7-3-6.1-3-7.9,0L73.5,47.9
		c-1.7,3,0.4,6.8,3.9,6.8h16.8h2.2h2.2h2.3C104.5,54.7,106.7,50.9,105,47.9z"/>
	
		<linearGradient id="SVGID_34_" gradientUnits="userSpaceOnUse" x1="75.4363" y1="38.4039" x2="108.1949" y2="83.0406" gradientTransform="matrix(1 0 0 -1 0 105.1953)">
		<stop  offset="0" style="stop-color:#4BB649"/>
		<stop  offset="0.8751" style="stop-color:#AFD136"/>
	</linearGradient>
	<path class="st39" d="M105,47.9l-1.2-2l-1.1-1.9l0,0l-5.6-9.7l4.5,7.8l0,0l-8.4-14.6c-1.7-3-6.1-3-7.9,0L73.5,47.9
		c-1.7,3,0.4,6.8,3.9,6.8h16.8h2.2h2.2h2.3C104.5,54.7,106.7,50.9,105,47.9z"/>
	
		<linearGradient id="SVGID_35_" gradientUnits="userSpaceOnUse" x1="76.0669" y1="38.2696" x2="106.825" y2="81.7811" gradientTransform="matrix(1 0 0 -1 0 105.1953)">
		<stop  offset="0.1249" style="stop-color:#FFFFFF;stop-opacity:0"/>
		<stop  offset="0.8913" style="stop-color:#FFFFFF"/>
	</linearGradient>
	<path class="st40" d="M105,47.9l-1.2-2l-1.1-1.9l0,0l-5.6-9.7l4.5,7.8l0,0l-8.4-14.6c-1.7-3-6.1-3-7.9,0L73.5,47.9
		c-1.7,3,0.4,6.8,3.9,6.8h16.8h2.2h2.2h2.3C104.5,54.7,106.7,50.9,105,47.9z"/>
	
		<linearGradient id="SVGID_36_" gradientUnits="userSpaceOnUse" x1="76.0669" y1="38.2696" x2="106.825" y2="81.7811" gradientTransform="matrix(1 0 0 -1 0 105.1953)">
		<stop  offset="0.1249" style="stop-color:#FFFFFF;stop-opacity:0"/>
		<stop  offset="0.8913" style="stop-color:#FFFFFF"/>
	</linearGradient>
	<path class="st41" d="M105,47.9l-1.2-2l-1.1-1.9l0,0l-5.6-9.7l4.5,7.8l0,0l-8.4-14.6c-1.7-3-6.1-3-7.9,0L73.5,47.9
		c-1.7,3,0.4,6.8,3.9,6.8h16.8h2.2h2.2h2.3C104.5,54.7,106.7,50.9,105,47.9z"/>
	
		<linearGradient id="SVGID_37_" gradientUnits="userSpaceOnUse" x1="86.7973" y1="54.2711" x2="119.4726" y2="97.2825" gradientTransform="matrix(1 0 0 -1 0 105.1953)">
		<stop  offset="0" style="stop-color:#007A46"/>
		<stop  offset="0.8751" style="stop-color:#56B960"/>
	</linearGradient>
	<path class="st42" d="M105,47.9l-1.2-2l-1.1-1.9l0,0l-5.6-9.7l4.5,7.8l0,0l-8.4-14.6c-1.7-3-6.1-3-7.9,0L73.5,47.9
		c-1.7,3,0.4,6.8,3.9,6.8h16.8h2.2h2.2h2.3C104.5,54.7,106.7,50.9,105,47.9z"/>
</g>
</svg>
