<svg width="400" height="94" viewBox="0 0 400 94" fill="none" xmlns="http://www.w3.org/2000/svg">
<path fill-rule="evenodd" clip-rule="evenodd" d="M176.174 65.7038C178.333 59.5573 179.394 53.0734 179.305 46.5537C179.39 40.0554 178.33 33.5933 176.174 27.4683C174.25 22.0144 171.252 17.0091 167.358 12.7533C163.535 8.6577 158.883 5.43847 153.717 3.31402C148.144 1.05302 142.182 -0.0720865 136.175 0.00380699C130.176 -0.0747842 124.224 1.06418 118.671 3.35282C113.525 5.49489 108.886 8.70697 105.056 12.7792C101.16 17.0232 98.1606 22.0207 96.2398 27.4683C94.0838 33.5933 93.0236 40.0554 93.1086 46.5537C93.0203 53.0734 94.0805 59.5573 96.2398 65.7038C98.1606 71.1514 101.16 76.1489 105.056 80.3929C108.88 84.4654 113.522 87.6701 118.671 89.7934C129.943 94.2068 142.446 94.2068 153.717 89.7934C158.876 87.6736 163.527 84.4687 167.358 80.3929C171.254 76.1489 174.253 71.1514 176.174 65.7038ZM169.925 29.421C171.724 34.9475 172.591 40.7386 172.491 46.5539C172.597 52.3781 171.729 58.1787 169.925 63.7127C168.346 68.4598 165.817 72.83 162.495 76.5528C159.296 80.0799 155.348 82.8337 150.945 84.6085C141.445 88.2819 130.931 88.2819 121.43 84.6085C117.033 82.8227 113.088 80.0706 109.881 76.5528C106.543 72.8326 103.997 68.4628 102.399 63.7127C100.562 58.1848 99.6682 52.383 99.7559 46.5539C99.6854 40.7547 100.583 34.9847 102.412 29.4856C103.998 24.7035 106.545 20.3018 109.894 16.5551C113.106 13.0377 117.05 10.2782 121.443 8.4735C130.934 4.74907 141.467 4.74907 150.958 8.4735C155.357 10.2671 159.303 13.0282 162.507 16.5551C165.828 20.2866 168.353 24.6658 169.925 29.421Z" fill="white"/>
<path fill-rule="evenodd" clip-rule="evenodd" d="M246.188 93.101H251.724L220.796 52.809C220.045 51.78 219.118 50.9033 218.059 50.2228C221.725 49.8175 225.315 48.8681 228.719 47.4039C231.702 46.1089 234.437 44.2694 236.791 41.973C238.996 39.7812 240.736 37.1392 241.902 34.2146C243.12 31.1251 243.728 27.8143 243.689 24.4778C243.664 16.4522 241.073 10.3661 235.916 6.21967C230.76 2.07322 223.012 0 212.673 0H189.655V93.101H196.203V50.9987H208C208.756 50.9916 209.512 51.0391 210.262 51.1409C210.808 51.1995 211.343 51.3434 211.849 51.5676C212.31 51.7576 212.734 52.0337 213.098 52.3823C213.484 52.7805 213.835 53.2132 214.148 53.6753L243.014 91.4459C243.351 91.9927 243.821 92.4385 244.376 92.739C244.946 92.9989 245.566 93.1226 246.188 93.101ZM222.445 44.5074C218.966 45.5469 215.357 46.048 211.736 45.9944H196.203V5.32739H212.686C220.675 5.33601 226.753 6.93942 230.918 10.1376C235.083 13.3358 237.166 18.2452 237.166 24.8657C237.211 27.8772 236.627 30.8633 235.454 33.6198C234.309 36.2068 232.598 38.4823 230.456 40.2661C228.083 42.2146 225.36 43.6562 222.445 44.5074Z" fill="white"/>
<path d="M296.552 87.1726C300.591 87.2472 304.602 86.4636 308.323 84.8728C311.671 83.4051 314.665 81.2234 317.1 78.4773C319.553 75.6634 321.424 72.3817 322.601 68.8259C323.882 64.9669 324.513 60.9185 324.469 56.8489V0H331.033V56.8489C331.075 61.6908 330.269 66.5022 328.653 71.0611C327.148 75.3167 324.816 79.2261 321.795 82.5601C318.759 85.8922 315.057 88.5346 310.933 90.3122C301.699 94.0339 291.404 94.0339 282.171 90.3122C278.045 88.5381 274.341 85.8952 271.308 82.5601C268.283 79.2295 265.951 75.3192 264.45 71.0611C262.834 66.5022 262.029 61.6908 262.07 56.8489V0H268.66V56.7714C268.622 60.8468 269.263 64.8997 270.553 68.7613C271.731 72.3112 273.592 75.5911 276.029 78.4127C278.443 81.1816 281.425 83.3861 284.768 84.8728C288.489 86.4775 292.506 87.2615 296.552 87.1726Z" fill="white"/>
<path d="M395.965 12.0925C395.684 12.7601 395.037 13.1928 394.322 13.1914C393.501 13.0526 392.75 12.6329 392.196 12.002C391.09 11.0512 389.916 10.1868 388.681 9.41623C386.938 8.31425 385.075 7.42054 383.13 6.75291C377.656 5.03845 371.794 5.08361 366.347 6.8822C364.036 7.73008 361.921 9.05015 360.133 10.7608C358.481 12.3536 357.179 14.2835 356.313 16.4236C355.457 18.5667 355.024 20.8598 355.04 23.1724C354.932 25.8595 355.6 28.5201 356.963 30.8262C358.289 32.8901 360.023 34.6513 362.056 35.9977C364.305 37.4753 366.72 38.6734 369.25 39.5661C371.924 40.5228 374.687 41.4795 377.514 42.4233C380.341 43.3671 383.104 44.4143 385.778 45.5391C388.36 46.62 390.781 48.0603 392.973 49.8186C395.086 51.5475 396.821 53.7052 398.066 56.1536C399.437 59.072 400.096 62.2825 399.989 65.5141C400.022 69.1925 399.378 72.845 398.091 76.2837C396.845 79.5767 394.932 82.5675 392.476 85.0623C389.907 87.626 386.847 89.6281 383.486 90.9449C379.6 92.4392 375.468 93.1676 371.313 93.0911C366.047 93.2335 360.819 92.1454 356.033 89.9106C351.767 87.7817 347.958 84.8156 344.828 81.1837L346.598 78.3652C347.002 77.7747 347.659 77.4147 348.368 77.3956C348.927 77.4818 349.442 77.7547 349.832 78.1713L351.984 80.0589C352.824 80.8217 353.843 81.6362 355.027 82.5154C356.317 83.4637 357.694 84.2821 359.14 84.9589C362.994 86.7649 367.196 87.6748 371.44 87.6222C374.684 87.6788 377.909 87.1221 380.952 85.9803C383.577 84.9724 385.973 83.4328 387.994 81.4552C389.916 79.5603 391.415 77.2674 392.387 74.7322C393.417 72.082 393.936 69.2553 393.915 66.4061C394.023 63.6232 393.352 60.8662 391.979 58.455C390.671 56.3769 388.933 54.6124 386.886 53.2835C384.639 51.8274 382.228 50.651 379.704 49.7798C377.018 48.836 374.267 47.918 371.428 47.013C368.588 46.108 365.85 45.1125 363.164 43.9877C360.573 42.9314 358.148 41.4939 355.969 39.7212C353.837 37.9598 352.1 35.7557 350.876 33.2568C349.487 30.2065 348.824 26.8671 348.941 23.5086C348.94 20.4848 349.519 17.4898 350.647 14.6912C351.789 11.8723 353.493 9.32373 355.651 7.20542C358.005 4.95277 360.775 3.1952 363.8 2.03392C367.328 0.647023 371.084 -0.041964 374.866 0.00410566C379.141 -0.0633191 383.39 0.70027 387.383 2.25371C391.179 3.82276 394.616 6.16845 397.48 9.14473L395.965 12.0925Z" fill="white"/>
<rect width="51.7241" height="27.5862" fill="white"/>
<rect x="24.1377" width="27.5862" height="93.1034" fill="white"/>
<path d="M72.4137 27.5862C80.0314 27.5862 86.2068 21.4108 86.2068 13.7931C86.2068 6.17538 80.0314 0 72.4137 0C64.796 0 58.6206 6.17538 58.6206 13.7931C58.6206 21.4108 64.796 27.5862 72.4137 27.5862Z" fill="white"/>
</svg>
