<?xml version="1.0" encoding="utf-8"?>
<!-- Generator: Adobe Illustrator 26.0.3, SVG Export Plug-In . SVG Version: 6.00 Build 0)  -->
<svg version="1.1" id="Layer_1" xmlns="http://www.w3.org/2000/svg" xmlns:xlink="http://www.w3.org/1999/xlink" x="0px" y="0px"
	 viewBox="0 0 900 900" style="enable-background:new 0 0 900 900;" xml:space="preserve">
<style type="text/css">
	.st0{fill:#2B2B2B;}
	.st1{fill:#EC1C24;}
</style>
<g>
	<g>
		<g>
			<path class="st0" d="M245.44,598.8c-106.2,0-192.6-81.24-192.6-181.09V212.63h44.99V417.7c0,75.05,66.22,136.11,147.61,136.11
				s147.61-61.06,147.61-136.11v-35.36c0-94.29,81.54-170.99,181.76-170.99s181.76,76.71,181.76,170.99v215.93h-44.99V382.35
				c0-69.48-61.36-126.01-136.78-126.01s-136.78,56.53-136.78,126.01v35.36C438.03,517.56,351.63,598.8,245.44,598.8z"/>
		</g>
		<g>
			<rect x="800.71" y="212.63" class="st0" width="44.99" height="385.64"/>
		</g>
	</g>
	<g>
		<circle class="st1" cx="823.21" cy="133.47" r="16.61"/>
		<path class="st0" d="M823.21,82.19c-28.28,0-51.28,23-51.28,51.28s23,51.28,51.28,51.28c28.28,0,51.28-23,51.28-51.28
			S851.49,82.19,823.21,82.19z M823.21,150.08c-9.17,0-16.61-7.45-16.61-16.61c0-9.17,7.44-16.61,16.61-16.61
			c9.16,0,16.61,7.44,16.61,16.61C839.82,142.63,832.36,150.08,823.21,150.08z"/>
	</g>
	<g>
		<g>
			<path class="st0" d="M54.06,695.56c0-3.7,0.6-6.15,1.79-7.34c1.19-1.19,3.63-1.78,7.34-1.78h2.58c3.7,0,6.15,0.6,7.34,1.78
				c1.19,1.19,1.78,3.64,1.78,7.34v76.76c0,9.26,2.48,15.84,7.44,19.74c4.96,3.9,12.26,5.85,21.92,5.85
				c9.65,0,16.96-1.95,21.92-5.85c4.96-3.9,7.44-10.48,7.44-19.74v-76.76c0-3.7,0.59-6.15,1.78-7.34c1.19-1.19,3.64-1.78,7.34-1.78
				h2.78c3.7,0,6.15,0.6,7.34,1.78c1.19,1.19,1.78,3.64,1.78,7.34v76.76c0,15.6-4.43,27.04-13.29,34.31
				c-8.86,7.27-21.22,10.91-37.09,10.91c-33.46,0-50.18-15.07-50.18-45.22V695.56z"/>
		</g>
		<g>
			<path class="st0" d="M201.83,806.43c0,3.57-0.59,5.95-1.78,7.14c-1.19,1.19-3.57,1.78-7.14,1.78h-2.58
				c-3.57,0-5.95-0.6-7.14-1.78c-1.19-1.19-1.78-3.57-1.78-7.14v-53.16c0-25.65,14.41-38.48,43.24-38.48
				c15.07,0,26.01,3.21,32.82,9.62c6.81,6.42,10.21,16.04,10.21,28.86v53.16c0,3.57-0.59,5.95-1.78,7.14
				c-1.19,1.19-3.57,1.78-7.14,1.78h-2.58c-3.57,0-5.95-0.6-7.14-1.78c-1.19-1.19-1.79-3.57-1.79-7.14v-53.16
				c0-3.3-0.37-6.18-1.09-8.63c-0.73-2.45-1.95-4.46-3.67-6.05c-1.72-1.59-4.03-2.78-6.94-3.57c-2.91-0.79-6.55-1.19-10.91-1.19
				c-8.86,0-14.88,1.56-18.05,4.66c-3.17,3.11-4.76,8.03-4.76,14.78V806.43z"/>
		</g>
		<g>
			<path class="st0" d="M296.43,695.56c-2.51-2.51-3.77-5.49-3.77-8.93c0-3.44,1.26-6.35,3.77-8.73c2.51-2.51,5.49-3.77,8.92-3.77
				c3.44,0,6.35,1.26,8.73,3.77c2.51,2.38,3.77,5.29,3.77,8.73c0,3.44-1.26,6.42-3.77,8.93c-2.38,2.38-5.29,3.57-8.73,3.57
				C301.92,699.13,298.94,697.94,296.43,695.56z M295.05,725.91c0-3.57,0.59-5.95,1.78-7.14c1.19-1.19,3.57-1.78,7.14-1.78h2.58
				c3.57,0,5.95,0.6,7.14,1.78c1.19,1.19,1.78,3.57,1.78,7.14v80.53c0,3.57-0.6,5.95-1.78,7.14c-1.19,1.19-3.57,1.78-7.14,1.78
				h-2.58c-3.57,0-5.95-0.6-7.14-1.78c-1.19-1.19-1.78-3.57-1.78-7.14V725.91z"/>
		</g>
		<g>
			<path class="st0" d="M496.75,786.4c-1.59,11.24-4.5,19.17-8.73,23.8c-4.23,4.63-10.98,6.94-20.23,6.94
				c-8.99,0-15.41-2.31-19.24-6.94c-3.57-4.36-6.28-12.3-8.13-23.8l-10.71-73.98c-0.53-3.44-1.06-5.65-1.59-6.64
				c-0.53-0.99-1.59-1.49-3.17-1.49c-1.46,0-2.48,0.53-3.07,1.59c-0.59,1.06-1.16,3.24-1.69,6.55l-10.51,73.98
				c-1.59,11.24-4.3,19.17-8.13,23.8c-3.84,4.63-10.25,6.94-19.24,6.94c-9.39,0-16.2-2.31-20.43-6.94
				c-4.1-4.49-6.94-12.43-8.53-23.8l-12.89-90.84c-0.53-3.7-0.3-6.15,0.69-7.34c0.99-1.19,3.34-1.78,7.04-1.78h2.78
				c3.7,0,6.21,0.6,7.54,1.78c1.32,1.19,2.25,3.64,2.78,7.34l12.69,90.84c0.66,4.89,1.59,8.13,2.78,9.72
				c1.19,1.59,3.04,2.38,5.55,2.38c2.38,0,4.16-0.82,5.35-2.48c1.19-1.65,2.18-4.86,2.98-9.62l11.5-75.57
				c0.79-4.63,1.72-8.49,2.78-11.6c1.06-3.11,2.45-5.62,4.16-7.54c1.72-1.92,3.87-3.27,6.45-4.07c2.58-0.79,5.72-1.19,9.42-1.19
				c3.7,0,6.84,0.4,9.42,1.19c2.58,0.79,4.73,2.12,6.45,3.97c1.72,1.85,3.11,4.33,4.17,7.44c1.06,3.11,1.98,7.04,2.78,11.8
				l11.7,75.57c0.79,4.76,1.78,7.97,2.98,9.62c1.19,1.65,2.98,2.48,5.35,2.48c2.51,0,4.36-0.82,5.55-2.48
				c1.19-1.65,2.11-4.86,2.78-9.62l12.69-90.84c0.53-3.7,1.45-6.15,2.78-7.34c1.32-1.19,3.83-1.78,7.54-1.78h2.78
				c3.7,0,6.05,0.6,7.04,1.78c0.99,1.19,1.22,3.64,0.69,7.34L496.75,786.4z"/>
		</g>
		<g>
			<path class="st0" d="M569.74,817.54c-16,0-27.6-3.54-34.81-10.61c-7.21-7.07-10.81-17.82-10.81-32.23v-17.06
				c0-14.01,3.73-24.66,11.21-31.93c7.47-7.27,18.94-10.91,34.41-10.91c15.87,0,27.37,3.54,34.51,10.61
				c7.14,7.08,10.71,17.82,10.71,32.23v17.06c0,13.88-3.74,24.5-11.21,31.83C596.29,813.87,584.95,817.54,569.74,817.54z
				 M594.54,757.64c0-4.1-0.4-7.67-1.19-10.71c-0.79-3.04-2.12-5.52-3.97-7.44c-1.85-1.92-4.4-3.34-7.64-4.26
				c-3.24-0.92-7.24-1.39-12-1.39c-9.65,0-16.26,1.88-19.83,5.65c-3.57,3.77-5.35,9.82-5.35,18.15v17.06c0,4.1,0.4,7.64,1.19,10.61
				c0.79,2.98,2.15,5.42,4.07,7.34c1.92,1.92,4.49,3.34,7.74,4.26c3.24,0.93,7.3,1.39,12.2,1.39c4.76,0,8.76-0.46,12-1.39
				c3.24-0.92,5.78-2.31,7.64-4.17c1.85-1.85,3.17-4.26,3.97-7.24c0.79-2.98,1.19-6.58,1.19-10.81V757.64z"/>
		</g>
		<g>
			<path class="st0" d="M658.6,806.43c0,3.57-0.6,5.95-1.78,7.14c-1.19,1.19-3.57,1.78-7.14,1.78h-2.58c-3.57,0-5.95-0.6-7.14-1.78
				c-1.19-1.19-1.78-3.57-1.78-7.14V749.9c0-23.4,12.49-35.11,37.49-35.11c0.79,0,1.52,0,2.18,0c0.66,0,1.25,0.07,1.78,0.2
				c3.3,0.4,5.52,1.19,6.64,2.38c1.12,1.19,1.69,3.5,1.69,6.94v2.78c0,3.31-0.53,5.42-1.59,6.35c-1.06,0.93-3.31,1.12-6.74,0.6
				c-0.53-0.13-1.12-0.2-1.78-0.2c-0.66,0-1.39,0-2.18,0c-6.61,0-11.11,1.39-13.49,4.17c-2.38,2.78-3.57,7.21-3.57,13.29V806.43z"/>
		</g>
		<g>
			<path class="st0" d="M706.4,685.44c0-3.57,0.6-5.95,1.78-7.14c1.19-1.19,3.57-1.78,7.14-1.78h2.58c3.57,0,5.95,0.59,7.14,1.78
				c1.19,1.19,1.78,3.57,1.78,7.14v98.18c0,5.29,0.76,8.96,2.28,11.01c1.52,2.05,3.87,3.07,7.04,3.07c3.3,0,5.39,0.46,6.25,1.39
				c0.86,0.93,1.29,3.11,1.29,6.55v1.98c0,3.31-0.53,5.49-1.59,6.55c-1.06,1.06-3.24,1.92-6.55,2.58c-0.53,0.13-1.46,0.2-2.78,0.2
				c-7.93,0-14.31-2.38-19.14-7.14c-4.83-4.76-7.24-12.16-7.24-22.21V685.44z"/>
		</g>
		<g>
			<path class="st0" d="M849.2,775.09c0,14.28-3.95,24.93-11.83,31.93c-7.88,7.01-19.05,10.51-33.49,10.51
				c-30.35,0-45.52-14.15-45.52-42.44v-17.06c0-28.82,13.82-43.24,41.45-43.24c13.88,0,23.53,4.3,28.96,12.89v-42.25
				c0-3.57,0.6-5.95,1.8-7.14c1.2-1.19,3.6-1.78,7.21-1.78h2.4c3.6,0,6.01,0.59,7.21,1.78c1.2,1.19,1.8,3.57,1.8,7.14V775.09z
				 M778.79,774.7c0,4.23,0.36,7.83,1.09,10.81c0.73,2.97,2.05,5.39,3.97,7.24c1.92,1.85,4.46,3.24,7.64,4.17
				c3.17,0.93,7.21,1.39,12.1,1.39c4.89,0,8.96-0.46,12.2-1.39c3.24-0.92,5.82-2.35,7.73-4.26c1.92-1.92,3.27-4.36,4.07-7.34
				c0.79-2.98,1.19-6.51,1.19-10.61v-17.06c0-8.33-1.78-14.38-5.35-18.15c-3.57-3.77-10.18-5.65-19.83-5.65
				c-4.76,0-8.76,0.46-12,1.39c-3.24,0.93-5.79,2.35-7.64,4.26c-1.85,1.92-3.17,4.4-3.97,7.44c-0.79,3.04-1.19,6.61-1.19,10.71
				V774.7z"/>
		</g>
	</g>
</g>
</svg>
