
<svg viewBox="0 0 268 280" version="1.1" xmlns="http://www.w3.org/2000/svg" xmlns:xlink="http://www.w3.org/1999/xlink">
    <!-- Generator: Sketch 51.3 (57544) - http://www.bohemiancoding.com/sketch -->
    <desc>Created with Sketch.</desc>
    <defs></defs>
    <g stroke="none">
		<g>
			<ellipse fill="#FFFFFF" cx="134" cy="140.5" rx="105" ry="105"></ellipse>
			<g fill="#EF4B49">
				<path d="M267.6,107.94 C266.88,111.02 265.8,117.22 263.9,123.16 C260.36,134.22 260.26,145.12 263.7,156.18 C264.96,160.22 266.08,164.32 266.98,168.44 C269.2,178.66 267.14,187.68 258.92,194.7 C254.8,198.24 250.78,201.94 246.36,205.06 C238.08,210.94 233.22,219.06 229.9,228.36 C228.42,232.5 226.92,236.64 225.22,240.7 C220.46,252.14 211.6,257.52 199.44,258.04 C193,258.32 186.56,258.64 180.12,259.16 C171.86,259.82 165.16,264.18 158.48,268.62 C154.1,271.52 149.72,274.52 145.02,276.78 C137.84,280.22 130.3,280.88 123,276.9 C118.4,274.4 113.66,271.9 109.58,268.66 C99.9,260.98 88.76,258.42 76.78,258.2 C75.6,258.18 74.4,258.2 73.22,258.18 C54.54,257.8 47.88,253.2 41.04,235.88 C40.48,234.46 39.8,233.08 39.4,231.62 C35.88,218.54 28.04,208.7 16.98,201.16 C14.18,199.26 11.68,196.92 9.14,194.66 C-1.36,185.4 -1.44,173.84 2.84,161.98 C8.22,147.1 8.18,132.54 2.8,117.76 C1.48,114.14 0.9,110.2 0.42,106.34 C-1.08,94.6 6.22,87.44 14.18,80.72 C16.26,78.96 18.38,77.28 20.62,75.72 C29,69.88 34.52,62.02 37.96,52.46 C40.02,46.74 42.3,41.06 45,35.62 C49.14,27.34 56.32,23.3 65.4,22.46 C68.44,22.18 71.5,21.48 74.52,21.68 C88.58,22.56 100.88,18.22 111.88,9.66 C112.68,9.04 113.52,8.44 114.36,7.88 C129.1,-2.04 139.26,-2.3 153.56,8.16 C165.9,17.18 179,22.82 194.6,21.72 C198.26,21.46 202.06,22.14 205.72,22.84 C214.5,24.5 220.8,29.52 224.44,37.7 C225.94,41.1 227.56,44.5 228.6,48.06 C232.32,60.82 239.76,70.66 250.6,78.26 C254.86,81.24 258.7,84.98 262.2,88.88 C266.92,94.12 267.9,97.9 267.6,107.94 Z M234.32,140.46 C234.48,82 185.82,39.2 133.98,39.64 C78.72,40.12 33.98,84.78 33.92,140.22 C33.88,194.36 78.22,240.62 136.06,240.3 C189.16,240.04 234.36,194.54 234.32,140.46 Z"></path>
				<path d="M224.28,139.58 C224.58,188.68 184.34,229.74 135.66,230.02 C84.94,230.32 44.42,190.72 44.1,140.56 C43.78,89.78 83.7,50.12 135.36,49.92 C183.56,49.74 223.98,90.5 224.28,139.58 Z"></path>
			</g>
		</g>
		<g transform="translate(77.000000, 103.000000)" fill="#FFFFFF" fill-rule="nonzero">
			<path d="M35.26,89.84 C23.68,59.98 12.32,30.7 0.8,1.04 C2.12,1.04 3.22,1.04 4.3,1.04 C9.46,1.04 14.62,1.08 19.76,1 C20.9,0.98 21.54,1.32 22.06,2.64 C27.68,16.46 33.36,30.22 39.04,44.02 C41.44,49.86 43.84,55.68 46.2,61.54 C46.5,62.26 46.74,63.4 46.48,64.02 C42.88,72.48 39.16,80.9 35.26,89.84 Z"></path>
			<path d="M41.22,1.04 C46.82,1.04 52.16,1.34 57.48,0.94 C60.86,0.68 62.46,2.04 63.9,5.72 C69.38,19.78 75.24,33.64 80.94,47.58 C82.86,52.26 84.82,56.92 86.66,61.66 C86.96,62.42 87.08,63.66 86.78,64.36 C83.2,72.7 79.54,81 75.66,89.84 C64.12,60.04 52.72,30.7 41.22,1.04 Z"></path>
			<path d="M96.4,24.56 C94.08,14.26 89.4,5.96 80.58,0.82 C90.5,0.82 99.82,0.82 108.74,0.82 C104.68,8.66 100.54,16.62 96.4,24.56 Z"></path>
		</g>
    </g>
</svg>